<?xml version="1.0" encoding="utf-8"?>
<!-- Generator: Adobe Illustrator 23.0.2, SVG Export Plug-In . SVG Version: 6.00 Build 0)  -->
<svg version="1.1" id="Capa_1" xmlns="http://www.w3.org/2000/svg" xmlns:xlink="http://www.w3.org/1999/xlink" x="0px" y="0px"
	 viewBox="0 0 281.34 73.93" style="enable-background:new 0 0 281.34 73.93;" xml:space="preserve">
<style type="text/css">
	.st0{fill:url(#SVGID_1_);}
	.st1{fill:#E8007E;}
</style>
<g>
	<g>
		<linearGradient id="SVGID_1_" gradientUnits="userSpaceOnUse" x1="0" y1="36.9673" x2="281.3398" y2="36.9673">
			<stop  offset="0" style="stop-color:#FD933F"/>
			<stop  offset="0.6367" style="stop-color:#F92080"/>
			<stop  offset="1" style="stop-color:#AC1BC6"/>
		</linearGradient>
		<path class="st0" d="M267.1,73.93H14.24C6.39,73.93,0,67.55,0,59.69V14.24C0,6.39,6.39,0,14.24,0H267.1
			c7.85,0,14.24,6.39,14.24,14.24v45.45C281.34,67.55,274.95,73.93,267.1,73.93z M14.24,5C9.15,5,5,9.15,5,14.24v45.45
			c0,5.1,4.15,9.24,9.24,9.24H267.1c5.1,0,9.24-4.15,9.24-9.24V14.24c0-5.1-4.15-9.24-9.24-9.24H14.24z"/>
	</g>
	<g>
		<g>
			<path class="st1" d="M58.48,27.7l-3.25,3.1c-2.21-2.34-4.7-3.51-7.46-3.51c-2.33,0-4.3,0.8-5.9,2.39c-1.6,1.6-2.4,3.56-2.4,5.9
				c0,1.63,0.35,3.08,1.06,4.34s1.71,2.25,3,2.97c1.29,0.72,2.73,1.08,4.31,1.08c1.35,0,2.58-0.25,3.7-0.76s2.34-1.42,3.68-2.75
				l3.15,3.29c-1.8,1.76-3.51,2.98-5.11,3.66c-1.6,0.68-3.44,1.02-5.5,1.02c-3.8,0-6.9-1.2-9.32-3.61
				c-2.42-2.41-3.63-5.49-3.63-9.26c0-2.43,0.55-4.6,1.65-6.49c1.1-1.89,2.68-3.41,4.73-4.57c2.05-1.15,4.26-1.73,6.63-1.73
				c2.01,0,3.95,0.43,5.82,1.28C55.52,24.92,57.12,26.13,58.48,27.7z"/>
		</g>
		<g>
			<path class="st1" d="M74.07,22.79c3.46,0,6.43,1.25,8.91,3.75s3.73,5.55,3.73,9.15c0,3.56-1.23,6.58-3.68,9.05
				s-5.43,3.7-8.93,3.7c-3.67,0-6.71-1.27-9.14-3.8s-3.64-5.54-3.64-9.03c0-2.33,0.56-4.48,1.69-6.44c1.13-1.96,2.68-3.51,4.66-4.66
				C69.66,23.36,71.79,22.79,74.07,22.79z M74.02,27.34c-2.26,0-4.16,0.79-5.7,2.36c-1.54,1.57-2.31,3.57-2.31,5.99
				c0,2.7,0.97,4.84,2.91,6.41c1.51,1.23,3.24,1.84,5.19,1.84c2.2,0,4.08-0.8,5.63-2.39s2.33-3.56,2.33-5.89
				c0-2.32-0.78-4.29-2.34-5.9C78.16,28.14,76.26,27.34,74.02,27.34z"/>
		</g>
		<g>
			<path class="st1" d="M93.47,23.41H98l5.66,17.03l5.71-17.03h4.53l4.1,24.42h-4.5l-2.62-15.42l-5.19,15.42h-4.1L96.45,32.4
				l-2.68,15.42h-4.53L93.47,23.41z"/>
		</g>
		<g>
			<path class="st1" d="M121.53,23.41h4.67V39.2c0,1.36,0.12,2.32,0.36,2.89c0.24,0.56,0.63,1.01,1.18,1.35s1.21,0.51,1.98,0.51
				c0.82,0,1.52-0.19,2.12-0.56c0.59-0.38,1-0.85,1.23-1.44c0.23-0.58,0.34-1.69,0.34-3.33V23.41h4.67v14.56
				c0,2.46-0.14,4.16-0.42,5.11c-0.28,0.95-0.81,1.87-1.59,2.76s-1.68,1.54-2.7,1.97c-1.02,0.43-2.2,0.64-3.55,0.64
				c-1.77,0-3.31-0.41-4.62-1.22c-1.31-0.81-2.25-1.83-2.81-3.05c-0.56-1.22-0.85-3.29-0.85-6.2V23.41z"/>
		</g>
		<g>
			<path class="st1" d="M143.48,23.41h4.46l10.45,16.07V23.41h4.65v24.42h-4.47l-10.44-16.02v16.02h-4.65V23.41z"/>
		</g>
		<g>
			<path class="st1" d="M168.28,23.41h4.62v24.42h-4.62V23.41z"/>
		</g>
		<g>
			<path class="st1" d="M178.14,23.41h5.51c3.55,0,6.19,0.44,7.91,1.32c1.73,0.88,3.15,2.31,4.26,4.29
				c1.12,1.98,1.68,4.29,1.68,6.94c0,1.88-0.31,3.61-0.94,5.19c-0.62,1.58-1.49,2.89-2.59,3.93c-1.1,1.04-2.29,1.76-3.57,2.16
				s-3.51,0.6-6.67,0.6h-5.59V23.41z M182.75,27.89v15.41h2.16c2.12,0,3.67-0.24,4.62-0.73c0.96-0.49,1.74-1.31,2.35-2.46
				c0.61-1.15,0.91-2.57,0.91-4.25c0-2.59-0.73-4.6-2.17-6.03c-1.31-1.29-3.4-1.93-6.29-1.93H182.75z"/>
		</g>
		<g>
			<path class="st1" d="M209.38,23.41h4.71l9.39,24.42h-4.83l-1.91-5.03h-9.96l-1.99,5.03h-4.83L209.38,23.41z M211.77,29.88
				l-3.28,8.38h6.53L211.77,29.88z"/>
		</g>
		<g>
			<path class="st1" d="M227.1,23.41h5.51c3.55,0,6.19,0.44,7.91,1.32c1.73,0.88,3.15,2.31,4.26,4.29c1.12,1.98,1.68,4.29,1.68,6.94
				c0,1.88-0.31,3.61-0.94,5.19c-0.62,1.58-1.49,2.89-2.59,3.93c-1.1,1.04-2.29,1.76-3.57,2.16s-3.51,0.6-6.67,0.6h-5.59V23.41z
				 M231.71,27.89v15.41h2.16c2.12,0,3.67-0.24,4.62-0.73c0.96-0.49,1.74-1.31,2.35-2.46c0.61-1.15,0.91-2.57,0.91-4.25
				c0-2.59-0.73-4.6-2.17-6.03c-1.31-1.29-3.4-1.93-6.29-1.93H231.71z"/>
		</g>
	</g>
</g>
</svg>
