<?xml version="1.0" encoding="utf-8"?>
<!-- Generator: Adobe Illustrator 23.0.2, SVG Export Plug-In . SVG Version: 6.00 Build 0)  -->
<svg version="1.1" id="Capa_1" xmlns="http://www.w3.org/2000/svg" xmlns:xlink="http://www.w3.org/1999/xlink" x="0px" y="0px"
	 viewBox="0 0 37.98 36.32" style="enable-background:new 0 0 37.98 36.32;" xml:space="preserve">
<style type="text/css">
	.st0{fill:#B1B1B1;}
</style>
<g>
	<g transform="matrix( 0.9999847412109375, 0, 0, 0.9999847412109375, 332.95,238.45) ">
		<g transform="matrix( 1, 0, 0, 1, 0,0) ">
			<g>
				<g>
					<path class="st0" d="M-295.46-225.42c-0.34-0.42-0.79-0.66-1.32-0.72l-10.73-1.32l-4.6-9.8c-0.23-0.49-0.59-0.84-1.09-1.03
						c-0.51-0.21-1.01-0.21-1.51,0c-0.51,0.2-0.88,0.54-1.1,1.03l-4.59,9.78l-10.78,1.35c-0.54,0.07-0.97,0.32-1.31,0.74
						c-0.34,0.42-0.5,0.89-0.46,1.43c0.03,0.54,0.24,0.99,0.64,1.36l7.92,7.42l-2.06,10.62c-0.11,0.53-0.02,1.02,0.27,1.47
						c0.29,0.45,0.7,0.75,1.23,0.88c0.52,0.14,1.01,0.08,1.48-0.18l9.5-5.2l9.49,5.21c0.47,0.25,0.97,0.31,1.5,0.18
						c0.52-0.14,0.92-0.43,1.21-0.88c0.28-0.45,0.38-0.94,0.29-1.47l-2.04-10.65l7.9-7.41c0.39-0.38,0.6-0.84,0.64-1.38
						C-294.95-224.52-295.11-225-295.46-225.42 M-308.15-220.33c-0.35,0.35-0.77,0.53-1.25,0.53c-0.49,0-0.91-0.18-1.25-0.53
						c-0.35-0.35-0.52-0.77-0.52-1.25c0-0.49,0.17-0.91,0.52-1.25c0.34-0.34,0.76-0.52,1.25-0.52c0.48,0,0.9,0.17,1.25,0.52
						c0.34,0.34,0.52,0.76,0.52,1.25C-307.63-221.1-307.8-220.68-308.15-220.33 M-308.28-217.04c-0.12,1.49-0.72,2.74-1.81,3.74
						c-1.09,1.03-2.39,1.54-3.89,1.54c-1.49,0-2.78-0.51-3.87-1.54c-1.1-1.01-1.7-2.26-1.81-3.74H-308.28 M-319.8-220.34
						c-0.34-0.34-0.52-0.76-0.52-1.25c0-0.48,0.17-0.9,0.52-1.25c0.34-0.35,0.76-0.53,1.25-0.53c0.49,0,0.91,0.18,1.27,0.53
						c0.34,0.35,0.52,0.77,0.52,1.25c0,0.49-0.17,0.91-0.52,1.25c-0.35,0.34-0.78,0.52-1.27,0.52
						C-319.04-219.82-319.45-219.99-319.8-220.34z"/>
				</g>
			</g>
		</g>
	</g>
</g>
</svg>
