<?xml version="1.0" encoding="utf-8"?>
<!-- Generator: Adobe Illustrator 23.0.2, SVG Export Plug-In . SVG Version: 6.00 Build 0)  -->
<svg version="1.1" id="Capa_1" xmlns="http://www.w3.org/2000/svg" xmlns:xlink="http://www.w3.org/1999/xlink" x="0px" y="0px"
	 viewBox="0 0 42.13 39.32" style="enable-background:new 0 0 42.13 39.32;" xml:space="preserve">
<style type="text/css">
	.st0{fill:#B1B1B1;}
</style>
<g>
	<path class="st0" d="M42.13,21.06c0-5.63-2.19-10.92-6.17-14.89S26.7,0,21.06,0S10.15,2.19,6.17,6.17S0,15.43,0,21.06
		c0,3.54,0.88,6.11,2.67,7.88c1.37,1.35,3.26,2.19,5.87,2.62v1.79c0,3.3,2.68,5.98,5.98,5.98h13.1c3.3,0,5.98-2.68,5.98-5.98v-1.79
		c2.61-0.43,4.49-1.28,5.86-2.62C41.26,27.18,42.13,24.61,42.13,21.06z M21.06,6.2c3.09,0,5.6,2.51,5.6,5.6s-2.51,5.6-5.6,5.6
		s-5.6-2.51-5.6-5.6S17.98,6.2,21.06,6.2z M2.49,19.17c0.34-3.47,1.62-6.71,3.73-9.47c0.99,1.04,1.57,2.43,1.57,3.88
		C7.79,16.57,5.44,19.02,2.49,19.17z M31.33,33.35c0,2.05-1.67,3.72-3.72,3.72h-13.1c-2.05,0-3.72-1.67-3.72-3.72v-2.48
		c0-3.73,3.03-6.76,6.76-6.76h6.99c0.03,0,0.06,0,0.09,0c0.08,0,0.16,0,0.24,0.01c0.06,0,0.13,0.01,0.19,0.01
		c0.05,0,0.1,0.01,0.14,0.01c0.06,0.01,0.13,0.02,0.19,0.03c0.05,0.01,0.09,0.01,0.14,0.02c0.06,0.01,0.12,0.02,0.18,0.03
		c0.05,0.01,0.1,0.02,0.15,0.03c0.05,0.01,0.11,0.03,0.16,0.04c0.05,0.01,0.11,0.03,0.16,0.04c0.05,0.01,0.1,0.03,0.14,0.04
		c0.06,0.02,0.12,0.04,0.18,0.05c0.05,0.01,0.08,0.03,0.13,0.04c0.06,0.02,0.13,0.05,0.19,0.06c0.04,0.01,0.07,0.03,0.11,0.04
		c0.07,0.03,0.14,0.05,0.21,0.08c0.03,0.01,0.06,0.03,0.09,0.04c0.07,0.03,0.14,0.06,0.21,0.09c0.03,0.01,0.05,0.03,0.08,0.05
		c0.07,0.04,0.14,0.07,0.21,0.11c0.03,0.02,0.05,0.03,0.08,0.05c0.06,0.04,0.14,0.07,0.2,0.11c0.03,0.02,0.06,0.04,0.09,0.05
		c0.06,0.04,0.12,0.07,0.18,0.12c0.04,0.03,0.07,0.05,0.11,0.07c0.05,0.04,0.1,0.07,0.15,0.11c0.05,0.03,0.08,0.06,0.13,0.1
		c0.05,0.03,0.08,0.06,0.12,0.1c0.05,0.04,0.1,0.08,0.14,0.13c0.03,0.03,0.06,0.05,0.09,0.08c0.05,0.05,0.11,0.1,0.16,0.15
		c0.03,0.02,0.05,0.05,0.07,0.06c0.05,0.05,0.12,0.12,0.17,0.17c0.02,0.02,0.04,0.04,0.05,0.06c0.05,0.06,0.11,0.12,0.16,0.18
		c0.02,0.02,0.04,0.05,0.05,0.06c0.05,0.06,0.1,0.13,0.15,0.19c0.02,0.02,0.04,0.05,0.05,0.06c0.05,0.06,0.1,0.13,0.14,0.2
		c0.02,0.02,0.04,0.05,0.05,0.06c0.05,0.07,0.09,0.14,0.14,0.21c0.01,0.02,0.03,0.04,0.04,0.06c0.05,0.07,0.09,0.15,0.14,0.23
		c0.01,0.02,0.02,0.03,0.03,0.05c0.05,0.08,0.09,0.17,0.14,0.25c0,0.01,0.01,0.01,0.01,0.02c0.43,0.86,0.68,1.81,0.71,2.79
		c0,0.02,0,0.05,0.01,0.06c0,0.06,0.01,0.12,0.01,0.18V33.35z M34.48,13.58c0-1.46,0.58-2.85,1.57-3.88
		c2.11,2.77,3.39,6.01,3.73,9.47C36.84,19.02,34.48,16.57,34.48,13.58z"/>
	<path class="st0" d="M16.74,26.03c-0.62,0-1.13,0.51-1.13,1.13v3.42c0,0.62,0.51,1.13,1.13,1.13c0.62,0,1.13-0.51,1.13-1.13v-3.42
		C17.86,26.53,17.36,26.03,16.74,26.03z"/>
	<path class="st0" d="M25.41,26.03c-0.62,0-1.13,0.51-1.13,1.13v3.42c0,0.62,0.51,1.13,1.13,1.13c0.62,0,1.13-0.51,1.13-1.13v-3.42
		C26.53,26.53,26.03,26.03,25.41,26.03z"/>
</g>
</svg>
