<?xml version="1.0" encoding="utf-8"?>
<!-- Generator: Adobe Illustrator 23.0.2, SVG Export Plug-In . SVG Version: 6.00 Build 0)  -->
<svg version="1.1" id="Capa_1" xmlns="http://www.w3.org/2000/svg" xmlns:xlink="http://www.w3.org/1999/xlink" x="0px" y="0px"
	 viewBox="0 0 327.61 30.49" style="enable-background:new 0 0 327.61 30.49;" xml:space="preserve">
<style type="text/css">
	.st0{fill:url(#SVGID_1_);}
	.st1{fill:url(#SVGID_2_);}
	.st2{fill:url(#SVGID_3_);}
	.st3{fill:url(#SVGID_4_);}
	.st4{fill:url(#SVGID_5_);}
	.st5{fill:url(#SVGID_6_);}
	.st6{fill:url(#SVGID_7_);}
	.st7{fill:url(#SVGID_8_);}
	.st8{fill:url(#SVGID_9_);}
	.st9{fill:url(#SVGID_10_);}
	.st10{fill:url(#SVGID_11_);}
	.st11{fill:url(#SVGID_12_);}
	.st12{fill:url(#SVGID_13_);}
	.st13{fill:url(#SVGID_14_);}
</style>
<g>
	<linearGradient id="SVGID_1_" gradientUnits="userSpaceOnUse" x1="-0.5679" y1="15.243" x2="339.0677" y2="15.243">
		<stop  offset="0" style="stop-color:#FD933F"/>
		<stop  offset="0.6367" style="stop-color:#F92080"/>
		<stop  offset="1" style="stop-color:#AC1BC6"/>
	</linearGradient>
	<path class="st0" d="M0,0.73h5.3l12.42,19.1V0.73h5.52v29.03h-5.31L5.52,10.71v19.04H0V0.73z"/>
	<linearGradient id="SVGID_2_" gradientUnits="userSpaceOnUse" x1="-0.5679" y1="15.243" x2="339.0677" y2="15.243">
		<stop  offset="0" style="stop-color:#FD933F"/>
		<stop  offset="0.6367" style="stop-color:#F92080"/>
		<stop  offset="1" style="stop-color:#AC1BC6"/>
	</linearGradient>
	<path class="st1" d="M43.58,0c4.11,0,7.64,1.49,10.59,4.46c2.96,2.97,4.43,6.6,4.43,10.87c0,4.24-1.46,7.82-4.37,10.75
		s-6.45,4.4-10.61,4.4c-4.36,0-7.98-1.51-10.86-4.52c-2.88-3.01-4.32-6.59-4.32-10.73c0-2.78,0.67-5.33,2.01-7.66
		s3.19-4.17,5.54-5.53C38.34,0.68,40.87,0,43.58,0z M43.52,5.41c-2.69,0-4.95,0.93-6.78,2.8S34,12.45,34,15.33
		c0,3.21,1.15,5.75,3.46,7.62c1.79,1.46,3.85,2.19,6.16,2.19c2.62,0,4.85-0.95,6.7-2.84c1.84-1.89,2.77-4.23,2.77-7
		c0-2.76-0.93-5.1-2.79-7.01C48.44,6.36,46.18,5.41,43.52,5.41z"/>
	<linearGradient id="SVGID_3_" gradientUnits="userSpaceOnUse" x1="-0.5679" y1="15.243" x2="339.0677" y2="15.243">
		<stop  offset="0" style="stop-color:#FD933F"/>
		<stop  offset="0.6367" style="stop-color:#F92080"/>
		<stop  offset="1" style="stop-color:#AC1BC6"/>
	</linearGradient>
	<path class="st2" d="M60.95,0.73h16.04v5.45h-5.29v23.58h-5.6V6.18h-5.15V0.73z"/>
	<linearGradient id="SVGID_4_" gradientUnits="userSpaceOnUse" x1="-0.5679" y1="15.243" x2="339.0677" y2="15.243">
		<stop  offset="0" style="stop-color:#FD933F"/>
		<stop  offset="0.6367" style="stop-color:#F92080"/>
		<stop  offset="1" style="stop-color:#AC1BC6"/>
	</linearGradient>
	<path class="st3" d="M80.39,0.73h5.49v29.03h-5.49V0.73z"/>
	<linearGradient id="SVGID_5_" gradientUnits="userSpaceOnUse" x1="-0.5679" y1="15.243" x2="339.0677" y2="15.243">
		<stop  offset="0" style="stop-color:#FD933F"/>
		<stop  offset="0.6367" style="stop-color:#F92080"/>
		<stop  offset="1" style="stop-color:#AC1BC6"/>
	</linearGradient>
	<path class="st4" d="M92.17,0.73h14.4v5.39h-8.92v5.27h8.92v5.31h-8.92v13.06h-5.49V0.73z"/>
	<linearGradient id="SVGID_6_" gradientUnits="userSpaceOnUse" x1="-0.5679" y1="15.243" x2="339.0677" y2="15.243">
		<stop  offset="0" style="stop-color:#FD933F"/>
		<stop  offset="0.6367" style="stop-color:#F92080"/>
		<stop  offset="1" style="stop-color:#AC1BC6"/>
	</linearGradient>
	<path class="st5" d="M111.09,0.73h5.49v29.03h-5.49V0.73z"/>
	<linearGradient id="SVGID_7_" gradientUnits="userSpaceOnUse" x1="-0.5679" y1="15.243" x2="339.0677" y2="15.243">
		<stop  offset="0" style="stop-color:#FD933F"/>
		<stop  offset="0.6367" style="stop-color:#F92080"/>
		<stop  offset="1" style="stop-color:#AC1BC6"/>
	</linearGradient>
	<path class="st6" d="M149.47,5.83l-3.86,3.68c-2.63-2.78-5.59-4.17-8.87-4.17c-2.77,0-5.11,0.95-7.01,2.84
		c-1.9,1.9-2.85,4.23-2.85,7.01c0,1.94,0.42,3.66,1.26,5.16c0.84,1.5,2.03,2.68,3.57,3.54c1.54,0.86,3.25,1.28,5.13,1.28
		c1.6,0,3.07-0.3,4.4-0.9s2.79-1.69,4.38-3.27l3.75,3.91c-2.14,2.09-4.17,3.54-6.08,4.35c-1.91,0.81-4.08,1.21-6.53,1.21
		c-4.51,0-8.21-1.43-11.08-4.29c-2.88-2.86-4.31-6.53-4.31-11c0-2.89,0.65-5.47,1.96-7.72c1.31-2.25,3.18-4.06,5.62-5.43
		c2.44-1.37,5.07-2.05,7.88-2.05c2.39,0,4.7,0.51,6.92,1.52C145.95,2.53,147.86,3.97,149.47,5.83z"/>
	<linearGradient id="SVGID_8_" gradientUnits="userSpaceOnUse" x1="-0.5679" y1="15.243" x2="339.0677" y2="15.243">
		<stop  offset="0" style="stop-color:#FD933F"/>
		<stop  offset="0.6367" style="stop-color:#F92080"/>
		<stop  offset="1" style="stop-color:#AC1BC6"/>
	</linearGradient>
	<path class="st7" d="M163.16,0.73h5.6l11.16,29.03h-5.74l-2.27-5.98h-11.84l-2.36,5.98h-5.74L163.16,0.73z M166,8.43l-3.89,9.96
		h7.77L166,8.43z"/>
	<linearGradient id="SVGID_9_" gradientUnits="userSpaceOnUse" x1="-0.5679" y1="15.243" x2="339.0677" y2="15.243">
		<stop  offset="0" style="stop-color:#FD933F"/>
		<stop  offset="0.6367" style="stop-color:#F92080"/>
		<stop  offset="1" style="stop-color:#AC1BC6"/>
	</linearGradient>
	<path class="st8" d="M210.88,5.83l-3.86,3.68c-2.63-2.78-5.59-4.17-8.87-4.17c-2.77,0-5.11,0.95-7.01,2.84
		c-1.9,1.9-2.85,4.23-2.85,7.01c0,1.94,0.42,3.66,1.26,5.16c0.84,1.5,2.03,2.68,3.57,3.54s3.25,1.28,5.13,1.28
		c1.6,0,3.07-0.3,4.4-0.9s2.79-1.69,4.38-3.27l3.75,3.91c-2.14,2.09-4.17,3.54-6.08,4.35c-1.91,0.81-4.08,1.21-6.53,1.21
		c-4.51,0-8.21-1.43-11.08-4.29c-2.88-2.86-4.31-6.53-4.31-11c0-2.89,0.65-5.47,1.96-7.72c1.31-2.25,3.18-4.06,5.62-5.43
		c2.44-1.37,5.07-2.05,7.88-2.05c2.39,0,4.7,0.51,6.92,1.52C207.36,2.53,209.27,3.97,210.88,5.83z"/>
	<linearGradient id="SVGID_10_" gradientUnits="userSpaceOnUse" x1="-0.5679" y1="15.243" x2="339.0677" y2="15.243">
		<stop  offset="0" style="stop-color:#FD933F"/>
		<stop  offset="0.6367" style="stop-color:#F92080"/>
		<stop  offset="1" style="stop-color:#AC1BC6"/>
	</linearGradient>
	<path class="st9" d="M215.32,0.73h5.49v29.03h-5.49V0.73z"/>
	<linearGradient id="SVGID_11_" gradientUnits="userSpaceOnUse" x1="-0.5679" y1="15.243" x2="339.0677" y2="15.243">
		<stop  offset="0" style="stop-color:#FD933F"/>
		<stop  offset="0.6367" style="stop-color:#F92080"/>
		<stop  offset="1" style="stop-color:#AC1BC6"/>
	</linearGradient>
	<path class="st10" d="M240.72,0c4.11,0,7.64,1.49,10.59,4.46c2.96,2.97,4.43,6.6,4.43,10.87c0,4.24-1.46,7.82-4.37,10.75
		c-2.92,2.93-6.45,4.4-10.61,4.4c-4.36,0-7.98-1.51-10.86-4.52c-2.88-3.01-4.32-6.59-4.32-10.73c0-2.78,0.67-5.33,2.01-7.66
		s3.19-4.17,5.54-5.53C235.48,0.68,238.01,0,240.72,0z M240.66,5.41c-2.69,0-4.95,0.93-6.78,2.8c-1.83,1.87-2.75,4.24-2.75,7.12
		c0,3.21,1.15,5.75,3.46,7.62c1.79,1.46,3.85,2.19,6.16,2.19c2.62,0,4.85-0.95,6.7-2.84c1.84-1.89,2.77-4.23,2.77-7
		c0-2.76-0.93-5.1-2.79-7.01C245.58,6.36,243.32,5.41,240.66,5.41z"/>
	<linearGradient id="SVGID_12_" gradientUnits="userSpaceOnUse" x1="-0.5679" y1="15.243" x2="339.0677" y2="15.243">
		<stop  offset="0" style="stop-color:#FD933F"/>
		<stop  offset="0.6367" style="stop-color:#F92080"/>
		<stop  offset="1" style="stop-color:#AC1BC6"/>
	</linearGradient>
	<path class="st11" d="M260.98,0.73h5.3l12.42,19.1V0.73h5.52v29.03h-5.31l-12.4-19.04v19.04h-5.52V0.73z"/>
	<linearGradient id="SVGID_13_" gradientUnits="userSpaceOnUse" x1="-0.5679" y1="15.243" x2="339.0677" y2="15.243">
		<stop  offset="0" style="stop-color:#FD933F"/>
		<stop  offset="0.6367" style="stop-color:#F92080"/>
		<stop  offset="1" style="stop-color:#AC1BC6"/>
	</linearGradient>
	<path class="st12" d="M290.87,0.73h15.84v5.41h-10.36v5.25h10.36v5.31h-10.36v7.64h10.36v5.43h-15.84V0.73z"/>
	<linearGradient id="SVGID_14_" gradientUnits="userSpaceOnUse" x1="-0.5679" y1="15.243" x2="339.0677" y2="15.243">
		<stop  offset="0" style="stop-color:#FD933F"/>
		<stop  offset="0.6367" style="stop-color:#F92080"/>
		<stop  offset="1" style="stop-color:#AC1BC6"/>
	</linearGradient>
	<path class="st13" d="M327.1,4.68l-4.09,3.61c-1.44-2-2.9-3-4.39-3c-0.73,0-1.32,0.19-1.78,0.58c-0.46,0.39-0.69,0.83-0.69,1.31
		s0.16,0.95,0.49,1.38c0.45,0.58,1.8,1.82,4.05,3.73c2.11,1.76,3.39,2.87,3.83,3.33c1.12,1.13,1.91,2.21,2.38,3.25
		c0.47,1.03,0.7,2.16,0.7,3.38c0,2.38-0.82,4.35-2.47,5.9c-1.65,1.55-3.79,2.33-6.44,2.33c-2.07,0-3.87-0.51-5.4-1.52
		s-2.85-2.6-3.94-4.78l4.64-2.8c1.4,2.57,3,3.85,4.82,3.85c0.95,0,1.75-0.28,2.39-0.83c0.65-0.55,0.97-1.19,0.97-1.91
		c0-0.66-0.24-1.32-0.73-1.97c-0.49-0.66-1.56-1.66-3.22-3.02c-3.16-2.58-5.2-4.57-6.13-5.97c-0.92-1.4-1.38-2.8-1.38-4.19
		c0-2.01,0.77-3.74,2.3-5.18C314.56,0.72,316.45,0,318.7,0c1.45,0,2.83,0.34,4.14,1.01C324.15,1.68,325.57,2.9,327.1,4.68z"/>
</g>
</svg>
