<?xml version="1.0" encoding="utf-8"?>
<!-- Generator: Adobe Illustrator 23.0.2, SVG Export Plug-In . SVG Version: 6.00 Build 0)  -->
<svg version="1.1" id="Capa_1" xmlns="http://www.w3.org/2000/svg" xmlns:xlink="http://www.w3.org/1999/xlink" x="0px" y="0px"
	 viewBox="0 0 130.88 86.6" style="enable-background:new 0 0 130.88 86.6;" xml:space="preserve">
<style type="text/css">
	.st0{fill:#3C3C3B;}
</style>
<path class="st0" d="M68.37,84.65l-2.93,1.95c-7.47,0-11.1-3.46-12.56-6.51H0V0h54.86c8.24,0,12.9,7.61,13.09,7.94l0.42,0.69
	L68.37,84.65z M5.86,74.23h51.82l0.26,2.64c0.05,0.28,0.56,2.76,4.57,3.6V10.35c-1.01-1.34-3.79-4.49-7.65-4.49h-49V74.23z
	 M65.44,86.6l-2.93-1.95V8.63l0.42-0.7C63.12,7.61,67.78,0,76.02,0h54.86v80.09H78C76.54,83.14,72.92,86.6,65.44,86.6z M68.37,10.35
	v70.11c4.24-0.87,4.57-3.57,4.58-3.6l0.26-2.64h51.81V5.86h-49C72.16,5.86,69.38,9,68.37,10.35z M54.53,14.98H14.81v5.86h39.72
	V14.98z M54.53,26.7H14.81v5.86h39.72V26.7z M54.53,38.42H14.81v5.86h39.72V38.42z M54.53,50.14H14.81V56h39.72V50.14z M54.53,61.86
	H14.81v5.86h39.72V61.86z"/>
</svg>
