<?xml version="1.0" encoding="utf-8"?>
<!-- Generator: Adobe Illustrator 23.0.2, SVG Export Plug-In . SVG Version: 6.00 Build 0)  -->
<svg version="1.1" id="Capa_1" xmlns="http://www.w3.org/2000/svg" xmlns:xlink="http://www.w3.org/1999/xlink" x="0px" y="0px"
	 viewBox="0 0 281.34 73.93" style="enable-background:new 0 0 281.34 73.93;" xml:space="preserve">
<style type="text/css">
	.st0{fill:url(#SVGID_1_);}
	.st1{fill:#E8007E;}
</style>
<g>
	<g>
		<linearGradient id="SVGID_1_" gradientUnits="userSpaceOnUse" x1="0" y1="36.9673" x2="281.3398" y2="36.9673">
			<stop  offset="0" style="stop-color:#FD933F"/>
			<stop  offset="0.6367" style="stop-color:#F92080"/>
			<stop  offset="1" style="stop-color:#AC1BC6"/>
		</linearGradient>
		<path class="st0" d="M267.1,73.93H14.24C6.39,73.93,0,67.55,0,59.69V14.24C0,6.39,6.39,0,14.24,0H267.1
			c7.85,0,14.24,6.39,14.24,14.24v45.45C281.34,67.55,274.95,73.93,267.1,73.93z M14.24,5C9.15,5,5,9.15,5,14.24v45.45
			c0,5.1,4.15,9.24,9.24,9.24H267.1c5.1,0,9.24-4.15,9.24-9.24V14.24c0-5.1-4.15-9.24-9.24-9.24H14.24z"/>
	</g>
	<g>
		<g>
			<path class="st1" d="M72.94,23.41h4.57l3.53,15.59l4.36-15.59h3.87l4.42,15.59l3.5-15.59h4.57l-5.5,24.42h-4.46l-4.5-15.79
				l-4.42,15.79h-4.42L72.94,23.41z"/>
		</g>
		<g>
			<path class="st1" d="M105.05,23.41h4.62v24.42h-4.62V23.41z"/>
		</g>
		<g>
			<path class="st1" d="M127.71,26.73l-3.44,3.04c-1.21-1.68-2.44-2.52-3.69-2.52c-0.61,0-1.11,0.16-1.5,0.49
				c-0.39,0.33-0.58,0.69-0.58,1.1s0.14,0.8,0.42,1.16c0.38,0.49,1.51,1.53,3.41,3.14c1.77,1.48,2.85,2.42,3.23,2.81
				c0.94,0.95,1.61,1.86,2,2.73c0.39,0.87,0.59,1.82,0.59,2.85c0,2-0.69,3.66-2.08,4.96c-1.38,1.31-3.19,1.96-5.42,1.96
				c-1.74,0-3.25-0.43-4.55-1.28c-1.29-0.85-2.4-2.19-3.32-4.02l3.91-2.36c1.18,2.16,2.53,3.24,4.06,3.24c0.8,0,1.47-0.23,2.01-0.7
				c0.54-0.46,0.81-1,0.81-1.61c0-0.55-0.21-1.11-0.62-1.66c-0.41-0.55-1.31-1.4-2.71-2.54c-2.66-2.17-4.38-3.84-5.16-5.02
				c-0.78-1.18-1.16-2.35-1.16-3.53c0-1.69,0.65-3.15,1.94-4.36c1.29-1.21,2.88-1.82,4.78-1.82c1.22,0,2.38,0.28,3.48,0.85
				S126.43,25.23,127.71,26.73z"/>
		</g>
		<g>
			<path class="st1" d="M132.56,23.41h4.71v9.21h8.15v-9.21h4.7v24.42h-4.7V37.12h-8.15v10.71h-4.71V23.41z"/>
		</g>
		<g>
			<path class="st1" d="M155.7,23.41h4.65v19.99h6.77v4.43H155.7V23.41z"/>
		</g>
		<g>
			<path class="st1" d="M170.33,23.41h4.62v24.42h-4.62V23.41z"/>
		</g>
		<g>
			<path class="st1" d="M192.99,26.73l-3.44,3.04c-1.21-1.68-2.44-2.52-3.69-2.52c-0.61,0-1.11,0.16-1.5,0.49
				c-0.39,0.33-0.58,0.69-0.58,1.1s0.14,0.8,0.42,1.16c0.38,0.49,1.51,1.53,3.41,3.14c1.77,1.48,2.85,2.42,3.23,2.81
				c0.94,0.95,1.61,1.86,2,2.73c0.39,0.87,0.59,1.82,0.59,2.85c0,2-0.69,3.66-2.08,4.96c-1.38,1.31-3.19,1.96-5.42,1.96
				c-1.74,0-3.25-0.43-4.55-1.28c-1.29-0.85-2.4-2.19-3.32-4.02l3.91-2.36c1.18,2.16,2.53,3.24,4.06,3.24c0.8,0,1.47-0.23,2.01-0.7
				c0.54-0.46,0.81-1,0.81-1.61c0-0.55-0.21-1.11-0.62-1.66c-0.41-0.55-1.31-1.4-2.71-2.54c-2.66-2.17-4.38-3.84-5.16-5.02
				c-0.78-1.18-1.16-2.35-1.16-3.53c0-1.69,0.65-3.15,1.94-4.36c1.29-1.21,2.88-1.82,4.78-1.82c1.22,0,2.38,0.28,3.48,0.85
				S191.7,25.23,192.99,26.73z"/>
		</g>
		<g>
			<path class="st1" d="M195.45,23.41h13.5v4.58h-4.45v19.84h-4.71V27.99h-4.33V23.41z"/>
		</g>
	</g>
</g>
</svg>
