<?xml version="1.0" encoding="utf-8"?>
<!-- Generator: Adobe Illustrator 23.0.2, SVG Export Plug-In . SVG Version: 6.00 Build 0)  -->
<svg version="1.1" id="Capa_1" xmlns="http://www.w3.org/2000/svg" xmlns:xlink="http://www.w3.org/1999/xlink" x="0px" y="0px"
	 viewBox="0 0 276.34 68.94" style="enable-background:new 0 0 276.34 68.94;" xml:space="preserve">
<style type="text/css">
	.st0{fill:url(#SVGID_1_);}
	.st1{fill:#FFFFFF;}
</style>
<linearGradient id="SVGID_1_" gradientUnits="userSpaceOnUse" x1="0" y1="34.4677" x2="276.34" y2="34.4677">
	<stop  offset="0" style="stop-color:#FD933F"/>
	<stop  offset="0.6367" style="stop-color:#F92080"/>
	<stop  offset="1" style="stop-color:#AC1BC6"/>
</linearGradient>
<path class="st0" d="M264.6,68.94H11.74C5.28,68.94,0,63.65,0,57.19V11.74C0,5.28,5.28,0,11.74,0H264.6
	c6.46,0,11.74,5.28,11.74,11.74v45.45C276.34,63.65,271.06,68.94,264.6,68.94z"/>
<g>
	<g>
		<path class="st1" d="M70.44,20.91h4.57l3.53,15.59l4.36-15.59h3.87l4.42,15.59l3.5-15.59h4.57l-5.5,24.42h-4.46l-4.5-15.79
			l-4.42,15.79h-4.42L70.44,20.91z"/>
		<path class="st1" d="M102.55,20.91h4.62v24.42h-4.62V20.91z"/>
		<path class="st1" d="M125.21,24.23l-3.44,3.04c-1.21-1.68-2.44-2.52-3.69-2.52c-0.61,0-1.11,0.16-1.5,0.49
			c-0.39,0.33-0.58,0.69-0.58,1.1s0.14,0.8,0.42,1.16c0.38,0.49,1.51,1.53,3.41,3.14c1.77,1.48,2.85,2.42,3.23,2.81
			c0.94,0.95,1.61,1.86,2,2.73c0.39,0.87,0.59,1.82,0.59,2.85c0,2-0.69,3.66-2.08,4.96c-1.38,1.31-3.19,1.96-5.42,1.96
			c-1.74,0-3.25-0.43-4.55-1.28c-1.29-0.85-2.4-2.19-3.32-4.02l3.91-2.36c1.18,2.16,2.53,3.24,4.06,3.24c0.8,0,1.47-0.23,2.01-0.7
			c0.54-0.46,0.81-1,0.81-1.61c0-0.55-0.21-1.11-0.62-1.66c-0.41-0.55-1.31-1.4-2.71-2.54c-2.66-2.17-4.38-3.84-5.16-5.02
			c-0.78-1.18-1.16-2.35-1.16-3.53c0-1.69,0.65-3.15,1.94-4.36c1.29-1.21,2.88-1.82,4.78-1.82c1.22,0,2.38,0.28,3.48,0.85
			S123.93,22.73,125.21,24.23z"/>
		<path class="st1" d="M130.06,20.91h4.71v9.21h8.15v-9.21h4.7v24.42h-4.7V34.62h-8.15v10.71h-4.71V20.91z"/>
		<path class="st1" d="M153.2,20.91h4.65v19.99h6.77v4.43H153.2V20.91z"/>
		<path class="st1" d="M167.83,20.91h4.62v24.42h-4.62V20.91z"/>
		<path class="st1" d="M190.49,24.23l-3.44,3.04c-1.21-1.68-2.44-2.52-3.69-2.52c-0.61,0-1.11,0.16-1.5,0.49
			c-0.39,0.33-0.58,0.69-0.58,1.1s0.14,0.8,0.42,1.16c0.38,0.49,1.51,1.53,3.41,3.14c1.77,1.48,2.85,2.42,3.23,2.81
			c0.94,0.95,1.61,1.86,2,2.73c0.39,0.87,0.59,1.82,0.59,2.85c0,2-0.69,3.66-2.08,4.96c-1.38,1.31-3.19,1.96-5.42,1.96
			c-1.74,0-3.25-0.43-4.55-1.28c-1.29-0.85-2.4-2.19-3.32-4.02l3.91-2.36c1.18,2.16,2.53,3.24,4.06,3.24c0.8,0,1.47-0.23,2.01-0.7
			c0.54-0.46,0.81-1,0.81-1.61c0-0.55-0.21-1.11-0.62-1.66c-0.41-0.55-1.31-1.4-2.71-2.54c-2.66-2.17-4.38-3.84-5.16-5.02
			c-0.78-1.18-1.16-2.35-1.16-3.53c0-1.69,0.65-3.15,1.94-4.36c1.29-1.21,2.88-1.82,4.78-1.82c1.22,0,2.38,0.28,3.48,0.85
			S189.2,22.73,190.49,24.23z"/>
		<path class="st1" d="M192.95,20.91h13.5v4.58h-4.45v19.84h-4.71V25.49h-4.33V20.91z"/>
	</g>
</g>
</svg>
