<?xml version="1.0" encoding="utf-8"?>
<!-- Generator: Adobe Illustrator 23.0.2, SVG Export Plug-In . SVG Version: 6.00 Build 0)  -->
<svg version="1.1" id="Capa_1" xmlns="http://www.w3.org/2000/svg" xmlns:xlink="http://www.w3.org/1999/xlink" x="0px" y="0px"
	 viewBox="0 0 375.31 114.68" style="enable-background:new 0 0 375.31 114.68;" xml:space="preserve">
<style type="text/css">
	.st0{fill:#FFFFFF;}
</style>
<g>
	<g>
		<g>
			<circle class="st0" cx="65.92" cy="102.5" r="12.18"/>
			<circle class="st0" cx="128.23" cy="102.5" r="12.18"/>
		</g>
		<path class="st0" d="M158.53,10.36c-0.1-0.01-0.2-0.02-0.31-0.02c-0.1,0-0.21,0.01-0.31,0.02h-25.69l-9.09,33.58l-19.29-24.05
			H89.42L71.29,43.5L59.55,2.69h-0.01c0,0,0,0,0,0c-0.14-0.57-0.43-1.09-0.81-1.51c-0.01-0.01-0.01-0.02-0.02-0.02
			c-0.12-0.14-0.26-0.26-0.4-0.38c-0.01-0.01-0.01-0.01-0.02-0.02c-0.15-0.11-0.3-0.22-0.46-0.31c0,0,0,0-0.01,0
			c-0.15-0.09-0.32-0.16-0.49-0.22c-0.03-0.01-0.05-0.02-0.08-0.03c-0.16-0.06-0.33-0.1-0.5-0.13c-0.03-0.01-0.06-0.01-0.09-0.01
			C56.48,0.02,56.3,0,56.11,0H26.46H0v17.96c0,1.88,1.52,3.4,3.4,3.4h30.03l21.22,64.69h24.87l17.34-23.09l17.73,23.09h24.87
			l22.55-70.31l0.1-0.3c0.09-0.34,0.15-0.7,0.15-1.07C162.26,12.25,160.62,10.51,158.53,10.36z"/>
	</g>
	<g>
		<g>
			<path class="st0" d="M189.35,8.67c2.05-0.43,5.29-0.76,8.58-0.76c4.7,0,7.72,0.81,9.98,2.64c1.89,1.4,3.02,3.56,3.02,6.42
				c0,3.51-2.32,6.58-6.15,7.99v0.11c3.45,0.86,7.5,3.72,7.5,9.12c0,3.13-1.24,5.5-3.08,7.29c-2.54,2.32-6.64,3.4-12.58,3.4
				c-3.24,0-5.72-0.22-7.28-0.43V8.67z M194.05,23.57h4.26c4.96,0,7.88-2.59,7.88-6.1c0-4.26-3.24-5.94-7.99-5.94
				c-2.16,0-3.4,0.16-4.16,0.32V23.57z M194.05,41c0.92,0.16,2.27,0.22,3.94,0.22c4.86,0,9.34-1.78,9.34-7.07
				c0-4.97-4.26-7.02-9.39-7.02h-3.89V41z"/>
			<path class="st0" d="M223.29,8.19v21.53c0,8.15,3.62,11.6,8.47,11.6c5.4,0,8.85-3.56,8.85-11.6V8.19h4.75V29.4
				c0,11.17-5.88,15.76-13.76,15.76c-7.45,0-13.06-4.26-13.06-15.54V8.19H223.29z"/>
			<path class="st0" d="M261.61,44.56V29.13l-11.5-20.94h5.34l5.13,10.04c1.4,2.75,2.48,4.97,3.62,7.5h0.11
				c1.03-2.37,2.27-4.75,3.67-7.5l5.24-10.04h5.34l-12.2,20.89v15.49H261.61z"/>
			<path class="st0" d="M282.33,8.67c2.05-0.43,5.29-0.76,8.58-0.76c4.7,0,7.72,0.81,9.98,2.64c1.89,1.4,3.02,3.56,3.02,6.42
				c0,3.51-2.32,6.58-6.15,7.99v0.11c3.45,0.86,7.5,3.72,7.5,9.12c0,3.13-1.24,5.5-3.08,7.29c-2.54,2.32-6.64,3.4-12.58,3.4
				c-3.24,0-5.72-0.22-7.28-0.43V8.67z M287.02,23.57h4.26c4.96,0,7.88-2.59,7.88-6.1c0-4.26-3.24-5.94-7.99-5.94
				c-2.16,0-3.4,0.16-4.16,0.32V23.57z M287.02,41c0.92,0.16,2.27,0.22,3.94,0.22c4.86,0,9.34-1.78,9.34-7.07
				c0-4.97-4.26-7.02-9.39-7.02h-3.89V41z"/>
			<path class="st0" d="M316.27,8.19v21.53c0,8.15,3.62,11.6,8.47,11.6c5.4,0,8.85-3.56,8.85-11.6V8.19h4.75V29.4
				c0,11.17-5.88,15.76-13.76,15.76c-7.45,0-13.06-4.26-13.06-15.54V8.19H316.27z"/>
			<path class="st0" d="M354.59,44.56V29.13l-11.5-20.94h5.34l5.13,10.04c1.4,2.75,2.48,4.97,3.62,7.5h0.11
				c1.02-2.37,2.27-4.75,3.67-7.5l5.23-10.04h5.34l-12.2,20.89v15.49H354.59z"/>
		</g>
		<g>
			<path class="st0" d="M206.73,59.16c4.53,0,8.69,1.35,11.44,3.24l-2.97,9.39c-1.78-1.46-4.37-2.81-7.93-2.81
				c-5.72,0-9.55,4.21-9.55,9.71c0,5.61,3.83,9.82,9.55,9.82c3.56,0,6.15-1.35,7.93-2.81l2.97,9.39c-2.75,1.89-6.91,3.24-11.44,3.24
				c-12.25,0-20.24-8.69-20.24-19.64C186.49,67.85,194.48,59.16,206.73,59.16z"/>
			<path class="st0" d="M222.65,59.86h21.16v9.39h-10.42v4.64h8.8v9.34h-8.8v5.02h10.85v9.39h-21.59V59.86z"/>
			<path class="st0" d="M249.52,59.86h10.95l12.14,21.42V59.86h10.58v37.78h-10.69l-12.47-21.1v21.1h-10.52V59.86z"/>
			<path class="st0" d="M295.01,69.25h-7.72v-9.39h26.28v9.39h-7.82v28.39h-10.74V69.25z"/>
			<path class="st0" d="M317.57,59.86h21.15v9.39h-10.42v4.64h8.8v9.34h-8.8v5.02h10.85v9.39h-21.59V59.86z"/>
			<path class="st0" d="M344.44,59.86h13.33c9.39,0,13.87,4.53,13.87,11.93c0,4.05-1.73,7.93-4.97,9.98l8.64,15.87h-11.82
				l-6.37-13.33h-1.94v13.33h-10.74V59.86z M356.96,75.57c2.43,0,3.72-1.46,3.72-3.4c0-2.11-1.3-3.29-3.72-3.29h-1.78v6.69H356.96z"
				/>
		</g>
	</g>
</g>
</svg>
