<?xml version="1.0" encoding="utf-8"?>
<!-- Generator: Adobe Illustrator 23.0.2, SVG Export Plug-In . SVG Version: 6.00 Build 0)  -->
<svg version="1.1" id="Capa_1" xmlns="http://www.w3.org/2000/svg" xmlns:xlink="http://www.w3.org/1999/xlink" x="0px" y="0px"
	 viewBox="0 0 63.37 55.75" style="enable-background:new 0 0 63.37 55.75;" xml:space="preserve">
<style type="text/css">
	.st0{fill:url(#SVGID_1_);}
</style>
<linearGradient id="SVGID_1_" gradientUnits="userSpaceOnUse" x1="-9.094947e-13" y1="27.8768" x2="63.3742" y2="27.8768">
	<stop  offset="0" style="stop-color:#FC9449"/>
	<stop  offset="0.6367" style="stop-color:#F72981"/>
	<stop  offset="1" style="stop-color:#AB29C4"/>
</linearGradient>
<path class="st0" d="M62.62,21.25l-10.75-7.52V2.02c0-0.97-0.79-1.76-1.76-1.76h-6.23c-0.97,0-1.76,0.79-1.76,1.76v4.89L32.7,0.32
	c-0.61-0.42-1.41-0.42-2.02,0L0.75,21.25c-0.8,0.56-0.99,1.65-0.43,2.45c0.56,0.8,1.65,0.99,2.45,0.44l5.26-3.68v33.54
	c0,0.97,0.79,1.76,1.76,1.76h11.89c0.97,0,1.76-0.79,1.76-1.76V32.18h16.49v21.81c0,0.97,0.79,1.76,1.76,1.76h11.89
	c0.97,0,1.76-0.79,1.76-1.76V20.45l5.26,3.68c0.31,0.21,0.66,0.32,1.01,0.32c0.56,0,1.1-0.26,1.45-0.75
	C63.61,22.9,63.42,21.8,62.62,21.25z M48.35,3.78v7.49l-2.71-1.89V3.78H48.35z M51.82,52.23h-8.37V30.42c0-0.97-0.79-1.76-1.76-1.76
	H21.68c-0.97,0-1.76,0.79-1.76,1.76v21.82h-8.37V17.99L31.69,3.91l20.14,14.08V52.23z"/>
</svg>
