<?xml version="1.0" encoding="utf-8"?>
<!-- Generator: Adobe Illustrator 23.0.2, SVG Export Plug-In . SVG Version: 6.00 Build 0)  -->
<svg version="1.1" id="Capa_1" xmlns="http://www.w3.org/2000/svg" xmlns:xlink="http://www.w3.org/1999/xlink" x="0px" y="0px"
	 viewBox="0 0 79.83 79.82" style="enable-background:new 0 0 79.83 79.82;" xml:space="preserve">
<style type="text/css">
	.st0{fill:url(#SVGID_1_);}
</style>
<g>
	<linearGradient id="SVGID_1_" gradientUnits="userSpaceOnUse" x1="-9.094947e-13" y1="39.9094" x2="79.8256" y2="39.9094">
		<stop  offset="0" style="stop-color:#FC9449"/>
		<stop  offset="0.6367" style="stop-color:#F72981"/>
		<stop  offset="1" style="stop-color:#AB29C4"/>
	</linearGradient>
	<path class="st0" d="M79.42,0.4c-0.54-0.53-1.41-0.53-1.94,0L62.52,15.35l-2.76-2.76c-0.54-0.53-1.41-0.53-1.94,0l-5.15,5.15
		l-3.93-3.93c-0.54-0.53-1.41-0.53-1.94,0l-6.12,6.12l0,0L19.71,41.01c-0.53,0.54-0.53,1.41,0,1.94l5.15,5.15L7.41,65.56l-5.14-5.15
		c-0.58-0.49-1.45-0.43-1.94,0.15c-0.44,0.52-0.44,1.28,0,1.79l6.12,6.12l4.9,4.9l6.12,6.12c0.58,0.49,1.45,0.43,1.94-0.15
		c0.44-0.52,0.44-1.28,0-1.79l-5.15-5.15L31.7,54.97l5.15,5.15c0.54,0.53,1.41,0.53,1.94,0l27.14-27.14c0.53-0.54,0.53-1.41,0-1.94
		l-3.93-3.93l5.15-5.15c0.53-0.54,0.53-1.41,0-1.94l-2.76-2.76L79.42,2.36C79.96,1.82,79.96,0.95,79.42,0.4
		C79.42,0.41,79.42,0.4,79.42,0.4z M12.32,70.45L9.37,67.5l17.44-17.44l2.95,2.95L12.32,70.45z M37.83,57.18l-5.15-5.15l-4.9-4.9
		l-5.15-5.15L27,37.6l3.93,3.93c0.49,0.58,1.36,0.65,1.94,0.15c0.58-0.49,0.65-1.36,0.15-1.94c-0.05-0.05-0.1-0.1-0.15-0.15
		l-3.93-3.93l5.41-5.34l3.93,3.93c0.58,0.49,1.45,0.43,1.94-0.15c0.44-0.52,0.44-1.28,0-1.79l-3.93-3.93l5.4-5.4l3.93,3.93
		c0.58,0.49,1.45,0.43,1.94-0.15c0.44-0.52,0.44-1.28,0-1.79l-3.93-3.93l4.13-4.13l3.98,3.77l0,0l3.68,3.68l7.6,7.6L37.83,57.18z
		 M60.08,25.14l-2.76-2.76l-2.76-2.76l4.13-4.13l2.76,2.76l0,0l2.76,2.76L60.08,25.14z"/>
</g>
</svg>
