<?xml version="1.0" encoding="utf-8"?>
<!-- Generator: Adobe Illustrator 23.0.2, SVG Export Plug-In . SVG Version: 6.00 Build 0)  -->
<svg version="1.1" id="Capa_1" xmlns="http://www.w3.org/2000/svg" xmlns:xlink="http://www.w3.org/1999/xlink" x="0px" y="0px"
	 viewBox="0 0 337.86 39.55" style="enable-background:new 0 0 337.86 39.55;" xml:space="preserve">
<style type="text/css">
	.st0{fill:#FFFFFF;}
	.st1{fill:#3C3C3B;}
</style>
<path class="st0" d="M326.93,39.55H10.93C4.92,39.55,0,34.63,0,28.61V10.93C0,4.92,4.92,0,10.93,0h315.99
	c6.01,0,10.93,4.92,10.93,10.93v17.68C337.86,34.63,332.94,39.55,326.93,39.55z"/>
<g>
	<g>
		<path class="st1" d="M48.49,12.47h2.65c1.45,0,2.49,0.13,3.1,0.39c0.62,0.26,1.11,0.69,1.49,1.29c0.38,0.6,0.56,1.31,0.56,2.14
			c0,0.86-0.21,1.59-0.62,2.17s-1.04,1.02-1.87,1.32l3.12,5.85h-2.74l-2.96-5.57H51v5.57h-2.5V12.47z M51,17.61h0.78
			c0.8,0,1.34-0.1,1.64-0.31c0.3-0.21,0.45-0.56,0.45-1.04c0-0.29-0.07-0.54-0.22-0.75c-0.15-0.21-0.35-0.37-0.6-0.46
			s-0.71-0.14-1.37-0.14H51V17.61z"/>
		<path class="st1" d="M58.95,12.47h7.18v2.45h-4.69v2.38h4.69v2.4h-4.69v3.46h4.69v2.46h-7.18V12.47z"/>
		<path class="st1" d="M80.61,14.62l-1.76,1.74c-1.12-1.18-2.42-1.77-3.9-1.77c-1.29,0-2.38,0.43-3.25,1.29s-1.31,1.9-1.31,3.13
			c0,1.27,0.45,2.35,1.36,3.23c0.91,0.88,2.03,1.32,3.36,1.32c0.87,0,1.59-0.18,2.19-0.54s1.07-0.93,1.44-1.71h-3.81v-2.35h6.62
			l0.02,0.55c0,1.15-0.3,2.24-0.89,3.27s-1.37,1.82-2.32,2.36s-2.06,0.81-3.33,0.81c-1.37,0-2.58-0.3-3.65-0.89
			c-1.07-0.59-1.92-1.44-2.54-2.53c-0.62-1.1-0.93-2.28-0.93-3.55c0-1.74,0.58-3.25,1.73-4.54c1.36-1.53,3.14-2.3,5.33-2.3
			c1.14,0,2.21,0.21,3.21,0.63C78.98,13.13,79.8,13.75,80.61,14.62z"/>
		<path class="st1" d="M83.67,12.47h2.49v13.15h-2.49V12.47z"/>
		<path class="st1" d="M95.87,14.26l-1.85,1.64c-0.65-0.91-1.31-1.36-1.99-1.36c-0.33,0-0.6,0.09-0.81,0.26
			c-0.21,0.18-0.31,0.38-0.31,0.59c0,0.22,0.07,0.43,0.22,0.63c0.2,0.26,0.82,0.83,1.84,1.69c0.96,0.8,1.53,1.3,1.74,1.51
			c0.51,0.51,0.87,1,1.08,1.47s0.32,0.98,0.32,1.53c0,1.08-0.37,1.97-1.12,2.67s-1.72,1.05-2.92,1.05c-0.94,0-1.75-0.23-2.45-0.69
			c-0.7-0.46-1.29-1.18-1.79-2.16l2.1-1.27c0.63,1.16,1.36,1.74,2.19,1.74c0.43,0,0.79-0.13,1.08-0.38s0.44-0.54,0.44-0.87
			c0-0.3-0.11-0.6-0.33-0.89c-0.22-0.3-0.71-0.75-1.46-1.37c-1.43-1.17-2.36-2.07-2.78-2.71s-0.63-1.27-0.63-1.9
			c0-0.91,0.35-1.69,1.04-2.35c0.7-0.65,1.55-0.98,2.57-0.98c0.66,0,1.28,0.15,1.88,0.46C94.53,12.9,95.18,13.45,95.87,14.26z"/>
		<path class="st1" d="M97.19,12.47h7.27v2.47h-2.4v10.68h-2.54V14.94h-2.33V12.47z"/>
		<path class="st1" d="M106.35,12.47H109c1.45,0,2.49,0.13,3.1,0.39c0.62,0.26,1.11,0.69,1.49,1.29c0.38,0.6,0.56,1.31,0.56,2.14
			c0,0.86-0.21,1.59-0.62,2.17s-1.04,1.02-1.87,1.32l3.12,5.85h-2.74l-2.96-5.57h-0.23v5.57h-2.5V12.47z M108.85,17.61h0.78
			c0.8,0,1.34-0.1,1.64-0.31c0.3-0.21,0.45-0.56,0.45-1.04c0-0.29-0.07-0.54-0.22-0.75c-0.15-0.21-0.35-0.37-0.6-0.46
			s-0.71-0.14-1.37-0.14h-0.69V17.61z"/>
		<path class="st1" d="M120.81,12.47h2.54l5.06,13.15h-2.6l-1.03-2.71h-5.37l-1.07,2.71h-2.6L120.81,12.47z M122.1,15.96l-1.76,4.52
			h3.52L122.1,15.96z"/>
		<path class="st1" d="M134.17,12.47h7.27v2.47h-2.4v10.68h-2.54V14.94h-2.33V12.47z"/>
		<path class="st1" d="M143.07,12.47h2.51v8.5c0,0.73,0.06,1.25,0.19,1.55c0.13,0.3,0.34,0.55,0.63,0.73
			c0.3,0.18,0.65,0.27,1.07,0.27c0.44,0,0.82-0.1,1.14-0.3s0.54-0.46,0.66-0.77c0.12-0.31,0.18-0.91,0.18-1.79v-8.19h2.51v7.84
			c0,1.32-0.07,2.24-0.22,2.75s-0.43,1.01-0.85,1.48c-0.42,0.48-0.9,0.83-1.45,1.06c-0.55,0.23-1.19,0.34-1.91,0.34
			c-0.95,0-1.78-0.22-2.49-0.66c-0.71-0.44-1.21-0.99-1.52-1.65c-0.3-0.66-0.46-1.77-0.46-3.34V12.47z"/>
		<path class="st1" d="M158.71,12.47h7.27v2.47h-2.4v10.68h-2.54V14.94h-2.33V12.47z"/>
		<path class="st1" d="M167.51,12.47H170v13.15h-2.49V12.47z"/>
		<path class="st1" d="M172.82,12.47H180v2.45h-4.69v2.38H180v2.4h-4.69v3.46H180v2.46h-7.18V12.47z"/>
		<path class="st1" d="M182.35,12.47h2.4l5.63,8.65v-8.65h2.5v13.15h-2.41l-5.62-8.63v8.63h-2.5V12.47z"/>
		<path class="st1" d="M195.89,12.47h2.97c1.91,0,3.33,0.24,4.26,0.71c0.93,0.47,1.69,1.25,2.3,2.31c0.6,1.07,0.9,2.31,0.9,3.74
			c0,1.01-0.17,1.94-0.5,2.79c-0.34,0.85-0.8,1.55-1.39,2.11c-0.59,0.56-1.23,0.95-1.93,1.16c-0.69,0.21-1.89,0.32-3.59,0.32h-3.01
			V12.47z M198.38,14.88v8.3h1.16c1.14,0,1.97-0.13,2.49-0.39c0.51-0.26,0.94-0.7,1.26-1.32c0.33-0.62,0.49-1.38,0.49-2.29
			c0-1.4-0.39-2.48-1.17-3.25c-0.7-0.69-1.83-1.04-3.39-1.04H198.38z"/>
		<path class="st1" d="M212.72,12.47h2.54l5.06,13.15h-2.6l-1.03-2.71h-5.37l-1.07,2.71h-2.6L212.72,12.47z M214,15.96l-1.76,4.52
			h3.52L214,15.96z"/>
		<path class="st1" d="M233.58,12.14c1.86,0,3.46,0.67,4.8,2.02c1.34,1.35,2.01,2.99,2.01,4.93c0,1.92-0.66,3.54-1.98,4.87
			c-1.32,1.33-2.92,1.99-4.81,1.99c-1.97,0-3.61-0.68-4.92-2.05c-1.31-1.36-1.96-2.99-1.96-4.86c0-1.26,0.3-2.41,0.91-3.47
			c0.61-1.05,1.45-1.89,2.51-2.51C231.21,12.45,232.35,12.14,233.58,12.14z M233.56,14.59c-1.22,0-2.24,0.42-3.07,1.27
			c-0.83,0.85-1.24,1.92-1.24,3.23c0,1.45,0.52,2.6,1.57,3.45c0.81,0.66,1.74,0.99,2.79,0.99c1.19,0,2.2-0.43,3.03-1.29
			c0.83-0.86,1.25-1.92,1.25-3.17c0-1.25-0.42-2.31-1.26-3.18C235.78,15.02,234.76,14.59,233.56,14.59z"/>
		<path class="st1" d="M242.76,12.47h2.4l5.63,8.65v-8.65h2.5v13.15h-2.41l-5.62-8.63v8.63h-2.5V12.47z"/>
		<path class="st1" d="M256.3,12.47h2.5v10.76h3.65v2.39h-6.15V12.47z"/>
		<path class="st1" d="M264.17,12.47h2.49v13.15h-2.49V12.47z"/>
		<path class="st1" d="M269.49,12.47h2.4l5.63,8.65v-8.65h2.5v13.15h-2.41l-5.62-8.63v8.63h-2.5V12.47z"/>
		<path class="st1" d="M283.03,12.47h7.18v2.45h-4.69v2.38h4.69v2.4h-4.69v3.46h4.69v2.46h-7.18V12.47z"/>
	</g>
</g>
</svg>
