<?xml version="1.0" encoding="utf-8"?>
<!-- Generator: Adobe Illustrator 23.0.2, SVG Export Plug-In . SVG Version: 6.00 Build 0)  -->
<svg version="1.1" id="Capa_1" xmlns="http://www.w3.org/2000/svg" xmlns:xlink="http://www.w3.org/1999/xlink" x="0px" y="0px"
	 viewBox="0 0 261.04 42" style="enable-background:new 0 0 261.04 42;" xml:space="preserve">
<style type="text/css">
	.st0{fill:#606060;}
	.st1{fill:#FFFFFF;}
</style>
<g>
	<path class="st0" d="M256.53,42H4.51C2.03,42,0,39.97,0,37.49V4.51C0,2.03,2.03,0,4.51,0h252.02c2.48,0,4.51,2.03,4.51,4.51v32.98
		C261.04,39.97,259.01,42,256.53,42z"/>
	<g>
		<path class="st1" d="M95.95,27.93c-2.43,0-4.21-1.37-4.21-4.12v-4.45c0-2.75,1.77-4.08,4.21-4.08c1.51,0,2.8,0.35,3.93,1.11
			l-1.13,2.21c-0.89-0.45-1.65-0.64-2.49-0.64c-0.89,0-1.37,0.64-1.37,1.62v4.05c0,1.06,0.5,1.63,1.32,1.63
			c0.87,0,1.65-0.19,2.54-0.64l1.13,2.21C98.75,27.58,97.46,27.93,95.95,27.93z"/>
		<path class="st1" d="M110.9,27.69h-3.42l-0.56-2.21c-1.04,0.16-2.07,0.16-3.08,0l-0.5,2.21h-3.46l4.03-12.17h2.88L110.9,27.69z
			 M106.27,23.13l-0.9-3.77l-0.94,3.77C105.04,23.26,105.65,23.26,106.27,23.13z"/>
		<path class="st1" d="M120.77,15.52v12.17h-2.49l-3.56-6.43l0.07,6.43h-3.06V15.52h2.57l3.51,6.6l-0.1-6.6H120.77z"/>
		<path class="st1" d="M126.74,27.93c-2.43,0-4.21-1.37-4.21-4.12v-4.45c0-2.75,1.77-4.08,4.21-4.08c1.51,0,2.8,0.35,3.93,1.11
			l-1.13,2.21c-0.89-0.45-1.65-0.64-2.49-0.64c-0.89,0-1.37,0.64-1.37,1.62v4.05c0,1.06,0.5,1.63,1.32,1.63
			c0.87,0,1.65-0.19,2.54-0.64l1.13,2.21C129.54,27.58,128.25,27.93,126.74,27.93z"/>
		<path class="st1" d="M139.41,25.01v2.68h-7.54V15.52h7.46v2.69h-4.35v1.98h3.56v2.66h-3.56v2.16H139.41z"/>
		<path class="st1" d="M148.5,25.01v2.68h-7.47V15.52h3.11v9.49H148.5z"/>
		<path class="st1" d="M159.49,27.69h-3.42l-0.56-2.21c-1.04,0.16-2.07,0.16-3.08,0l-0.5,2.21h-3.46l4.03-12.17h2.88L159.49,27.69z
			 M154.87,23.13l-0.9-3.77l-0.94,3.77C153.63,23.26,154.24,23.26,154.87,23.13z"/>
		<path class="st1" d="M169.63,25.39l-0.04,2.29c-0.61,0.12-1.04,0.17-1.7,0.17c-1.29,0-2.28-0.37-3.02-2.1l-0.92-2.17
			c-0.17-0.02-0.35-0.05-0.5-0.09v4.19h-3.11V15.52h4.73c2.59,0,4.22,1.6,4.22,3.79v0.56c0,1.84-1.01,2.88-2.17,3.39l0.68,1.53
			c0.26,0.59,0.64,0.7,1.03,0.7S169.42,25.45,169.63,25.39z M163.44,20.81c0.43,0.12,1.01,0.24,1.53,0.24c0.85,0,1.3-0.61,1.3-1.29
			v-0.24c0-0.76-0.43-1.3-1.22-1.3h-1.62V20.81z"/>
	</g>
</g>
</svg>
