<?xml version="1.0" encoding="utf-8"?>
<!-- Generator: Adobe Illustrator 23.0.2, SVG Export Plug-In . SVG Version: 6.00 Build 0)  -->
<svg version="1.1" id="Capa_1" xmlns="http://www.w3.org/2000/svg" xmlns:xlink="http://www.w3.org/1999/xlink" x="0px" y="0px"
	 viewBox="0 0 191.09 30.49" style="enable-background:new 0 0 191.09 30.49;" xml:space="preserve">
<style type="text/css">
	.st0{fill:url(#SVGID_1_);}
	.st1{fill:url(#SVGID_2_);}
	.st2{fill:url(#SVGID_3_);}
	.st3{fill:url(#SVGID_4_);}
	.st4{fill:url(#SVGID_5_);}
	.st5{fill:url(#SVGID_6_);}
	.st6{fill:url(#SVGID_7_);}
	.st7{fill:url(#SVGID_8_);}
	.st8{fill:url(#SVGID_9_);}
	.st9{fill:url(#SVGID_10_);}
</style>
<g>
	<linearGradient id="SVGID_1_" gradientUnits="userSpaceOnUse" x1="-18.8131" y1="18.793" x2="210.8207" y2="18.793">
		<stop  offset="0" style="stop-color:#FC9449"/>
		<stop  offset="0.6367" style="stop-color:#F72981"/>
		<stop  offset="1" style="stop-color:#AB29C4"/>
	</linearGradient>
	<path class="st0" d="M21.57,11.57l-2.96,2.83c-2.02-2.13-4.29-3.2-6.81-3.2c-2.13,0-3.92,0.73-5.38,2.18
		c-1.46,1.45-2.19,3.25-2.19,5.38c0,1.48,0.32,2.8,0.97,3.95c0.64,1.15,1.56,2.06,2.74,2.71c1.18,0.66,2.49,0.98,3.93,0.98
		c1.23,0,2.35-0.23,3.37-0.69c1.02-0.46,2.14-1.29,3.36-2.51l2.87,3c-1.64,1.61-3.2,2.72-4.66,3.34s-3.13,0.93-5.01,0.93
		c-3.46,0-6.29-1.1-8.5-3.29C1.1,25,0,22.19,0,18.75c0-2.22,0.5-4.19,1.51-5.92c1-1.72,2.44-3.11,4.31-4.16S9.71,7.1,11.87,7.1
		c1.84,0,3.61,0.39,5.31,1.16C18.87,9.04,20.34,10.14,21.57,11.57z"/>
	<linearGradient id="SVGID_2_" gradientUnits="userSpaceOnUse" x1="-18.8131" y1="18.793" x2="210.8207" y2="18.793">
		<stop  offset="0" style="stop-color:#FC9449"/>
		<stop  offset="0.6367" style="stop-color:#F72981"/>
		<stop  offset="1" style="stop-color:#AB29C4"/>
	</linearGradient>
	<path class="st1" d="M32.07,7.66h4.3l8.56,22.27h-4.41l-1.74-4.59H29.7l-1.81,4.59h-4.41L32.07,7.66z M34.25,13.56l-2.99,7.64h5.96
		L34.25,13.56z"/>
	<linearGradient id="SVGID_3_" gradientUnits="userSpaceOnUse" x1="-18.8131" y1="18.793" x2="210.8207" y2="18.793">
		<stop  offset="0" style="stop-color:#FC9449"/>
		<stop  offset="0.6367" style="stop-color:#F72981"/>
		<stop  offset="1" style="stop-color:#AB29C4"/>
	</linearGradient>
	<path class="st2" d="M46.02,7.66h12.31v4.18h-4.06v18.09h-4.3V11.84h-3.95V7.66z"/>
	<linearGradient id="SVGID_4_" gradientUnits="userSpaceOnUse" x1="-18.8131" y1="18.793" x2="210.8207" y2="18.793">
		<stop  offset="0" style="stop-color:#FC9449"/>
		<stop  offset="0.6367" style="stop-color:#F72981"/>
		<stop  offset="1" style="stop-color:#AB29C4"/>
	</linearGradient>
	<path class="st3" d="M61.24,7.66H73.4v4.15h-7.95v4.03h7.95v4.07h-7.95v5.86h7.95v4.16H61.24V7.66z"/>
	<linearGradient id="SVGID_5_" gradientUnits="userSpaceOnUse" x1="-18.8131" y1="18.793" x2="210.8207" y2="18.793">
		<stop  offset="0" style="stop-color:#FC9449"/>
		<stop  offset="0.6367" style="stop-color:#F72981"/>
		<stop  offset="1" style="stop-color:#AB29C4"/>
	</linearGradient>
	<path class="st4" d="M97.91,11.29l-2.98,2.95c-1.89-2-4.09-3-6.61-3c-2.19,0-4.03,0.73-5.51,2.18s-2.22,3.22-2.22,5.3
		c0,2.15,0.77,3.97,2.3,5.46c1.54,1.49,3.43,2.24,5.68,2.24c1.46,0,2.7-0.31,3.71-0.92s1.82-1.58,2.43-2.89h-6.45v-3.98h11.2
		l0.03,0.94c0,1.95-0.5,3.79-1.51,5.54c-1.01,1.75-2.32,3.08-3.92,4s-3.49,1.38-5.65,1.38c-2.31,0-4.37-0.5-6.18-1.51
		c-1.81-1-3.25-2.43-4.3-4.29c-1.05-1.86-1.58-3.86-1.58-6.01c0-2.95,0.97-5.51,2.92-7.69c2.31-2.59,5.32-3.89,9.02-3.89
		c1.94,0,3.75,0.36,5.43,1.07C95.15,8.78,96.54,9.82,97.91,11.29z"/>
	<linearGradient id="SVGID_6_" gradientUnits="userSpaceOnUse" x1="-18.8131" y1="18.793" x2="210.8207" y2="18.793">
		<stop  offset="0" style="stop-color:#FC9449"/>
		<stop  offset="0.6367" style="stop-color:#F72981"/>
		<stop  offset="1" style="stop-color:#AB29C4"/>
	</linearGradient>
	<path class="st5" d="M113.9,7.1c3.15,0,5.86,1.14,8.13,3.42c2.27,2.28,3.4,5.06,3.4,8.34c0,3.25-1.12,6-3.36,8.25
		c-2.24,2.25-4.95,3.38-8.14,3.38c-3.34,0-6.12-1.16-8.33-3.47c-2.21-2.31-3.32-5.06-3.32-8.23c0-2.13,0.52-4.09,1.54-5.87
		c1.03-1.79,2.45-3.2,4.25-4.25C109.88,7.62,111.82,7.1,113.9,7.1z M113.85,11.25c-2.06,0-3.79,0.72-5.2,2.15s-2.11,3.25-2.11,5.46
		c0,2.46,0.88,4.41,2.65,5.84c1.37,1.12,2.95,1.68,4.73,1.68c2.01,0,3.72-0.73,5.14-2.18c1.41-1.45,2.12-3.24,2.12-5.37
		c0-2.12-0.71-3.91-2.14-5.38C117.63,11.98,115.89,11.25,113.85,11.25z"/>
	<linearGradient id="SVGID_7_" gradientUnits="userSpaceOnUse" x1="-18.8131" y1="18.793" x2="210.8207" y2="18.793">
		<stop  offset="0" style="stop-color:#FC9449"/>
		<stop  offset="0.6367" style="stop-color:#F72981"/>
		<stop  offset="1" style="stop-color:#AB29C4"/>
	</linearGradient>
	<path class="st6" d="M129.71,7.66h4.49c2.46,0,4.21,0.22,5.25,0.66c1.04,0.44,1.88,1.17,2.52,2.19c0.64,1.02,0.95,2.22,0.95,3.62
		c0,1.46-0.35,2.69-1.05,3.67c-0.7,0.98-1.76,1.73-3.17,2.23l5.27,9.9h-4.63l-5.01-9.43h-0.39v9.43h-4.24V7.66z M133.95,16.36h1.33
		c1.35,0,2.28-0.18,2.78-0.53s0.76-0.94,0.76-1.76c0-0.49-0.13-0.91-0.38-1.27c-0.25-0.36-0.59-0.62-1.01-0.77
		c-0.42-0.16-1.2-0.24-2.32-0.24h-1.16V16.36z"/>
	<linearGradient id="SVGID_8_" gradientUnits="userSpaceOnUse" x1="-18.8131" y1="14.9629" x2="210.8207" y2="14.9629">
		<stop  offset="0" style="stop-color:#FC9449"/>
		<stop  offset="0.6367" style="stop-color:#F72981"/>
		<stop  offset="1" style="stop-color:#AB29C4"/>
	</linearGradient>
	<path class="st7" d="M149.89,0h4.89l-5.54,5.93h-2.97L149.89,0z M147.1,7.66h4.21v22.27h-4.21V7.66z"/>
	<linearGradient id="SVGID_9_" gradientUnits="userSpaceOnUse" x1="-18.8131" y1="18.793" x2="210.8207" y2="18.793">
		<stop  offset="0" style="stop-color:#FC9449"/>
		<stop  offset="0.6367" style="stop-color:#F72981"/>
		<stop  offset="1" style="stop-color:#AB29C4"/>
	</linearGradient>
	<path class="st8" d="M162.87,7.66h4.3l8.56,22.27h-4.41l-1.74-4.59h-9.08l-1.81,4.59h-4.41L162.87,7.66z M165.04,13.56l-2.99,7.64
		h5.96L165.04,13.56z"/>
	<linearGradient id="SVGID_10_" gradientUnits="userSpaceOnUse" x1="-18.8131" y1="18.793" x2="210.8207" y2="18.793">
		<stop  offset="0" style="stop-color:#FC9449"/>
		<stop  offset="0.6367" style="stop-color:#F72981"/>
		<stop  offset="1" style="stop-color:#AB29C4"/>
	</linearGradient>
	<path class="st9" d="M190.69,10.69l-3.14,2.77c-1.1-1.53-2.22-2.3-3.37-2.3c-0.56,0-1.01,0.15-1.36,0.45
		c-0.35,0.3-0.53,0.63-0.53,1.01s0.13,0.73,0.38,1.06c0.34,0.44,1.38,1.4,3.11,2.86c1.62,1.35,2.6,2.21,2.94,2.56
		c0.86,0.87,1.47,1.7,1.83,2.49c0.36,0.79,0.54,1.66,0.54,2.6c0,1.83-0.63,3.33-1.89,4.53c-1.26,1.19-2.91,1.79-4.94,1.79
		c-1.59,0-2.97-0.39-4.14-1.17s-2.18-2-3.02-3.66l3.56-2.15c1.07,1.97,2.3,2.95,3.7,2.95c0.73,0,1.34-0.21,1.83-0.63
		s0.74-0.91,0.74-1.47c0-0.5-0.19-1.01-0.56-1.51s-1.2-1.28-2.47-2.32c-2.43-1.98-3.99-3.5-4.7-4.58c-0.71-1.08-1.06-2.15-1.06-3.22
		c0-1.54,0.59-2.87,1.77-3.97c1.18-1.1,2.63-1.66,4.36-1.66c1.11,0,2.17,0.26,3.17,0.77C188.43,8.39,189.52,9.32,190.69,10.69z"/>
</g>
</svg>
