<?xml version="1.0" encoding="utf-8"?>
<!-- Generator: Adobe Illustrator 23.0.2, SVG Export Plug-In . SVG Version: 6.00 Build 0)  -->
<svg version="1.1" id="Capa_1" xmlns="http://www.w3.org/2000/svg" xmlns:xlink="http://www.w3.org/1999/xlink" x="0px" y="0px"
	 viewBox="0 0 95.81 83.03" style="enable-background:new 0 0 95.81 83.03;" xml:space="preserve">
<style type="text/css">
	.st0{fill:url(#SVGID_1_);}
	.st1{fill:url(#SVGID_2_);}
</style>
<g>
	<linearGradient id="SVGID_1_" gradientUnits="userSpaceOnUse" x1="22.3552" y1="43.1136" x2="73.4529" y2="43.1136">
		<stop  offset="0" style="stop-color:#FC9449"/>
		<stop  offset="0.6367" style="stop-color:#F72981"/>
		<stop  offset="1" style="stop-color:#AB29C4"/>
	</linearGradient>
	<path class="st0" d="M47.9,17.56c-14.11,0-25.55,11.44-25.55,25.55S33.79,68.66,47.9,68.66s25.55-11.44,25.55-25.55
		C73.44,29.01,62.01,17.58,47.9,17.56z M47.9,65.47c-12.35,0-22.36-10.01-22.36-22.36S35.56,20.76,47.9,20.76
		s22.36,10.01,22.36,22.36C70.25,55.45,60.24,65.45,47.9,65.47z"/>
	<linearGradient id="SVGID_2_" gradientUnits="userSpaceOnUse" x1="9.094947e-13" y1="41.5168" x2="95.8081" y2="41.5168">
		<stop  offset="0" style="stop-color:#FC9449"/>
		<stop  offset="0.6367" style="stop-color:#F72981"/>
		<stop  offset="1" style="stop-color:#AB29C4"/>
	</linearGradient>
	<path class="st1" d="M94.21,0h-3.19c-7.93,0.01-14.36,6.44-14.37,14.37v3.39c-14-15.87-38.21-17.39-54.08-3.4
		c-0.2,0.18-0.4,0.36-0.6,0.54L21.11,1.5c-0.06-0.88-0.83-1.54-1.71-1.48c-0.87,0.06-1.53,0.81-1.48,1.68l1.01,15.93
		c-0.74,0.52-2.83,1.3-6.16,1.49V1.6c0-0.88-0.71-1.6-1.6-1.6s-1.6,0.71-1.6,1.6v17.52c-3.14-0.19-5.34-0.9-6.16-1.5L4.43,1.7
		c0.05-0.88-0.63-1.63-1.51-1.68C2.06-0.03,1.31,0.63,1.25,1.5L0.01,20.87c-0.23,3.86,2.54,7.25,6.37,7.8v16.04
		c-0.88,0-1.6,0.71-1.6,1.6v30.34c0,3.53,2.86,6.39,6.39,6.39s6.39-2.86,6.39-6.39V66.52c12.94,16.76,37.02,19.85,53.78,6.91
		c5.09-3.93,9.11-9.08,11.69-14.98v18.19c0,3.53,2.86,6.39,6.39,6.39s6.39-2.86,6.39-6.39V1.6C95.81,0.71,95.09,0,94.21,0z
		 M14.37,76.65c0,1.76-1.43,3.19-3.19,3.19s-3.19-1.43-3.19-3.19V47.9h6.39V76.65z M9.58,44.71V28.74h3.19v15.97H9.58z M14.92,25.55
		H7.44c-2.34,0-4.24-1.9-4.24-4.24c0-0.08,0-0.15,0.01-0.23c1.79,0.74,4.42,1.28,7.98,1.28c2.92,0,5.85-0.41,7.98-1.27
		c0.12,2.34-1.67,4.34-4.01,4.46C15.07,25.55,14.99,25.55,14.92,25.55z M71.71,68.95c-14.27,13.15-36.49,12.24-49.64-2.03
		c-1.72-1.86-3.23-3.91-4.51-6.1V46.31c0-0.88-0.71-1.6-1.6-1.6V28.67c3.83-0.55,6.6-3.94,6.37-7.81l-0.11-1.72
		C35.47,4.96,57.7,4.2,71.88,17.44c1.78,1.66,3.37,3.5,4.77,5.48v23.39c0,0.88,0.71,1.6,1.6,1.6h4.46
		C81.61,55.98,77.72,63.43,71.71,68.95z M92.61,76.65c0,1.76-1.43,3.19-3.19,3.19c-1.76,0-3.19-1.43-3.19-3.19V47.9h6.39V76.65z
		 M92.61,44.71H79.84V14.37C79.85,8.2,84.85,3.2,91.02,3.19h1.6V44.71z"/>
</g>
</svg>
