<?xml version="1.0" encoding="utf-8"?>
<!-- Generator: Adobe Illustrator 23.0.2, SVG Export Plug-In . SVG Version: 6.00 Build 0)  -->
<svg version="1.1" id="Capa_1" xmlns="http://www.w3.org/2000/svg" xmlns:xlink="http://www.w3.org/1999/xlink" x="0px" y="0px"
	 viewBox="0 0 261.04 42" style="enable-background:new 0 0 261.04 42;" xml:space="preserve">
<style type="text/css">
	.st0{fill:#E6007E;}
	.st1{fill:#FFFFFF;}
</style>
<g>
	<path class="st0" d="M256.53,42H4.51C2.03,42,0,39.97,0,37.49V4.51C0,2.03,2.03,0,4.51,0h252.02c2.48,0,4.51,2.03,4.51,4.51v32.98
		C261.04,39.97,259.01,42,256.53,42z"/>
	<g>
		<path class="st1" d="M81.19,27.93c-2.43,0-4.21-1.37-4.21-4.12v-4.45c0-2.75,1.77-4.08,4.21-4.08c1.51,0,2.8,0.35,3.93,1.11
			l-1.13,2.21c-0.89-0.45-1.65-0.64-2.49-0.64c-0.89,0-1.37,0.64-1.37,1.62v4.05c0,1.06,0.5,1.63,1.32,1.63
			c0.87,0,1.65-0.19,2.54-0.64l1.13,2.21C83.98,27.58,82.7,27.93,81.19,27.93z"/>
		<path class="st1" d="M85.81,23.83v-4.47c0-2.54,2.09-4.08,4.64-4.08c2.52,0,4.61,1.55,4.61,4.08v4.47c0,2.52-2.09,4.1-4.61,4.1
			C87.9,27.93,85.81,26.35,85.81,23.83z M91.9,23.62v-4.05c0-1.06-0.66-1.62-1.44-1.62c-0.83,0-1.48,0.56-1.48,1.62v4.05
			c0,1.06,0.64,1.62,1.48,1.62C91.24,25.24,91.9,24.68,91.9,23.62z"/>
		<path class="st1" d="M105.82,15.52v12.17h-2.49l-3.56-6.43l0.07,6.43h-3.06V15.52h2.57l3.51,6.6l-0.1-6.6H105.82z"/>
		<path class="st1" d="M115.82,18.2h-2.83v9.49h-3.13V18.2h-2.83v-2.68h8.79V18.2z"/>
		<path class="st1" d="M125.94,27.69h-3.42l-0.56-2.21c-1.04,0.16-2.07,0.16-3.08,0l-0.5,2.21h-3.46l4.03-12.17h2.88L125.94,27.69z
			 M118.74,14.88l-0.73-1.6l3.6-2.33l1.22,2.66L118.74,14.88z M121.31,23.13l-0.9-3.77l-0.94,3.77
			C120.08,23.26,120.69,23.26,121.31,23.13z"/>
		<path class="st1" d="M130.49,27.93c-2.43,0-4.21-1.37-4.21-4.12v-4.45c0-2.75,1.77-4.08,4.21-4.08c1.51,0,2.8,0.35,3.93,1.11
			l-1.13,2.21c-0.89-0.45-1.65-0.64-2.49-0.64c-0.89,0-1.37,0.64-1.37,1.62v4.05c0,1.06,0.5,1.63,1.32,1.63
			c0.87,0,1.65-0.19,2.54-0.64l1.13,2.21C133.29,27.58,132,27.93,130.49,27.93z"/>
		<path class="st1" d="M143.56,18.2h-2.83v9.49h-3.13V18.2h-2.83v-2.68h8.79V18.2z"/>
		<path class="st1" d="M153.68,27.69h-3.42l-0.56-2.21c-1.04,0.16-2.07,0.16-3.08,0l-0.5,2.21h-3.46l4.03-12.17h2.88L153.68,27.69z
			 M149.06,23.13l-0.9-3.77l-0.94,3.77C147.83,23.26,148.43,23.26,149.06,23.13z"/>
		<path class="st1" d="M163.56,15.52v12.17h-2.49l-3.56-6.43l0.07,6.43h-3.06V15.52h2.57l3.51,6.6l-0.1-6.6H163.56z"/>
		<path class="st1" d="M165.28,23.83v-4.47c0-2.54,2.09-4.08,4.64-4.08c2.52,0,4.61,1.55,4.61,4.08v4.47c0,2.52-2.09,4.1-4.61,4.1
			C167.37,27.93,165.28,26.35,165.28,23.83z M171.37,23.62v-4.05c0-1.06-0.66-1.62-1.44-1.62c-0.83,0-1.48,0.56-1.48,1.62v4.05
			c0,1.06,0.64,1.62,1.48,1.62C170.7,25.24,171.37,24.68,171.37,23.62z"/>
		<path class="st1" d="M179.59,25.22c1.46,0,1.81-0.4,1.81-1.08c0-0.59-0.45-0.94-1.88-1.08c-2.09-0.23-3.63-1.34-3.63-3.89
			c0-2.22,1.49-3.84,4.17-3.86c1.51,0,2.83,0.33,3.95,1.03l-1.08,2.31c-0.96-0.43-1.89-0.66-2.78-0.66c-0.92,0-1.29,0.49-1.29,1.08
			c0,0.83,0.78,1.09,1.82,1.2c1.96,0.23,3.75,1.13,3.75,3.67c0,2.24-1.44,3.98-4.73,3.98c-1.6,0-2.97-0.43-4.21-1.17l1.06-2.31
			C177.5,24.87,178.53,25.22,179.59,25.22z"/>
	</g>
</g>
</svg>
