<?xml version="1.0" encoding="utf-8"?>
<!-- Generator: Adobe Illustrator 23.0.2, SVG Export Plug-In . SVG Version: 6.00 Build 0)  -->
<svg version="1.1" id="Capa_1" xmlns="http://www.w3.org/2000/svg" xmlns:xlink="http://www.w3.org/1999/xlink" x="0px" y="0px"
	 viewBox="0 0 198.66 30.49" style="enable-background:new 0 0 198.66 30.49;" xml:space="preserve">
<style type="text/css">
	.st0{fill:url(#SVGID_1_);}
	.st1{fill:url(#SVGID_2_);}
	.st2{fill:url(#SVGID_3_);}
	.st3{fill:url(#SVGID_4_);}
	.st4{fill:url(#SVGID_5_);}
	.st5{fill:url(#SVGID_6_);}
	.st6{fill:url(#SVGID_7_);}
	.st7{fill:url(#SVGID_8_);}
	.st8{fill:url(#SVGID_9_);}
</style>
<g>
	<g>
		<linearGradient id="SVGID_1_" gradientUnits="userSpaceOnUse" x1="-0.2298" y1="15.243" x2="216.856" y2="15.243">
			<stop  offset="0" style="stop-color:#FC9449"/>
			<stop  offset="0.6367" style="stop-color:#F72981"/>
			<stop  offset="1" style="stop-color:#AB29C4"/>
		</linearGradient>
		<path class="st0" d="M28.12,5.83l-3.86,3.68c-2.63-2.78-5.59-4.17-8.87-4.17c-2.77,0-5.11,0.95-7.01,2.84
			c-1.9,1.9-2.85,4.23-2.85,7.01c0,1.94,0.42,3.65,1.26,5.16c0.84,1.5,2.03,2.68,3.57,3.54s3.25,1.28,5.13,1.28
			c1.6,0,3.07-0.3,4.4-0.9s2.79-1.69,4.38-3.27L28,24.92c-2.14,2.09-4.17,3.54-6.08,4.35c-1.91,0.81-4.08,1.21-6.53,1.21
			c-4.51,0-8.21-1.43-11.08-4.29S0,19.67,0,15.19c0-2.89,0.65-5.47,1.96-7.71c1.31-2.25,3.18-4.06,5.62-5.43
			C10.03,0.68,12.66,0,15.47,0c2.39,0,4.7,0.51,6.92,1.52S26.51,3.97,28.12,5.83z"/>
		<linearGradient id="SVGID_2_" gradientUnits="userSpaceOnUse" x1="-0.2298" y1="19.0216" x2="216.856" y2="19.0216">
			<stop  offset="0" style="stop-color:#FC9449"/>
			<stop  offset="0.6367" style="stop-color:#F72981"/>
			<stop  offset="1" style="stop-color:#AB29C4"/>
		</linearGradient>
		<path class="st1" d="M42.44,7.73c2.03,0,3.93,0.51,5.71,1.52c1.78,1.01,3.17,2.39,4.17,4.12c1,1.74,1.5,3.61,1.5,5.62
			c0,2.03-0.5,3.92-1.51,5.68c-1.01,1.76-2.38,3.14-4.11,4.13s-3.65,1.49-5.74,1.49c-3.08,0-5.71-1.1-7.88-3.29
			c-2.18-2.19-3.27-4.85-3.27-7.98c0-3.35,1.23-6.15,3.69-8.39C37.16,8.71,39.64,7.73,42.44,7.73z M42.53,12.81
			c-1.67,0-3.07,0.58-4.18,1.75c-1.11,1.16-1.67,2.65-1.67,4.47c0,1.87,0.55,3.38,1.65,4.54c1.1,1.16,2.49,1.74,4.18,1.74
			c1.69,0,3.09-0.58,4.21-1.76c1.12-1.17,1.68-2.68,1.68-4.52c0-1.84-0.55-3.34-1.65-4.49C45.65,13.38,44.25,12.81,42.53,12.81z"/>
		<linearGradient id="SVGID_3_" gradientUnits="userSpaceOnUse" x1="-0.2298" y1="18.7452" x2="216.856" y2="18.7452">
			<stop  offset="0" style="stop-color:#FC9449"/>
			<stop  offset="0.6367" style="stop-color:#F72981"/>
			<stop  offset="1" style="stop-color:#AB29C4"/>
		</linearGradient>
		<path class="st2" d="M58.23,8.29h5.39v2.2c1.22-1.03,2.33-1.75,3.32-2.15c0.99-0.4,2.01-0.6,3.04-0.6c2.13,0,3.93,0.74,5.42,2.23
			c1.25,1.26,1.87,3.13,1.87,5.6v14.19h-5.33v-9.4c0-2.56-0.11-4.26-0.34-5.1c-0.23-0.84-0.63-1.48-1.2-1.92
			c-0.57-0.44-1.28-0.66-2.12-0.66c-1.09,0-2.02,0.36-2.81,1.09c-0.78,0.73-1.32,1.74-1.62,3.03c-0.16,0.67-0.24,2.12-0.24,4.36
			v8.61h-5.39V8.29z"/>
		<linearGradient id="SVGID_4_" gradientUnits="userSpaceOnUse" x1="-0.2298" y1="15.065" x2="216.856" y2="15.065">
			<stop  offset="0" style="stop-color:#FC9449"/>
			<stop  offset="0.6367" style="stop-color:#F72981"/>
			<stop  offset="1" style="stop-color:#AB29C4"/>
		</linearGradient>
		<path class="st3" d="M83.13,0.37h5.39v7.91h3.2v4.64h-3.2v16.83h-5.39V12.92h-2.76V8.29h2.76V0.37z"/>
		<linearGradient id="SVGID_5_" gradientUnits="userSpaceOnUse" x1="-0.2298" y1="19.0216" x2="216.856" y2="19.0216">
			<stop  offset="0" style="stop-color:#FC9449"/>
			<stop  offset="0.6367" style="stop-color:#F72981"/>
			<stop  offset="1" style="stop-color:#AB29C4"/>
		</linearGradient>
		<path class="st4" d="M110.44,8.29h5.39v21.47h-5.39v-2.27c-1.05,1-2.11,1.72-3.16,2.16c-1.06,0.44-2.2,0.66-3.44,0.66
			c-2.77,0-5.17-1.08-7.19-3.23c-2.02-2.15-3.03-4.82-3.03-8.02c0-3.31,0.98-6.03,2.94-8.15c1.96-2.12,4.34-3.18,7.14-3.18
			c1.29,0,2.5,0.24,3.63,0.73c1.13,0.49,2.17,1.22,3.13,2.19V8.29z M104.78,12.71c-1.67,0-3.05,0.59-4.15,1.77
			c-1.1,1.18-1.65,2.69-1.65,4.53c0,1.85,0.56,3.38,1.68,4.58c1.12,1.2,2.5,1.8,4.14,1.8c1.69,0,3.09-0.59,4.21-1.77
			c1.11-1.18,1.67-2.72,1.67-4.63c0-1.87-0.56-3.38-1.67-4.54C107.89,13.29,106.48,12.71,104.78,12.71z"/>
		<linearGradient id="SVGID_6_" gradientUnits="userSpaceOnUse" x1="-0.2298" y1="19.0216" x2="216.856" y2="19.0216">
			<stop  offset="0" style="stop-color:#FC9449"/>
			<stop  offset="0.6367" style="stop-color:#F72981"/>
			<stop  offset="1" style="stop-color:#AB29C4"/>
		</linearGradient>
		<path class="st5" d="M142.29,12.63l-4.48,2.47c-0.84-0.88-1.68-1.49-2.5-1.83c-0.82-0.34-1.79-0.51-2.89-0.51
			c-2.01,0-3.65,0.6-4.89,1.8c-1.25,1.2-1.87,2.74-1.87,4.62c0,1.83,0.6,3.32,1.8,4.47c1.2,1.16,2.77,1.73,4.72,1.73
			c2.41,0,4.29-0.82,5.63-2.47l4.25,2.91c-2.3,2.99-5.55,4.49-9.75,4.49c-3.78,0-6.73-1.12-8.87-3.35
			c-2.14-2.24-3.21-4.85-3.21-7.85c0-2.08,0.52-3.99,1.56-5.74c1.04-1.75,2.49-3.12,4.35-4.12c1.86-1,3.94-1.5,6.25-1.5
			c2.13,0,4.04,0.42,5.74,1.27C139.82,9.86,141.21,11.06,142.29,12.63z"/>
		<linearGradient id="SVGID_7_" gradientUnits="userSpaceOnUse" x1="-0.2298" y1="15.065" x2="216.856" y2="15.065">
			<stop  offset="0" style="stop-color:#FC9449"/>
			<stop  offset="0.6367" style="stop-color:#F72981"/>
			<stop  offset="1" style="stop-color:#AB29C4"/>
		</linearGradient>
		<path class="st6" d="M147.79,0.37h5.39v7.91h3.2v4.64h-3.2v16.83h-5.39V12.92h-2.76V8.29h2.76V0.37z"/>
		<linearGradient id="SVGID_8_" gradientUnits="userSpaceOnUse" x1="-0.2298" y1="19.0216" x2="216.856" y2="19.0216">
			<stop  offset="0" style="stop-color:#FC9449"/>
			<stop  offset="0.6367" style="stop-color:#F72981"/>
			<stop  offset="1" style="stop-color:#AB29C4"/>
		</linearGradient>
		<path class="st7" d="M169.34,7.73c2.03,0,3.93,0.51,5.71,1.52s3.17,2.39,4.17,4.12c1,1.74,1.5,3.61,1.5,5.62
			c0,2.03-0.5,3.92-1.51,5.68c-1.01,1.76-2.38,3.14-4.11,4.13c-1.74,0.99-3.65,1.49-5.74,1.49c-3.08,0-5.71-1.1-7.88-3.29
			c-2.18-2.19-3.27-4.85-3.27-7.98c0-3.35,1.23-6.15,3.69-8.39C164.06,8.71,166.54,7.73,169.34,7.73z M169.43,12.81
			c-1.67,0-3.07,0.58-4.18,1.75c-1.11,1.16-1.67,2.65-1.67,4.47c0,1.87,0.55,3.38,1.65,4.54c1.1,1.16,2.49,1.74,4.18,1.74
			c1.69,0,3.09-0.58,4.21-1.76c1.12-1.17,1.68-2.68,1.68-4.52c0-1.84-0.55-3.34-1.65-4.49C172.55,13.38,171.14,12.81,169.43,12.81z"
			/>
		<linearGradient id="SVGID_9_" gradientUnits="userSpaceOnUse" x1="-0.2298" y1="19.0216" x2="216.856" y2="19.0216">
			<stop  offset="0" style="stop-color:#FC9449"/>
			<stop  offset="0.6367" style="stop-color:#F72981"/>
			<stop  offset="1" style="stop-color:#AB29C4"/>
		</linearGradient>
		<path class="st8" d="M198.27,11.29l-3.33,3.33c-1.36-1.34-2.59-2.01-3.69-2.01c-0.61,0-1.08,0.13-1.42,0.38
			c-0.34,0.26-0.51,0.58-0.51,0.96c0,0.29,0.11,0.56,0.33,0.8c0.22,0.24,0.75,0.58,1.61,1l1.97,0.99c2.08,1.03,3.51,2.07,4.28,3.14
			s1.16,2.32,1.16,3.75c0,1.91-0.7,3.5-2.1,4.77c-1.4,1.28-3.28,1.91-5.63,1.91c-3.13,0-5.63-1.22-7.5-3.67l3.31-3.61
			c0.63,0.74,1.37,1.33,2.22,1.79c0.85,0.45,1.6,0.68,2.26,0.68c0.71,0,1.28-0.17,1.72-0.51c0.43-0.34,0.65-0.74,0.65-1.18
			c0-0.83-0.78-1.64-2.35-2.43l-1.82-0.91c-3.47-1.75-5.21-3.94-5.21-6.57c0-1.7,0.65-3.15,1.96-4.35c1.31-1.2,2.98-1.81,5.02-1.81
			c1.39,0,2.71,0.31,3.94,0.92C196.37,9.26,197.41,10.14,198.27,11.29z"/>
	</g>
</g>
</svg>
