<?xml version="1.0" encoding="utf-8"?>
<!-- Generator: Adobe Illustrator 23.0.2, SVG Export Plug-In . SVG Version: 6.00 Build 0)  -->
<svg version="1.1" id="Capa_1" xmlns="http://www.w3.org/2000/svg" xmlns:xlink="http://www.w3.org/1999/xlink" x="0px" y="0px"
	 viewBox="0 0 74.8 82.67" style="enable-background:new 0 0 74.8 82.67;" xml:space="preserve">
<style type="text/css">
	.st0{fill:url(#SVGID_1_);}
	.st1{fill:url(#SVGID_2_);}
	.st2{fill:url(#SVGID_3_);}
</style>
<g>
	<linearGradient id="SVGID_1_" gradientUnits="userSpaceOnUse" x1="35.7336" y1="9.2053" x2="54.1442" y2="9.2053">
		<stop  offset="0" style="stop-color:#FC9449"/>
		<stop  offset="0.6367" style="stop-color:#F72981"/>
		<stop  offset="1" style="stop-color:#AB29C4"/>
	</linearGradient>
	<path class="st0" d="M44.94,18.41c5.09,0,9.21-4.12,9.21-9.2c0-5.08-4.12-9.21-9.21-9.21s-9.2,4.12-9.21,9.21
		C35.73,14.29,39.85,18.41,44.94,18.41z M40.38,4.65c1.17-1.17,2.77-1.89,4.56-1.89s3.39,0.72,4.56,1.89
		c1.17,1.17,1.89,2.77,1.89,4.56c0,1.78-0.72,3.38-1.89,4.55c-1.17,1.17-2.77,1.89-4.56,1.89c-1.79,0-3.39-0.72-4.56-1.89
		c-1.17-1.17-1.89-2.77-1.89-4.55C38.5,7.42,39.21,5.82,40.38,4.65z"/>
	<linearGradient id="SVGID_2_" gradientUnits="userSpaceOnUse" x1="21.759" y1="73.4663" x2="40.1696" y2="73.4663">
		<stop  offset="0" style="stop-color:#FC9449"/>
		<stop  offset="0.6367" style="stop-color:#F72981"/>
		<stop  offset="1" style="stop-color:#AB29C4"/>
	</linearGradient>
	<path class="st1" d="M30.97,64.26c-5.09,0-9.21,4.13-9.21,9.21c0,5.08,4.12,9.2,9.21,9.21c5.09,0,9.2-4.12,9.2-9.21
		C40.17,68.39,36.05,64.26,30.97,64.26z M35.52,78.03c-1.17,1.17-2.77,1.89-4.56,1.89c-1.79,0-3.39-0.72-4.56-1.89
		c-1.17-1.17-1.89-2.77-1.89-4.55c0-1.78,0.72-3.39,1.89-4.56c1.17-1.17,2.77-1.89,4.56-1.89c1.78,0,3.39,0.72,4.56,1.89
		c1.17,1.17,1.89,2.78,1.89,4.56C37.41,75.25,36.69,76.85,35.52,78.03z"/>
	<linearGradient id="SVGID_3_" gradientUnits="userSpaceOnUse" x1="-9.094947e-13" y1="50.707" x2="74.7982" y2="50.707">
		<stop  offset="0" style="stop-color:#FC9449"/>
		<stop  offset="0.6367" style="stop-color:#F72981"/>
		<stop  offset="1" style="stop-color:#AB29C4"/>
	</linearGradient>
	<path class="st2" d="M70.4,25.6l-9.14-0.66c-0.76-0.05-2.11-0.34-2.82-0.6l-7.32-2.66c-1.12-0.41-2.91-0.86-4.08-1.04l-11.02-1.66
		c-0.83-0.13-2.02-0.2-3.1-0.2c-0.43,0-0.82,0.01-1.16,0.04l-15.25,1.1c-2.49,0.18-4.41,2.27-4.37,4.77l0.24,13.62
		c0.04,2.46,1.99,4.38,4.44,4.38c0.15,0,0.3-0.01,0.46-0.02l0.06-0.01c2.32-0.26,4.21-2.2,4.4-4.54l0.64-7.93l5.6,0.33l-1.9,11.33
		c-0.06,0.37-0.5,1.16-0.78,1.4l-6.44,5.63c-0.08,0.04-0.29,0.11-0.49,0.11l-0.05,0L6.98,45.36c-0.46-0.15-0.94-0.22-1.43-0.22
		c-1.91,0-3.65,1.1-4.44,2.8l-0.68,1.48c-1.06,2.29-0.06,5.04,2.22,6.11l14.7,6.95c0.75,0.36,1.64,0.54,2.58,0.54
		c1.21,0,2.37-0.31,3.28-0.87l12.74-7.87l8.87,10.22c0.3,0.34,0.71,1.28,0.76,1.73l1.41,12.13c0.28,2.4,2.39,4.27,4.8,4.27h1.84
		c2.54,0,4.6-2.06,4.6-4.6V63.6c0-1.55-0.62-3.61-1.47-4.9L48.28,45.9c-0.17-0.26-0.34-1.06-0.29-1.37l1.88-11.21l6.27,1.21
		c1.16,0.22,2.99,0.4,4.17,0.4h9.89c2.54,0,4.6-2.06,4.6-4.6C74.8,27.85,72.86,25.77,70.4,25.6z M70.19,32.16h-9.89
		c-1.01,0-2.65-0.16-3.65-0.35l-7.24-1.4c-0.12-0.02-0.23-0.03-0.35-0.03c-0.86,0-1.62,0.62-1.77,1.5l-2.04,12.19
		c-0.17,1,0.15,2.51,0.71,3.35l8.47,12.81c0.56,0.85,1.02,2.36,1.02,3.38v14.44c0,1.01-0.83,1.84-1.84,1.84h-1.84
		c-1.01,0-1.94-0.82-2.05-1.83l-1.41-12.13c-0.12-1.01-0.76-2.45-1.42-3.22l-9.2-10.6c-0.41-0.47-1.04-0.72-1.67-0.72
		c-0.39,0-0.78,0.1-1.11,0.3l-13.17,8.13c-0.49,0.3-1.17,0.46-1.83,0.46c-0.51,0-1-0.09-1.4-0.28l-14.7-6.95
		c-0.92-0.43-1.32-1.54-0.89-2.46l0.68-1.48c0.34-0.74,1.14-1.2,1.93-1.2c0.2,0,0.4,0.03,0.59,0.09l11.36,3.63
		c0.26,0.08,0.56,0.12,0.86,0.12c0.82,0,1.72-0.29,2.28-0.77l6.47-5.65c0.76-0.67,1.52-2.03,1.69-3.03l2.1-12.54
		c0.17-1-0.52-1.86-1.53-1.92l-7.69-0.45l-0.11,0c-0.97,0-1.8,0.76-1.88,1.73l-0.71,8.78c-0.08,1.01-0.97,1.92-1.98,2.02l-0.01,0
		l-0.18,0.01c-0.92,0-1.66-0.72-1.68-1.67l-0.24-13.62c-0.02-1.01,0.79-1.9,1.8-1.97l15.25-1.1c0.28-0.02,0.61-0.03,0.96-0.03
		c0.91,0,1.97,0.06,2.69,0.17l11.02,1.66c1,0.15,2.6,0.56,3.55,0.9l7.32,2.66c0.95,0.35,2.56,0.69,3.57,0.76l9.15,0.66
		c1.01,0.07,1.84,0.96,1.84,1.97S71.21,32.16,70.19,32.16z"/>
</g>
</svg>
