<?xml version="1.0" encoding="utf-8"?>
<!-- Generator: Adobe Illustrator 23.0.2, SVG Export Plug-In . SVG Version: 6.00 Build 0)  -->
<svg version="1.1" id="Capa_1" xmlns="http://www.w3.org/2000/svg" xmlns:xlink="http://www.w3.org/1999/xlink" x="0px" y="0px"
	 viewBox="0 0 83.85 83.81" style="enable-background:new 0 0 83.85 83.81;" xml:space="preserve">
<style type="text/css">
	.st0{fill:url(#SVGID_1_);}
	.st1{fill:#FFFFFF;}
</style>
<g>
	<linearGradient id="SVGID_1_" gradientUnits="userSpaceOnUse" x1="0" y1="41.9061" x2="83.8494" y2="41.9061">
		<stop  offset="0" style="stop-color:#FC9449"/>
		<stop  offset="0.6367" style="stop-color:#F72981"/>
		<stop  offset="1" style="stop-color:#AB29C4"/>
	</linearGradient>
	<path class="st0" d="M41.98,0C18.83,0,0,18.81,0,41.89c0,19.44,13.84,36.68,32.88,40.98c2.88,0.63,5.94,0.95,9.1,0.95
		c1.25,0,2.51,0,3.74-0.18c21.29-1.73,38.12-20.05,38.12-41.74C83.85,18.81,65.06,0,41.98,0L41.98,0z"/>
</g>
<g>
	<path class="st1" d="M46.51,33.53c0.61-0.73,1.85-1.25,3.61-1.25c1.64,0,3.6,0.24,5.45,0.76l1.55-8.36
		c-3.19-1.12-6.48-1.43-9.88-1.43c-3.4,0-6.08,0.52-8.23,1.77c-2.17,1.19-3.61,2.55-4.42,4.52c-0.83,1.77-1.24,4.72-1.24,8.44v3.29
		h-6.6v9.55h6.6v30.05c2.77,0.63,5.66,0.93,8.64,0.93c1.12,0,2.27,0,3.39-0.2V50.81h8.74v-9.55h-8.74v-3.08
		C45.37,35.81,45.69,34.36,46.51,33.53z"/>
</g>
</svg>
