<?xml version="1.0" encoding="utf-8"?>
<!-- Generator: Adobe Illustrator 23.0.2, SVG Export Plug-In . SVG Version: 6.00 Build 0)  -->
<svg version="1.1" id="Capa_1" xmlns="http://www.w3.org/2000/svg" xmlns:xlink="http://www.w3.org/1999/xlink" x="0px" y="0px"
	 viewBox="0 0 92.65 80.9" style="enable-background:new 0 0 92.65 80.9;" xml:space="preserve">
<style type="text/css">
	.st0{fill:url(#SVGID_1_);}
	.st1{fill:url(#SVGID_2_);}
	.st2{fill:url(#SVGID_3_);}
</style>
<g>
	<linearGradient id="SVGID_1_" gradientUnits="userSpaceOnUse" x1="1.818989e-12" y1="40.4519" x2="92.6511" y2="40.4519">
		<stop  offset="0" style="stop-color:#FC9449"/>
		<stop  offset="0.6367" style="stop-color:#F72981"/>
		<stop  offset="1" style="stop-color:#AB29C4"/>
	</linearGradient>
	<path class="st0" d="M63.52,42.77v0.04l1.11,1.6c0.35,0.51,0.99,0.74,1.59,0.58l4.88-1.31l1.35,1.92l-3.21,4.63
		c-0.35,0.5-0.35,1.17,0,1.67l3.27,4.77c1.31,1.92,3.93,2.42,5.85,1.11c0.01-0.01,0.03-0.02,0.04-0.03l12.45-8.7
		c1.9-1.34,2.37-3.96,1.07-5.88l-3.52-5.15c-0.38-0.55-1.08-0.78-1.71-0.56l-5.46,1.93l-0.9-1.32l3.38-5.29
		c0.33-0.49,0.33-1.13,0-1.63L68.68,9.26C68.19,8.46,62.7,0,49.76,0c-2.51,0.02-5.02,0.31-7.47,0.88c-0.79,0.2-1.27,0.99-1.07,1.78
		c0.12,0.47,0.45,0.85,0.9,1.02c0.14,0.05,13.45,4.88,16.55,14.77l-5.2,7.58c-0.34,0.5-0.34,1.16,0,1.66l2.57,3.75L1.8,69.34
		c-1.9,1.34-2.37,3.96-1.07,5.88l2.61,3.82c0.78,1.16,2.08,1.85,3.48,1.86c0.86,0.01,1.69-0.25,2.4-0.74L63.52,42.77z M59.3,31
		l-2.82-4.13l5.02-7.3c0.24-0.35,0.31-0.78,0.21-1.19c-2.04-7.77-9.16-12.77-13.97-15.33c0.69-0.07,1.37-0.11,2.04-0.11
		c11.55,0,16.22,7.55,16.42,7.86l0.05,0.08L80.7,32.01l-3.38,5.29c-0.33,0.49-0.33,1.13,0,1.63l2.1,3.05
		c0.38,0.55,1.08,0.78,1.71,0.56l5.46-1.93l2.89,4.21c0.41,0.6,0.27,1.41-0.32,1.83L76.7,55.36c-0.58,0.39-1.37,0.24-1.77-0.33
		l-2.69-3.93l3.21-4.63c0.35-0.5,0.35-1.17,0-1.67l-2.48-3.61c-0.35-0.52-0.99-0.75-1.6-0.59l-4.88,1.32l-0.91-1.32l-2.59-3.88
		c-0.45-0.68-1.36-0.86-2.04-0.41s-0.86,1.36-0.41,2.04l1.33,2L17.4,70.95l-4.17-5.99l45.7-31.94c0.66-0.46,0.83-1.37,0.38-2.04
		L59.3,31z M7.55,77.73c-0.58,0.39-1.37,0.24-1.77-0.33l-2.61-3.82c-0.41-0.6-0.27-1.41,0.32-1.83l7.31-5.1l4.18,5.97L7.55,77.73z"
		/>
	<linearGradient id="SVGID_2_" gradientUnits="userSpaceOnUse" x1="7.341" y1="72.8134" x2="10.2829" y2="72.8134">
		<stop  offset="0" style="stop-color:#FC9449"/>
		<stop  offset="0.6367" style="stop-color:#F72981"/>
		<stop  offset="1" style="stop-color:#AB29C4"/>
	</linearGradient>
	<circle class="st1" cx="8.81" cy="72.81" r="1.47"/>
	<linearGradient id="SVGID_3_" gradientUnits="userSpaceOnUse" x1="65.4473" y1="23.9034" x2="72.8041" y2="23.9034">
		<stop  offset="0" style="stop-color:#FC9449"/>
		<stop  offset="0.6367" style="stop-color:#F72981"/>
		<stop  offset="1" style="stop-color:#AB29C4"/>
	</linearGradient>
	<path class="st2" d="M70.11,28.03c0.45,0.68,1.36,0.86,2.04,0.41s0.86-1.36,0.41-2.04l-4.41-6.62c-0.45-0.68-1.36-0.86-2.04-0.41
		s-0.86,1.36-0.41,2.04l0,0L70.11,28.03z"/>
</g>
</svg>
