<?xml version="1.0" encoding="utf-8"?>
<!-- Generator: Adobe Illustrator 23.0.2, SVG Export Plug-In . SVG Version: 6.00 Build 0)  -->
<svg version="1.1" id="Capa_1" xmlns="http://www.w3.org/2000/svg" xmlns:xlink="http://www.w3.org/1999/xlink" x="0px" y="0px"
	 viewBox="0 0 493.11 723.79" style="enable-background:new 0 0 493.11 723.79;" xml:space="preserve">
<style type="text/css">
	.st0{fill:url(#SVGID_1_);}
	.st1{fill:#999999;}
	.st2{fill:#E2E2E2;}
	.st3{fill:#FFFFFF;}
</style>
<g>
	<linearGradient id="SVGID_1_" gradientUnits="userSpaceOnUse" x1="0" y1="361.8942" x2="493.1115" y2="361.8942">
		<stop  offset="0" style="stop-color:#C50048"/>
		<stop  offset="0.4798" style="stop-color:#E02B6A"/>
		<stop  offset="1" style="stop-color:#FF5E93"/>
	</linearGradient>
	<path class="st0" d="M80.58,660.18L0.95,160.85c-5.94-37.26,16.56-73.18,52.67-84.1L296.71,3.26c42.46-12.84,86.78,13.55,95.73,57
		l99.11,481.28c7.63,37.04-13.35,74.01-49.06,86.46l-262.57,91.55C135.55,735.02,87.98,706.59,80.58,660.18z"/>
	<path class="st1" d="M43.04,608.12L57.6,138.93c1.09-35.01,27.87-63.84,62.71-67.49l234.48-24.57
		c40.96-4.29,76.76,27.51,77.33,68.68l6.35,456.12c0.49,35.11-25.09,65.15-59.82,70.27l-255.39,37.64
		C80.1,685.95,41.69,651.73,43.04,608.12z"/>
	<path class="st2" d="M43.04,601.38L57.6,132.19c1.09-35.01,27.87-63.84,62.71-67.49l234.48-24.57
		c40.96-4.29,76.76,27.51,77.33,68.68l6.35,456.12c0.49,35.11-25.09,65.15-59.82,70.27l-255.39,37.64
		C80.1,679.21,41.69,644.99,43.04,601.38z"/>
	<path class="st3" d="M43.04,604.68L57.6,135.49c1.09-35.01,27.87-63.84,62.71-67.49l234.48-24.57
		c40.96-4.29,76.76,27.51,77.33,68.68l6.35,456.12c0.49,35.11-25.09,65.15-59.82,70.27l-255.39,37.64
		C80.1,682.5,41.69,648.28,43.04,604.68z"/>
</g>
</svg>
