<?xml version="1.0" encoding="utf-8"?>
<!-- Generator: Adobe Illustrator 23.0.2, SVG Export Plug-In . SVG Version: 6.00 Build 0)  -->
<svg version="1.1" id="Capa_1" xmlns="http://www.w3.org/2000/svg" xmlns:xlink="http://www.w3.org/1999/xlink" x="0px" y="0px"
	 viewBox="0 0 72.36 72.36" style="enable-background:new 0 0 72.36 72.36;" xml:space="preserve">
<style type="text/css">
	.st0{fill:url(#SVGID_1_);}
	.st1{fill:url(#SVGID_2_);}
	.st2{fill:url(#SVGID_3_);}
	.st3{fill:url(#SVGID_4_);}
	.st4{fill:url(#SVGID_5_);}
	.st5{fill:url(#SVGID_6_);}
	.st6{fill:url(#SVGID_7_);}
	.st7{fill:url(#SVGID_8_);}
</style>
<g>
	<linearGradient id="SVGID_1_" gradientUnits="userSpaceOnUse" x1="32.5629" y1="49.4459" x2="34.9749" y2="49.4459">
		<stop  offset="0" style="stop-color:#FC9449"/>
		<stop  offset="0.6367" style="stop-color:#F72981"/>
		<stop  offset="1" style="stop-color:#AB29C4"/>
	</linearGradient>
	<rect x="32.56" y="48.24" class="st0" width="2.41" height="2.41"/>
	<linearGradient id="SVGID_2_" gradientUnits="userSpaceOnUse" x1="0" y1="36.18" x2="72.361" y2="36.18">
		<stop  offset="0" style="stop-color:#FC9449"/>
		<stop  offset="0.6367" style="stop-color:#F72981"/>
		<stop  offset="1" style="stop-color:#AB29C4"/>
	</linearGradient>
	<path class="st1" d="M71.77,20.67l-9.05-5.31V7.24h1.21c0.67,0,1.21-0.54,1.21-1.21V1.21c0-0.67-0.54-1.21-1.21-1.21H51.86
		c-0.67,0-1.21,0.54-1.21,1.21v4.82c0,0.67,0.54,1.21,1.21,1.21h1.21v2.47L36.79,0.17c-0.38-0.22-0.84-0.22-1.22,0L0.6,20.67
		C0.23,20.88,0,21.28,0,21.71v6.03c0,0.67,0.54,1.21,1.21,1.21c0.21,0,0.42-0.06,0.61-0.17l3.01-1.76v31.54
		C3.34,59.41,2.42,61,2.41,62.71c0,0.21,0.01,0.43,0.04,0.64c-2.32,1.3-3.14,4.24-1.84,6.56c0.85,1.52,2.46,2.46,4.21,2.46h62.71
		c2.66,0.01,4.82-2.15,4.82-4.8c0-1.74-0.94-3.35-2.46-4.21c0.03-0.21,0.04-0.42,0.04-0.64c-0.01-1.72-0.92-3.3-2.41-4.15V27.01
		l3.01,1.76c0.57,0.34,1.31,0.14,1.65-0.43c0.11-0.18,0.17-0.4,0.17-0.61v-6.03C72.36,21.28,72.13,20.88,71.77,20.67z M53.06,2.41
		h9.65v2.41h-9.65V2.41z M55.48,7.24h4.82v6.71l-4.82-2.83V7.24z M4.82,69.95c-1.33,0-2.41-1.07-2.41-2.4
		c0-1.09,0.73-2.04,1.78-2.33c0.64-0.17,1.02-0.84,0.85-1.48C5.03,63.7,5.02,63.65,5,63.61c-0.5-1.23,0.09-2.63,1.32-3.13
		c1.23-0.5,2.63,0.09,3.13,1.32c0.04,0.09,0.07,0.19,0.1,0.29c0.17,0.64,0.84,1.02,1.48,0.85c0.05-0.01,0.09-0.03,0.13-0.04
		c1.25-0.48,2.65,0.14,3.14,1.38c0.03,0.07,0.05,0.15,0.07,0.22c0.17,0.64,0.84,1.02,1.48,0.85c0.05-0.01,0.09-0.03,0.13-0.04
		c1.23-0.5,2.64,0.09,3.14,1.33c0.5,1.23-0.09,2.64-1.33,3.14c-0.29,0.12-0.6,0.18-0.92,0.18H4.82z M21.71,67.54h28.94
		c0,0.85,0.24,1.68,0.67,2.41H21.04C21.47,69.22,21.7,68.39,21.71,67.54z M42.21,60.3H30.15V38.59h12.06V60.3z M44.62,62.71v2.41
		H27.74v-2.41H44.62z M68.16,65.22c1.28,0.34,2.04,1.66,1.7,2.95c-0.28,1.05-1.24,1.78-2.33,1.78H55.48
		c-1.33,0.01-2.42-1.07-2.42-2.4c-0.01-1.33,1.07-2.42,2.4-2.42c0.32,0,0.63,0.06,0.92,0.18c0.62,0.25,1.32-0.05,1.57-0.67
		c0.02-0.04,0.03-0.09,0.04-0.13c0.36-1.29,1.69-2.04,2.98-1.68c0.08,0.02,0.15,0.05,0.23,0.08c0.62,0.25,1.32-0.05,1.57-0.67
		c0.02-0.04,0.03-0.09,0.04-0.13c0.34-1.28,1.66-2.05,2.94-1.71c1.28,0.34,2.05,1.66,1.71,2.94c-0.03,0.1-0.06,0.19-0.1,0.29
		c-0.25,0.62,0.05,1.32,0.67,1.57C68.07,65.19,68.12,65.21,68.16,65.22z M65.12,57.89c-1.74,0.01-3.33,0.94-4.19,2.46
		c-1.95-0.25-3.85,0.7-4.82,2.41c-0.21-0.03-0.42-0.04-0.64-0.04c-1.72,0.01-3.3,0.92-4.15,2.41h-4.29v-3.62
		c0-0.67-0.54-1.21-1.21-1.21h-1.21V37.39c0-0.67-0.54-1.21-1.21-1.21H28.94c-0.67,0-1.21,0.54-1.21,1.21V60.3h-1.21
		c-0.67,0-1.21,0.54-1.21,1.21v3.62h-4.29c-0.86-1.49-2.44-2.41-4.15-2.41c-0.21,0-0.43,0.01-0.64,0.04
		c-0.97-1.71-2.88-2.66-4.82-2.41c-0.85-1.51-2.45-2.45-4.19-2.46V25.6L36.18,8.63L65.12,25.6V57.89z M67.37,24.12L36.79,6.2
		c-0.38-0.22-0.84-0.22-1.22,0L4.99,24.12l-0.17,0.1l-2.41,1.41V22.4L36.18,2.6l33.77,19.8v3.23l-2.41-1.41L67.37,24.12z"/>
	<linearGradient id="SVGID_3_" gradientUnits="userSpaceOnUse" x1="7.6931" y1="6.7782" x2="25.7936" y2="6.7782">
		<stop  offset="0" style="stop-color:#FC9449"/>
		<stop  offset="0.6367" style="stop-color:#F72981"/>
		<stop  offset="1" style="stop-color:#AB29C4"/>
	</linearGradient>
	<polygon class="st2" points="7.69,10.69 24.57,0.79 25.79,2.87 8.91,12.77 	"/>
	<linearGradient id="SVGID_4_" gradientUnits="userSpaceOnUse" x1="3.009" y1="13.8682" x2="6.2864" y2="13.8682">
		<stop  offset="0" style="stop-color:#FC9449"/>
		<stop  offset="0.6367" style="stop-color:#F72981"/>
		<stop  offset="1" style="stop-color:#AB29C4"/>
	</linearGradient>
	<polygon class="st3" points="3.01,13.43 5.07,12.22 6.29,14.3 4.23,15.51 	"/>
	<linearGradient id="SVGID_5_" gradientUnits="userSpaceOnUse" x1="28.9449" y1="24.12" x2="43.4169" y2="24.12">
		<stop  offset="0" style="stop-color:#FC9449"/>
		<stop  offset="0.6367" style="stop-color:#F72981"/>
		<stop  offset="1" style="stop-color:#AB29C4"/>
	</linearGradient>
	<path class="st4" d="M28.94,24.12v6.03c0,0.67,0.54,1.21,1.21,1.21h12.06c0.67,0,1.21-0.54,1.21-1.21v-6.03
		c0-4-3.24-7.24-7.24-7.24S28.94,20.12,28.94,24.12z M34.97,19.47v3.45h-3.45C31.97,21.23,33.29,19.91,34.97,19.47z M31.36,25.33
		h3.62v3.62h-3.62V25.33z M37.39,28.94v-3.62H41v3.62H37.39z M40.83,22.91h-3.45v-3.45C39.08,19.91,40.39,21.23,40.83,22.91z"/>
	<linearGradient id="SVGID_6_" gradientUnits="userSpaceOnUse" x1="48.2409" y1="43.4159" x2="62.7129" y2="43.4159">
		<stop  offset="0" style="stop-color:#FC9449"/>
		<stop  offset="0.6367" style="stop-color:#F72981"/>
		<stop  offset="1" style="stop-color:#AB29C4"/>
	</linearGradient>
	<path class="st5" d="M49.45,50.65h12.06c0.67,0,1.21-0.54,1.21-1.21V37.39c0-0.67-0.54-1.21-1.21-1.21H49.45
		c-0.67,0-1.21,0.54-1.21,1.21v12.06C48.24,50.11,48.78,50.65,49.45,50.65z M50.65,48.24v-2.41h9.65v2.41H50.65z M60.3,38.59v4.82
		h-9.65v-4.82H60.3z"/>
	<linearGradient id="SVGID_7_" gradientUnits="userSpaceOnUse" x1="9.6489" y1="43.4159" x2="24.1209" y2="43.4159">
		<stop  offset="0" style="stop-color:#FC9449"/>
		<stop  offset="0.6367" style="stop-color:#F72981"/>
		<stop  offset="1" style="stop-color:#AB29C4"/>
	</linearGradient>
	<path class="st6" d="M22.91,36.18H10.85c-0.67,0-1.21,0.54-1.21,1.21v12.06c0,0.67,0.54,1.21,1.21,1.21h12.06
		c0.67,0,1.21-0.54,1.21-1.21V37.39C24.12,36.72,23.58,36.18,22.91,36.18z M21.71,38.59v4.82h-9.65v-4.82H21.71z M12.06,48.24v-2.41
		h9.65v2.41H12.06z"/>
	<linearGradient id="SVGID_8_" gradientUnits="userSpaceOnUse" x1="69.9489" y1="44.6219" x2="72.3609" y2="44.6219">
		<stop  offset="0" style="stop-color:#FC9449"/>
		<stop  offset="0.6367" style="stop-color:#F72981"/>
		<stop  offset="1" style="stop-color:#AB29C4"/>
	</linearGradient>
	<rect x="69.95" y="36.18" class="st7" width="2.41" height="16.88"/>
</g>
</svg>
