<?xml version="1.0" encoding="utf-8"?>
<!-- Generator: Adobe Illustrator 23.0.2, SVG Export Plug-In . SVG Version: 6.00 Build 0)  -->
<svg version="1.1" id="Capa_1" xmlns="http://www.w3.org/2000/svg" xmlns:xlink="http://www.w3.org/1999/xlink" x="0px" y="0px"
	 viewBox="0 0 83.83 83.85" style="enable-background:new 0 0 83.83 83.85;" xml:space="preserve">
<style type="text/css">
	.st0{fill:url(#SVGID_1_);}
	.st1{fill-rule:evenodd;clip-rule:evenodd;fill:#444851;}
</style>
<g>
	<g>
		<linearGradient id="SVGID_1_" gradientUnits="userSpaceOnUse" x1="0" y1="41.9242" x2="83.8294" y2="41.9242">
			<stop  offset="0" style="stop-color:#FC9449"/>
			<stop  offset="0.6367" style="stop-color:#F72981"/>
			<stop  offset="1" style="stop-color:#AB29C4"/>
		</linearGradient>
		<path class="st0" d="M41.91,2.04c22.04,0,39.88,17.88,39.88,39.88c0,22.04-17.84,39.88-39.88,39.88c-22,0-39.86-17.84-39.86-39.88
			C2.04,19.92,19.9,2.04,41.91,2.04 M41.91,0C18.79,0,0,18.81,0,41.92c0,23.12,18.79,41.92,41.91,41.92
			c23.12,0,41.92-18.81,41.92-41.92C83.83,18.81,65.02,0,41.91,0L41.91,0z"/>
	</g>
	<g>
		<path class="st1" d="M57.78,20.4c-10.56,0-21.15,0-31.7,0c-3.77,0-5.72,2.01-5.72,5.76c0,5.24,0,10.48,0,15.76
			c0,5.24,0,10.61,0,15.89c0,3.64,2.01,5.63,5.54,5.63c10.67,0,21.26,0,31.89,0c3.68,0,5.71-1.99,5.71-5.67c0-10.61,0-21.13,0-31.74
			C63.48,22.41,61.46,20.4,57.78,20.4z M54.28,25.29c4.27,0,4.27,0,4.27,4.27c0,4.16,0,4.16-4.2,4.16c-4.24,0-4.24,0-4.24-4.24
			C50.12,25.29,50.12,25.29,54.28,25.29z M41.94,33.56c4.5,0,8.36,3.88,8.29,8.36c-0.04,4.61-3.86,8.4-8.44,8.33
			c-4.53-0.07-8.36-3.92-8.25-8.4C33.65,37.32,37.44,33.56,41.94,33.56z M58.56,56.01c-0.04,2.01-0.56,2.57-2.56,2.57
			c-4.7,0-9.4,0-14.11,0c-4.66,0-9.36,0-14.07,0c-1.97,0-2.53-0.56-2.53-2.57c0-5.2,0.02-10.48-0.07-15.72
			c0-1.49,0.41-1.8,1.78-1.77c1.97,0.17,2.01,0.07,1.78,2.01c-0.76,6.63,3.85,13.12,10.41,14.4c6.77,1.28,13.53-2.77,15.39-9.25
			c0.56-2.03,0.73-4.2,0.3-6.19c-0.15-0.76,0.04-0.89,0.71-0.89c2.97-0.24,2.97-0.28,2.97,2.81C58.56,46.2,58.56,51.12,58.56,56.01z
			"/>
	</g>
</g>
</svg>
