<?xml version="1.0" encoding="utf-8"?>
<!-- Generator: Adobe Illustrator 23.0.2, SVG Export Plug-In . SVG Version: 6.00 Build 0)  -->
<svg version="1.1" id="Capa_1" xmlns="http://www.w3.org/2000/svg" xmlns:xlink="http://www.w3.org/1999/xlink" x="0px" y="0px"
	 viewBox="0 0 73.93 71.55" style="enable-background:new 0 0 73.93 71.55;" xml:space="preserve">
<style type="text/css">
	.st0{fill:url(#SVGID_1_);}
	.st1{fill:url(#SVGID_2_);}
	.st2{fill:url(#SVGID_3_);}
	.st3{fill:url(#SVGID_4_);}
	.st4{fill:url(#SVGID_5_);}
	.st5{fill:url(#SVGID_6_);}
</style>
<g>
	<linearGradient id="SVGID_1_" gradientUnits="userSpaceOnUse" x1="15.488" y1="26.8304" x2="34.5668" y2="26.8304">
		<stop  offset="0" style="stop-color:#FC9449"/>
		<stop  offset="0.6367" style="stop-color:#F72981"/>
		<stop  offset="1" style="stop-color:#AB29C4"/>
	</linearGradient>
	<path class="st0" d="M25.03,33.39c5.26,0,9.54-3.48,9.54-7.75c0-0.66-0.53-1.19-1.19-1.19s-1.19,0.53-1.19,1.19
		c0,2.65-2.58,4.86-5.96,5.29v-3.78c0.13-0.06,0.25-0.14,0.36-0.22l2.02-1.44l0,0c0.75-0.55,1.2-1.42,1.19-2.35
		c0-1.57-1.23-2.86-2.75-2.86H23c-1.51,0-2.75,1.28-2.75,2.86c-0.01,0.93,0.44,1.81,1.19,2.35l2.02,1.44
		c0.11,0.08,0.24,0.15,0.36,0.22v3.78c-3.38-0.43-5.96-2.64-5.96-5.29c0-0.66-0.53-1.19-1.19-1.19c-0.66,0-1.19,0.53-1.19,1.19
		C15.49,29.91,19.77,33.39,25.03,33.39z M22.83,23.54c-0.13-0.1-0.2-0.25-0.19-0.41c0-0.25,0.17-0.47,0.36-0.47h4.05
		c0.2,0,0.36,0.22,0.36,0.47c0,0.16-0.07,0.31-0.19,0.41l-2.02,1.44c-0.1,0.08-0.24,0.08-0.34,0L22.83,23.54z"/>
	<linearGradient id="SVGID_2_" gradientUnits="userSpaceOnUse" x1="30.9895" y1="19.0794" x2="33.3743" y2="19.0794">
		<stop  offset="0" style="stop-color:#FC9449"/>
		<stop  offset="0.6367" style="stop-color:#F72981"/>
		<stop  offset="1" style="stop-color:#AB29C4"/>
	</linearGradient>
	<circle class="st1" cx="32.18" cy="19.08" r="1.19"/>
	<linearGradient id="SVGID_3_" gradientUnits="userSpaceOnUse" x1="16.6804" y1="19.0794" x2="19.0653" y2="19.0794">
		<stop  offset="0" style="stop-color:#FC9449"/>
		<stop  offset="0.6367" style="stop-color:#F72981"/>
		<stop  offset="1" style="stop-color:#AB29C4"/>
	</linearGradient>
	<circle class="st2" cx="17.87" cy="19.08" r="1.19"/>
	<linearGradient id="SVGID_4_" gradientUnits="userSpaceOnUse" x1="51.2741" y1="39.3506" x2="60.8135" y2="39.3506">
		<stop  offset="0" style="stop-color:#FC9449"/>
		<stop  offset="0.6367" style="stop-color:#F72981"/>
		<stop  offset="1" style="stop-color:#AB29C4"/>
	</linearGradient>
	<path class="st3" d="M56.04,44.12c2.63,0,4.77-2.14,4.77-4.77c0-2.63-2.14-4.77-4.77-4.77c-2.63,0-4.77,2.14-4.77,4.77
		C51.28,41.98,53.41,44.12,56.04,44.12z M56.04,36.97c1.32,0,2.38,1.07,2.38,2.38s-1.07,2.38-2.38,2.38c-1.32,0-2.38-1.07-2.38-2.38
		C53.66,38.03,54.73,36.97,56.04,36.97z"/>
	<linearGradient id="SVGID_5_" gradientUnits="userSpaceOnUse" x1="0" y1="35.773" x2="73.9302" y2="35.773">
		<stop  offset="0" style="stop-color:#FC9449"/>
		<stop  offset="0.6367" style="stop-color:#F72981"/>
		<stop  offset="1" style="stop-color:#AB29C4"/>
	</linearGradient>
	<path class="st4" d="M72.74,46.51h-7.15V31c0-0.24-0.08-0.48-0.22-0.68l0,0L57.02,18.4c-0.38-0.54-1.12-0.67-1.66-0.29
		c-0.11,0.08-0.21,0.18-0.29,0.29l-8.35,11.92l0,0c-0.14,0.2-0.22,0.44-0.21,0.68v7.46c-1.63-2.2-3.81-4.02-6.5-5.42
		c2.66-3.12,4.1-7.18,4.1-11.58c0.01-1.94-0.29-3.88-0.87-5.73c4.08-2.15,5.64-7.2,3.49-11.28s-7.2-5.64-11.28-3.49
		c-1.53,0.81-2.77,2.07-3.55,3.62c-2.22-0.68-4.53-1.02-6.86-1.01c-2.32-0.02-4.64,0.32-6.86,1.01c-2.08-4.11-7.1-5.76-11.21-3.68
		S1.19,8,3.27,12.11c0.78,1.54,2.02,2.81,3.55,3.62c-0.59,1.85-0.88,3.79-0.87,5.73c0,4.4,1.45,8.46,4.1,11.58
		c-5.81,3.03-9.23,8-9.93,14.48c0,0.01,0,0.03,0,0.04L0,49.2c0,0.05,0,0.11,0,0.16c0.19,2.85,2.07,5.32,4.76,6.27
		c-0.79,1.61-1.19,3.38-1.19,5.18c0,5.92,4.28,10.73,9.54,10.73c2.83,0,5.38-1.4,7.13-3.61c2.99,1.63,6.6,1.63,9.59,0
		c1.75,2.21,4.29,3.61,7.13,3.61c3.74,0,6.98-2.43,8.54-5.96h27.23c0.66,0,1.19-0.53,1.19-1.19V47.7
		C73.93,47.04,73.4,46.51,72.74,46.51z M56.04,21.16l6.06,8.65H49.99L56.04,21.16z M48.89,32.2H63.2v14.31H49.8
		c-0.19-1.22-0.49-2.42-0.91-3.58V32.2z M45.31,55.63c1.12-0.4,2.13-1.08,2.93-1.97h1.84v4.77h-3.82
		C46.07,57.46,45.75,56.52,45.31,55.63z M47.56,47.76l0.11,1.53c-0.18,2.07-1.67,3.79-3.7,4.25c-1.49-1.82-3.54-3.06-5.84-3.37
		c-0.22-4.85-1.85-9.33-4.52-12.46c1.68-0.71,3.25-1.68,4.63-2.88C43.7,37.44,46.92,41.9,47.56,47.76L47.56,47.76z M39.34,2.39
		c3.29,0,5.96,2.67,5.96,5.96c0,2.12-1.12,4.08-2.96,5.15c-0.83-1.74-1.96-3.33-3.34-4.69c-1.42-1.39-3.07-2.53-4.88-3.36
		C35.18,3.56,37.17,2.39,39.34,2.39z M4.76,8.35c0-3.29,2.67-5.96,5.96-5.96c2.17,0,4.16,1.17,5.21,3.07
		c-1.81,0.83-3.46,1.97-4.88,3.36c-1.38,1.36-2.51,2.94-3.34,4.69C5.88,12.43,4.76,10.47,4.76,8.35z M12.72,10.51
		C15.75,7.54,20,5.96,25.03,5.96s9.28,1.57,12.31,4.55c2.83,2.78,4.39,6.67,4.39,10.95s-1.56,8.17-4.39,10.95
		c-3.03,2.97-7.28,4.55-12.31,4.55s-9.28-1.57-12.31-4.55c-2.83-2.78-4.39-6.67-4.39-10.95S9.89,13.29,12.72,10.51z M2.39,49.29
		l0.11-1.53c0.64-5.86,3.86-10.31,9.32-12.93c1.39,1.2,2.96,2.18,4.65,2.89c-2.66,3.13-4.3,7.62-4.52,12.45
		c-2.3,0.32-4.35,1.56-5.84,3.38C4.07,53.09,2.56,51.37,2.39,49.29z M13.12,69.16c-3.95,0-7.15-3.74-7.15-8.35s3.21-8.35,7.15-8.35
		s7.15,3.74,7.15,8.35S17.06,69.16,13.12,69.16z M25.04,66.78c-1.23,0-2.44-0.3-3.53-0.87c0.76-1.59,1.15-3.33,1.14-5.09
		c0-5.45-3.63-9.96-8.32-10.64c0.23-4.65,1.9-8.9,4.58-11.61c1.99,0.53,4.05,0.8,6.11,0.78c2.07,0.01,4.13-0.25,6.13-0.79
		c2.69,2.71,4.36,6.94,4.59,11.61c-4.69,0.68-8.32,5.19-8.32,10.64c-0.01,1.76,0.39,3.5,1.14,5.09
		C27.48,66.47,26.27,66.77,25.04,66.78z M36.97,69.16c-3.95,0-7.15-3.74-7.15-8.35s3.21-8.35,7.15-8.35s7.15,3.74,7.15,8.35
		S40.91,69.16,36.97,69.16z M46.5,60.81h4.77c0.66,0,1.19-0.53,1.19-1.19v-7.15c0-0.66-0.53-1.19-1.19-1.19h-1.62
		c0.22-0.62,0.35-1.26,0.39-1.91c0-0.05,0-0.11,0-0.16l-0.02-0.31h4.82V63.2h-8.59C46.42,62.41,46.5,61.62,46.5,60.81z M71.55,63.2
		H57.24V48.89h14.31V63.2z"/>
	<linearGradient id="SVGID_6_" gradientUnits="userSpaceOnUse" x1="59.6209" y1="56.0445" x2="69.1605" y2="56.0445">
		<stop  offset="0" style="stop-color:#FC9449"/>
		<stop  offset="0.6367" style="stop-color:#F72981"/>
		<stop  offset="1" style="stop-color:#AB29C4"/>
	</linearGradient>
	<path class="st5" d="M60.81,60.81h7.15c0.66,0,1.19-0.53,1.19-1.19c0-0.19-0.04-0.37-0.13-0.53l-3.58-7.15
		c-0.29-0.59-1.01-0.83-1.6-0.53c-0.23,0.12-0.42,0.3-0.53,0.53l-3.58,7.15c-0.29,0.59-0.06,1.31,0.53,1.6
		C60.45,60.77,60.63,60.81,60.81,60.81z M64.39,55.13l1.65,3.3h-3.3L64.39,55.13z"/>
</g>
</svg>
