<?xml version="1.0" encoding="utf-8"?>
<!-- Generator: Adobe Illustrator 23.0.2, SVG Export Plug-In . SVG Version: 6.00 Build 0)  -->
<svg version="1.1" id="Capa_1" xmlns="http://www.w3.org/2000/svg" xmlns:xlink="http://www.w3.org/1999/xlink" x="0px" y="0px"
	 viewBox="0 0 67 88" style="enable-background:new 0 0 67 88;" xml:space="preserve">
<style type="text/css">
	.st0{fill:url(#SVGID_1_);}
	.st1{fill:url(#SVGID_2_);}
	.st2{fill:url(#SVGID_3_);}
	.st3{fill:url(#SVGID_4_);}
	.st4{fill:url(#SVGID_5_);}
</style>
<g>
	<linearGradient id="SVGID_1_" gradientUnits="userSpaceOnUse" x1="0" y1="44" x2="29.001" y2="44">
		<stop  offset="0" style="stop-color:#FC9449"/>
		<stop  offset="0.6367" style="stop-color:#F72981"/>
		<stop  offset="1" style="stop-color:#AB29C4"/>
	</linearGradient>
	<path class="st0" d="M24.49,32.73c-1.09-1.43-1.66-2.93-1.81-4.72c-0.51-6.34-1.03-12.68-1.54-19.02c0.76-0.05,1.43-0.51,1.73-1.22
		c0.31-0.75,0.14-1.61-0.44-2.18c-0.16-0.16-0.42-0.33-0.8-0.55c0.49-0.53,0.79-1.25,0.79-2.03c0-1.65-1.35-3-3-3H9.57
		c-1.65,0-3,1.35-3,3c0,0.79,0.31,1.51,0.81,2.04C7,5.26,6.76,5.42,6.6,5.58C6.02,6.15,5.85,7.01,6.16,7.76
		c0.29,0.71,0.95,1.16,1.7,1.22c-0.52,6.36-1.05,12.73-1.6,19.09c-0.15,1.75-0.71,3.22-1.77,4.62L1.4,36.8C0.46,38.06,0,39.43,0,41
		v1.12v34.76V83c0,2.76,2.24,5,5,5H24c2.76,0,5-2.24,5-5l0-41.97c0-1.59-0.47-2.97-1.43-4.24L24.49,32.73z M9.35,6.27
		C9.54,6.18,9.71,6.09,9.86,6H12V4H9.58c0,0,0,0,0,0c-0.55,0-1-0.45-1-1c0-0.54,0.46-1,1-1h9.84c0.55,0,1,0.45,1,1s-0.45,1-1,1h0H15
		v2h4.15c0.12,0.07,0.25,0.13,0.38,0.2c0.39,0.19,1.3,0.65,1.49,0.8c0,0,0,0-0.01,0h-0.03l0,0H8.02l0,0.02H7.98
		C8.17,6.87,8.97,6.46,9.35,6.27z M2,44h2c6.06,0,11,4.94,11,11v9c0,6.07-4.93,11-11,11H2V44z M27,83c0,1.66-1.35,3-3,3H5
		c-1.66,0-3-1.35-3-3v-6h2c7.17,0,13-5.83,13-13v-9c0-7.17-5.83-13-13-13H2v-1c0-1.14,0.32-2.09,1-3l3.09-4.12
		c1.29-1.72,1.97-3.51,2.16-5.65C8.8,21.83,9.34,15.42,9.86,9h9.27c0.52,6.39,1.04,12.78,1.55,19.16c0.18,2.19,0.88,4.02,2.21,5.77
		L25.98,38c0.7,0.92,1.02,1.88,1.02,3.03L27,83z"/>
	<linearGradient id="SVGID_2_" gradientUnits="userSpaceOnUse" x1="15.735" y1="42.876" x2="24.999" y2="42.876">
		<stop  offset="0" style="stop-color:#FC9449"/>
		<stop  offset="0.6367" style="stop-color:#F72981"/>
		<stop  offset="1" style="stop-color:#AB29C4"/>
	</linearGradient>
	<path class="st1" d="M20.49,34.23c-1.09-1.43-1.66-2.93-1.81-4.72l-0.95-11.75l-1.99,0.16l0.95,11.75
		c0.18,2.19,0.88,4.02,2.21,5.77l3.09,4.06c0.7,0.92,1.02,1.88,1.02,3.03L23,68h2l0-25.48c0-1.59-0.47-2.97-1.43-4.24L20.49,34.23z"
		/>
	<linearGradient id="SVGID_3_" gradientUnits="userSpaceOnUse" x1="22.999" y1="71.501" x2="24.999" y2="71.501">
		<stop  offset="0" style="stop-color:#FC9449"/>
		<stop  offset="0.6367" style="stop-color:#F72981"/>
		<stop  offset="1" style="stop-color:#AB29C4"/>
	</linearGradient>
	<rect x="23" y="70" class="st2" width="2" height="3"/>
	<linearGradient id="SVGID_4_" gradientUnits="userSpaceOnUse" x1="34.939" y1="46.6825" x2="66.997" y2="46.6825">
		<stop  offset="0" style="stop-color:#FC9449"/>
		<stop  offset="0.6367" style="stop-color:#F72981"/>
		<stop  offset="1" style="stop-color:#AB29C4"/>
	</linearGradient>
	<path class="st3" d="M66.77,19c0.11-0.53,0.18-1.06,0.18-1.61c0-3.16-1.93-5.9-4.76-7.04l0.01-0.02c-0.22-0.09-0.45-0.16-0.68-0.23
		c-0.06-0.02-0.12-0.05-0.19-0.07c-0.66-2.71-3.1-4.67-5.95-4.67c-2.28,0-4.32,1.24-5.37,3.18c-0.79-0.34-1.65-0.51-2.52-0.51
		c-2.92,0-5.36,1.9-6.18,4.58c-0.01,0-0.01-0.01-0.02-0.01c-0.03,0.09-0.04,0.18-0.06,0.27c-0.02,0.09-0.06,0.17-0.08,0.25
		c-2.99,0.55-5.36,2.91-5.98,5.88H35v1.22L34.94,21H35v9.5c0,7.14,1.03,13.33,3.34,20.08c1.99,5.82,3.04,12.39,3.04,19
		c0,4.23-0.42,8.4-1.25,12.4c-0.31,1.52,0.04,2.96,1.02,4.17C42.12,87.35,43.5,88,45.03,88h11.93c1.53,0,2.91-0.65,3.88-1.84
		c0.98-1.21,1.33-2.65,1.02-4.17c-0.83-4-1.25-8.17-1.25-12.4c0-6.61,1.05-13.18,3.04-19C65.97,43.84,67,37.64,67,30.5V19H66.77z
		 M41.04,15.21c0.07,0.68,0.25,1.34,0.54,1.97l1.82-0.82c-0.26-0.58-0.4-1.21-0.4-1.85c0-0.17,0.02-0.33,0.03-0.5
		c0.02-0.18,0.06-0.35,0.1-0.52c0.1-0.43,0.27-0.83,0.48-1.21c0,0-0.01,0-0.01,0c0.77-1.35,2.22-2.25,3.88-2.25
		c0.65,0,1.28,0.14,1.86,0.41c-0.06,0.34-0.09,0.69-0.09,1.05c0,0.7,0.12,1.4,0.36,2.06l1.88-0.67c-0.16-0.45-0.24-0.91-0.24-1.39
		c0-0.88,0.28-1.69,0.75-2.36c0,0,0,0,0,0c0.76-1.09,2-1.76,3.38-1.76c1.66,0,3.1,0.99,3.75,2.43c-1.42,0.04-2.83,0.46-4.03,1.27
		l1.11,1.66c1.25-0.84,2.82-1.12,4.28-0.82c0.21,0.04,0.4,0.1,0.6,0.16c0.09,0.03,0.19,0.06,0.28,0.09
		c2.13,0.82,3.59,2.87,3.59,5.23c0,0.55-0.08,1.09-0.24,1.61H63c-1.65,0-3,1.35-3,3v11c0,0.55-0.45,1-1,1l0,0c-0.55,0-1-0.45-1-1V22
		c0-1.65-1.34-2.99-2.99-3l0,0H55H37.21C37.73,17.17,39.2,15.73,41.04,15.21z M65,30.51c0,6.91-1,12.9-3.23,19.44
		c-2.06,6.02-3.15,12.82-3.15,19.65c0,4.36,0.43,8.67,1.29,12.81c0.19,0.93-0.01,1.77-0.61,2.5c-0.6,0.73-1.38,1.11-2.33,1.11H45.03
		c-0.94,0-1.73-0.37-2.33-1.11s-0.8-1.58-0.61-2.5c0.03-0.13,0.04-0.26,0.07-0.39H52v-2h-9.47c0.56-3.39,0.86-6.88,0.86-10.41
		c0-6.83-1.09-13.62-3.15-19.65C38.27,44.2,37.26,38.89,37.05,33h15.88v-2H37.01c0-0.17-0.01-0.33-0.01-0.49V21h18
		c0.55,0,1,0.45,1,1v11c0,1.65,1.35,3,3,3s3-1.35,3-3V22c0-0.55,0.45-1,1-1h2V30.51z"/>
	<linearGradient id="SVGID_5_" gradientUnits="userSpaceOnUse" x1="54.205" y1="81.001" x2="58" y2="81.001">
		<stop  offset="0" style="stop-color:#FC9449"/>
		<stop  offset="0.6367" style="stop-color:#F72981"/>
		<stop  offset="1" style="stop-color:#AB29C4"/>
	</linearGradient>
	<rect x="54.21" y="80" class="st4" width="3.79" height="2"/>
</g>
</svg>
