<?xml version="1.0" encoding="utf-8"?>
<!-- Generator: Adobe Illustrator 23.0.2, SVG Export Plug-In . SVG Version: 6.00 Build 0)  -->
<svg version="1.1" id="Capa_1" xmlns="http://www.w3.org/2000/svg" xmlns:xlink="http://www.w3.org/1999/xlink" x="0px" y="0px"
	 viewBox="0 0 83.84 83.85" style="enable-background:new 0 0 83.84 83.85;" xml:space="preserve">
<style type="text/css">
	.st0{fill:url(#SVGID_1_);}
	.st1{fill:#FFFFFF;}
</style>
<g>
	<g>
		<linearGradient id="SVGID_1_" gradientUnits="userSpaceOnUse" x1="0" y1="41.9238" x2="83.838" y2="41.9238">
			<stop  offset="0" style="stop-color:#FC9449"/>
			<stop  offset="0.6367" style="stop-color:#F72981"/>
			<stop  offset="1" style="stop-color:#AB29C4"/>
		</linearGradient>
		<path class="st0" d="M41.93,0C18.81,0,0,18.81,0,41.92s18.81,41.92,41.93,41.92c23.1,0,41.9-18.81,41.9-41.92S65.03,0,41.93,0
			L41.93,0z"/>
	</g>
	<g>
		<path class="st1" d="M20,34.32h9.41v30.21H20V34.32z M24.7,19.31c3.01,0,5.45,2.44,5.45,5.44c0,3.01-2.44,5.45-5.45,5.45
			c-3.02,0-5.45-2.44-5.45-5.45C19.25,21.75,21.69,19.31,24.7,19.31"/>
		<path class="st1" d="M35.3,34.32h9.01v4.13h0.12c1.26-2.38,4.32-4.88,8.89-4.88c9.51,0,11.26,6.25,11.26,14.39v16.57H55.2V49.85
			c0-3.51-0.07-8.01-4.88-8.01c-4.89,0-5.63,3.82-5.63,7.76v14.95H35.3V34.32z"/>
	</g>
</g>
</svg>
