<?xml version="1.0" encoding="utf-8"?>
<!-- Generator: Adobe Illustrator 23.0.2, SVG Export Plug-In . SVG Version: 6.00 Build 0)  -->
<svg version="1.1" id="Capa_1" xmlns="http://www.w3.org/2000/svg" xmlns:xlink="http://www.w3.org/1999/xlink" x="0px" y="0px"
	 viewBox="0 0 330.45 100.97" style="enable-background:new 0 0 330.45 100.97;" xml:space="preserve">
<style type="text/css">
	.st0{fill:url(#SVGID_1_);}
	.st1{fill:url(#SVGID_2_);}
	.st2{fill:url(#SVGID_3_);}
	.st3{fill:#009FE3;}
	.st4{fill:#FF6700;}
	.st5{fill:#E6007E;}
</style>
<g>
	<g>
		<g>
			<linearGradient id="SVGID_1_" gradientUnits="userSpaceOnUse" x1="58.0382" y1="77.3809" x2="58.0382" y2="105.258">
				<stop  offset="0" style="stop-color:#FC9449"/>
				<stop  offset="0.6367" style="stop-color:#F72981"/>
				<stop  offset="1" style="stop-color:#AB29C4"/>
			</linearGradient>
			<circle class="st0" cx="58.04" cy="90.25" r="10.72"/>
			<linearGradient id="SVGID_2_" gradientUnits="userSpaceOnUse" x1="112.8983" y1="77.3809" x2="112.8983" y2="105.258">
				<stop  offset="0" style="stop-color:#FC9449"/>
				<stop  offset="0.6367" style="stop-color:#F72981"/>
				<stop  offset="1" style="stop-color:#AB29C4"/>
			</linearGradient>
			<circle class="st1" cx="112.9" cy="90.25" r="10.72"/>
		</g>
		<linearGradient id="SVGID_3_" gradientUnits="userSpaceOnUse" x1="0" y1="37.8842" x2="142.8647" y2="37.8842">
			<stop  offset="0" style="stop-color:#FC9449"/>
			<stop  offset="0.6367" style="stop-color:#F72981"/>
			<stop  offset="1" style="stop-color:#AB29C4"/>
		</linearGradient>
		<path class="st2" d="M139.58,9.12c-0.09-0.01-0.18-0.01-0.27-0.01c-0.09,0-0.18,0.01-0.27,0.01h-22.62l-8.01,29.56L91.43,17.5
			h-12.7L62.77,38.3L52.44,2.37h-0.01c0,0,0,0,0,0c-0.13-0.5-0.37-0.96-0.71-1.33c-0.01-0.01-0.01-0.01-0.02-0.02
			c-0.11-0.12-0.23-0.23-0.35-0.33c-0.01-0.01-0.01-0.01-0.02-0.01c-0.13-0.1-0.26-0.19-0.41-0.27c0,0,0,0-0.01,0
			c-0.14-0.08-0.28-0.14-0.43-0.19c-0.02-0.01-0.05-0.02-0.07-0.03c-0.14-0.05-0.29-0.09-0.44-0.12c-0.03,0-0.05-0.01-0.08-0.01
			C49.73,0.02,49.57,0,49.4,0H23.3H0v15.81c0,1.65,1.34,2.99,2.99,2.99h26.44l18.68,56.96h21.9l15.27-20.33l15.61,20.33h21.9
			l19.85-61.9l0.09-0.27c0.08-0.3,0.13-0.62,0.13-0.95C142.86,10.79,141.42,9.26,139.58,9.12z"/>
	</g>
	<g>
		<g>
			<path class="st3" d="M166.72,7.64c1.81-0.38,4.66-0.67,7.55-0.67c4.13,0,6.79,0.71,8.79,2.33c1.66,1.24,2.66,3.14,2.66,5.65
				c0,3.09-2.04,5.8-5.42,7.03v0.09c3.04,0.76,6.6,3.28,6.6,8.03c0,2.76-1.09,4.85-2.71,6.41c-2.23,2.04-5.84,2.99-11.07,2.99
				c-2.85,0-5.04-0.19-6.41-0.38V7.64z M170.85,20.75h3.75c4.37,0,6.94-2.28,6.94-5.37c0-3.75-2.85-5.23-7.03-5.23
				c-1.9,0-2.99,0.14-3.66,0.29V20.75z M170.85,36.1c0.81,0.14,2,0.19,3.47,0.19c4.28,0,8.22-1.57,8.22-6.22
				c0-4.37-3.75-6.18-8.27-6.18h-3.42V36.1z"/>
			<path class="st3" d="M196.6,7.21v18.96c0,7.17,3.18,10.22,7.46,10.22c4.75,0,7.79-3.14,7.79-10.22V7.21h4.18v18.67
				c0,9.84-5.18,13.87-12.12,13.87c-6.56,0-11.5-3.75-11.5-13.68V7.21H196.6z"/>
			<path class="st3" d="M230.34,39.24V25.65L220.22,7.21h4.7l4.51,8.84c1.24,2.42,2.19,4.37,3.18,6.6h0.09c0.9-2.09,2-4.18,3.23-6.6
				l4.61-8.84h4.7L234.52,25.6v13.64H230.34z"/>
			<path class="st4" d="M248.58,7.64c1.81-0.38,4.66-0.67,7.55-0.67c4.13,0,6.79,0.71,8.79,2.33c1.66,1.24,2.66,3.14,2.66,5.65
				c0,3.09-2.04,5.8-5.42,7.03v0.09c3.04,0.76,6.6,3.28,6.6,8.03c0,2.76-1.09,4.85-2.71,6.41c-2.23,2.04-5.84,2.99-11.07,2.99
				c-2.85,0-5.04-0.19-6.41-0.38V7.64z M252.72,20.75h3.75c4.37,0,6.94-2.28,6.94-5.37c0-3.75-2.85-5.23-7.03-5.23
				c-1.9,0-2.99,0.14-3.66,0.29V20.75z M252.72,36.1c0.81,0.14,2,0.19,3.47,0.19c4.28,0,8.22-1.57,8.22-6.22
				c0-4.37-3.75-6.18-8.27-6.18h-3.42V36.1z"/>
			<path class="st4" d="M278.47,7.21v18.96c0,7.17,3.18,10.22,7.46,10.22c4.75,0,7.79-3.14,7.79-10.22V7.21h4.18v18.67
				c0,9.84-5.18,13.87-12.12,13.87c-6.56,0-11.5-3.75-11.5-13.68V7.21H278.47z"/>
			<path class="st4" d="M312.2,39.24V25.65L302.08,7.21h4.7l4.51,8.84c1.24,2.42,2.19,4.37,3.18,6.6h0.09c0.9-2.09,2-4.18,3.23-6.6
				l4.61-8.84h4.7L316.38,25.6v13.64H312.2z"/>
		</g>
		<g>
			<path class="st5" d="M182.02,52.09c3.99,0,7.65,1.19,10.07,2.85l-2.61,8.27c-1.57-1.28-3.85-2.47-6.98-2.47
				c-5.04,0-8.41,3.71-8.41,8.55c0,4.94,3.37,8.65,8.41,8.65c3.14,0,5.42-1.19,6.98-2.47l2.61,8.27c-2.42,1.66-6.08,2.85-10.07,2.85
				c-10.79,0-17.82-7.65-17.82-17.3C164.2,59.74,171.23,52.09,182.02,52.09z"/>
			<path class="st5" d="M196.03,52.71h18.63v8.27h-9.17v4.09h7.75v8.22h-7.75v4.42h9.55v8.27h-19.01V52.71z"/>
			<path class="st5" d="M219.69,52.71h9.65l10.69,18.86V52.71h9.31v33.26h-9.41l-10.98-18.58v18.58h-9.27V52.71z"/>
			<path class="st5" d="M259.75,60.97h-6.79v-8.27h23.14v8.27h-6.89v24.99h-9.46V60.97z"/>
			<path class="st5" d="M279.61,52.71h18.63v8.27h-9.17v4.09h7.75v8.22h-7.75v4.42h9.55v8.27h-19.01V52.71z"/>
			<path class="st5" d="M303.27,52.71H315c8.27,0,12.21,3.99,12.21,10.5c0,3.56-1.52,6.98-4.37,8.79l7.6,13.97h-10.41l-5.61-11.74
				h-1.71v11.74h-9.46V52.71z M314.29,66.53c2.14,0,3.28-1.28,3.28-2.99c0-1.85-1.14-2.9-3.28-2.9h-1.57v5.89H314.29z"/>
		</g>
	</g>
</g>
</svg>
