<?xml version="1.0" encoding="utf-8"?>
<!-- Generator: Adobe Illustrator 23.0.2, SVG Export Plug-In . SVG Version: 6.00 Build 0)  -->
<svg version="1.1" id="Capa_1" xmlns="http://www.w3.org/2000/svg" xmlns:xlink="http://www.w3.org/1999/xlink" x="0px" y="0px"
	 viewBox="0 0 63.31 69.1" style="enable-background:new 0 0 63.31 69.1;" xml:space="preserve">
<style type="text/css">
	.st0{fill:url(#SVGID_1_);}
	.st1{fill:url(#SVGID_2_);}
	.st2{fill:url(#SVGID_3_);}
	.st3{fill:url(#SVGID_4_);}
	.st4{fill:url(#SVGID_5_);}
</style>
<g>
	<linearGradient id="SVGID_1_" gradientUnits="userSpaceOnUse" x1="0" y1="34.5516" x2="63.3148" y2="34.5516">
		<stop  offset="0" style="stop-color:#FC9449"/>
		<stop  offset="0.6367" style="stop-color:#F72981"/>
		<stop  offset="1" style="stop-color:#AB29C4"/>
	</linearGradient>
	<path class="st0" d="M62.21,13.07c-0.04-0.48-0.05-0.96-0.06-1.46l0-0.11c-0.13-4.44-3.22-8.07-7.12-8.47
		c-2.68-2.35-6.36-3.46-10.06-2.87L6.18,6.37L5.65,6.45L0,7.36V8.3c0,6.07,2.38,10.45,7.08,13c3.73,2.03,8.88,2.97,16.23,2.97h6.16
		c0.76,0,1.43,0.37,1.84,1.01c0.41,0.64,0.46,1.4,0.14,2.09l-4.89,10.6c-2.4,0.58-4.67,1.75-6.67,3.46
		c-2.65,2.26-4.68,5.41-5.78,8.93h-5.3V59c0,5.27,3.68,9.65,8.31,10.05l0.03,0.05h26.03l0.33-0.47c2.4-3.42,3.68-7.54,3.68-11.91
		c0-0.95-0.06-1.88-0.18-2.81h12.1V33.67c0.88-0.28,1.69-0.8,2.38-1.52c1.11-1.17,1.76-2.74,1.83-4.42l0-0.06L62.21,13.07z
		 M2.22,9.23l3.43-0.55v3.58H2.63C2.41,11.32,2.27,10.31,2.22,9.23z M11.01,52.55h2.93c-0.34,1.48-1.48,2.65-2.93,3.05V52.55z
		 M42.03,66.9H18.29l-0.01-0.01l-0.55-0.01c-3.71-0.05-6.72-3.59-6.72-7.88v-1.3c2.89-0.53,5.08-3.06,5.08-6.09v-0.18
		c0.94-3.3,2.79-6.24,5.23-8.33c1.23-1.05,2.57-1.86,3.99-2.43c0.9-0.36,1.83-0.61,2.78-0.77c0.68-0.11,1.38-0.17,2.08-0.17
		c1.76,0,3.49,0.35,5.13,1.05l1.53,0.65v-6.59c3.92,0.54,6.95,3.91,6.95,7.98v7.2l0.07,0.18c0.18,0.5,0.34,1.01,0.48,1.52
		c0.19,0.72,0.34,1.46,0.45,2.2c0.13,0.92,0.21,1.86,0.21,2.81C44.98,60.44,43.96,63.95,42.03,66.9z M56.9,51.72h-10.3
		c-0.17-0.71-0.37-1.4-0.61-2.08v-6.81c0-5.65-4.6-10.25-10.25-10.25h-1.1v5.63c-1.45-0.44-2.94-0.67-4.46-0.67
		c-0.34,0-0.67,0.01-1,0.04l4.28-9.28c0.63-1.36,0.52-2.93-0.29-4.2c-0.81-1.27-2.19-2.02-3.69-2.02H23.3
		c-11.14,0-17.47-2.34-19.92-7.61h4.46V8.33l37.46-6c2.3-0.37,4.58,0.06,6.5,1.12c-2.84,1.07-5.04,3.89-5.44,7.38l-0.02,0.14
		c-0.06,0.5-0.11,0.97-0.19,1.43l-2.34,14.55l-0.01,0.13c-0.15,3.55,2.31,6.54,5.49,6.68l7.58,0.15L56.9,51.72L56.9,51.72z
		 M59.89,30.63c-0.24,0.25-0.51,0.46-0.79,0.63c-0.53,0.32-1.13,0.48-1.73,0.46L56.9,31.7l-7.5-0.15c-1.94-0.09-3.45-2.02-3.38-4.32
		l2.32-14.49c0.08-0.52,0.14-1.03,0.2-1.53l0.02-0.14c0.37-3.27,2.78-5.78,5.56-5.88c0.13,0,0.26-0.01,0.39,0
		c1.24,0.05,2.38,0.58,3.3,1.43c1.25,1.17,2.08,2.94,2.13,4.94l0,0.11c0.01,0.51,0.03,1.04,0.07,1.57l1.09,14.46
		C61.05,28.82,60.62,29.86,59.89,30.63z"/>
	<linearGradient id="SVGID_2_" gradientUnits="userSpaceOnUse" x1="22.191" y1="58.383" x2="32.8052" y2="58.383">
		<stop  offset="0" style="stop-color:#FC9449"/>
		<stop  offset="0.6367" style="stop-color:#F72981"/>
		<stop  offset="1" style="stop-color:#AB29C4"/>
	</linearGradient>
	<rect x="22.19" y="57.28" class="st1" width="10.61" height="2.2"/>
	<linearGradient id="SVGID_3_" gradientUnits="userSpaceOnUse" x1="22.1638" y1="62.249" x2="32.8315" y2="62.249">
		<stop  offset="0" style="stop-color:#FC9449"/>
		<stop  offset="0.6367" style="stop-color:#F72981"/>
		<stop  offset="1" style="stop-color:#AB29C4"/>
	</linearGradient>
	<polygon class="st2" points="32.42,64.31 22.16,62.35 22.58,60.18 32.83,62.15 	"/>
	<linearGradient id="SVGID_4_" gradientUnits="userSpaceOnUse" x1="20.7463" y1="51.5236" x2="23.6794" y2="51.5236">
		<stop  offset="0" style="stop-color:#FC9449"/>
		<stop  offset="0.6367" style="stop-color:#F72981"/>
		<stop  offset="1" style="stop-color:#AB29C4"/>
	</linearGradient>
	<rect x="20.75" y="49.88" class="st3" width="2.93" height="3.29"/>
	<linearGradient id="SVGID_5_" gradientUnits="userSpaceOnUse" x1="33.7027" y1="10.6569" x2="37.3691" y2="10.6569">
		<stop  offset="0" style="stop-color:#FC9449"/>
		<stop  offset="0.6367" style="stop-color:#F72981"/>
		<stop  offset="1" style="stop-color:#AB29C4"/>
	</linearGradient>
	<rect x="33.7" y="8.64" class="st4" width="3.67" height="4.03"/>
</g>
</svg>
