<?xml version="1.0" encoding="utf-8"?>
<!-- Generator: Adobe Illustrator 23.0.2, SVG Export Plug-In . SVG Version: 6.00 Build 0)  -->
<svg version="1.1" id="Capa_1" xmlns="http://www.w3.org/2000/svg" xmlns:xlink="http://www.w3.org/1999/xlink" x="0px" y="0px"
	 viewBox="0 0 75.64 71.69" style="enable-background:new 0 0 75.64 71.69;" xml:space="preserve">
<style type="text/css">
	.st0{fill:url(#SVGID_1_);}
	.st1{fill:url(#SVGID_2_);}
	.st2{fill:url(#SVGID_3_);}
	.st3{fill:url(#SVGID_4_);}
	.st4{fill:url(#SVGID_5_);}
</style>
<g>
	<g>
		<linearGradient id="SVGID_1_" gradientUnits="userSpaceOnUse" x1="15.3199" y1="66.1726" x2="60.3214" y2="66.1726">
			<stop  offset="0" style="stop-color:#FC9449"/>
			<stop  offset="0.6367" style="stop-color:#F72981"/>
			<stop  offset="1" style="stop-color:#AB29C4"/>
		</linearGradient>
		<path class="st0" d="M58.75,71.69H16.9c-0.87,0-1.58-0.7-1.58-1.58v-7.88c0-0.87,0.7-1.58,1.58-1.58h41.85
			c0.87,0,1.58,0.7,1.58,1.58v7.88C60.32,70.98,59.62,71.69,58.75,71.69z M18.47,68.54h38.7v-4.73h-38.7V68.54z"/>
	</g>
	<g>
		<linearGradient id="SVGID_2_" gradientUnits="userSpaceOnUse" x1="9.094947e-13" y1="31.9044" x2="75.6413" y2="31.9044">
			<stop  offset="0" style="stop-color:#FC9449"/>
			<stop  offset="0.6367" style="stop-color:#F72981"/>
			<stop  offset="1" style="stop-color:#AB29C4"/>
		</linearGradient>
		<path class="st1" d="M58.75,63.81H16.9c-0.87,0-1.58-0.7-1.58-1.58V26.17H7.03c-0.53,0-1.02-0.26-1.31-0.7l-5.46-8.22
			c-0.44-0.66-0.32-1.53,0.27-2.05L14.48,2.93c0.17-0.15,0.37-0.26,0.58-0.32l8.4-2.54C23.61,0.02,23.77,0,23.92,0h27.8
			c0.16,0,0.31,0.02,0.46,0.07l8.4,2.54c0.22,0.06,0.41,0.18,0.58,0.32l13.94,12.26c0.59,0.52,0.71,1.4,0.27,2.05l-5.46,8.22
			c-0.29,0.44-0.78,0.7-1.31,0.7h-8.29v36.06C60.32,63.1,59.62,63.81,58.75,63.81z M18.47,60.66h38.7V24.59
			c0-0.87,0.7-1.58,1.58-1.58h9.02l4.23-6.37L59.34,5.53l-7.85-2.38H24.15L16.3,5.53L3.65,16.65l4.23,6.37h9.02
			c0.87,0,1.58,0.7,1.58,1.58V60.66z"/>
	</g>
	<g>
		<linearGradient id="SVGID_3_" gradientUnits="userSpaceOnUse" x1="26.4987" y1="6.4497" x2="49.1441" y2="6.4497">
			<stop  offset="0" style="stop-color:#FC9449"/>
			<stop  offset="0.6367" style="stop-color:#F72981"/>
			<stop  offset="1" style="stop-color:#AB29C4"/>
		</linearGradient>
		<path class="st2" d="M37.82,12.9c-6.24,0-11.32-5.08-11.32-11.32C26.5,0.7,27.2,0,28.07,0h19.49c0.87,0,1.58,0.7,1.58,1.58
			C49.14,7.82,44.06,12.9,37.82,12.9z M29.8,3.15c0.74,3.75,4.05,6.6,8.02,6.6c3.97,0,7.28-2.84,8.02-6.6H29.8z"/>
	</g>
	<g>
		<linearGradient id="SVGID_4_" gradientUnits="userSpaceOnUse" x1="24.5812" y1="31.8952" x2="39.3965" y2="31.8952">
			<stop  offset="0" style="stop-color:#FC9449"/>
			<stop  offset="0.6367" style="stop-color:#F72981"/>
			<stop  offset="1" style="stop-color:#AB29C4"/>
		</linearGradient>
		<path class="st3" d="M37.82,40.74H26.16c-0.87,0-1.58-0.7-1.58-1.58V24.63c0-0.87,0.7-1.58,1.58-1.58h11.66
			c0.87,0,1.58,0.7,1.58,1.58v14.54C39.4,40.03,38.69,40.74,37.82,40.74z M27.73,37.59h8.51V26.2h-8.51V37.59z"/>
	</g>
	<g>
		<linearGradient id="SVGID_5_" gradientUnits="userSpaceOnUse" x1="24.5812" y1="30.931" x2="39.3965" y2="30.931">
			<stop  offset="0" style="stop-color:#FC9449"/>
			<stop  offset="0.6367" style="stop-color:#F72981"/>
			<stop  offset="1" style="stop-color:#AB29C4"/>
		</linearGradient>
		<path class="st4" d="M37.82,32.51H26.16c-0.87,0-1.58-0.7-1.58-1.58s0.7-1.58,1.58-1.58h11.66c0.87,0,1.58,0.7,1.58,1.58
			S38.69,32.51,37.82,32.51z"/>
	</g>
</g>
</svg>
