<?xml version="1.0" encoding="utf-8"?>
<!-- Generator: Adobe Illustrator 23.0.2, SVG Export Plug-In . SVG Version: 6.00 Build 0)  -->
<svg version="1.1" id="Capa_1" xmlns="http://www.w3.org/2000/svg" xmlns:xlink="http://www.w3.org/1999/xlink" x="0px" y="0px"
	 viewBox="0 0 236.36 30.49" style="enable-background:new 0 0 236.36 30.49;" xml:space="preserve">
<style type="text/css">
	.st0{fill:url(#SVGID_1_);}
	.st1{fill:url(#SVGID_2_);}
	.st2{fill:url(#SVGID_3_);}
	.st3{fill:url(#SVGID_4_);}
	.st4{fill:url(#SVGID_5_);}
	.st5{fill:url(#SVGID_6_);}
	.st6{fill:url(#SVGID_7_);}
	.st7{fill:url(#SVGID_8_);}
	.st8{fill:url(#SVGID_9_);}
</style>
<g>
	<linearGradient id="SVGID_1_" gradientUnits="userSpaceOnUse" x1="0.9447" y1="15.243" x2="239.5408" y2="15.243">
		<stop  offset="0" style="stop-color:#FC9449"/>
		<stop  offset="0.6367" style="stop-color:#F72981"/>
		<stop  offset="1" style="stop-color:#AB29C4"/>
	</linearGradient>
	<path class="st0" d="M0,0.73h5.3l12.42,19.1V0.73h5.52v29.02h-5.31L5.52,10.71v19.04H0V0.73z"/>
	<linearGradient id="SVGID_2_" gradientUnits="userSpaceOnUse" x1="0.9447" y1="15.243" x2="239.5408" y2="15.243">
		<stop  offset="0" style="stop-color:#FC9449"/>
		<stop  offset="0.6367" style="stop-color:#F72981"/>
		<stop  offset="1" style="stop-color:#AB29C4"/>
	</linearGradient>
	<path class="st1" d="M43.58,0c4.11,0,7.64,1.49,10.59,4.46c2.95,2.97,4.43,6.6,4.43,10.87c0,4.24-1.46,7.82-4.37,10.75
		c-2.92,2.93-6.45,4.4-10.61,4.4c-4.36,0-7.98-1.51-10.86-4.52c-2.88-3.01-4.32-6.59-4.32-10.73c0-2.78,0.67-5.33,2.01-7.66
		c1.34-2.33,3.19-4.17,5.54-5.54C38.33,0.68,40.86,0,43.58,0z M43.52,5.41c-2.69,0-4.94,0.93-6.77,2.8S34,12.45,34,15.33
		c0,3.21,1.15,5.75,3.46,7.62c1.79,1.46,3.84,2.19,6.16,2.19c2.62,0,4.85-0.95,6.7-2.84c1.84-1.89,2.76-4.23,2.76-7.01
		c0-2.76-0.93-5.1-2.79-7.01C48.44,6.36,46.18,5.41,43.52,5.41z"/>
	<linearGradient id="SVGID_3_" gradientUnits="userSpaceOnUse" x1="0.9447" y1="15.243" x2="239.5408" y2="15.243">
		<stop  offset="0" style="stop-color:#FC9449"/>
		<stop  offset="0.6367" style="stop-color:#F72981"/>
		<stop  offset="1" style="stop-color:#AB29C4"/>
	</linearGradient>
	<path class="st2" d="M61.61,0.73h5.68l7.3,20.62L82,0.73h5.67L77.22,29.76h-5.33L61.61,0.73z"/>
	<linearGradient id="SVGID_4_" gradientUnits="userSpaceOnUse" x1="0.9447" y1="15.243" x2="239.5408" y2="15.243">
		<stop  offset="0" style="stop-color:#FC9449"/>
		<stop  offset="0.6367" style="stop-color:#F72981"/>
		<stop  offset="1" style="stop-color:#AB29C4"/>
	</linearGradient>
	<path class="st3" d="M92.13,0.73h15.84v5.41H97.61v5.25h10.36v5.31H97.61v7.64h10.36v5.43H92.13V0.73z"/>
	<linearGradient id="SVGID_5_" gradientUnits="userSpaceOnUse" x1="0.9447" y1="15.243" x2="239.5408" y2="15.243">
		<stop  offset="0" style="stop-color:#FC9449"/>
		<stop  offset="0.6367" style="stop-color:#F72981"/>
		<stop  offset="1" style="stop-color:#AB29C4"/>
	</linearGradient>
	<path class="st4" d="M113.14,0.73h6.54c4.22,0,7.35,0.52,9.4,1.57c2.05,1.05,3.74,2.75,5.07,5.1c1.33,2.36,1.99,5.1,1.99,8.25
		c0,2.24-0.37,4.29-1.11,6.17c-0.74,1.88-1.77,3.43-3.08,4.67c-1.31,1.24-2.72,2.09-4.25,2.57c-1.53,0.47-4.17,0.71-7.92,0.71h-6.64
		V0.73z M118.63,6.06v18.31h2.57c2.53,0,4.36-0.29,5.49-0.87s2.07-1.55,2.79-2.92c0.72-1.37,1.08-3.05,1.08-5.06
		c0-3.08-0.86-5.47-2.58-7.17c-1.55-1.53-4.05-2.29-7.48-2.29H118.63z"/>
	<linearGradient id="SVGID_6_" gradientUnits="userSpaceOnUse" x1="0.9447" y1="15.243" x2="239.5408" y2="15.243">
		<stop  offset="0" style="stop-color:#FC9449"/>
		<stop  offset="0.6367" style="stop-color:#F72981"/>
		<stop  offset="1" style="stop-color:#AB29C4"/>
	</linearGradient>
	<path class="st5" d="M150.27,0.73h5.6l11.16,29.02h-5.74l-2.27-5.98h-11.84l-2.36,5.98h-5.74L150.27,0.73z M153.11,8.42l-3.89,9.97
		h7.77L153.11,8.42z"/>
	<linearGradient id="SVGID_7_" gradientUnits="userSpaceOnUse" x1="0.9447" y1="15.243" x2="239.5408" y2="15.243">
		<stop  offset="0" style="stop-color:#FC9449"/>
		<stop  offset="0.6367" style="stop-color:#F72981"/>
		<stop  offset="1" style="stop-color:#AB29C4"/>
	</linearGradient>
	<path class="st6" d="M171.33,0.73h6.54c4.22,0,7.35,0.52,9.4,1.57c2.05,1.05,3.74,2.75,5.07,5.1c1.33,2.36,1.99,5.1,1.99,8.25
		c0,2.24-0.37,4.29-1.11,6.17c-0.74,1.88-1.77,3.43-3.08,4.67c-1.31,1.24-2.72,2.09-4.25,2.57c-1.53,0.47-4.17,0.71-7.92,0.71h-6.64
		V0.73z M176.81,6.06v18.31h2.57c2.53,0,4.36-0.29,5.49-0.87c1.14-0.58,2.07-1.55,2.79-2.92c0.72-1.37,1.08-3.05,1.08-5.06
		c0-3.08-0.86-5.47-2.58-7.17c-1.55-1.53-4.05-2.29-7.48-2.29H176.81z"/>
	<linearGradient id="SVGID_8_" gradientUnits="userSpaceOnUse" x1="0.9447" y1="15.243" x2="239.5408" y2="15.243">
		<stop  offset="0" style="stop-color:#FC9449"/>
		<stop  offset="0.6367" style="stop-color:#F72981"/>
		<stop  offset="1" style="stop-color:#AB29C4"/>
	</linearGradient>
	<path class="st7" d="M199.63,0.73h15.84v5.41h-10.36v5.25h10.36v5.31h-10.36v7.64h10.36v5.43h-15.84V0.73z"/>
	<linearGradient id="SVGID_9_" gradientUnits="userSpaceOnUse" x1="0.9447" y1="15.243" x2="239.5408" y2="15.243">
		<stop  offset="0" style="stop-color:#FC9449"/>
		<stop  offset="0.6367" style="stop-color:#F72981"/>
		<stop  offset="1" style="stop-color:#AB29C4"/>
	</linearGradient>
	<path class="st8" d="M235.85,4.68l-4.09,3.61c-1.44-2-2.9-3-4.39-3c-0.72,0-1.32,0.19-1.78,0.58c-0.46,0.39-0.69,0.83-0.69,1.31
		s0.16,0.95,0.49,1.38c0.45,0.58,1.8,1.82,4.05,3.73c2.11,1.76,3.39,2.87,3.83,3.34c1.12,1.13,1.91,2.21,2.38,3.25
		c0.47,1.03,0.7,2.16,0.7,3.38c0,2.38-0.82,4.35-2.47,5.9c-1.65,1.55-3.79,2.33-6.44,2.33c-2.07,0-3.87-0.51-5.4-1.52
		c-1.53-1.01-2.85-2.6-3.94-4.78l4.64-2.8c1.4,2.57,3,3.85,4.82,3.85c0.95,0,1.75-0.27,2.39-0.83s0.97-1.19,0.97-1.91
		c0-0.66-0.24-1.32-0.73-1.97c-0.49-0.66-1.56-1.66-3.22-3.02c-3.16-2.58-5.21-4.57-6.13-5.97c-0.92-1.4-1.38-2.8-1.38-4.19
		c0-2.01,0.77-3.74,2.3-5.18C223.31,0.72,225.2,0,227.46,0c1.45,0,2.83,0.34,4.14,1.01C232.9,1.68,234.32,2.9,235.85,4.68z"/>
</g>
</svg>
