<?xml version="1.0" encoding="utf-8"?>
<!-- Generator: Adobe Illustrator 23.0.2, SVG Export Plug-In . SVG Version: 6.00 Build 0)  -->
<svg version="1.1" id="Capa_1" xmlns="http://www.w3.org/2000/svg" xmlns:xlink="http://www.w3.org/1999/xlink" x="0px" y="0px"
	 viewBox="0 0 659.06 30.49" style="enable-background:new 0 0 659.06 30.49;" xml:space="preserve">
<style type="text/css">
	.st0{fill:url(#SVGID_1_);}
	.st1{fill:url(#SVGID_2_);}
	.st2{fill:url(#SVGID_3_);}
	.st3{fill:url(#SVGID_4_);}
	.st4{fill:url(#SVGID_5_);}
	.st5{fill:url(#SVGID_6_);}
	.st6{fill:url(#SVGID_7_);}
	.st7{fill:url(#SVGID_8_);}
	.st8{fill:url(#SVGID_9_);}
	.st9{fill:url(#SVGID_10_);}
	.st10{fill:url(#SVGID_11_);}
	.st11{fill:url(#SVGID_12_);}
	.st12{fill:url(#SVGID_13_);}
	.st13{fill:url(#SVGID_14_);}
	.st14{fill:url(#SVGID_15_);}
	.st15{fill:url(#SVGID_16_);}
	.st16{fill:url(#SVGID_17_);}
	.st17{fill:url(#SVGID_18_);}
	.st18{fill:url(#SVGID_19_);}
	.st19{fill:url(#SVGID_20_);}
	.st20{fill:url(#SVGID_21_);}
	.st21{fill:url(#SVGID_22_);}
	.st22{fill:url(#SVGID_23_);}
	.st23{fill:url(#SVGID_24_);}
	.st24{fill:url(#SVGID_25_);}
	.st25{fill:url(#SVGID_26_);}
</style>
<g>
	<linearGradient id="SVGID_1_" gradientUnits="userSpaceOnUse" x1="-33.7269" y1="15.243" x2="694.1342" y2="15.243">
		<stop  offset="0" style="stop-color:#FC9449"/>
		<stop  offset="0.6367" style="stop-color:#F72981"/>
		<stop  offset="1" style="stop-color:#AB29C4"/>
	</linearGradient>
	<path class="st0" d="M0,0.73h5.86c3.17,0,5.46,0.29,6.86,0.88c1.4,0.59,2.51,1.53,3.31,2.84c0.81,1.31,1.21,2.88,1.21,4.71
		c0,2.03-0.53,3.71-1.59,5.05c-1.06,1.34-2.5,2.28-4.31,2.8c-1.07,0.3-3.01,0.45-5.82,0.45v12.29H0V0.73z M5.52,12.08h1.76
		c1.38,0,2.34-0.1,2.88-0.3c0.54-0.2,0.96-0.52,1.27-0.98c0.31-0.46,0.46-1.01,0.46-1.65c0-1.12-0.43-1.94-1.3-2.45
		c-0.63-0.38-1.8-0.57-3.51-0.57H5.52V12.08z"/>
	<linearGradient id="SVGID_2_" gradientUnits="userSpaceOnUse" x1="-33.7269" y1="15.243" x2="694.1342" y2="15.243">
		<stop  offset="0" style="stop-color:#FC9449"/>
		<stop  offset="0.6367" style="stop-color:#F72981"/>
		<stop  offset="1" style="stop-color:#AB29C4"/>
	</linearGradient>
	<path class="st1" d="M31.51,0.73h5.6l11.16,29.02h-5.74l-2.27-5.98H28.42l-2.36,5.98h-5.74L31.51,0.73z M34.34,8.42l-3.89,9.97
		h7.77L34.34,8.42z"/>
	<linearGradient id="SVGID_3_" gradientUnits="userSpaceOnUse" x1="-33.7269" y1="15.243" x2="694.1342" y2="15.243">
		<stop  offset="0" style="stop-color:#FC9449"/>
		<stop  offset="0.6367" style="stop-color:#F72981"/>
		<stop  offset="1" style="stop-color:#AB29C4"/>
	</linearGradient>
	<path class="st2" d="M52.92,0.73h5.85c3.21,0,5.49,0.29,6.85,0.86c1.36,0.57,2.45,1.52,3.28,2.85c0.83,1.33,1.24,2.9,1.24,4.72
		c0,1.91-0.46,3.5-1.37,4.79c-0.91,1.28-2.29,2.25-4.13,2.91l6.88,12.9h-6.04l-6.53-12.29h-0.51v12.29h-5.52V0.73z M58.45,12.08
		h1.73c1.76,0,2.97-0.23,3.63-0.69s0.99-1.23,0.99-2.3c0-0.63-0.16-1.18-0.49-1.65c-0.33-0.47-0.77-0.8-1.32-1.01
		c-0.55-0.2-1.56-0.31-3.03-0.31h-1.51V12.08z"/>
	<linearGradient id="SVGID_4_" gradientUnits="userSpaceOnUse" x1="-33.7269" y1="15.243" x2="694.1342" y2="15.243">
		<stop  offset="0" style="stop-color:#FC9449"/>
		<stop  offset="0.6367" style="stop-color:#F72981"/>
		<stop  offset="1" style="stop-color:#AB29C4"/>
	</linearGradient>
	<path class="st3" d="M73.13,0.73h16.04v5.45h-5.29v23.58h-5.6V6.18h-5.15V0.73z"/>
	<linearGradient id="SVGID_5_" gradientUnits="userSpaceOnUse" x1="-33.7269" y1="15.243" x2="694.1342" y2="15.243">
		<stop  offset="0" style="stop-color:#FC9449"/>
		<stop  offset="0.6367" style="stop-color:#F72981"/>
		<stop  offset="1" style="stop-color:#AB29C4"/>
	</linearGradient>
	<path class="st4" d="M92.56,0.73h5.49v29.02h-5.49V0.73z"/>
	<linearGradient id="SVGID_6_" gradientUnits="userSpaceOnUse" x1="-33.7269" y1="15.243" x2="694.1342" y2="15.243">
		<stop  offset="0" style="stop-color:#FC9449"/>
		<stop  offset="0.6367" style="stop-color:#F72981"/>
		<stop  offset="1" style="stop-color:#AB29C4"/>
	</linearGradient>
	<path class="st5" d="M130.94,5.83l-3.86,3.68c-2.63-2.78-5.59-4.17-8.87-4.17c-2.77,0-5.11,0.95-7.01,2.85
		c-1.9,1.9-2.85,4.23-2.85,7.01c0,1.93,0.42,3.65,1.26,5.15c0.84,1.5,2.03,2.68,3.57,3.54c1.54,0.86,3.25,1.28,5.13,1.28
		c1.6,0,3.07-0.3,4.4-0.9c1.33-0.6,2.79-1.69,4.38-3.27l3.75,3.91c-2.14,2.09-4.17,3.54-6.08,4.35c-1.91,0.81-4.09,1.21-6.53,1.21
		c-4.51,0-8.2-1.43-11.08-4.29c-2.87-2.86-4.31-6.53-4.31-11c0-2.89,0.65-5.47,1.96-7.72c1.31-2.25,3.18-4.06,5.62-5.43
		c2.44-1.37,5.07-2.05,7.88-2.05c2.39,0,4.7,0.51,6.92,1.52C127.42,2.53,129.33,3.97,130.94,5.83z"/>
	<linearGradient id="SVGID_7_" gradientUnits="userSpaceOnUse" x1="-33.7269" y1="15.243" x2="694.1342" y2="15.243">
		<stop  offset="0" style="stop-color:#FC9449"/>
		<stop  offset="0.6367" style="stop-color:#F72981"/>
		<stop  offset="1" style="stop-color:#AB29C4"/>
	</linearGradient>
	<path class="st6" d="M135.38,0.73h5.49v29.02h-5.49V0.73z"/>
	<linearGradient id="SVGID_8_" gradientUnits="userSpaceOnUse" x1="-33.7269" y1="15.243" x2="694.1342" y2="15.243">
		<stop  offset="0" style="stop-color:#FC9449"/>
		<stop  offset="0.6367" style="stop-color:#F72981"/>
		<stop  offset="1" style="stop-color:#AB29C4"/>
	</linearGradient>
	<path class="st7" d="M147.06,0.73h5.86c3.17,0,5.46,0.29,6.86,0.88c1.4,0.59,2.51,1.53,3.31,2.84c0.81,1.31,1.21,2.88,1.21,4.71
		c0,2.03-0.53,3.71-1.59,5.05c-1.06,1.34-2.5,2.28-4.31,2.8c-1.07,0.3-3.01,0.45-5.82,0.45v12.29h-5.52V0.73z M152.59,12.08h1.76
		c1.38,0,2.34-0.1,2.88-0.3c0.54-0.2,0.96-0.52,1.27-0.98c0.31-0.46,0.46-1.01,0.46-1.65c0-1.12-0.43-1.94-1.3-2.45
		c-0.63-0.38-1.8-0.57-3.51-0.57h-1.56V12.08z"/>
	<linearGradient id="SVGID_9_" gradientUnits="userSpaceOnUse" x1="-33.7269" y1="15.243" x2="694.1342" y2="15.243">
		<stop  offset="0" style="stop-color:#FC9449"/>
		<stop  offset="0.6367" style="stop-color:#F72981"/>
		<stop  offset="1" style="stop-color:#AB29C4"/>
	</linearGradient>
	<path class="st8" d="M178.57,0.73h5.6l11.16,29.02h-5.74l-2.27-5.98h-11.84l-2.36,5.98h-5.74L178.57,0.73z M181.4,8.42l-3.89,9.97
		h7.77L181.4,8.42z"/>
	<linearGradient id="SVGID_10_" gradientUnits="userSpaceOnUse" x1="-33.7269" y1="15.243" x2="694.1342" y2="15.243">
		<stop  offset="0" style="stop-color:#FC9449"/>
		<stop  offset="0.6367" style="stop-color:#F72981"/>
		<stop  offset="1" style="stop-color:#AB29C4"/>
	</linearGradient>
	<path class="st9" d="M237.59,5.83l-3.86,3.68c-2.63-2.78-5.59-4.17-8.87-4.17c-2.77,0-5.11,0.95-7.01,2.85
		c-1.9,1.9-2.85,4.23-2.85,7.01c0,1.93,0.42,3.65,1.26,5.15c0.84,1.5,2.03,2.68,3.57,3.54c1.54,0.86,3.25,1.28,5.13,1.28
		c1.6,0,3.07-0.3,4.4-0.9c1.33-0.6,2.79-1.69,4.38-3.27l3.75,3.91c-2.14,2.09-4.17,3.54-6.08,4.35c-1.91,0.81-4.09,1.21-6.53,1.21
		c-4.51,0-8.2-1.43-11.08-4.29c-2.87-2.86-4.31-6.53-4.31-11c0-2.89,0.65-5.47,1.96-7.72c1.31-2.25,3.18-4.06,5.62-5.43
		C219.5,0.68,222.13,0,224.94,0c2.39,0,4.7,0.51,6.92,1.52C234.07,2.53,235.98,3.97,237.59,5.83z"/>
	<linearGradient id="SVGID_11_" gradientUnits="userSpaceOnUse" x1="-33.7269" y1="15.243" x2="694.1342" y2="15.243">
		<stop  offset="0" style="stop-color:#FC9449"/>
		<stop  offset="0.6367" style="stop-color:#F72981"/>
		<stop  offset="1" style="stop-color:#AB29C4"/>
	</linearGradient>
	<path class="st10" d="M256.13,0c4.11,0,7.64,1.49,10.59,4.46c2.95,2.97,4.43,6.6,4.43,10.87c0,4.24-1.46,7.82-4.37,10.75
		c-2.92,2.93-6.45,4.4-10.61,4.4c-4.36,0-7.98-1.51-10.86-4.52c-2.88-3.01-4.32-6.59-4.32-10.73c0-2.78,0.67-5.33,2.01-7.66
		c1.34-2.33,3.19-4.17,5.54-5.54C250.89,0.68,253.42,0,256.13,0z M256.07,5.41c-2.69,0-4.94,0.93-6.77,2.8
		c-1.83,1.87-2.74,4.24-2.74,7.12c0,3.21,1.15,5.75,3.46,7.62c1.79,1.46,3.84,2.19,6.16,2.19c2.62,0,4.85-0.95,6.7-2.84
		c1.84-1.89,2.76-4.23,2.76-7.01c0-2.76-0.93-5.1-2.79-7.01C260.99,6.36,258.73,5.41,256.07,5.41z"/>
	<linearGradient id="SVGID_12_" gradientUnits="userSpaceOnUse" x1="-33.7269" y1="15.243" x2="694.1342" y2="15.243">
		<stop  offset="0" style="stop-color:#FC9449"/>
		<stop  offset="0.6367" style="stop-color:#F72981"/>
		<stop  offset="1" style="stop-color:#AB29C4"/>
	</linearGradient>
	<path class="st11" d="M276.38,0.73h5.3l12.42,19.1V0.73h5.52v29.02h-5.31l-12.4-19.04v19.04h-5.52V0.73z"/>
	<linearGradient id="SVGID_13_" gradientUnits="userSpaceOnUse" x1="-33.7269" y1="15.243" x2="694.1342" y2="15.243">
		<stop  offset="0" style="stop-color:#FC9449"/>
		<stop  offset="0.6367" style="stop-color:#F72981"/>
		<stop  offset="1" style="stop-color:#AB29C4"/>
	</linearGradient>
	<path class="st12" d="M314.7,0.73h16.04v5.45h-5.29v23.58h-5.6V6.18h-5.15V0.73z"/>
	<linearGradient id="SVGID_14_" gradientUnits="userSpaceOnUse" x1="-33.7269" y1="15.6084" x2="694.1342" y2="15.6084">
		<stop  offset="0" style="stop-color:#FC9449"/>
		<stop  offset="0.6367" style="stop-color:#F72981"/>
		<stop  offset="1" style="stop-color:#AB29C4"/>
	</linearGradient>
	<path class="st13" d="M334.33,0.73h5.54V19.5c0,1.62,0.14,2.76,0.43,3.43c0.28,0.67,0.75,1.21,1.4,1.61c0.65,0.4,1.44,0.6,2.36,0.6
		c0.97,0,1.81-0.22,2.52-0.67c0.7-0.45,1.19-1.01,1.46-1.7c0.27-0.69,0.4-2.01,0.4-3.95V0.73h5.54v17.3c0,2.92-0.16,4.95-0.49,6.08
		c-0.33,1.13-0.96,2.22-1.89,3.28c-0.93,1.05-2,1.83-3.21,2.34c-1.21,0.51-2.62,0.76-4.22,0.76c-2.11,0-3.94-0.48-5.5-1.45
		c-1.56-0.97-2.67-2.18-3.34-3.63c-0.67-1.45-1.01-3.91-1.01-7.37V0.73z"/>
	<linearGradient id="SVGID_15_" gradientUnits="userSpaceOnUse" x1="-33.7269" y1="15.243" x2="694.1342" y2="15.243">
		<stop  offset="0" style="stop-color:#FC9449"/>
		<stop  offset="0.6367" style="stop-color:#F72981"/>
		<stop  offset="1" style="stop-color:#AB29C4"/>
	</linearGradient>
	<path class="st14" d="M368.84,0.73h16.04v5.45h-5.29v23.58h-5.6V6.18h-5.15V0.73z"/>
	<linearGradient id="SVGID_16_" gradientUnits="userSpaceOnUse" x1="-33.7269" y1="15.243" x2="694.1342" y2="15.243">
		<stop  offset="0" style="stop-color:#FC9449"/>
		<stop  offset="0.6367" style="stop-color:#F72981"/>
		<stop  offset="1" style="stop-color:#AB29C4"/>
	</linearGradient>
	<path class="st15" d="M388.28,0.73h5.49v29.02h-5.49V0.73z"/>
	<linearGradient id="SVGID_17_" gradientUnits="userSpaceOnUse" x1="-33.7269" y1="15.243" x2="694.1342" y2="15.243">
		<stop  offset="0" style="stop-color:#FC9449"/>
		<stop  offset="0.6367" style="stop-color:#F72981"/>
		<stop  offset="1" style="stop-color:#AB29C4"/>
	</linearGradient>
	<path class="st16" d="M400,0.73h15.84v5.41h-10.36v5.25h10.36v5.31h-10.36v7.64h10.36v5.43H400V0.73z"/>
	<linearGradient id="SVGID_18_" gradientUnits="userSpaceOnUse" x1="-33.7269" y1="15.243" x2="694.1342" y2="15.243">
		<stop  offset="0" style="stop-color:#FC9449"/>
		<stop  offset="0.6367" style="stop-color:#F72981"/>
		<stop  offset="1" style="stop-color:#AB29C4"/>
	</linearGradient>
	<path class="st17" d="M421.01,0.73h5.3l12.42,19.1V0.73h5.52v29.02h-5.31l-12.4-19.04v19.04h-5.52V0.73z"/>
	<linearGradient id="SVGID_19_" gradientUnits="userSpaceOnUse" x1="-33.7269" y1="15.243" x2="694.1342" y2="15.243">
		<stop  offset="0" style="stop-color:#FC9449"/>
		<stop  offset="0.6367" style="stop-color:#F72981"/>
		<stop  offset="1" style="stop-color:#AB29C4"/>
	</linearGradient>
	<path class="st18" d="M450.91,0.73h6.54c4.22,0,7.35,0.52,9.4,1.57c2.05,1.05,3.74,2.75,5.07,5.1c1.33,2.36,1.99,5.1,1.99,8.25
		c0,2.24-0.37,4.29-1.11,6.17c-0.74,1.88-1.77,3.43-3.08,4.67c-1.31,1.24-2.72,2.09-4.25,2.57c-1.53,0.47-4.17,0.71-7.92,0.71h-6.64
		V0.73z M456.39,6.06v18.31h2.57c2.53,0,4.36-0.29,5.49-0.87s2.07-1.55,2.79-2.92c0.72-1.37,1.08-3.05,1.08-5.06
		c0-3.08-0.86-5.47-2.58-7.17c-1.55-1.53-4.05-2.29-7.48-2.29H456.39z"/>
	<linearGradient id="SVGID_20_" gradientUnits="userSpaceOnUse" x1="-33.7269" y1="15.243" x2="694.1342" y2="15.243">
		<stop  offset="0" style="stop-color:#FC9449"/>
		<stop  offset="0.6367" style="stop-color:#F72981"/>
		<stop  offset="1" style="stop-color:#AB29C4"/>
	</linearGradient>
	<path class="st19" d="M488.04,0.73h5.6l11.16,29.02h-5.74l-2.27-5.98h-11.84l-2.36,5.98h-5.74L488.04,0.73z M490.87,8.42
		l-3.89,9.97h7.77L490.87,8.42z"/>
	<linearGradient id="SVGID_21_" gradientUnits="userSpaceOnUse" x1="-33.7269" y1="15.243" x2="694.1342" y2="15.243">
		<stop  offset="0" style="stop-color:#FC9449"/>
		<stop  offset="0.6367" style="stop-color:#F72981"/>
		<stop  offset="1" style="stop-color:#AB29C4"/>
	</linearGradient>
	<path class="st20" d="M534.09,0c4.11,0,7.64,1.49,10.59,4.46c2.95,2.97,4.43,6.6,4.43,10.87c0,4.24-1.46,7.82-4.37,10.75
		c-2.92,2.93-6.45,4.4-10.61,4.4c-4.36,0-7.98-1.51-10.86-4.52c-2.88-3.01-4.32-6.59-4.32-10.73c0-2.78,0.67-5.33,2.01-7.66
		c1.34-2.33,3.19-4.17,5.54-5.54C528.84,0.68,531.37,0,534.09,0z M534.03,5.41c-2.69,0-4.94,0.93-6.77,2.8
		c-1.83,1.87-2.74,4.24-2.74,7.12c0,3.21,1.15,5.75,3.46,7.62c1.79,1.46,3.84,2.19,6.16,2.19c2.62,0,4.85-0.95,6.7-2.84
		c1.84-1.89,2.76-4.23,2.76-7.01c0-2.76-0.93-5.1-2.79-7.01C538.95,6.36,536.69,5.41,534.03,5.41z"/>
	<linearGradient id="SVGID_22_" gradientUnits="userSpaceOnUse" x1="-33.7269" y1="15.243" x2="694.1342" y2="15.243">
		<stop  offset="0" style="stop-color:#FC9449"/>
		<stop  offset="0.6367" style="stop-color:#F72981"/>
		<stop  offset="1" style="stop-color:#AB29C4"/>
	</linearGradient>
	<path class="st21" d="M554.34,0.73h5.3l12.42,19.1V0.73h5.52v29.02h-5.31l-12.4-19.04v19.04h-5.52V0.73z"/>
	<linearGradient id="SVGID_23_" gradientUnits="userSpaceOnUse" x1="-33.7269" y1="15.243" x2="694.1342" y2="15.243">
		<stop  offset="0" style="stop-color:#FC9449"/>
		<stop  offset="0.6367" style="stop-color:#F72981"/>
		<stop  offset="1" style="stop-color:#AB29C4"/>
	</linearGradient>
	<path class="st22" d="M584.21,0.73h5.52v23.76h8.05v5.27h-13.58V0.73z"/>
	<linearGradient id="SVGID_24_" gradientUnits="userSpaceOnUse" x1="-33.7269" y1="15.243" x2="694.1342" y2="15.243">
		<stop  offset="0" style="stop-color:#FC9449"/>
		<stop  offset="0.6367" style="stop-color:#F72981"/>
		<stop  offset="1" style="stop-color:#AB29C4"/>
	</linearGradient>
	<path class="st23" d="M601.6,0.73h5.49v29.02h-5.49V0.73z"/>
	<linearGradient id="SVGID_25_" gradientUnits="userSpaceOnUse" x1="-33.7269" y1="15.243" x2="694.1342" y2="15.243">
		<stop  offset="0" style="stop-color:#FC9449"/>
		<stop  offset="0.6367" style="stop-color:#F72981"/>
		<stop  offset="1" style="stop-color:#AB29C4"/>
	</linearGradient>
	<path class="st24" d="M613.32,0.73h5.3l12.42,19.1V0.73h5.52v29.02h-5.31l-12.4-19.04v19.04h-5.52V0.73z"/>
	<linearGradient id="SVGID_26_" gradientUnits="userSpaceOnUse" x1="-33.7269" y1="15.243" x2="694.1342" y2="15.243">
		<stop  offset="0" style="stop-color:#FC9449"/>
		<stop  offset="0.6367" style="stop-color:#F72981"/>
		<stop  offset="1" style="stop-color:#AB29C4"/>
	</linearGradient>
	<path class="st25" d="M643.21,0.73h15.84v5.41H648.7v5.25h10.36v5.31H648.7v7.64h10.36v5.43h-15.84V0.73z"/>
</g>
</svg>
