<?xml version="1.0" encoding="utf-8"?>
<!-- Generator: Adobe Illustrator 23.0.2, SVG Export Plug-In . SVG Version: 6.00 Build 0)  -->
<svg version="1.1" id="Capa_1" xmlns="http://www.w3.org/2000/svg" xmlns:xlink="http://www.w3.org/1999/xlink" x="0px" y="0px"
	 viewBox="0 0 84.77 84.77" style="enable-background:new 0 0 84.77 84.77;" xml:space="preserve">
<style type="text/css">
	.st0{fill:url(#SVGID_1_);}
	.st1{fill:url(#SVGID_2_);}
	.st2{fill:url(#SVGID_3_);}
	.st3{fill:url(#SVGID_4_);}
	.st4{fill:url(#SVGID_5_);}
	.st5{fill:url(#SVGID_6_);}
	.st6{fill:url(#SVGID_7_);}
	.st7{fill:url(#SVGID_8_);}
</style>
<g>
	<linearGradient id="SVGID_1_" gradientUnits="userSpaceOnUse" x1="0" y1="42.3867" x2="84.7733" y2="42.3867">
		<stop  offset="0" style="stop-color:#FC9449"/>
		<stop  offset="0.6367" style="stop-color:#F72981"/>
		<stop  offset="1" style="stop-color:#AB29C4"/>
	</linearGradient>
	<path class="st0" d="M77.94,21.88H57.43v-1.37c0-0.75,0.61-1.37,1.37-1.37h10.94c2.26,0,4.1-1.84,4.1-4.1v-1.62
		c1.59-0.57,2.73-2.07,2.73-3.85c0-2.26-1.84-4.1-4.1-4.1c-2.26,0-4.1,1.84-4.1,4.1c0,1.78,1.15,3.28,2.73,3.85v1.62
		c0,0.75-0.61,1.37-1.37,1.37H58.79c-2.26,0-4.1,1.84-4.1,4.1v1.37H43.75V7.95c1.59-0.57,2.73-2.07,2.73-3.85
		c0-2.26-1.84-4.1-4.1-4.1c-2.26,0-4.1,1.84-4.1,4.1c0,1.78,1.15,3.28,2.73,3.85v13.92H30.08v-1.37c0-2.26-1.84-4.1-4.1-4.1H15.04
		c-0.75,0-1.37-0.61-1.37-1.37v-1.62c1.59-0.57,2.73-2.07,2.73-3.85c0-2.26-1.84-4.1-4.1-4.1s-4.1,1.84-4.1,4.1
		c0,1.78,1.15,3.28,2.73,3.85v1.62c0,2.26,1.84,4.1,4.1,4.1h10.94c0.75,0,1.37,0.61,1.37,1.37v1.37H6.84C3.07,21.88,0,24.94,0,28.71
		v41.02c0,3.77,3.07,6.84,6.84,6.84h16.41v5.47h-5.47v2.73H67v-2.73h-5.47v-5.47h16.41c3.77,0,6.84-3.07,6.84-6.84V28.71
		C84.77,24.94,81.71,21.88,77.94,21.88z M72.47,8.2c0.75,0,1.37,0.61,1.37,1.37s-0.61,1.37-1.37,1.37s-1.37-0.61-1.37-1.37
		S71.71,8.2,72.47,8.2z M42.39,2.73c0.75,0,1.37,0.61,1.37,1.37s-0.61,1.37-1.37,1.37c-0.75,0-1.37-0.61-1.37-1.37
		S41.63,2.73,42.39,2.73z M12.31,8.2c0.75,0,1.37,0.61,1.37,1.37s-0.61,1.37-1.37,1.37s-1.37-0.61-1.37-1.37S11.55,8.2,12.31,8.2z
		 M54.69,24.61v7.68l-3.6-3.6l-2.66,2.66c-0.19-0.08-0.38-0.16-0.57-0.24v-3.76h-4.1v-2.73H54.69z M53.29,39.44
		c0.34,0.66,0.62,1.33,0.83,1.99l0.3,0.96h3v5.47h-3l-0.3,0.96c-0.21,0.66-0.49,1.34-0.83,1.99l-0.46,0.89l2.13,2.13l-3.87,3.87
		l-2.13-2.13l-0.89,0.46c-0.66,0.35-1.33,0.63-1.99,0.83l-0.96,0.3v3h-5.47v-3l-0.96-0.3c-0.66-0.21-1.33-0.49-1.99-0.83l-0.89-0.46
		l-2.13,2.13l-3.87-3.87l2.13-2.13l-0.46-0.89c-0.34-0.66-0.62-1.33-0.83-1.99l-0.3-0.96h-3v-5.47h3l0.3-0.96
		c0.21-0.66,0.49-1.34,0.83-1.99l0.46-0.89l-2.13-2.13l3.87-3.87l2.13,2.13l0.89-0.46c0.66-0.35,1.33-0.63,1.99-0.83l0.96-0.3v-3
		h5.47v3l0.96,0.3c0.66,0.21,1.33,0.49,1.99,0.83l0.89,0.46l2.13-2.13l3.87,3.87l-2.13,2.13L53.29,39.44z M41.02,24.61v2.73h-4.1
		v3.77c-0.19,0.08-0.38,0.15-0.57,0.24l-2.66-2.66l-3.6,3.6v-7.68H41.02z M6.84,24.61h20.51v10.41l-1.4,1.39l2.66,2.66
		c-0.08,0.19-0.16,0.38-0.24,0.57h-3.76v10.94h3.76c0.08,0.19,0.15,0.38,0.24,0.57l-2.66,2.66l7.73,7.73l2.66-2.66
		c0.19,0.08,0.38,0.16,0.57,0.24v3.77h10.94v-3.77c0.19-0.08,0.38-0.15,0.57-0.24l2.66,2.66l7.73-7.73l-2.66-2.66
		c0.08-0.19,0.16-0.38,0.24-0.57h3.76V39.65H56.4c-0.08-0.19-0.15-0.38-0.24-0.57l2.66-2.66l-1.4-1.4V24.61h20.51
		c2.26,0,4.1,1.84,4.1,4.1v36.92H2.73V28.71C2.73,26.45,4.58,24.61,6.84,24.61z M58.79,82.04H25.98v-5.47h32.82V82.04z M77.94,73.83
		H6.84c-2.26,0-4.1-1.84-4.1-4.1v-1.37h79.3v1.37C82.04,71.99,80.2,73.83,77.94,73.83z"/>
	<linearGradient id="SVGID_2_" gradientUnits="userSpaceOnUse" x1="32.8155" y1="45.1213" x2="51.9578" y2="45.1213">
		<stop  offset="0" style="stop-color:#FC9449"/>
		<stop  offset="0.6367" style="stop-color:#F72981"/>
		<stop  offset="1" style="stop-color:#AB29C4"/>
	</linearGradient>
	<path class="st1" d="M42.39,35.55c-5.28,0-9.57,4.29-9.57,9.57c0,5.28,4.29,9.57,9.57,9.57c2.36,0,4.62-0.87,6.38-2.44l-1.82-2.04
		c-1.25,1.12-2.87,1.74-4.56,1.74c-3.77,0-6.84-3.07-6.84-6.84c0-3.77,3.07-6.84,6.84-6.84c3.77,0,6.84,3.07,6.84,6.84
		c0,1.35-0.39,2.66-1.14,3.78l2.28,1.51c1.04-1.57,1.6-3.4,1.6-5.29C51.96,39.84,47.66,35.55,42.39,35.55z"/>
	<linearGradient id="SVGID_3_" gradientUnits="userSpaceOnUse" x1="62.8963" y1="45.1213" x2="65.631" y2="45.1213">
		<stop  offset="0" style="stop-color:#FC9449"/>
		<stop  offset="0.6367" style="stop-color:#F72981"/>
		<stop  offset="1" style="stop-color:#AB29C4"/>
	</linearGradient>
	<rect x="62.9" y="43.75" class="st2" width="2.73" height="2.73"/>
	<linearGradient id="SVGID_4_" gradientUnits="userSpaceOnUse" x1="68.3656" y1="45.1213" x2="71.1002" y2="45.1213">
		<stop  offset="0" style="stop-color:#FC9449"/>
		<stop  offset="0.6367" style="stop-color:#F72981"/>
		<stop  offset="1" style="stop-color:#AB29C4"/>
	</linearGradient>
	<rect x="68.37" y="43.75" class="st3" width="2.73" height="2.73"/>
	<linearGradient id="SVGID_5_" gradientUnits="userSpaceOnUse" x1="73.8348" y1="45.1213" x2="76.5694" y2="45.1213">
		<stop  offset="0" style="stop-color:#FC9449"/>
		<stop  offset="0.6367" style="stop-color:#F72981"/>
		<stop  offset="1" style="stop-color:#AB29C4"/>
	</linearGradient>
	<rect x="73.83" y="43.75" class="st4" width="2.73" height="2.73"/>
	<linearGradient id="SVGID_6_" gradientUnits="userSpaceOnUse" x1="8.2039" y1="45.1213" x2="10.9385" y2="45.1213">
		<stop  offset="0" style="stop-color:#FC9449"/>
		<stop  offset="0.6367" style="stop-color:#F72981"/>
		<stop  offset="1" style="stop-color:#AB29C4"/>
	</linearGradient>
	<rect x="8.2" y="43.75" class="st5" width="2.73" height="2.73"/>
	<linearGradient id="SVGID_7_" gradientUnits="userSpaceOnUse" x1="13.6731" y1="45.1213" x2="16.4077" y2="45.1213">
		<stop  offset="0" style="stop-color:#FC9449"/>
		<stop  offset="0.6367" style="stop-color:#F72981"/>
		<stop  offset="1" style="stop-color:#AB29C4"/>
	</linearGradient>
	<rect x="13.67" y="43.75" class="st6" width="2.73" height="2.73"/>
	<linearGradient id="SVGID_8_" gradientUnits="userSpaceOnUse" x1="19.1424" y1="45.1213" x2="21.877" y2="45.1213">
		<stop  offset="0" style="stop-color:#FC9449"/>
		<stop  offset="0.6367" style="stop-color:#F72981"/>
		<stop  offset="1" style="stop-color:#AB29C4"/>
	</linearGradient>
	<rect x="19.14" y="43.75" class="st7" width="2.73" height="2.73"/>
</g>
</svg>
