<?xml version="1.0" encoding="utf-8"?>
<!-- Generator: Adobe Illustrator 23.0.2, SVG Export Plug-In . SVG Version: 6.00 Build 0)  -->
<svg version="1.1" id="Capa_1" xmlns="http://www.w3.org/2000/svg" xmlns:xlink="http://www.w3.org/1999/xlink" x="0px" y="0px"
	 viewBox="0 0 241.79 468.59" style="enable-background:new 0 0 241.79 468.59;" xml:space="preserve">
<style type="text/css">
	.st0{fill:url(#SVGID_1_);}
	.st1{fill:#F6F6F6;}
	.st2{fill:#EB5E97;}
	.st3{fill:#5860A9;}
	.st4{opacity:0.2;}
	.st5{fill:#6A71B4;}
	.st6{fill:#43477D;}
	.st7{fill:#BAB2D9;}
	.st8{fill:#AEA6D2;}
	.st9{opacity:0.4;fill:#6A71B4;}
	.st10{fill:#F9CFE4;}
	.st11{opacity:0.1;}
	.st12{opacity:0.2;fill:#43477D;}
	.st13{fill:#FAB610;}
	.st14{fill:#FFFFFF;}
	.st15{fill:#FFFFFF;stroke:#FFFFFF;stroke-width:0.5245;stroke-miterlimit:10;}
	.st16{fill:url(#SVGID_2_);}
</style>
<g>
	<linearGradient id="SVGID_1_" gradientUnits="userSpaceOnUse" x1="0" y1="279.9087" x2="241.7883" y2="279.9087">
		<stop  offset="0" style="stop-color:#F2924C"/>
		<stop  offset="0.6367" style="stop-color:#E73180"/>
		<stop  offset="1" style="stop-color:#854392"/>
	</linearGradient>
	<rect y="91.23" class="st0" width="241.79" height="377.36"/>
	<rect y="405.6" class="st1" width="241.79" height="62.98"/>
	<g>
		<path class="st2" d="M52.54,348.73c-6.32-0.81-12.95,1.18-17.79,5.33c-4.84,4.15-7.81,10.4-7.97,16.77
			c-6.46-1.76-13.35-0.25-18.07,4.49c-4.72,4.74-6.64,12.09-4.84,18.54c8.97,2.77,19.95,4.46,29.34,4.52
			c9.39,0.06,19.25-3.03,25.27-10.23c2.86-3.42,4.72-7.62,5.52-12C65.82,366.12,60.55,355.02,52.54,348.73z"/>
		<g>
			<path class="st3" d="M75.91,359.69c1.45-4.79-1.2-9.93-4.72-13.48c-3.52-3.55-7.94-6.14-11.36-9.79
				c-5.03-5.36-7.53-12.54-11.42-18.78c-3.89-6.23-10.32-11.96-17.63-11.2c2.5,2.79,1.52,7.1,1.13,10.82
				c-0.39,3.72-1.17,7.55-0.09,11.13c1.25,4.14,4.77,7.19,6.68,11.07c3.46,7.03,1.18,15.64,3.63,23.08
				c2.16,6.57,7.94,11.57,14.48,13.82c6.54,2.26,13.73,2.01,20.47,0.45C78.68,370.04,78.9,366.01,75.91,359.69z"/>
			<path class="st4" d="M69.95,361.5c-5.33-0.65-10.42-4.4-13.96-10.29c-0.46-0.77-0.89-1.57-1.29-2.38
				c0.06-0.08,0.11-0.17,0.14-0.28c1.1-4.32,1.55-8.76,1.33-13.21c-0.02-0.44-0.39-0.77-0.84-0.76c-0.44,0.02-0.78,0.4-0.76,0.84
				c0.19,3.75-0.12,7.5-0.91,11.17c-1.36-3.15-2.41-6.47-3.42-9.71c-0.3-0.96-0.6-1.93-0.91-2.88c-0.1-0.3-0.19-0.59-0.29-0.89
				c0.07-0.1,0.13-0.21,0.15-0.34c0.48-3.04,0.81-6.14,0.98-9.22c0.02-0.44-0.31-0.82-0.75-0.84c-0.44-0.02-0.82,0.31-0.84,0.75
				c-0.12,2.19-0.33,4.39-0.61,6.57c-1.72-4.63-3.93-9.15-7.39-12.77c-0.3-0.32-0.81-0.33-1.13-0.02c-0.32,0.3-0.33,0.81-0.03,1.13
				c1.9,1.99,3.42,4.3,4.68,6.75c-1.87-0.61-3.78-1.11-5.71-1.48c-0.44-0.08-0.85,0.2-0.94,0.63c-0.08,0.43,0.2,0.85,0.63,0.94
				c2.28,0.44,4.55,1.06,6.74,1.85c0.07,0.03,0.14,0.03,0.21,0.04c1.08,2.41,1.96,4.91,2.76,7.39c0.31,0.95,0.61,1.91,0.91,2.87
				c0.3,0.95,0.6,1.91,0.91,2.88c-2.67-0.92-5.31-1.95-7.87-3.1c-0.4-0.18-0.88,0-1.06,0.4c-0.18,0.4,0,0.88,0.4,1.06
				c2.97,1.33,6.04,2.52,9.13,3.54c0.01,0,0.01,0,0.02,0c1.16,3.41,2.5,6.79,4.36,9.89c0.88,1.46,1.85,2.79,2.89,3.99
				c-3.99,0.33-8.11-0.39-11.73-2.08c-0.4-0.19-0.88-0.02-1.06,0.38c-0.19,0.4-0.02,0.88,0.38,1.06c3.26,1.53,6.91,2.32,10.52,2.32
				c1.06,0,2.12-0.07,3.16-0.21c0.03,0,0.06-0.01,0.09-0.02c3.2,3.15,6.97,5.12,10.87,5.6c0.03,0,0.07,0.01,0.1,0.01
				c0.4,0,0.74-0.3,0.79-0.7C70.7,361.96,70.39,361.56,69.95,361.5z"/>
		</g>
		<g>
			<path class="st2" d="M197.38,351.26c-1.08-2.99,0.44-6.34,2.55-8.71c2.12-2.37,4.83-4.16,6.88-6.58
				c3.01-3.56,4.36-8.21,6.63-12.29c2.26-4.08,6.16-7.93,10.82-7.68c-1.49,1.85-0.73,4.56-0.36,6.9c0.37,2.35,0.99,4.75,0.42,7.06
				c-0.66,2.67-2.79,4.72-3.87,7.24c-1.96,4.58-0.24,9.96-1.55,14.76c-1.16,4.24-4.66,7.6-8.73,9.25
				c-4.07,1.65-8.65,1.73-12.97,0.96C195.96,357.91,195.69,355.37,197.38,351.26z"/>
			<path class="st4" d="M201.22,352.21c3.36-0.59,6.47-3.13,8.52-6.98c0.27-0.5,0.51-1.02,0.74-1.55c-0.04-0.05-0.08-0.11-0.1-0.17
				c-0.84-2.7-1.27-5.51-1.27-8.34c0-0.28,0.22-0.5,0.51-0.51c0.28,0,0.51,0.23,0.51,0.51c0.01,2.39,0.32,4.76,0.94,7.06
				c0.76-2.04,1.31-4.18,1.85-6.27c0.16-0.62,0.32-1.24,0.48-1.86c0.05-0.19,0.1-0.38,0.16-0.57c-0.05-0.06-0.09-0.13-0.11-0.21
				c-0.41-1.91-0.72-3.87-0.93-5.82c-0.03-0.28,0.17-0.53,0.45-0.56c0.28-0.02,0.53,0.17,0.56,0.45c0.15,1.38,0.35,2.77,0.6,4.15
				c0.94-2.99,2.19-5.93,4.27-8.34c0.18-0.21,0.5-0.24,0.72-0.05c0.21,0.18,0.24,0.5,0.05,0.72c-1.14,1.33-2.03,2.84-2.75,4.44
				c1.17-0.45,2.36-0.83,3.57-1.13c0.27-0.07,0.55,0.1,0.61,0.37c0.07,0.27-0.1,0.55-0.37,0.61c-1.43,0.35-2.85,0.82-4.22,1.39
				c-0.04,0.02-0.09,0.02-0.13,0.03c-0.61,1.56-1.08,3.18-1.51,4.78c-0.16,0.62-0.32,1.23-0.48,1.85c-0.16,0.62-0.32,1.23-0.48,1.85
				c1.66-0.67,3.3-1.41,4.89-2.23c0.25-0.13,0.56-0.03,0.68,0.22c0.13,0.25,0.03,0.56-0.22,0.68c-1.84,0.94-3.75,1.8-5.68,2.55
				c0,0-0.01,0-0.01,0c-0.62,2.2-1.36,4.39-2.44,6.42c-0.51,0.95-1.08,1.83-1.71,2.63c2.54,0.08,5.13-0.51,7.37-1.71
				c0.25-0.13,0.55-0.04,0.69,0.21c0.13,0.25,0.04,0.56-0.21,0.69c-2.02,1.08-4.3,1.7-6.6,1.82c-0.67,0.03-1.35,0.03-2.01-0.03
				c-0.02,0-0.04-0.01-0.06-0.01c-1.93,2.1-4.25,3.48-6.72,3.91c-0.02,0-0.04,0.01-0.06,0.01c-0.25,0.01-0.48-0.16-0.53-0.42
				C200.76,352.52,200.94,352.26,201.22,352.21z"/>
		</g>
		<g>
			<path class="st3" d="M179.19,366.6c0.47-4.98,4.87-8.73,9.48-10.68s9.67-2.68,14.22-4.76c6.68-3.05,11.72-8.76,17.68-13.05
				c5.96-4.29,14.08-7.16,20.55-3.68c-3.36,1.63-4.1,6-5.15,9.59c-1.05,3.59-1.78,7.43-4.13,10.34c-2.72,3.36-7.14,4.85-10.37,7.72
				c-5.86,5.2-7.02,14.02-12.11,19.99c-4.49,5.26-11.73,7.7-18.64,7.31c-6.9-0.39-13.47-3.34-19.11-7.34
				C172.71,375.12,174.03,371.32,179.19,366.6z"/>
			<path class="st4" d="M184.02,370.53c5.18,1.42,11.31-0.12,16.82-4.23c0.72-0.54,1.41-1.12,2.09-1.71
				c-0.03-0.1-0.04-0.2-0.02-0.31c0.62-4.41,1.89-8.69,3.78-12.73c0.19-0.4,0.66-0.57,1.06-0.38c0.4,0.19,0.57,0.66,0.38,1.06
				c-1.59,3.4-2.73,6.99-3.39,10.68c2.45-2.4,4.68-5.07,6.85-7.69c0.64-0.78,1.29-1.55,1.94-2.32c0.2-0.24,0.4-0.48,0.61-0.71
				c-0.03-0.12-0.04-0.24-0.01-0.37c0.7-3,1.57-5.99,2.58-8.9c0.14-0.42,0.6-0.64,1.02-0.49c0.41,0.15,0.64,0.6,0.49,1.02
				c-0.72,2.07-1.36,4.19-1.93,6.31c3.34-3.63,7.1-6.98,11.67-9.02c0.4-0.18,0.88,0,1.06,0.4c0.18,0.4,0,0.88-0.4,1.06
				c-2.52,1.12-4.79,2.68-6.89,4.48c1.96,0.14,3.92,0.4,5.84,0.79c0.43,0.09,0.71,0.51,0.63,0.94c-0.09,0.43-0.51,0.71-0.94,0.63
				c-2.28-0.46-4.61-0.74-6.94-0.84c-0.07,0-0.14-0.02-0.21-0.05c-1.91,1.82-3.68,3.8-5.35,5.79c-0.65,0.77-1.29,1.54-1.93,2.31
				c-0.64,0.77-1.28,1.54-1.93,2.32c2.81,0.16,5.65,0.2,8.46,0.11c0.44-0.01,0.81,0.33,0.82,0.77c0.01,0.44-0.33,0.81-0.77,0.82
				c-3.25,0.11-6.55,0.04-9.8-0.18c-0.01,0-0.01,0-0.02,0c-2.36,2.72-4.88,5.33-7.79,7.5c-1.36,1.02-2.77,1.88-4.19,2.6
				c3.57,1.82,7.65,2.72,11.64,2.52c0.44-0.02,0.82,0.32,0.84,0.76c0.02,0.44-0.32,0.82-0.76,0.84c-3.59,0.18-7.27-0.47-10.62-1.84
				c-0.98-0.4-1.93-0.87-2.85-1.39c-0.03-0.02-0.05-0.04-0.08-0.05c-4.16,1.7-8.39,2.1-12.18,1.06c-0.03-0.01-0.06-0.02-0.09-0.03
				c-0.37-0.15-0.57-0.56-0.47-0.95C183.16,370.67,183.59,370.42,184.02,370.53z"/>
		</g>
		<rect x="29.61" y="281.48" class="st5" width="176.22" height="109.63"/>
		<rect x="46.95" y="300.32" class="st6" width="44.6" height="90.79"/>
		<rect x="106.41" y="300.32" class="st7" width="99.42" height="68.31"/>
		<g>
			<rect x="114.41" y="355.48" class="st8" width="38.05" height="2.62"/>
			
				<rect x="127.89" y="361.78" transform="matrix(-1.836970e-16 1 -1 -1.836970e-16 496.5287 229.6562)" class="st8" width="11.09" height="2.62"/>
		</g>
		<g>
			<rect x="164.17" y="355.48" class="st8" width="38.05" height="2.62"/>
			
				<rect x="177.65" y="361.78" transform="matrix(-1.836970e-16 1 -1 -1.836970e-16 546.2867 179.8983)" class="st8" width="11.09" height="2.62"/>
		</g>
		<rect x="34.69" y="220.94" class="st5" width="166.05" height="60.54"/>
		<rect x="41.54" y="227.78" class="st9" width="152.36" height="46.85"/>
		<path class="st4" d="M29.61,290.56c1.17,5.16,5.77,9.02,11.29,9.02h0c6.4,0,11.58-5.19,11.58-11.58c0,6.4,5.19,11.58,11.58,11.58
			h0c6.4,0,11.58-5.19,11.58-11.58c0,6.4,5.19,11.58,11.58,11.58h0c6.4,0,11.58-5.19,11.58-11.58c0,6.4,5.19,11.58,11.58,11.58h0
			c6.4,0,11.58-5.19,11.58-11.58c0,6.4,5.19,11.58,11.58,11.58h0c6.4,0,11.58-5.19,11.58-11.58c0,6.4,5.19,11.58,11.58,11.58l0,0
			c6.4,0,11.58-5.19,11.58-11.58c0,6.4,5.19,11.58,11.58,11.58l0,0c6.4,0,11.58-5.19,11.58-11.58c0,6.4,5.19,11.58,11.58,11.58h0
			c0.96,0,1.89-0.13,2.79-0.35v-17.74H29.61V290.56z"/>
		<g>
			<g>
				<polygon class="st2" points="25.06,271.53 1.9,271.53 34.6,238.92 51.22,238.92 				"/>
				<polygon class="st10" points="48.23,271.53 25.06,271.53 51.22,238.92 67.85,238.92 				"/>
				<polygon class="st2" points="71.39,271.53 48.23,271.53 67.85,238.92 84.47,238.92 				"/>
				<polygon class="st10" points="94.55,271.53 71.39,271.53 84.47,238.92 101.09,238.92 				"/>
				<polygon class="st2" points="117.72,271.53 94.55,271.53 101.09,238.92 117.72,238.92 				"/>
				<polygon class="st10" points="140.88,271.53 117.72,271.53 117.72,238.92 134.34,238.92 				"/>
				<polygon class="st2" points="164.04,271.53 140.88,271.53 134.34,238.92 150.96,238.92 				"/>
				<polygon class="st10" points="187.21,271.53 164.04,271.53 150.96,238.92 167.59,238.92 				"/>
				<polygon class="st2" points="210.37,271.53 187.21,271.53 167.59,238.92 184.21,238.92 				"/>
				<polygon class="st10" points="233.53,271.53 210.37,271.53 184.21,238.92 200.83,238.92 				"/>
			</g>
			<path class="st2" d="M25.06,271.53H1.9v11.89c0,6.4,5.19,11.58,11.58,11.58h0c6.4,0,11.58-5.19,11.58-11.58V271.53z"/>
			<path class="st10" d="M48.23,271.53H25.06v11.89c0,6.4,5.19,11.58,11.58,11.58h0c6.4,0,11.58-5.19,11.58-11.58V271.53z"/>
			<path class="st2" d="M71.39,271.53H48.23v11.89c0,6.4,5.19,11.58,11.58,11.58h0c6.4,0,11.58-5.19,11.58-11.58V271.53z"/>
			<path class="st10" d="M94.55,271.53H71.39v11.89c0,6.4,5.19,11.58,11.58,11.58h0c6.4,0,11.58-5.19,11.58-11.58V271.53z"/>
			<path class="st2" d="M117.72,271.53H94.55v11.89c0,6.4,5.19,11.58,11.58,11.58l0,0c6.4,0,11.58-5.19,11.58-11.58V271.53z"/>
			<path class="st10" d="M140.88,271.53h-23.16v11.89c0,6.4,5.19,11.58,11.58,11.58l0,0c6.4,0,11.58-5.19,11.58-11.58V271.53z"/>
			<path class="st2" d="M164.04,271.53h-23.16v11.89c0,6.4,5.19,11.58,11.58,11.58l0,0c6.4,0,11.58-5.19,11.58-11.58V271.53z"/>
			<path class="st10" d="M187.21,271.53h-23.16v11.89c0,6.4,5.19,11.58,11.58,11.58h0c6.4,0,11.58-5.19,11.58-11.58V271.53z"/>
			<path class="st2" d="M210.37,271.53h-23.16v11.89c0,6.4,5.19,11.58,11.58,11.58h0c6.4,0,11.58-5.19,11.58-11.58V271.53z"/>
			<path class="st10" d="M233.53,271.53h-23.16v11.89c0,6.4,5.19,11.58,11.58,11.58h0c6.4,0,11.58-5.19,11.58-11.58V271.53z"/>
			<g>
				<path class="st11" d="M25.06,271.53H1.9v11.89c0,6.4,5.19,11.58,11.58,11.58h0c6.4,0,11.58-5.19,11.58-11.58V271.53z"/>
				<path class="st11" d="M48.23,271.53H25.06v11.89c0,6.4,5.19,11.58,11.58,11.58h0c6.4,0,11.58-5.19,11.58-11.58V271.53z"/>
				<path class="st11" d="M71.39,271.53H48.23v11.89c0,6.4,5.19,11.58,11.58,11.58h0c6.4,0,11.58-5.19,11.58-11.58V271.53z"/>
				<path class="st11" d="M94.55,271.53H71.39v11.89c0,6.4,5.19,11.58,11.58,11.58h0c6.4,0,11.58-5.19,11.58-11.58V271.53z"/>
				<path class="st11" d="M117.72,271.53H94.55v11.89c0,6.4,5.19,11.58,11.58,11.58l0,0c6.4,0,11.58-5.19,11.58-11.58V271.53z"/>
				<path class="st11" d="M140.88,271.53h-23.16v11.89c0,6.4,5.19,11.58,11.58,11.58l0,0c6.4,0,11.58-5.19,11.58-11.58V271.53z"/>
				<path class="st11" d="M164.04,271.53h-23.16v11.89c0,6.4,5.19,11.58,11.58,11.58l0,0c6.4,0,11.58-5.19,11.58-11.58V271.53z"/>
				<path class="st11" d="M187.21,271.53h-23.16v11.89c0,6.4,5.19,11.58,11.58,11.58h0c6.4,0,11.58-5.19,11.58-11.58V271.53z"/>
				<path class="st11" d="M210.37,271.53h-23.16v11.89c0,6.4,5.19,11.58,11.58,11.58h0c6.4,0,11.58-5.19,11.58-11.58V271.53z"/>
				<path class="st11" d="M233.53,271.53h-23.16v11.89c0,6.4,5.19,11.58,11.58,11.58h0c6.4,0,11.58-5.19,11.58-11.58V271.53z"/>
			</g>
		</g>
		<polygon class="st9" points="193.9,227.78 41.54,227.78 41.54,231.95 41.54,238.92 46.05,231.83 		"/>
		<rect x="51.22" y="305.93" class="st7" width="35" height="52.55"/>
		<rect x="51.22" y="361.66" class="st12" width="15.63" height="26.26"/>
		<rect x="70.59" y="361.66" class="st12" width="15.63" height="26.26"/>
		<path class="st13" d="M91.54,345.72c0,1.93-1.56,3.49-3.49,3.49s-3.49-1.56-3.49-3.49c0-1.93,1.56-3.49,3.49-3.49
			S91.54,343.79,91.54,345.72z"/>
		<g class="st11">
			<polygon class="st14" points="136.3,368.64 204.61,300.32 176.55,300.32 108.24,368.64 			"/>
			<polygon class="st14" points="205.83,321.21 205.83,307.18 144.37,368.64 158.4,368.64 			"/>
		</g>
		<g class="st11">
			<polygon class="st14" points="86.23,321.2 51.22,356.21 51.22,358.48 59.07,358.48 86.23,331.33 			"/>
			<polygon class="st14" points="51.22,350.39 86.23,315.38 86.23,305.93 75.44,305.93 51.22,330.14 			"/>
		</g>
		<g>
			<path class="st8" d="M137.84,324.42h-8.54v-4.27c0-2.36,1.91-4.27,4.27-4.27l0,0c2.36,0,4.27,1.91,4.27,4.27V324.42z"/>
			<rect x="133.22" y="300.32" class="st8" width="0.71" height="16.13"/>
		</g>
		<g>
			<path class="st8" d="M160.39,324.42h-8.54v-4.27c0-2.36,1.91-4.27,4.27-4.27l0,0c2.36,0,4.27,1.91,4.27,4.27V324.42z"/>
			<rect x="155.76" y="300.32" class="st8" width="0.71" height="16.13"/>
		</g>
		<g>
			<path class="st8" d="M182.93,324.42h-8.54v-4.27c0-2.36,1.91-4.27,4.27-4.27l0,0c2.36,0,4.27,1.91,4.27,4.27V324.42z"/>
			<rect x="178.31" y="300.32" class="st8" width="0.71" height="16.13"/>
		</g>
		<g>
			<path class="st6" d="M155.76,337.17l-13.28-13.28l13.28-13.28l13.28,13.28L155.76,337.17z M144.1,323.88l11.66,11.66l11.66-11.66
				l-11.66-11.66L144.1,323.88z"/>
		</g>
		<path class="st5" d="M170.31,346.02h-29.1c-2.18,0-3.95-1.77-3.95-3.95v-15.02c0-2.18,1.77-3.95,3.95-3.95h29.1
			c2.18,0,3.95,1.77,3.95,3.95v15.02C174.26,344.26,172.5,346.02,170.31,346.02z"/>
		<g>
			<path class="st15" d="M170.31,345.16h-29.1c-1.7,0-3.09-1.38-3.09-3.09v-15.02c0-1.7,1.38-3.09,3.09-3.09h29.1
				c1.7,0,3.09,1.38,3.09,3.09v15.02C173.4,343.77,172.01,345.16,170.31,345.16z M141.21,324.37c-1.48,0-2.69,1.2-2.69,2.69v15.02
				c0,1.48,1.21,2.69,2.69,2.69h29.1c1.48,0,2.69-1.21,2.69-2.69v-15.02c0-1.48-1.2-2.69-2.69-2.69H141.21z"/>
		</g>
		<rect y="391.11" class="st5" width="241.79" height="14.49"/>
		<rect y="391.11" class="st12" width="241.79" height="6.69"/>
	</g>
	<path class="st14" d="M70.41,134.83c0-2.88,1.82-5.34,4.37-6.3c1.36-3.69,4.91-6.33,9.08-6.33c0.04,0,0.09,0,0.13,0
		c2.19-4.47,6.77-7.55,12.08-7.55c5.34,0,9.96,3.12,12.13,7.63c0.43-0.06,0.87-0.09,1.32-0.09c5.34,0,9.67,4.33,9.67,9.67
		c0,1.03-0.16,2.02-0.46,2.95H70.41z"/>
	<rect y="5.51" class="st1" width="240.95" height="85.71"/>
	<linearGradient id="SVGID_2_" gradientUnits="userSpaceOnUse" x1="0" y1="2.7566" x2="241.7883" y2="2.7566">
		<stop  offset="0" style="stop-color:#F2924C"/>
		<stop  offset="0.6367" style="stop-color:#E73180"/>
		<stop  offset="1" style="stop-color:#854392"/>
	</linearGradient>
	<rect class="st16" width="241.79" height="5.51"/>
</g>
</svg>
