<?xml version="1.0" encoding="utf-8"?>
<!-- Generator: Adobe Illustrator 23.0.2, SVG Export Plug-In . SVG Version: 6.00 Build 0)  -->
<svg version="1.1" id="Capa_1" xmlns="http://www.w3.org/2000/svg" xmlns:xlink="http://www.w3.org/1999/xlink" x="0px" y="0px"
	 viewBox="0 0 542.68 30.49" style="enable-background:new 0 0 542.68 30.49;" xml:space="preserve">
<style type="text/css">
	.st0{fill:url(#SVGID_1_);}
	.st1{fill:url(#SVGID_2_);}
	.st2{fill:url(#SVGID_3_);}
	.st3{fill:url(#SVGID_4_);}
	.st4{fill:url(#SVGID_5_);}
	.st5{fill:url(#SVGID_6_);}
	.st6{fill:url(#SVGID_7_);}
	.st7{fill:url(#SVGID_8_);}
	.st8{fill:url(#SVGID_9_);}
	.st9{fill:url(#SVGID_10_);}
	.st10{fill:url(#SVGID_11_);}
	.st11{fill:url(#SVGID_12_);}
	.st12{fill:url(#SVGID_13_);}
	.st13{fill:url(#SVGID_14_);}
	.st14{fill:url(#SVGID_15_);}
	.st15{fill:url(#SVGID_16_);}
	.st16{fill:url(#SVGID_17_);}
	.st17{fill:url(#SVGID_18_);}
	.st18{fill:url(#SVGID_19_);}
	.st19{fill:url(#SVGID_20_);}
	.st20{fill:url(#SVGID_21_);}
	.st21{fill:url(#SVGID_22_);}
</style>
<g>
	<linearGradient id="SVGID_1_" gradientUnits="userSpaceOnUse" x1="-11.3203" y1="15.243" x2="569.7922" y2="15.243">
		<stop  offset="0" style="stop-color:#FC9449"/>
		<stop  offset="0.6367" style="stop-color:#F72981"/>
		<stop  offset="1" style="stop-color:#AB29C4"/>
	</linearGradient>
	<path class="st0" d="M0,0.73h5.3l12.42,19.1V0.73h5.52v29.02h-5.31L5.52,10.71v19.04H0V0.73z"/>
	<linearGradient id="SVGID_2_" gradientUnits="userSpaceOnUse" x1="-11.3203" y1="15.6084" x2="569.7922" y2="15.6084">
		<stop  offset="0" style="stop-color:#FC9449"/>
		<stop  offset="0.6367" style="stop-color:#F72981"/>
		<stop  offset="1" style="stop-color:#AB29C4"/>
	</linearGradient>
	<path class="st1" d="M29.68,0.73h5.54V19.5c0,1.62,0.14,2.76,0.43,3.43c0.28,0.67,0.75,1.21,1.4,1.61c0.65,0.4,1.44,0.6,2.36,0.6
		c0.97,0,1.81-0.22,2.52-0.67c0.7-0.45,1.19-1.01,1.46-1.7c0.27-0.69,0.4-2.01,0.4-3.95V0.73h5.54v17.3c0,2.92-0.16,4.95-0.49,6.08
		c-0.33,1.13-0.96,2.22-1.89,3.28c-0.93,1.05-2,1.83-3.21,2.34c-1.21,0.51-2.62,0.76-4.22,0.76c-2.11,0-3.94-0.48-5.5-1.45
		c-1.56-0.97-2.67-2.18-3.34-3.63c-0.67-1.45-1.01-3.91-1.01-7.37V0.73z"/>
	<linearGradient id="SVGID_3_" gradientUnits="userSpaceOnUse" x1="-11.3203" y1="15.243" x2="569.7922" y2="15.243">
		<stop  offset="0" style="stop-color:#FC9449"/>
		<stop  offset="0.6367" style="stop-color:#F72981"/>
		<stop  offset="1" style="stop-color:#AB29C4"/>
	</linearGradient>
	<path class="st2" d="M55.76,0.73h15.84v5.41H61.25v5.25h10.36v5.31H61.25v7.64h10.36v5.43H55.76V0.73z"/>
	<linearGradient id="SVGID_4_" gradientUnits="userSpaceOnUse" x1="-11.3203" y1="15.243" x2="569.7922" y2="15.243">
		<stop  offset="0" style="stop-color:#FC9449"/>
		<stop  offset="0.6367" style="stop-color:#F72981"/>
		<stop  offset="1" style="stop-color:#AB29C4"/>
	</linearGradient>
	<path class="st3" d="M91.99,4.68L87.9,8.29c-1.44-2-2.9-3-4.39-3c-0.72,0-1.32,0.19-1.78,0.58c-0.46,0.39-0.69,0.83-0.69,1.31
		s0.16,0.95,0.49,1.38c0.45,0.58,1.8,1.82,4.05,3.73c2.11,1.76,3.39,2.87,3.83,3.34c1.12,1.13,1.91,2.21,2.38,3.25
		c0.47,1.03,0.7,2.16,0.7,3.38c0,2.38-0.82,4.35-2.47,5.9c-1.65,1.55-3.79,2.33-6.44,2.33c-2.07,0-3.87-0.51-5.4-1.52
		s-2.85-2.6-3.94-4.78l4.64-2.8c1.4,2.57,3,3.85,4.82,3.85c0.95,0,1.75-0.27,2.39-0.83c0.65-0.55,0.97-1.19,0.97-1.91
		c0-0.66-0.24-1.32-0.73-1.97c-0.49-0.66-1.56-1.66-3.22-3.02c-3.16-2.58-5.21-4.57-6.13-5.97c-0.92-1.4-1.38-2.8-1.38-4.19
		c0-2.01,0.77-3.74,2.3-5.18C79.45,0.72,81.34,0,83.59,0c1.45,0,2.83,0.34,4.14,1.01C89.04,1.68,90.46,2.9,91.99,4.68z"/>
	<linearGradient id="SVGID_5_" gradientUnits="userSpaceOnUse" x1="-11.3203" y1="15.243" x2="569.7922" y2="15.243">
		<stop  offset="0" style="stop-color:#FC9449"/>
		<stop  offset="0.6367" style="stop-color:#F72981"/>
		<stop  offset="1" style="stop-color:#AB29C4"/>
	</linearGradient>
	<path class="st4" d="M94.91,0.73h16.04v5.45h-5.29v23.58h-5.6V6.18h-5.15V0.73z"/>
	<linearGradient id="SVGID_6_" gradientUnits="userSpaceOnUse" x1="-11.3203" y1="15.243" x2="569.7922" y2="15.243">
		<stop  offset="0" style="stop-color:#FC9449"/>
		<stop  offset="0.6367" style="stop-color:#F72981"/>
		<stop  offset="1" style="stop-color:#AB29C4"/>
	</linearGradient>
	<path class="st5" d="M115.11,0.73h5.85c3.21,0,5.49,0.29,6.85,0.86c1.36,0.57,2.45,1.52,3.28,2.85c0.83,1.33,1.24,2.9,1.24,4.72
		c0,1.91-0.46,3.5-1.37,4.79c-0.91,1.28-2.29,2.25-4.13,2.91l6.88,12.9h-6.04l-6.53-12.29h-0.51v12.29h-5.52V0.73z M120.64,12.08
		h1.73c1.76,0,2.97-0.23,3.63-0.69s0.99-1.23,0.99-2.3c0-0.63-0.16-1.18-0.49-1.65c-0.33-0.47-0.77-0.8-1.32-1.01
		c-0.55-0.2-1.56-0.31-3.03-0.31h-1.51V12.08z"/>
	<linearGradient id="SVGID_7_" gradientUnits="userSpaceOnUse" x1="-11.3203" y1="15.243" x2="569.7922" y2="15.243">
		<stop  offset="0" style="stop-color:#FC9449"/>
		<stop  offset="0.6367" style="stop-color:#F72981"/>
		<stop  offset="1" style="stop-color:#AB29C4"/>
	</linearGradient>
	<path class="st6" d="M147.03,0.73h5.6l11.16,29.02h-5.74l-2.27-5.98h-11.84l-2.36,5.98h-5.74L147.03,0.73z M149.87,8.42l-3.89,9.97
		h7.77L149.87,8.42z"/>
	<linearGradient id="SVGID_8_" gradientUnits="userSpaceOnUse" x1="-11.3203" y1="15.243" x2="569.7922" y2="15.243">
		<stop  offset="0" style="stop-color:#FC9449"/>
		<stop  offset="0.6367" style="stop-color:#F72981"/>
		<stop  offset="1" style="stop-color:#AB29C4"/>
	</linearGradient>
	<path class="st7" d="M183.31,4.68l-4.09,3.61c-1.44-2-2.9-3-4.39-3c-0.72,0-1.32,0.19-1.78,0.58c-0.46,0.39-0.69,0.83-0.69,1.31
		s0.16,0.95,0.49,1.38c0.45,0.58,1.8,1.82,4.05,3.73c2.11,1.76,3.39,2.87,3.83,3.34c1.12,1.13,1.91,2.21,2.38,3.25
		c0.47,1.03,0.7,2.16,0.7,3.38c0,2.38-0.82,4.35-2.47,5.9c-1.65,1.55-3.79,2.33-6.44,2.33c-2.07,0-3.87-0.51-5.4-1.52
		c-1.53-1.01-2.85-2.6-3.94-4.78l4.64-2.8c1.4,2.57,3,3.85,4.82,3.85c0.95,0,1.75-0.27,2.39-0.83s0.97-1.19,0.97-1.91
		c0-0.66-0.24-1.32-0.73-1.97c-0.49-0.66-1.56-1.66-3.22-3.02c-3.16-2.58-5.21-4.57-6.13-5.97c-0.92-1.4-1.38-2.8-1.38-4.19
		c0-2.01,0.77-3.74,2.3-5.18c1.53-1.44,3.43-2.16,5.68-2.16c1.45,0,2.83,0.34,4.14,1.01C180.36,1.68,181.78,2.9,183.31,4.68z"/>
	<linearGradient id="SVGID_9_" gradientUnits="userSpaceOnUse" x1="-11.3203" y1="15.243" x2="569.7922" y2="15.243">
		<stop  offset="0" style="stop-color:#FC9449"/>
		<stop  offset="0.6367" style="stop-color:#F72981"/>
		<stop  offset="1" style="stop-color:#AB29C4"/>
	</linearGradient>
	<path class="st8" d="M197.53,0.73h16.04v5.45h-5.29v23.58h-5.6V6.18h-5.15V0.73z"/>
	<linearGradient id="SVGID_10_" gradientUnits="userSpaceOnUse" x1="-11.3203" y1="15.243" x2="569.7922" y2="15.243">
		<stop  offset="0" style="stop-color:#FC9449"/>
		<stop  offset="0.6367" style="stop-color:#F72981"/>
		<stop  offset="1" style="stop-color:#AB29C4"/>
	</linearGradient>
	<path class="st9" d="M216.97,0.73h5.49v29.02h-5.49V0.73z"/>
	<linearGradient id="SVGID_11_" gradientUnits="userSpaceOnUse" x1="-11.3203" y1="15.243" x2="569.7922" y2="15.243">
		<stop  offset="0" style="stop-color:#FC9449"/>
		<stop  offset="0.6367" style="stop-color:#F72981"/>
		<stop  offset="1" style="stop-color:#AB29C4"/>
	</linearGradient>
	<path class="st10" d="M228.69,0.73h15.84v5.41h-10.36v5.25h10.36v5.31h-10.36v7.64h10.36v5.43h-15.84V0.73z"/>
	<linearGradient id="SVGID_12_" gradientUnits="userSpaceOnUse" x1="-11.3203" y1="15.243" x2="569.7922" y2="15.243">
		<stop  offset="0" style="stop-color:#FC9449"/>
		<stop  offset="0.6367" style="stop-color:#F72981"/>
		<stop  offset="1" style="stop-color:#AB29C4"/>
	</linearGradient>
	<path class="st11" d="M249.7,0.73h5.3l12.42,19.1V0.73h5.52v29.02h-5.31l-12.4-19.04v19.04h-5.52V0.73z"/>
	<linearGradient id="SVGID_13_" gradientUnits="userSpaceOnUse" x1="-11.3203" y1="15.243" x2="569.7922" y2="15.243">
		<stop  offset="0" style="stop-color:#FC9449"/>
		<stop  offset="0.6367" style="stop-color:#F72981"/>
		<stop  offset="1" style="stop-color:#AB29C4"/>
	</linearGradient>
	<path class="st12" d="M279.6,0.73h6.54c4.22,0,7.35,0.52,9.4,1.57c2.05,1.05,3.74,2.75,5.07,5.1c1.33,2.36,1.99,5.1,1.99,8.25
		c0,2.24-0.37,4.29-1.11,6.17c-0.74,1.88-1.77,3.43-3.08,4.67c-1.31,1.24-2.72,2.09-4.25,2.57c-1.53,0.47-4.17,0.71-7.92,0.71h-6.64
		V0.73z M285.08,6.06v18.31h2.57c2.53,0,4.36-0.29,5.49-0.87s2.07-1.55,2.79-2.92c0.72-1.37,1.08-3.05,1.08-5.06
		c0-3.08-0.86-5.47-2.58-7.17c-1.55-1.53-4.05-2.29-7.48-2.29H285.08z"/>
	<linearGradient id="SVGID_14_" gradientUnits="userSpaceOnUse" x1="-11.3203" y1="15.243" x2="569.7922" y2="15.243">
		<stop  offset="0" style="stop-color:#FC9449"/>
		<stop  offset="0.6367" style="stop-color:#F72981"/>
		<stop  offset="1" style="stop-color:#AB29C4"/>
	</linearGradient>
	<path class="st13" d="M316.73,0.73h5.6l11.16,29.02h-5.74l-2.27-5.98h-11.84l-2.36,5.98h-5.74L316.73,0.73z M319.56,8.42
		l-3.89,9.97h7.77L319.56,8.42z"/>
	<linearGradient id="SVGID_15_" gradientUnits="userSpaceOnUse" x1="-11.3203" y1="15.243" x2="569.7922" y2="15.243">
		<stop  offset="0" style="stop-color:#FC9449"/>
		<stop  offset="0.6367" style="stop-color:#F72981"/>
		<stop  offset="1" style="stop-color:#AB29C4"/>
	</linearGradient>
	<path class="st14" d="M353,4.68l-4.09,3.61c-1.44-2-2.9-3-4.39-3c-0.72,0-1.32,0.19-1.78,0.58c-0.46,0.39-0.69,0.83-0.69,1.31
		s0.16,0.95,0.49,1.38c0.45,0.58,1.8,1.82,4.05,3.73c2.11,1.76,3.39,2.87,3.83,3.34c1.12,1.13,1.91,2.21,2.38,3.25
		c0.47,1.03,0.7,2.16,0.7,3.38c0,2.38-0.82,4.35-2.47,5.9c-1.65,1.55-3.79,2.33-6.44,2.33c-2.07,0-3.87-0.51-5.4-1.52
		s-2.85-2.6-3.94-4.78l4.64-2.8c1.4,2.57,3,3.85,4.82,3.85c0.95,0,1.75-0.27,2.39-0.83s0.97-1.19,0.97-1.91
		c0-0.66-0.24-1.32-0.73-1.97c-0.49-0.66-1.56-1.66-3.22-3.02c-3.16-2.58-5.21-4.57-6.13-5.97c-0.92-1.4-1.38-2.8-1.38-4.19
		c0-2.01,0.77-3.74,2.3-5.18C340.46,0.72,342.35,0,344.6,0c1.45,0,2.83,0.34,4.14,1.01C350.05,1.68,351.47,2.9,353,4.68z"/>
	<linearGradient id="SVGID_16_" gradientUnits="userSpaceOnUse" x1="-11.3203" y1="15.243" x2="569.7922" y2="15.243">
		<stop  offset="0" style="stop-color:#FC9449"/>
		<stop  offset="0.6367" style="stop-color:#F72981"/>
		<stop  offset="1" style="stop-color:#AB29C4"/>
	</linearGradient>
	<path class="st15" d="M370.07,0.73h5.86c3.17,0,5.46,0.29,6.86,0.88c1.4,0.59,2.51,1.53,3.31,2.84c0.81,1.31,1.21,2.88,1.21,4.71
		c0,2.03-0.53,3.71-1.59,5.05c-1.06,1.34-2.5,2.28-4.31,2.8c-1.07,0.3-3.01,0.45-5.82,0.45v12.29h-5.52V0.73z M375.59,12.08h1.76
		c1.38,0,2.34-0.1,2.88-0.3c0.54-0.2,0.96-0.52,1.27-0.98c0.31-0.46,0.46-1.01,0.46-1.65c0-1.12-0.43-1.94-1.3-2.45
		c-0.63-0.38-1.8-0.57-3.51-0.57h-1.56V12.08z"/>
	<linearGradient id="SVGID_17_" gradientUnits="userSpaceOnUse" x1="-11.3203" y1="15.243" x2="569.7922" y2="15.243">
		<stop  offset="0" style="stop-color:#FC9449"/>
		<stop  offset="0.6367" style="stop-color:#F72981"/>
		<stop  offset="1" style="stop-color:#AB29C4"/>
	</linearGradient>
	<path class="st16" d="M393.09,0.73h5.85c3.21,0,5.49,0.29,6.85,0.86c1.36,0.57,2.45,1.52,3.28,2.85c0.83,1.33,1.24,2.9,1.24,4.72
		c0,1.91-0.46,3.5-1.37,4.79c-0.91,1.28-2.29,2.25-4.13,2.91l6.88,12.9h-6.04l-6.53-12.29h-0.51v12.29h-5.52V0.73z M398.62,12.08
		h1.73c1.76,0,2.97-0.23,3.63-0.69s0.99-1.23,0.99-2.3c0-0.63-0.16-1.18-0.49-1.65c-0.33-0.47-0.77-0.8-1.32-1.01
		c-0.55-0.2-1.56-0.31-3.03-0.31h-1.51V12.08z"/>
	<linearGradient id="SVGID_18_" gradientUnits="userSpaceOnUse" x1="-11.3203" y1="15.243" x2="569.7922" y2="15.243">
		<stop  offset="0" style="stop-color:#FC9449"/>
		<stop  offset="0.6367" style="stop-color:#F72981"/>
		<stop  offset="1" style="stop-color:#AB29C4"/>
	</linearGradient>
	<path class="st17" d="M416.18,0.73h15.84v5.41h-10.36v5.25h10.36v5.31h-10.36v7.64h10.36v5.43h-15.84V0.73z"/>
	<linearGradient id="SVGID_19_" gradientUnits="userSpaceOnUse" x1="-11.3203" y1="15.243" x2="569.7922" y2="15.243">
		<stop  offset="0" style="stop-color:#FC9449"/>
		<stop  offset="0.6367" style="stop-color:#F72981"/>
		<stop  offset="1" style="stop-color:#AB29C4"/>
	</linearGradient>
	<path class="st18" d="M439.99,0.73h5.38l6.73,20.24l6.79-20.24h5.38l4.87,29.02h-5.34l-3.11-18.33l-6.17,18.33h-4.87l-6.11-18.33
		l-3.19,18.33h-5.39L439.99,0.73z"/>
	<linearGradient id="SVGID_20_" gradientUnits="userSpaceOnUse" x1="-11.3203" y1="15.243" x2="569.7922" y2="15.243">
		<stop  offset="0" style="stop-color:#FC9449"/>
		<stop  offset="0.6367" style="stop-color:#F72981"/>
		<stop  offset="1" style="stop-color:#AB29C4"/>
	</linearGradient>
	<path class="st19" d="M473.14,0.73h5.49v29.02h-5.49V0.73z"/>
	<linearGradient id="SVGID_21_" gradientUnits="userSpaceOnUse" x1="-11.3203" y1="15.6084" x2="569.7922" y2="15.6084">
		<stop  offset="0" style="stop-color:#FC9449"/>
		<stop  offset="0.6367" style="stop-color:#F72981"/>
		<stop  offset="1" style="stop-color:#AB29C4"/>
	</linearGradient>
	<path class="st20" d="M484.65,0.73h5.54V19.5c0,1.62,0.14,2.76,0.43,3.43c0.28,0.67,0.75,1.21,1.4,1.61c0.65,0.4,1.44,0.6,2.36,0.6
		c0.97,0,1.81-0.22,2.52-0.67c0.7-0.45,1.19-1.01,1.46-1.7c0.27-0.69,0.4-2.01,0.4-3.95V0.73h5.54v17.3c0,2.92-0.16,4.95-0.49,6.08
		c-0.33,1.13-0.96,2.22-1.89,3.28c-0.93,1.05-2,1.83-3.21,2.34c-1.21,0.51-2.62,0.76-4.22,0.76c-2.11,0-3.94-0.48-5.5-1.45
		c-1.56-0.97-2.67-2.18-3.34-3.63c-0.67-1.45-1.01-3.91-1.01-7.37V0.73z"/>
	<linearGradient id="SVGID_22_" gradientUnits="userSpaceOnUse" x1="-11.3203" y1="15.243" x2="569.7922" y2="15.243">
		<stop  offset="0" style="stop-color:#FC9449"/>
		<stop  offset="0.6367" style="stop-color:#F72981"/>
		<stop  offset="1" style="stop-color:#AB29C4"/>
	</linearGradient>
	<path class="st21" d="M513.53,0.73h5.38l6.73,20.24l6.79-20.24h5.38l4.87,29.02h-5.34l-3.11-18.33l-6.17,18.33h-4.87l-6.11-18.33
		l-3.19,18.33h-5.39L513.53,0.73z"/>
</g>
</svg>
