<?xml version="1.0" encoding="utf-8"?>
<!-- Generator: Adobe Illustrator 23.0.2, SVG Export Plug-In . SVG Version: 6.00 Build 0)  -->
<svg version="1.1" id="Capa_1" xmlns="http://www.w3.org/2000/svg" xmlns:xlink="http://www.w3.org/1999/xlink" x="0px" y="0px"
	 viewBox="0 0 103.83 103.83" style="enable-background:new 0 0 103.83 103.83;" xml:space="preserve">
<style type="text/css">
	.st0{fill:url(#SVGID_1_);}
</style>
<g transform="translate(0,-952.36218)">
	<linearGradient id="SVGID_1_" gradientUnits="userSpaceOnUse" x1="0" y1="1004.275" x2="103.8253" y2="1004.275">
		<stop  offset="0" style="stop-color:#FC9449"/>
		<stop  offset="0.6367" style="stop-color:#F72981"/>
		<stop  offset="1" style="stop-color:#AB29C4"/>
	</linearGradient>
	<path class="st0" d="M50.47,952.38c-1.22,0.13-2.13,1.17-2.1,2.4v4.72h-4.72c-0.07,0-0.15,0-0.22,0c-1.3,0.06-2.31,1.17-2.25,2.47
		c0.06,1.3,1.17,2.31,2.47,2.25h4.72v4.72c-0.02,1.3,1.02,2.37,2.33,2.39c1.3,0.02,2.38-1.02,2.39-2.33c0-0.02,0-0.04,0-0.07v-4.72
		h4.72c1.3,0.02,2.37-1.02,2.39-2.33c0.02-1.3-1.02-2.37-2.33-2.39c-0.02,0-0.04,0-0.06,0h-4.72v-4.72c0.03-1.3-1.01-2.38-2.31-2.41
		C50.68,952.36,50.58,952.37,50.47,952.38z M7.07,971.28c-1.3,0-2.57,0.37-3.54,1.11c-0.97,0.74-1.62,1.73-2.03,2.73
		c-0.82,1.99-0.97,4.17-1.11,6.34h0.04c-0.01,0.11-0.71,8.37-0.3,18.61c0.42,10.31,1.84,22.57,6.71,30.95
		c4.6,7.92,9.21,12.83,14.16,16.4c2.38,1.72,3.78,2.65,4.28,3.24c0.5,0.59,0.66,1.02,0.66,3.17c0,1.3,1.06,2.36,2.36,2.36h23.42
		c0.06,0,0.12,0,0.18,0c0.01,0,0.02,0,0.04,0h0.22h23.35c1.3,0,2.36-1.06,2.36-2.36c0-2.15,0.17-2.58,0.66-3.17
		c0.5-0.59,1.89-1.53,4.28-3.24c4.95-3.57,9.56-8.48,14.16-16.4c4.87-8.39,6.29-20.65,6.71-30.95c0.42-10.23-0.29-18.5-0.3-18.61
		h0.04c-0.14-2.17-0.29-4.34-1.11-6.34c-0.41-1-1.05-1.99-2.03-2.73c-0.97-0.74-2.24-1.11-3.54-1.11c-5.46,0-9.32,2.75-10.51,6.3
		c-0.81,2.44-0.99,5.91-1.14,9.07c-0.07,1.49-0.05,1.71-0.07,2.76c-3.59-0.64-7.37,0.98-9.22,4.27l-10.66,19.09
		c-0.74,1.31-3.33,2.98-6.34,5.05c-2.44,1.67-5.15,3.8-6.9,6.93c-1.75-3.13-4.46-5.25-6.9-6.93c-3.01-2.07-5.61-3.73-6.34-5.05
		l-10.66-19.09c-1.85-3.3-5.63-4.91-9.22-4.27c-0.02-1.05,0-1.27-0.07-2.76c-0.15-3.16-0.33-6.63-1.14-9.07
		C16.39,974.03,12.53,971.28,7.07,971.28L7.07,971.28z M35.13,973.6c-1.22,0.13-2.13,1.17-2.1,2.4v4.72h-4.72c-0.07,0-0.15,0-0.22,0
		c-1.3,0.06-2.31,1.17-2.25,2.47c0.06,1.3,1.17,2.31,2.47,2.25l0,0h4.72v4.72c-0.02,1.3,1.02,2.37,2.33,2.39s2.38-1.02,2.39-2.33
		c0-0.02,0-0.04,0-0.07v-4.72h4.72c1.3,0.02,2.37-1.02,2.39-2.33c0.02-1.3-1.02-2.37-2.33-2.39c-0.02,0-0.04,0-0.06,0h-4.72V976
		c0.03-1.3-1.01-2.38-2.31-2.41C35.34,973.59,35.23,973.59,35.13,973.6z M68.18,973.6c-1.22,0.13-2.13,1.17-2.1,2.4v4.72h-4.72
		c-0.07,0-0.15,0-0.22,0c-1.3,0.06-2.31,1.17-2.25,2.47c0.06,1.3,1.17,2.31,2.47,2.25l0,0h4.72v4.72c-0.02,1.3,1.02,2.37,2.33,2.39
		c1.3,0.02,2.38-1.02,2.39-2.33c0-0.02,0-0.04,0-0.07v-4.72h4.72c1.3,0.02,2.37-1.02,2.39-2.33c0.02-1.3-1.02-2.37-2.33-2.39
		c-0.02,0-0.04,0-0.06,0H70.8V976c0.03-1.3-1.01-2.38-2.31-2.41C68.38,973.59,68.28,973.59,68.18,973.6z M7.07,976
		c3.98,0,5.53,1.65,6.01,3.1c0.37,1.1,0.78,4.74,0.92,7.78c0.13,2.79,0.15,4.83,0.15,5.2c-2.33,2.69-2.69,6.69-0.89,9.84l0.04,0.04
		l16.49,29.44c0.64,1.14,2.08,1.55,3.22,0.92c1.14-0.64,1.55-2.08,0.92-3.22c0-0.01-0.01-0.01-0.01-0.02l-16.52-29.48
		c-0.01-0.01-0.02-0.02-0.04-0.04c-1.02-1.75-0.5-4.26,1.07-5.16c1.5-0.86,4.59,0.06,5.46,1.62l10.7,19.05
		c1.78,3.17,5,4.72,7.78,6.63c2.78,1.91,5.12,3.93,6.12,6.93c0.32,0.95,0.78,5.26,0.92,10.06c0.12,4.05,0.11,8.58,0.11,12.79h-19.1
		c-0.23-1.48-0.65-2.8-1.51-3.83c-1.3-1.55-2.86-2.42-5.13-4.05c-4.43-3.19-8.53-7.45-12.87-14.92c-4.03-6.93-5.68-18.79-6.09-28.78
		c-0.41-9.99,0.3-18.09,0.3-18.09c0-0.01,0-0.02,0-0.04c0.13-2.08,0.39-3.9,0.77-4.83c0.19-0.46,0.36-0.68,0.48-0.77
		C6.49,976.05,6.59,976,7.07,976L7.07,976z M96.76,976c0.47,0,0.58,0.06,0.7,0.15c0.12,0.09,0.29,0.31,0.48,0.77
		c0.38,0.93,0.64,2.75,0.77,4.83c0,0.01,0,0.02,0,0.04c0,0,0.7,8.11,0.3,18.09c-0.41,9.99-2.06,21.85-6.09,28.78
		c-4.34,7.47-8.44,11.73-12.87,14.92c-2.27,1.63-3.83,2.5-5.13,4.05c-0.86,1.03-1.28,2.35-1.51,3.83h-19.1
		c0-4.21-0.01-8.74,0.11-12.79c0.15-4.8,0.6-9.11,0.92-10.06c1-3,3.34-5.02,6.12-6.93c2.78-1.91,6-3.46,7.78-6.63l10.7-19.05
		c0.87-1.56,3.95-2.48,5.46-1.62c1.57,0.9,2.09,3.41,1.07,5.16c-0.01,0.01-0.02,0.02-0.04,0.04l-16.52,29.48
		c-0.65,1.14-0.25,2.58,0.88,3.23c1.14,0.65,2.58,0.25,3.23-0.88c0-0.01,0.01-0.02,0.01-0.03l16.49-29.44l0.04-0.04
		c1.81-3.15,1.44-7.14-0.89-9.84c0-0.36,0.01-2.4,0.15-5.2c0.14-3.03,0.56-6.68,0.92-7.78C91.23,977.65,92.78,976,96.76,976
		L96.76,976z M51.65,994.83c-1.22,0.13-2.13,1.17-2.1,2.4v4.72h-4.72c-0.07,0-0.15,0-0.22,0c-1.3,0.06-2.31,1.17-2.25,2.47
		c0.06,1.3,1.17,2.31,2.47,2.25h4.72v4.72c-0.02,1.3,1.02,2.37,2.33,2.39c1.3,0.02,2.38-1.02,2.39-2.33c0-0.02,0-0.04,0-0.07v-4.72
		h4.72c1.3,0.02,2.37-1.02,2.39-2.33c0.02-1.3-1.02-2.37-2.33-2.39c-0.02,0-0.04,0-0.06,0h-4.72v-4.72c0.03-1.3-1.01-2.38-2.31-2.41
		C51.86,994.81,51.76,994.82,51.65,994.83z"/>
</g>
</svg>
