<?xml version="1.0" encoding="utf-8"?>
<!-- Generator: Adobe Illustrator 23.0.2, SVG Export Plug-In . SVG Version: 6.00 Build 0)  -->
<svg version="1.1" id="Capa_1" xmlns="http://www.w3.org/2000/svg" xmlns:xlink="http://www.w3.org/1999/xlink" x="0px" y="0px"
	 viewBox="0 0 94.98 42.52" style="enable-background:new 0 0 94.98 42.52;" xml:space="preserve">
<style type="text/css">
	.st0{fill:url(#SVGID_1_);}
	.st1{fill:url(#SVGID_2_);}
	.st2{fill:url(#SVGID_3_);}
</style>
<g>
	<linearGradient id="SVGID_1_" gradientUnits="userSpaceOnUse" x1="9.094947e-13" y1="21.2613" x2="94.9836" y2="21.2613">
		<stop  offset="0" style="stop-color:#FC9449"/>
		<stop  offset="0.6367" style="stop-color:#F72981"/>
		<stop  offset="1" style="stop-color:#AB29C4"/>
	</linearGradient>
	<path class="st0" d="M92.67,17.66c-0.89-1.1-2.09-1.89-3.46-2.28l-13.62-3.89c-2.03-0.58-3.99-1.4-5.81-2.44l-7.81-4.43
		c-6.66-3.92-10.6-4.11-10.72-4.11h0C46.25-0.01,41.77,0,41.55,0L24.24,0.31L13.12,1L11.54,1.2C10.46,1.48,9.68,2.45,9.69,3.5
		c0,0.59,0.27,1.27,0.93,1.76l-5.69,5.65c-2.07,0.74-3.1,2.13-3.4,4.51c0,0-1.16,6.93-1.44,9.26c-0.27,2.38,0.1,3.58,0.38,4.11
		c1.38,3.41,5.8,4.69,9.25,4.77c0.7,5.05,5,8.97,10.24,8.97c5.14,0,9.39-3.77,10.21-8.69l33.62,0.45c1,4.71,5.17,8.24,10.11,8.24
		c4.89,0,8.97-3.41,10.07-7.97l0.13,0c0.08-0.01,0.3-0.02,0.44-0.06c0.49,0.01,1.58,0.01,3.52,0.06c0.09,0,0.19,0,0.28,0
		c2.22,0,3.95-0.62,5.14-1.84c1.58-1.63,1.52-3.65,1.51-3.79v-4.64C94.98,21.88,94.18,19.55,92.67,17.66z M19.96,39.46
		c-4.03,0-7.31-3.28-7.31-7.31s3.28-7.31,7.31-7.31s7.31,3.28,7.31,7.31S23.99,39.46,19.96,39.46z M73.9,39.46
		c-3.82,0-7.03-2.99-7.3-6.8c0,0,0,0,0,0l-0.02-0.51c0-4.03,3.28-7.31,7.31-7.31s7.31,3.28,7.31,7.31S77.93,39.46,73.9,39.46z
		 M91.27,30.58c-0.77,0.8-2.15,0.9-3.15,0.91c-1.85-0.05-3.07-0.07-3.91-0.03c-0.36-5.4-4.82-9.7-10.31-9.7
		c-5.4,0-9.81,4.17-10.28,9.45L30.2,30.77c-0.68-5.07-4.99-9.01-10.24-9.01c-5.16,0-9.41,3.79-10.21,8.73
		c-2.63-0.06-5.73-0.99-6.55-3.1c0-0.01-0.26-0.63-0.06-2.37c0.27-2.28,1.41-9.1,1.42-9.16c0.21-1.64,0.71-1.86,1.65-2.15
		c0.24-0.07,0.46-0.21,0.63-0.38l7.71-7.66c0.4-0.39,0.55-0.97,0.39-1.5c-0.02-0.07-0.05-0.15-0.08-0.21l9.5-0.59l17.22-0.3
		c0.01,0.01,4.54-0.01,9.45,0.49c0.03,0,3.44,0.19,9.4,3.71l7.83,4.44c2.03,1.15,4.21,2.07,6.48,2.72l13.62,3.89
		c0.77,0.22,1.43,0.66,1.97,1.32c0.71,0.89,1.1,1.97,1.33,3.11h-2.1c-0.84,0-1.53,0.69-1.53,1.53c0,0.84,0.69,1.53,1.53,1.53h2.36
		l0,3.19C91.92,29.01,91.92,29.91,91.27,30.58z"/>
	<linearGradient id="SVGID_2_" gradientUnits="userSpaceOnUse" x1="17.4443" y1="12.4358" x2="64.2664" y2="12.4358">
		<stop  offset="0" style="stop-color:#FC9449"/>
		<stop  offset="0.6367" style="stop-color:#F72981"/>
		<stop  offset="1" style="stop-color:#AB29C4"/>
	</linearGradient>
	<path class="st1" d="M62.92,13.56l-6.48-4.03c-3.63-2.26-7.83-3.46-12.12-3.46H18.98c-0.84,0-1.53,0.69-1.53,1.53v9.68
		c0,0.84,0.69,1.53,1.53,1.53h42.45c1.28,0,2.38-0.83,2.73-2.06C64.51,15.52,64.01,14.24,62.92,13.56z M20.51,9.13h14.75v6.62H20.51
		V9.13z M38.33,15.75V9.13h6c3.72,0,7.35,1.04,10.5,3h0l5.82,3.62L38.33,15.75L38.33,15.75z"/>
	<linearGradient id="SVGID_3_" gradientUnits="userSpaceOnUse" x1="33.8992" y1="24.8416" x2="62.1081" y2="24.8416">
		<stop  offset="0" style="stop-color:#FC9449"/>
		<stop  offset="0.6367" style="stop-color:#F72981"/>
		<stop  offset="1" style="stop-color:#AB29C4"/>
	</linearGradient>
	<path class="st2" d="M60.58,23.31H35.43c-0.84,0-1.53,0.69-1.53,1.53s0.69,1.53,1.53,1.53h25.14c0.84,0,1.53-0.69,1.53-1.53
		C62.11,24,61.42,23.31,60.58,23.31z"/>
</g>
</svg>
