<?xml version="1.0" encoding="utf-8"?>
<!-- Generator: Adobe Illustrator 23.0.2, SVG Export Plug-In . SVG Version: 6.00 Build 0)  -->
<svg version="1.1" id="Capa_1" xmlns="http://www.w3.org/2000/svg" xmlns:xlink="http://www.w3.org/1999/xlink" x="0px" y="0px"
	 viewBox="0 0 67.99 68.04" style="enable-background:new 0 0 67.99 68.04;" xml:space="preserve">
<style type="text/css">
	.st0{fill:url(#SVGID_1_);}
</style>
<linearGradient id="SVGID_1_" gradientUnits="userSpaceOnUse" x1="1.818989e-12" y1="34.0184" x2="67.9882" y2="34.0184">
	<stop  offset="0" style="stop-color:#FC9449"/>
	<stop  offset="0.6367" style="stop-color:#F72981"/>
	<stop  offset="1" style="stop-color:#AB29C4"/>
</linearGradient>
<path class="st0" d="M23.4,68.04c-0.17,0-0.43,0-0.6,0c-1.28-0.17-2.39-0.94-2.98-2.05l-5.63-10.15l-2.39,2.39
	c-0.26,0.26-0.68,0.43-1.02,0.43c-0.43,0-0.77-0.17-1.02-0.43c-0.26-0.26-0.43-0.68-0.43-1.02c0-0.43,0.17-0.77,0.43-1.02l2.39-2.39
	L2.08,48.17c-1.11-0.6-1.88-1.71-2.05-2.98c-0.17-1.28,0.26-2.56,1.19-3.5l1.11-1.19c0.77-0.77,1.79-1.19,2.9-1.19
	c0.43,0,0.77,0.09,1.19,0.17l9.98,3.07l13.47-13.47h-0.09l2.13-2.13l0,0l8.78-8.78L7.8,8.1c-0.09,0-0.26-0.09-0.34-0.09
	c-0.34,0-0.6,0.09-0.77,0.34L4.98,9.98c-0.26,0.26-0.43,0.6-0.34,0.94c0,0.34,0.26,0.68,0.6,0.85l23.19,12.96
	c0.43,0.26,0.68,0.6,0.77,1.11s-0.09,0.94-0.43,1.28c-0.26,0.26-0.68,0.43-1.02,0.43c-0.26,0-0.51-0.09-0.68-0.17L3.79,14.49
	c-1.19-0.68-1.96-1.79-2.05-3.15c-0.17-1.28,0.34-2.56,1.28-3.41l1.62-1.62c0.77-0.77,1.79-1.19,2.9-1.19
	c0.43,0,0.77,0.09,1.19,0.17l10.49,3.15l2.73-2.73c0.94-0.94,2.13-1.45,3.41-1.45c1.28,0,2.47,0.51,3.41,1.45
	c1.53,1.53,1.88,4.01,0.77,5.88l13.64,4.18l13.9-13.9C58.27,0.68,59.89,0,61.59,0s3.33,0.68,4.52,1.88s1.88,2.81,1.88,4.52
	s-0.68,3.33-1.88,4.52l-13.73,13.9l4.09,13.47c0.68-0.34,1.45-0.6,2.3-0.6c1.28,0,2.47,0.51,3.41,1.36c1.88,1.88,1.88,4.95,0,6.82
	l-2.56,2.56l3.24,10.83c0.43,1.45,0.09,2.98-1.02,4.01l-1.71,1.71c-0.77,0.77-1.79,1.19-2.9,1.19c-0.17,0-0.34,0-0.51,0
	c-1.28-0.17-2.39-0.94-3.07-2.05L40.71,40.92c-0.34-0.6-0.26-1.28,0.26-1.79c0.26-0.26,0.68-0.43,1.02-0.43
	c0.51,0,1.02,0.26,1.28,0.77l12.96,23.28c0.17,0.34,0.51,0.51,0.85,0.6c0.09,0,0.09,0,0.17,0c0.34,0,0.6-0.09,0.85-0.34l1.71-1.71
	c0.26-0.34,0.43-0.77,0.26-1.11L50,27.2l-8.78,8.7l-0.09,0.09L39,38.11l0,0L25.36,51.75l2.98,9.89c0.43,1.45,0.09,2.98-1.02,4.09
	l-1.19,1.11C25.44,67.61,24.42,68.04,23.4,68.04L23.4,68.04z M22.37,64.46c0.17,0.34,0.51,0.51,0.85,0.6c0.09,0,0.09,0,0.17,0
	c0.34,0,0.6-0.09,0.77-0.34l1.19-1.11c0.34-0.34,0.43-0.77,0.26-1.11l-3.5-11.6L64.07,8.95c1.36-1.36,1.36-3.58,0-4.95
	c-0.68-0.68-1.53-1.02-2.47-1.02s-1.79,0.34-2.47,1.02L17.26,45.87L5.49,42.29c-0.09,0-0.26-0.09-0.34-0.09
	c-0.34,0-0.6,0.09-0.85,0.34l-1.11,1.19c-0.26,0.26-0.34,0.6-0.34,0.94c0.09,0.34,0.26,0.68,0.6,0.85l10.83,6.05l4.18-4.18
	c0.26-0.26,0.68-0.43,1.02-0.43c0.43,0,0.77,0.17,1.02,0.43c0.6,0.6,0.6,1.53,0,2.05l-4.18,4.18L22.37,64.46z M58.61,45.27
	l1.45-1.45c0.34-0.34,0.51-0.85,0.51-1.28c0-0.51-0.17-0.94-0.51-1.28s-0.85-0.51-1.28-0.51c-0.43,0-0.94,0.17-1.28,0.51l-0.09,0.09
	L58.61,45.27z M26.47,10.66l0.26-0.26c0.34-0.34,0.51-0.85,0.51-1.28c0-0.51-0.17-0.94-0.51-1.28c-0.34-0.34-0.85-0.51-1.28-0.51
	s-0.94,0.17-1.28,0.51l-1.62,1.62L26.47,10.66z M35.93,64.03c0.43,0,0.77-0.17,1.02-0.43l8.78-8.7c0.26-0.26,0.43-0.68,0.43-1.02
	c0-0.43-0.17-0.77-0.43-1.02c-0.26-0.26-0.68-0.43-1.02-0.43c-0.43,0-0.77,0.17-1.02,0.43l-8.78,8.61
	c-0.26,0.26-0.43,0.68-0.43,1.02c0,0.43,0.17,0.77,0.43,1.02C35.25,63.86,35.59,64.03,35.93,64.03L35.93,64.03z M5.41,33.51
	c0.43,0,0.77-0.17,1.02-0.43l8.7-8.7c0.6-0.6,0.6-1.53,0-2.05c-0.26-0.26-0.68-0.43-1.02-0.43c-0.43,0-0.77,0.17-1.02,0.43
	l-8.7,8.61c-0.6,0.6-0.6,1.53,0,2.05C4.64,33.34,5.07,33.51,5.41,33.51L5.41,33.51z M5.49,26.69c0.43,0,0.77-0.17,1.02-0.43
	l3.58-3.58c0.26-0.26,0.43-0.68,0.43-1.02c0-0.43-0.17-0.77-0.43-1.02c-0.26-0.26-0.68-0.43-1.02-0.43c-0.43,0-0.77,0.17-1.02,0.43
	l-3.58,3.58c-0.6,0.6-0.6,1.53,0,2.05C4.73,26.6,5.07,26.69,5.49,26.69L5.49,26.69z M42.67,63.94c0.43,0,0.77-0.17,1.02-0.43
	l3.58-3.58c0.26-0.26,0.43-0.68,0.43-1.02c0-0.43-0.17-0.77-0.43-1.02c-0.26-0.26-0.68-0.43-1.02-0.43c-0.43,0-0.77,0.17-1.02,0.43
	l-3.58,3.58c-0.6,0.6-0.6,1.53,0,2.05C41.9,63.77,42.33,63.94,42.67,63.94L42.67,63.94z"/>
</svg>
