<?xml version="1.0" encoding="utf-8"?>
<!-- Generator: Adobe Illustrator 23.0.2, SVG Export Plug-In . SVG Version: 6.00 Build 0)  -->
<svg version="1.1" id="Capa_1" xmlns="http://www.w3.org/2000/svg" xmlns:xlink="http://www.w3.org/1999/xlink" x="0px" y="0px"
	 viewBox="0 0 241.79 47.79" style="enable-background:new 0 0 241.79 47.79;" xml:space="preserve">
<style type="text/css">
	.st0{fill:url(#SVGID_1_);}
	.st1{fill:#FFFFFF;}
</style>
<linearGradient id="SVGID_1_" gradientUnits="userSpaceOnUse" x1="0" y1="23.8953" x2="241.7883" y2="23.8953">
	<stop  offset="0" style="stop-color:#F2924C"/>
	<stop  offset="0.6367" style="stop-color:#E73180"/>
	<stop  offset="1" style="stop-color:#854392"/>
</linearGradient>
<rect class="st0" width="241.79" height="47.79"/>
<g>
	<g>
		<path class="st1" d="M70.61,18.33h2.32l2.99,8.44l3.03-8.44h2.32l-4.28,11.88h-2.18L70.61,18.33z"/>
		<path class="st1" d="M82.92,18.33h2.24v11.88h-2.24V18.33z"/>
		<path class="st1" d="M93.94,19.95l-1.67,1.48c-0.59-0.82-1.19-1.23-1.8-1.23c-0.3,0-0.54,0.08-0.73,0.24
			c-0.19,0.16-0.28,0.34-0.28,0.54s0.07,0.39,0.2,0.57c0.18,0.24,0.74,0.75,1.66,1.53c0.86,0.72,1.39,1.18,1.57,1.36
			c0.46,0.46,0.78,0.91,0.97,1.33c0.19,0.42,0.29,0.88,0.29,1.38c0,0.97-0.34,1.78-1.01,2.41c-0.67,0.63-1.55,0.95-2.63,0.95
			c-0.85,0-1.58-0.21-2.21-0.62c-0.63-0.41-1.17-1.07-1.61-1.95l1.9-1.15c0.57,1.05,1.23,1.57,1.97,1.57c0.39,0,0.71-0.11,0.98-0.34
			s0.4-0.49,0.4-0.78c0-0.27-0.1-0.54-0.3-0.81c-0.2-0.27-0.64-0.68-1.32-1.23c-1.29-1.05-2.13-1.87-2.51-2.44s-0.57-1.14-0.57-1.72
			c0-0.82,0.31-1.53,0.94-2.12c0.63-0.59,1.4-0.88,2.32-0.88c0.59,0,1.16,0.14,1.69,0.41C92.73,18.72,93.31,19.22,93.94,19.95z"/>
		<path class="st1" d="M96.14,18.33h2.24v11.88h-2.24V18.33z"/>
		<path class="st1" d="M99.76,18.33h6.56v2.23h-2.16v9.65h-2.29v-9.65h-2.11V18.33z"/>
		<path class="st1" d="M111.5,18.33h2.29l4.57,11.88h-2.35l-0.93-2.45h-4.85l-0.97,2.45h-2.35L111.5,18.33z M112.66,21.48
			l-1.59,4.08h3.18L112.66,21.48z"/>
		<path class="st1" d="M120.26,18.33h2.39c1.31,0,2.25,0.12,2.8,0.35c0.56,0.23,1,0.62,1.34,1.17c0.34,0.54,0.51,1.19,0.51,1.93
			c0,0.78-0.19,1.43-0.56,1.96c-0.37,0.52-0.94,0.92-1.69,1.19l2.81,5.28h-2.47l-2.67-5.03h-0.21v5.03h-2.26V18.33z M122.52,22.98
			h0.71c0.72,0,1.21-0.09,1.48-0.28c0.27-0.19,0.41-0.5,0.41-0.94c0-0.26-0.07-0.48-0.2-0.68c-0.13-0.19-0.31-0.33-0.54-0.41
			c-0.23-0.08-0.64-0.13-1.24-0.13h-0.62V22.98z"/>
		<path class="st1" d="M140.55,19.95l-1.67,1.48c-0.59-0.82-1.19-1.23-1.8-1.23c-0.3,0-0.54,0.08-0.73,0.24
			c-0.19,0.16-0.28,0.34-0.28,0.54s0.07,0.39,0.2,0.57c0.18,0.24,0.74,0.75,1.66,1.53c0.86,0.72,1.39,1.18,1.57,1.36
			c0.46,0.46,0.78,0.91,0.97,1.33c0.19,0.42,0.29,0.88,0.29,1.38c0,0.97-0.34,1.78-1.01,2.41c-0.67,0.63-1.55,0.95-2.63,0.95
			c-0.85,0-1.58-0.21-2.21-0.62c-0.63-0.41-1.17-1.07-1.61-1.95l1.9-1.15c0.57,1.05,1.23,1.57,1.97,1.57c0.39,0,0.71-0.11,0.98-0.34
			s0.4-0.49,0.4-0.78c0-0.27-0.1-0.54-0.3-0.81c-0.2-0.27-0.64-0.68-1.32-1.23c-1.29-1.05-2.13-1.87-2.51-2.44s-0.57-1.14-0.57-1.72
			c0-0.82,0.31-1.53,0.94-2.12c0.63-0.59,1.4-0.88,2.32-0.88c0.59,0,1.16,0.14,1.69,0.41C139.34,18.72,139.93,19.22,140.55,19.95z"
			/>
		<path class="st1" d="M142.75,18.33H145v11.88h-2.24V18.33z"/>
		<path class="st1" d="M146.37,18.33h6.56v2.23h-2.16v9.65h-2.29v-9.65h-2.11V18.33z"/>
		<path class="st1" d="M154.32,18.33h2.24v11.88h-2.24V18.33z"/>
		<path class="st1" d="M164.72,18.04c1.68,0,3.12,0.61,4.33,1.82c1.21,1.22,1.81,2.7,1.81,4.45c0,1.73-0.6,3.2-1.79,4.4
			c-1.19,1.2-2.64,1.8-4.34,1.8c-1.78,0-3.26-0.62-4.44-1.85c-1.18-1.23-1.77-2.7-1.77-4.39c0-1.14,0.27-2.18,0.82-3.13
			c0.55-0.95,1.3-1.71,2.27-2.26C162.57,18.31,163.61,18.04,164.72,18.04z M164.69,20.25c-1.1,0-2.02,0.38-2.77,1.15
			c-0.75,0.76-1.12,1.74-1.12,2.91c0,1.31,0.47,2.35,1.41,3.12c0.73,0.6,1.57,0.9,2.52,0.9c1.07,0,1.99-0.39,2.74-1.16
			c0.75-0.77,1.13-1.73,1.13-2.87c0-1.13-0.38-2.09-1.14-2.87S165.78,20.25,164.69,20.25z"/>
	</g>
</g>
</svg>
