<?xml version="1.0" encoding="utf-8"?>
<!-- Generator: Adobe Illustrator 23.0.2, SVG Export Plug-In . SVG Version: 6.00 Build 0)  -->
<svg version="1.1" id="Capa_1" xmlns="http://www.w3.org/2000/svg" xmlns:xlink="http://www.w3.org/1999/xlink" x="0px" y="0px"
	 viewBox="0 0 88 88.01" style="enable-background:new 0 0 88 88.01;" xml:space="preserve">
<style type="text/css">
	.st0{fill:url(#SVGID_1_);}
	.st1{fill:url(#SVGID_2_);}
	.st2{fill:url(#SVGID_3_);}
	.st3{fill:url(#SVGID_4_);}
</style>
<g>
	<linearGradient id="SVGID_1_" gradientUnits="userSpaceOnUse" x1="26.6098" y1="43.8609" x2="61.6914" y2="43.8609">
		<stop  offset="0" style="stop-color:#FC9449"/>
		<stop  offset="0.6367" style="stop-color:#F72981"/>
		<stop  offset="1" style="stop-color:#AB29C4"/>
	</linearGradient>
	<path class="st0" d="M44.15,30.71c1.21,0,2.19-0.98,2.19-2.19c0-1.21-0.98-2.19-2.19-2.19c-9.69,0-17.54,7.85-17.54,17.54
		S34.46,61.4,44.15,61.4s17.54-7.85,17.54-17.54c0-1.21-0.98-2.19-2.19-2.19c-1.21,0-2.19,0.98-2.19,2.19
		c0,7.27-5.89,13.16-13.16,13.16s-13.16-5.89-13.16-13.16S36.88,30.71,44.15,30.71z"/>
	<linearGradient id="SVGID_2_" gradientUnits="userSpaceOnUse" x1="-1.818989e-12" y1="44.0072" x2="88.0026" y2="44.0072">
		<stop  offset="0" style="stop-color:#FC9449"/>
		<stop  offset="0.6367" style="stop-color:#F72981"/>
		<stop  offset="1" style="stop-color:#AB29C4"/>
	</linearGradient>
	<path class="st1" d="M85.99,30.84c-0.38-1.15-1.62-1.78-2.77-1.4c-1.13,0.37-1.76,1.57-1.42,2.71
		c6.55,20.88-5.06,43.11-25.94,49.66S12.75,76.75,6.2,55.87s5.06-43.11,25.94-49.66c7.72-2.42,16-2.42,23.72,0
		c1.15,0.38,2.39-0.23,2.78-1.38c0.38-1.15-0.23-2.39-1.38-2.78c-0.03-0.01-0.06-0.02-0.08-0.03C33.99-5.24,9.3,7.66,2.03,30.84
		s5.63,47.87,28.81,55.15s47.87-5.63,55.15-28.81C88.67,48.6,88.67,39.41,85.99,30.84z"/>
	<linearGradient id="SVGID_3_" gradientUnits="userSpaceOnUse" x1="13.4542" y1="43.8609" x2="74.847" y2="43.8609">
		<stop  offset="0" style="stop-color:#FC9449"/>
		<stop  offset="0.6367" style="stop-color:#F72981"/>
		<stop  offset="1" style="stop-color:#AB29C4"/>
	</linearGradient>
	<path class="st2" d="M48.33,15.66c0.01-1.25-0.95-2.29-2.19-2.39c-0.66-0.06-1.31-0.11-1.98-0.11c-16.95,0-30.7,13.74-30.7,30.7
		s13.74,30.7,30.7,30.7s30.7-13.74,30.7-30.7c0-0.79-0.05-1.59-0.15-2.37c-0.11-1.22-1.18-2.11-2.4-2c-1.22,0.11-2.11,1.18-2,2.4
		c0.01,0.13,0.03,0.25,0.07,0.37c0.05,0.53,0.09,1.06,0.09,1.6c0,14.53-11.78,26.31-26.31,26.31S17.84,58.39,17.84,43.86
		s11.78-26.31,26.31-26.31c0.54,0,1.07,0.05,1.6,0.09l0.41,0.04c1.14,0.05,2.11-0.84,2.16-1.98C48.33,15.69,48.33,15.67,48.33,15.66
		z"/>
	<linearGradient id="SVGID_4_" gradientUnits="userSpaceOnUse" x1="41.9384" y1="25.2337" x2="83.6171" y2="25.2337">
		<stop  offset="0" style="stop-color:#FC9449"/>
		<stop  offset="0.6367" style="stop-color:#F72981"/>
		<stop  offset="1" style="stop-color:#AB29C4"/>
	</linearGradient>
	<path class="st3" d="M57.31,19.74v7.86L42.6,42.31c-0.87,0.85-0.88,2.23-0.04,3.1c0.85,0.87,2.23,0.88,3.1,0.04
		c0.01-0.01,0.03-0.03,0.04-0.04l14.71-14.71h7.86c0.58,0,1.14-0.23,1.55-0.64l13.16-13.16c0.86-0.86,0.86-2.24,0-3.1
		c-0.41-0.41-0.97-0.64-1.55-0.64h-6.58V6.59c0-1.21-0.98-2.19-2.19-2.19c-0.58,0-1.14,0.23-1.55,0.64L57.95,18.19
		C57.54,18.6,57.31,19.16,57.31,19.74z M61.69,20.65l8.77-8.77v3.48c0,1.21,0.98,2.19,2.19,2.19c0,0,0,0,0,0h3.48l-8.77,8.77h-5.67
		V20.65z"/>
</g>
</svg>
