<?xml version="1.0" encoding="utf-8"?>
<!-- Generator: Adobe Illustrator 23.0.2, SVG Export Plug-In . SVG Version: 6.00 Build 0)  -->
<svg version="1.1" id="Capa_1" xmlns="http://www.w3.org/2000/svg" xmlns:xlink="http://www.w3.org/1999/xlink" x="0px" y="0px"
	 viewBox="0 0 83.86 83.85" style="enable-background:new 0 0 83.86 83.85;" xml:space="preserve">
<style type="text/css">
	.st0{fill:url(#SVGID_1_);}
	.st1{fill-rule:evenodd;clip-rule:evenodd;fill:#FFFFFF;}
</style>
<g>
	<linearGradient id="SVGID_1_" gradientUnits="userSpaceOnUse" x1="0" y1="41.9252" x2="83.8589" y2="41.9252">
		<stop  offset="0" style="stop-color:#FC9449"/>
		<stop  offset="0.6367" style="stop-color:#F72981"/>
		<stop  offset="1" style="stop-color:#AB29C4"/>
	</linearGradient>
	<path class="st0" d="M41.92,0C18.81,0,0,18.81,0,41.93c0,23.12,18.81,41.92,41.92,41.92c23.13,0,41.94-18.81,41.94-41.92
		C83.86,18.81,65.04,0,41.92,0L41.92,0z"/>
</g>
<g>
	<path class="st1" d="M65.56,36.2C62.92,25.16,53.4,17.64,41.92,17.49c-1.51,0.07-3.15,0.18-4.64,0.46
		c-16.1,3.25-24.39,21.02-16.6,35.33c0.28,0.41,0.28,0.76,0.22,1.21c-1.13,3.72-2.17,7.53-3.18,11.28
		c-0.17,0.65-0.17,0.65,0.46,0.48c3.93-1.08,7.82-2.08,11.74-3.05c0.34-0.11,0.59-0.11,0.87,0.04c5.04,2.56,10.35,3.29,15.93,2.25
		C60.02,62.93,68.74,49.36,65.56,36.2z M45.33,61.6c-1.16,0.21-2.25,0.32-2.8,0.24c-4.28,0-7.73-0.96-10.94-2.8
		c-0.46-0.28-0.8-0.35-1.24-0.19c-2.19,0.52-4.33,1.12-6.5,1.67c-0.45,0.13-0.49,0.04-0.39-0.39c0.58-2.01,1.11-4.05,1.75-6.13
		c0.14-0.56,0.1-1-0.25-1.43c-4.39-7.17-4.2-15.96,0.72-22.61c5.12-6.84,12.15-9.68,20.51-7.88c8.24,1.73,13.52,7.08,15.4,15.29
		C64.24,48.62,56.66,59.77,45.33,61.6z"/>
	<path class="st1" d="M48.26,53.28c-0.85,0.09-1.7-0.07-2.52-0.32c-5.55-1.63-9.75-5.04-13.12-9.64c-1.25-1.71-2.45-3.55-2.82-5.72
		c-0.51-2.51,0.28-4.76,2.18-6.47c0.63-0.61,2.48-0.89,3.23-0.48c0.24,0.2,0.38,0.39,0.54,0.63c0.69,1.73,1.42,3.33,2.12,4.96
		c0.1,0.37,0.08,0.69-0.1,1.04c-0.37,0.76-0.94,1.36-1.49,2.01c-0.46,0.39-0.46,0.84-0.15,1.32c1.99,3.33,4.67,5.72,8.28,7.12
		c0.52,0.21,0.92,0.13,1.25-0.28c0.62-0.73,1.24-1.52,1.81-2.29c0.35-0.46,0.83-0.56,1.35-0.32c1.19,0.52,2.36,1.08,3.49,1.6
		c0.32,0.17,0.54,0.28,0.82,0.41c1.2,0.6,1.2,0.67,1.06,1.95c-0.16,2.53-2.1,3.81-4.32,4.44C49.27,53.37,48.79,53.37,48.26,53.28z"
		/>
</g>
</svg>
