<?xml version="1.0" encoding="utf-8"?>
<!-- Generator: Adobe Illustrator 23.0.2, SVG Export Plug-In . SVG Version: 6.00 Build 0)  -->
<svg version="1.1" id="Capa_1" xmlns="http://www.w3.org/2000/svg" xmlns:xlink="http://www.w3.org/1999/xlink" x="0px" y="0px"
	 viewBox="0 0 582.01 91.03" style="enable-background:new 0 0 582.01 91.03;" xml:space="preserve">
<style type="text/css">
	.st0{fill:#C5C5C5;}
	.st1{fill:#3C3C3B;}
</style>
<rect class="st0" width="582.01" height="91.03"/>
<g>
	<path class="st1" d="M219.69,37.78l-3.25,3.1c-2.21-2.34-4.7-3.51-7.46-3.51c-2.33,0-4.3,0.8-5.9,2.39c-1.6,1.6-2.4,3.56-2.4,5.9
		c0,1.63,0.35,3.08,1.06,4.34s1.71,2.25,3,2.97s2.73,1.08,4.31,1.08c1.35,0,2.58-0.25,3.7-0.76s2.34-1.42,3.68-2.75l3.15,3.29
		c-1.8,1.76-3.51,2.98-5.11,3.66s-3.44,1.02-5.5,1.02c-3.8,0-6.9-1.2-9.32-3.61c-2.42-2.41-3.63-5.49-3.63-9.26
		c0-2.43,0.55-4.6,1.65-6.49c1.1-1.89,2.68-3.41,4.73-4.57c2.05-1.15,4.26-1.73,6.63-1.73c2.01,0,3.95,0.43,5.82,1.28
		C216.74,35,218.34,36.21,219.69,37.78z"/>
	<path class="st1" d="M235.29,32.87c3.46,0,6.43,1.25,8.91,3.75s3.73,5.55,3.73,9.15c0,3.56-1.23,6.58-3.68,9.05s-5.43,3.7-8.93,3.7
		c-3.67,0-6.71-1.27-9.14-3.8c-2.42-2.53-3.64-5.54-3.64-9.03c0-2.33,0.56-4.48,1.69-6.44s2.68-3.51,4.66-4.66
		C230.88,33.44,233.01,32.87,235.29,32.87z M235.24,37.42c-2.26,0-4.16,0.79-5.7,2.36s-2.31,3.57-2.31,5.99
		c0,2.7,0.97,4.84,2.91,6.41c1.51,1.23,3.24,1.84,5.18,1.84c2.21,0,4.08-0.8,5.63-2.39c1.55-1.59,2.33-3.56,2.33-5.89
		c0-2.32-0.78-4.29-2.34-5.9C239.38,38.22,237.48,37.42,235.24,37.42z"/>
	<path class="st1" d="M254.68,33.48h4.53l5.66,17.03l5.71-17.03h4.53l4.1,24.42h-4.5l-2.62-15.42l-5.19,15.42h-4.1l-5.14-15.42
		l-2.68,15.42h-4.53L254.68,33.48z"/>
	<path class="st1" d="M282.9,33.48h4.93c2.67,0,4.59,0.25,5.77,0.74c1.18,0.49,2.11,1.29,2.79,2.39c0.68,1.1,1.02,2.42,1.02,3.96
		c0,1.7-0.45,3.12-1.34,4.25c-0.89,1.13-2.1,1.92-3.63,2.36c-0.9,0.25-2.53,0.38-4.9,0.38v10.34h-4.65V33.48z M287.54,43.03h1.48
		c1.16,0,1.97-0.08,2.42-0.25c0.45-0.17,0.81-0.44,1.07-0.82c0.26-0.38,0.39-0.85,0.39-1.39c0-0.94-0.37-1.63-1.1-2.07
		c-0.53-0.32-1.52-0.48-2.96-0.48h-1.31V43.03z"/>
	<path class="st1" d="M309.4,33.48h4.71l9.39,24.42h-4.83l-1.91-5.03h-9.96l-1.99,5.03h-4.83L309.4,33.48z M311.79,39.96l-3.28,8.38
		h6.53L311.79,39.96z"/>
	<path class="st1" d="M327.42,33.48h4.92c2.7,0,4.62,0.24,5.76,0.72c1.14,0.48,2.06,1.28,2.76,2.4s1.04,2.44,1.04,3.97
		c0,1.6-0.38,2.95-1.15,4.03c-0.77,1.08-1.93,1.9-3.48,2.45l5.79,10.86h-5.08l-5.49-10.34h-0.43v10.34h-4.65V33.48z M332.07,43.03
		h1.46c1.48,0,2.5-0.19,3.05-0.58c0.56-0.39,0.84-1.03,0.84-1.93c0-0.53-0.14-1-0.41-1.39c-0.28-0.39-0.65-0.68-1.11-0.85
		c-0.46-0.17-1.31-0.26-2.55-0.26h-1.27V43.03z"/>
	<path class="st1" d="M344.42,33.48h13.5v4.58h-4.45v19.84h-4.71V38.07h-4.33V33.48z"/>
	<path class="st1" d="M360.77,33.48h4.62v24.42h-4.62V33.48z"/>
	<path class="st1" d="M370.93,33.48h4.92c2.7,0,4.62,0.24,5.76,0.72c1.14,0.48,2.06,1.28,2.76,2.4s1.04,2.44,1.04,3.97
		c0,1.6-0.38,2.95-1.15,4.03c-0.77,1.08-1.93,1.9-3.48,2.45l5.79,10.86h-5.08l-5.49-10.34h-0.43v10.34h-4.65V33.48z M375.58,43.03
		h1.46c1.48,0,2.5-0.19,3.05-0.58c0.56-0.39,0.84-1.03,0.84-1.93c0-0.53-0.14-1-0.41-1.39c-0.28-0.39-0.65-0.68-1.11-0.85
		c-0.46-0.17-1.31-0.26-2.55-0.26h-1.27V43.03z"/>
</g>
</svg>
