<?xml version="1.0" encoding="utf-8"?>
<!-- Generator: Adobe Illustrator 23.0.2, SVG Export Plug-In . SVG Version: 6.00 Build 0)  -->
<svg version="1.1" id="Capa_1" xmlns="http://www.w3.org/2000/svg" xmlns:xlink="http://www.w3.org/1999/xlink" x="0px" y="0px"
	 viewBox="0 0 582.01 91.03" style="enable-background:new 0 0 582.01 91.03;" xml:space="preserve">
<style type="text/css">
	.st0{fill:#C5C5C5;}
	.st1{fill:#3C3C3B;}
</style>
<rect class="st0" width="582.01" height="91.03"/>
<g>
	<path class="st1" d="M225.82,37.78l-3.25,3.1c-2.21-2.34-4.7-3.51-7.46-3.51c-2.33,0-4.3,0.8-5.9,2.39c-1.6,1.6-2.4,3.56-2.4,5.9
		c0,1.63,0.35,3.08,1.06,4.34s1.71,2.25,3,2.97s2.73,1.08,4.31,1.08c1.35,0,2.58-0.25,3.7-0.76s2.34-1.42,3.68-2.75l3.15,3.29
		c-1.8,1.76-3.51,2.98-5.11,3.66s-3.44,1.02-5.5,1.02c-3.8,0-6.9-1.2-9.32-3.61c-2.42-2.41-3.63-5.49-3.63-9.26
		c0-2.43,0.55-4.6,1.65-6.49c1.1-1.89,2.68-3.41,4.73-4.57c2.05-1.15,4.26-1.73,6.63-1.73c2.01,0,3.95,0.43,5.82,1.28
		C222.86,35,224.47,36.21,225.82,37.78z"/>
	<path class="st1" d="M237.34,33.48h4.71l9.39,24.42h-4.83l-1.91-5.03h-9.96l-1.99,5.03h-4.83L237.34,33.48z M239.72,39.96
		l-3.28,8.38h6.53L239.72,39.96z"/>
	<path class="st1" d="M255.05,33.48h4.46l10.45,16.07V33.48h4.65V57.9h-4.47L259.7,41.88V57.9h-4.65V33.48z"/>
	<path class="st1" d="M302.63,37.78l-3.25,3.1c-2.21-2.34-4.7-3.51-7.46-3.51c-2.33,0-4.3,0.8-5.9,2.39c-1.6,1.6-2.4,3.56-2.4,5.9
		c0,1.63,0.35,3.08,1.06,4.34s1.71,2.25,3,2.97s2.73,1.08,4.31,1.08c1.35,0,2.58-0.25,3.7-0.76s2.34-1.42,3.68-2.75l3.15,3.29
		c-1.8,1.76-3.51,2.98-5.11,3.66s-3.44,1.02-5.5,1.02c-3.8,0-6.9-1.2-9.32-3.61c-2.42-2.41-3.63-5.49-3.63-9.26
		c0-2.43,0.55-4.6,1.65-6.49c1.1-1.89,2.68-3.41,4.73-4.57c2.05-1.15,4.26-1.73,6.63-1.73c2.01,0,3.95,0.43,5.82,1.28
		C299.68,35,301.28,36.21,302.63,37.78z"/>
	<path class="st1" d="M306.72,33.48h13.33v4.55h-8.72v4.42h8.72v4.47h-8.72v6.42h8.72v4.57h-13.33V33.48z"/>
	<path class="st1" d="M324.38,33.48h4.65v19.99h6.77v4.43h-11.42V33.48z"/>
	<path class="st1" d="M346.79,33.48h4.71l9.39,24.42h-4.83l-1.91-5.03h-9.96l-1.99,5.03h-4.83L346.79,33.48z M349.18,39.96
		l-3.28,8.38h6.53L349.18,39.96z"/>
	<path class="st1" d="M364.81,33.48h4.92c2.7,0,4.62,0.24,5.76,0.72c1.14,0.48,2.06,1.28,2.76,2.4s1.04,2.44,1.04,3.97
		c0,1.6-0.38,2.95-1.15,4.03c-0.77,1.08-1.93,1.9-3.48,2.45l5.79,10.86h-5.08l-5.49-10.34h-0.43V57.9h-4.65V33.48z M369.46,43.03
		h1.46c1.48,0,2.5-0.19,3.05-0.58c0.56-0.39,0.84-1.03,0.84-1.93c0-0.53-0.14-1-0.41-1.39c-0.28-0.39-0.65-0.68-1.11-0.85
		c-0.46-0.17-1.31-0.26-2.55-0.26h-1.27V43.03z"/>
</g>
</svg>
