<?xml version="1.0" encoding="utf-8"?>
<!-- Generator: Adobe Illustrator 23.0.2, SVG Export Plug-In . SVG Version: 6.00 Build 0)  -->
<svg version="1.1" id="Capa_1" xmlns="http://www.w3.org/2000/svg" xmlns:xlink="http://www.w3.org/1999/xlink" x="0px" y="0px"
	 viewBox="0 0 35.19 32.84" style="enable-background:new 0 0 35.19 32.84;" xml:space="preserve">
<style type="text/css">
	.st0{fill:#B1B1B1;}
</style>
<g transform="translate(0,-280.06664)">
	<path class="st0" d="M3.52,280.07c-1.93,0-3.52,1.59-3.52,3.52v16.42c0,1.93,1.59,3.52,3.52,3.52h1.72l2,3
		c0.36,0.54,1.09,0.69,1.63,0.33c0.13-0.09,0.24-0.2,0.33-0.33l2-3h0.55c0.65,0,1.17-0.53,1.17-1.17c0-0.65-0.53-1.17-1.17-1.17
		h-1.17c-0.39,0-0.76,0.19-0.97,0.52l-1.37,2.06l-1.37-2.06c-0.22-0.32-0.58-0.52-0.97-0.52H3.52c-0.67,0-1.17-0.5-1.17-1.17v-16.42
		c0-0.67,0.5-1.17,1.17-1.17h21.11c0.67,0,1.17,0.5,1.17,1.17v8.21c0,0.65,0.52,1.17,1.17,1.17c0.65,0,1.17-0.52,1.17-1.17
		c0,0,0,0,0,0v-8.21c0-1.93-1.59-3.52-3.52-3.52H3.52z"/>
	<path class="st0" d="M17.59,294.14c-1.93,0-3.52,1.59-3.52,3.52v9.38c0,1.93,1.59,3.52,3.52,3.52h6.55l2,2
		c0.46,0.46,1.2,0.46,1.66,0l2-2h1.86c1.93,0,3.52-1.59,3.52-3.52v-9.38c0-1.93-1.59-3.52-3.52-3.52H17.59z M17.59,296.49h14.08
		c0.67,0,1.17,0.5,1.17,1.17v9.38c0,0.67-0.5,1.17-1.17,1.17h-2.35c-0.31,0-0.61,0.13-0.83,0.35l-1.52,1.52l-1.52-1.52
		c-0.22-0.22-0.52-0.34-0.83-0.35h-7.04c-0.67,0-1.17-0.5-1.17-1.17v-9.38C16.42,296.99,16.92,296.49,17.59,296.49z"/>
</g>
</svg>
