<?xml version="1.0" encoding="utf-8"?>
<!-- Generator: Adobe Illustrator 23.0.2, SVG Export Plug-In . SVG Version: 6.00 Build 0)  -->
<svg version="1.1" id="Capa_1" xmlns="http://www.w3.org/2000/svg" xmlns:xlink="http://www.w3.org/1999/xlink" x="0px" y="0px"
	 viewBox="0 0 338.3 139.43" style="enable-background:new 0 0 338.3 139.43;" xml:space="preserve">
<style type="text/css">
	.st0{fill:#E8007E;}
	.st1{fill:#FFFFFF;}
</style>
<path class="st0" d="M338.3,92.13V0H0v139.43h291C317.12,139.43,338.3,118.26,338.3,92.13z"/>
<g>
	<path class="st1" d="M88.88,50.53l-2.68,2.55c-1.82-1.92-3.87-2.89-6.15-2.89c-1.92,0-3.54,0.66-4.86,1.97
		c-1.32,1.31-1.97,2.93-1.97,4.86c0,1.34,0.29,2.53,0.87,3.57s1.41,1.86,2.47,2.45s2.25,0.89,3.55,0.89c1.11,0,2.13-0.21,3.05-0.62
		c0.92-0.42,1.93-1.17,3.03-2.26l2.6,2.71c-1.49,1.45-2.89,2.46-4.21,3.02s-2.83,0.84-4.53,0.84c-3.13,0-5.69-0.99-7.68-2.97
		s-2.99-4.52-2.99-7.62c0-2,0.45-3.79,1.36-5.35s2.21-2.81,3.9-3.76s3.51-1.42,5.46-1.42c1.66,0,3.26,0.35,4.79,1.05
		C86.45,48.24,87.77,49.24,88.88,50.53z"/>
	<path class="st1" d="M101.73,46.49c2.85,0,5.29,1.03,7.34,3.09s3.07,4.57,3.07,7.53c0,2.93-1.01,5.42-3.03,7.45
		s-4.47,3.05-7.35,3.05c-3.02,0-5.53-1.04-7.52-3.13s-3-4.57-3-7.44c0-1.92,0.46-3.69,1.4-5.3s2.21-2.89,3.84-3.83
		S99.85,46.49,101.73,46.49z M101.69,50.24c-1.86,0-3.43,0.65-4.69,1.94c-1.27,1.29-1.9,2.94-1.9,4.94c0,2.22,0.8,3.98,2.4,5.28
		c1.24,1.01,2.66,1.52,4.27,1.52c1.82,0,3.36-0.66,4.64-1.97s1.92-2.93,1.92-4.85c0-1.91-0.64-3.53-1.93-4.86
		C105.1,50.9,103.53,50.24,101.69,50.24z"/>
	<path class="st1" d="M117.7,46.99h3.73l4.66,14.03l4.7-14.03h3.73l3.37,20.11h-3.7l-2.16-12.7l-4.27,12.7h-3.37l-4.23-12.7
		l-2.21,12.7h-3.73L117.7,46.99z"/>
	<path class="st1" d="M140.96,46.99h10.98v3.75h-7.18v3.64h7.18v3.68h-7.18v5.29h7.18v3.76h-10.98V46.99z"/>
	<path class="st1" d="M155.52,46.99h3.67l8.61,13.23V46.99h3.83v20.11h-3.68l-8.59-13.19v13.19h-3.83V46.99z"/>
	<path class="st1" d="M174.24,46.99h11.12v3.77h-3.66v16.34h-3.88V50.77h-3.57V46.99z"/>
	<path class="st1" d="M194.11,46.99H198l7.74,20.11h-3.98l-1.57-4.14h-8.21l-1.64,4.14h-3.98L194.11,46.99z M196.08,52.33l-2.7,6.9
		h5.38L196.08,52.33z"/>
	<path class="st1" d="M208.95,46.99h4.06c2.22,0,3.8,0.2,4.75,0.59c0.94,0.4,1.7,1.05,2.27,1.98s0.86,2.01,0.86,3.27
		c0,1.32-0.32,2.43-0.95,3.32s-1.59,1.56-2.86,2.02l4.76,8.94h-4.18l-4.52-8.52h-0.35v8.52h-3.83V46.99z M212.78,54.86h1.2
		c1.22,0,2.06-0.16,2.51-0.48c0.46-0.32,0.69-0.85,0.69-1.59c0-0.44-0.11-0.82-0.34-1.15c-0.23-0.32-0.53-0.56-0.91-0.7
		s-1.08-0.21-2.1-0.21h-1.05V54.86z"/>
	<path class="st1" d="M224.66,46.99h3.8v20.11h-3.8V46.99z"/>
	<path class="st1" d="M242.26,46.49c2.85,0,5.29,1.03,7.34,3.09s3.07,4.57,3.07,7.53c0,2.93-1.01,5.42-3.03,7.45
		s-4.47,3.05-7.35,3.05c-3.02,0-5.53-1.04-7.52-3.13s-3-4.57-3-7.44c0-1.92,0.46-3.69,1.4-5.3s2.21-2.89,3.84-3.83
		S240.38,46.49,242.26,46.49z M242.22,50.24c-1.86,0-3.43,0.65-4.69,1.94c-1.27,1.29-1.9,2.94-1.9,4.94c0,2.22,0.8,3.98,2.4,5.28
		c1.24,1.01,2.66,1.52,4.27,1.52c1.82,0,3.36-0.66,4.64-1.97s1.92-2.93,1.92-4.85c0-1.91-0.64-3.53-1.93-4.86
		C245.63,50.9,244.06,50.24,242.22,50.24z"/>
	<path class="st1" d="M266.84,49.73l-2.83,2.5c-1-1.39-2.01-2.08-3.04-2.08c-0.5,0-0.91,0.13-1.23,0.4s-0.48,0.57-0.48,0.91
		s0.11,0.66,0.34,0.96c0.31,0.4,1.25,1.26,2.81,2.58c1.46,1.22,2.35,1.99,2.66,2.31c0.78,0.78,1.33,1.53,1.65,2.25
		s0.49,1.5,0.49,2.34c0,1.65-0.57,3.01-1.71,4.09s-2.63,1.61-4.46,1.61c-1.43,0-2.68-0.35-3.74-1.05c-1.06-0.7-1.97-1.8-2.73-3.31
		l3.22-1.94c0.97,1.78,2.08,2.67,3.34,2.67c0.66,0,1.21-0.19,1.66-0.57s0.67-0.83,0.67-1.33c0-0.46-0.17-0.91-0.51-1.37
		s-1.08-1.15-2.23-2.09c-2.19-1.79-3.61-3.17-4.25-4.14c-0.64-0.97-0.96-1.94-0.96-2.91c0-1.39,0.53-2.59,1.59-3.59
		c1.06-1,2.38-1.5,3.94-1.5c1,0,1.96,0.23,2.87,0.7C264.8,47.65,265.78,48.5,266.84,49.73z"/>
	<path class="st1" d="M113.8,77.99h10.98v3.75h-7.18v3.64h7.18v3.68h-7.18v5.29h7.18v3.76H113.8V77.99z"/>
	<path class="st1" d="M128.36,77.99h3.67l8.61,13.23V77.99h3.83v20.11h-3.68l-8.59-13.19v13.19h-3.83V77.99z"/>
	<path class="st1" d="M155.37,77.99h3.94l5.06,14.29l5.13-14.29h3.93l-7.25,20.11h-3.69L155.37,77.99z"/>
	<path class="st1" d="M176.23,77.99h3.8v20.11h-3.8V77.99z"/>
	<path class="st1" d="M182.81,77.99h3.94l5.06,14.29l5.13-14.29h3.93l-7.25,20.11h-3.69L182.81,77.99z"/>
	<path class="st1" d="M213.44,77.49c2.85,0,5.29,1.03,7.34,3.09s3.07,4.57,3.07,7.53c0,2.93-1.01,5.42-3.03,7.45
		s-4.47,3.05-7.35,3.05c-3.02,0-5.53-1.04-7.52-3.13s-3-4.57-3-7.44c0-1.92,0.46-3.69,1.4-5.3s2.21-2.89,3.84-3.83
		S211.56,77.49,213.44,77.49z M213.39,81.24c-1.86,0-3.43,0.65-4.69,1.94c-1.27,1.29-1.9,2.94-1.9,4.94c0,2.22,0.8,3.98,2.4,5.28
		c1.24,1.01,2.66,1.52,4.27,1.52c1.82,0,3.36-0.66,4.64-1.97s1.92-2.93,1.92-4.85c0-1.91-0.64-3.53-1.93-4.86
		C216.8,81.9,215.24,81.24,213.39,81.24z"/>
</g>
</svg>
