<?xml version="1.0" encoding="utf-8"?>
<!-- Generator: Adobe Illustrator 23.0.2, SVG Export Plug-In . SVG Version: 6.00 Build 0)  -->
<svg version="1.1" id="Capa_1" xmlns="http://www.w3.org/2000/svg" xmlns:xlink="http://www.w3.org/1999/xlink" x="0px" y="0px"
	 viewBox="0 0 953.43 807.89" style="enable-background:new 0 0 953.43 807.89;" xml:space="preserve">
<style type="text/css">
	.st0{opacity:0.4;fill:#CFD1D2;}
	.st1{fill:#CFD1D2;}
	.st2{fill:#FFFFFF;}
	.st3{fill:#BABABB;}
	.st4{opacity:0.31;fill:#BABABB;}
</style>
<g>
	<ellipse class="st0" cx="481.93" cy="787.01" rx="262.27" ry="20.88"/>
	<path class="st1" d="M904.29,639.12H49.15C22,639.12,0,617.12,0,589.98V49.15C0,22,22,0,49.15,0h855.14
		c27.14,0,49.15,22,49.15,49.15v540.83C953.43,617.12,931.43,639.12,904.29,639.12z"/>
	<rect x="43.9" y="42.34" class="st2" width="865.64" height="547.82"/>
	<path class="st3" d="M586.92,757.91c-2.12-1.88-5.67-3-9.48-3h-96.71h-8.02H376c-3.81,0-7.36,1.13-9.48,3l-26.38,23.38
		c-5.08,4.5,0.35,10.55,9.48,10.55h123.09h8.02h123.09c9.13,0,14.56-6.05,9.48-10.55L586.92,757.91z"/>
	<rect x="392.04" y="590.16" class="st1" width="223.21" height="48.96"/>
	<polygon class="st1" points="561.39,754.91 392.04,754.91 403.75,590.16 549.68,590.16 	"/>
	<path class="st4" d="M419.23,741.72c43.67-13.89,95.31-23.86,138.09-44.14l-7.64-107.42H403.75l-11.38,159.92
		C401.38,747.3,410.36,744.54,419.23,741.72z"/>
	<rect x="355.16" y="590.16" class="st1" width="294.61" height="49.42"/>
</g>
</svg>
