<?xml version="1.0" encoding="utf-8"?>
<!-- Generator: Adobe Illustrator 23.0.2, SVG Export Plug-In . SVG Version: 6.00 Build 0)  -->
<svg version="1.1" id="Capa_1" xmlns="http://www.w3.org/2000/svg" xmlns:xlink="http://www.w3.org/1999/xlink" x="0px" y="0px"
	 viewBox="0 0 264.83 32.1" style="enable-background:new 0 0 264.83 32.1;" xml:space="preserve">
<style type="text/css">
	.st0{fill:url(#SVGID_1_);}
	.st1{fill:url(#SVGID_2_);}
	.st2{fill:url(#SVGID_3_);}
	.st3{fill:url(#SVGID_4_);}
	.st4{fill:url(#SVGID_5_);}
	.st5{fill:url(#SVGID_6_);}
	.st6{fill:url(#SVGID_7_);}
	.st7{fill:url(#SVGID_8_);}
	.st8{fill:url(#SVGID_9_);}
</style>
<g>
	<linearGradient id="SVGID_1_" gradientUnits="userSpaceOnUse" x1="-34.039" y1="16.0479" x2="329.2043" y2="16.0479">
		<stop  offset="0" style="stop-color:#FD933F"/>
		<stop  offset="0.6367" style="stop-color:#F92080"/>
		<stop  offset="1" style="stop-color:#AC1BC6"/>
	</linearGradient>
	<path class="st0" d="M29.6,6.14l-4.07,3.88c-2.77-2.92-5.88-4.39-9.34-4.39c-2.92,0-5.38,1-7.38,2.99c-2,2-3,4.46-3,7.38
		c0,2.04,0.44,3.85,1.33,5.43c0.89,1.58,2.14,2.82,3.76,3.72c1.62,0.9,3.42,1.35,5.4,1.35c1.69,0,3.23-0.32,4.63-0.95
		s2.93-1.78,4.61-3.44l3.94,4.12c-2.26,2.2-4.39,3.73-6.4,4.58c-2.01,0.85-4.3,1.28-6.88,1.28c-4.75,0-8.64-1.51-11.67-4.52
		C1.51,24.57,0,20.71,0,16c0-3.05,0.69-5.75,2.07-8.12C3.44,5.5,5.42,3.6,7.99,2.16S13.32,0,16.29,0c2.52,0,4.95,0.53,7.28,1.6
		C25.9,2.66,27.91,4.18,29.6,6.14z"/>
	<linearGradient id="SVGID_2_" gradientUnits="userSpaceOnUse" x1="-34.039" y1="16.0479" x2="329.2043" y2="16.0479">
		<stop  offset="0" style="stop-color:#FD933F"/>
		<stop  offset="0.6367" style="stop-color:#F92080"/>
		<stop  offset="1" style="stop-color:#AC1BC6"/>
	</linearGradient>
	<path class="st1" d="M49.12,0c4.32,0,8.04,1.57,11.15,4.7s4.67,6.95,4.67,11.45c0,4.46-1.54,8.23-4.61,11.32
		c-3.07,3.09-6.79,4.63-11.17,4.63c-4.59,0-8.4-1.59-11.43-4.76c-3.04-3.17-4.55-6.94-4.55-11.3c0-2.92,0.71-5.61,2.12-8.06
		c1.41-2.45,3.36-4.39,5.83-5.83C43.6,0.72,46.26,0,49.12,0z M49.06,5.69c-2.83,0-5.21,0.98-7.13,2.95
		c-1.93,1.97-2.89,4.47-2.89,7.5c0,3.38,1.21,6.05,3.64,8.02c1.89,1.54,4.05,2.31,6.49,2.31c2.76,0,5.11-1,7.05-2.99
		s2.91-4.45,2.91-7.38c0-2.91-0.98-5.37-2.93-7.38C54.24,6.7,51.86,5.69,49.06,5.69z"/>
	<linearGradient id="SVGID_3_" gradientUnits="userSpaceOnUse" x1="-34.039" y1="16.0479" x2="329.2043" y2="16.0479">
		<stop  offset="0" style="stop-color:#FD933F"/>
		<stop  offset="0.6367" style="stop-color:#F92080"/>
		<stop  offset="1" style="stop-color:#AC1BC6"/>
	</linearGradient>
	<path class="st2" d="M73.39,0.77h5.67l7.08,21.31l7.15-21.31h5.66l5.13,30.56h-5.62l-3.28-19.3l-6.49,19.3h-5.13l-6.43-19.3
		l-3.35,19.3H68.1L73.39,0.77z"/>
	<linearGradient id="SVGID_4_" gradientUnits="userSpaceOnUse" x1="-34.039" y1="16.4321" x2="329.2043" y2="16.4321">
		<stop  offset="0" style="stop-color:#FD933F"/>
		<stop  offset="0.6367" style="stop-color:#F92080"/>
		<stop  offset="1" style="stop-color:#AC1BC6"/>
	</linearGradient>
	<path class="st3" d="M108.5,0.77h5.84v19.76c0,1.7,0.15,2.91,0.45,3.61c0.3,0.71,0.79,1.27,1.47,1.69s1.51,0.63,2.48,0.63
		c1.03,0,1.91-0.23,2.65-0.71c0.74-0.47,1.25-1.07,1.54-1.8c0.28-0.73,0.43-2.11,0.43-4.16V0.77h5.84v18.22
		c0,3.07-0.17,5.21-0.52,6.4c-0.35,1.19-1.01,2.34-1.98,3.45c-0.98,1.11-2.1,1.93-3.38,2.46s-2.76,0.8-4.45,0.8
		c-2.22,0-4.14-0.51-5.79-1.53c-1.64-1.02-2.82-2.29-3.52-3.82c-0.71-1.53-1.06-4.12-1.06-7.76V0.77z"/>
	<linearGradient id="SVGID_5_" gradientUnits="userSpaceOnUse" x1="-34.039" y1="16.0479" x2="329.2043" y2="16.0479">
		<stop  offset="0" style="stop-color:#FD933F"/>
		<stop  offset="0.6367" style="stop-color:#F92080"/>
		<stop  offset="1" style="stop-color:#AC1BC6"/>
	</linearGradient>
	<path class="st4" d="M135.97,0.77h5.58l13.08,20.11V0.77h5.82v30.56h-5.6l-13.06-20.05v20.05h-5.82V0.77z"/>
	<linearGradient id="SVGID_6_" gradientUnits="userSpaceOnUse" x1="-34.039" y1="16.0479" x2="329.2043" y2="16.0479">
		<stop  offset="0" style="stop-color:#FD933F"/>
		<stop  offset="0.6367" style="stop-color:#F92080"/>
		<stop  offset="1" style="stop-color:#AC1BC6"/>
	</linearGradient>
	<path class="st5" d="M167,0.77h5.78v30.56H167V0.77z"/>
	<linearGradient id="SVGID_7_" gradientUnits="userSpaceOnUse" x1="-34.039" y1="16.0479" x2="329.2043" y2="16.0479">
		<stop  offset="0" style="stop-color:#FD933F"/>
		<stop  offset="0.6367" style="stop-color:#F92080"/>
		<stop  offset="1" style="stop-color:#AC1BC6"/>
	</linearGradient>
	<path class="st6" d="M179.34,0.77h6.89c4.44,0,7.74,0.55,9.9,1.65c2.16,1.1,3.94,2.89,5.33,5.37c1.4,2.48,2.1,5.37,2.1,8.68
		c0,2.35-0.39,4.52-1.17,6.49c-0.78,1.97-1.86,3.61-3.24,4.91s-2.87,2.2-4.47,2.7c-1.61,0.5-4.39,0.75-8.34,0.75h-7V0.77z
		 M185.12,6.38v19.28h2.7c2.66,0,4.59-0.31,5.79-0.92c1.2-0.61,2.18-1.64,2.94-3.08c0.76-1.44,1.14-3.22,1.14-5.32
		c0-3.24-0.91-5.76-2.72-7.55c-1.63-1.61-4.26-2.41-7.87-2.41H185.12z"/>
	<linearGradient id="SVGID_8_" gradientUnits="userSpaceOnUse" x1="-34.039" y1="16.0479" x2="329.2043" y2="16.0479">
		<stop  offset="0" style="stop-color:#FD933F"/>
		<stop  offset="0.6367" style="stop-color:#F92080"/>
		<stop  offset="1" style="stop-color:#AC1BC6"/>
	</linearGradient>
	<path class="st7" d="M218.43,0.77h5.9l11.75,30.56h-6.04l-2.39-6.29h-12.47l-2.49,6.29h-6.04L218.43,0.77z M221.42,8.87l-4.1,10.49
		h8.18L221.42,8.87z"/>
	<linearGradient id="SVGID_9_" gradientUnits="userSpaceOnUse" x1="-34.039" y1="16.0479" x2="329.2043" y2="16.0479">
		<stop  offset="0" style="stop-color:#FD933F"/>
		<stop  offset="0.6367" style="stop-color:#F92080"/>
		<stop  offset="1" style="stop-color:#AC1BC6"/>
	</linearGradient>
	<path class="st8" d="M240.6,0.77h6.89c4.44,0,7.74,0.55,9.9,1.65c2.16,1.1,3.94,2.89,5.33,5.37c1.4,2.48,2.1,5.37,2.1,8.68
		c0,2.35-0.39,4.52-1.17,6.49c-0.78,1.97-1.86,3.61-3.24,4.91s-2.87,2.2-4.47,2.7c-1.61,0.5-4.39,0.75-8.34,0.75h-7V0.77z
		 M246.38,6.38v19.28h2.7c2.66,0,4.59-0.31,5.79-0.92c1.2-0.61,2.18-1.64,2.94-3.08c0.76-1.44,1.14-3.22,1.14-5.32
		c0-3.24-0.91-5.76-2.72-7.55c-1.63-1.61-4.26-2.41-7.87-2.41H246.38z"/>
</g>
</svg>
