<?xml version="1.0" encoding="utf-8"?>
<!-- Generator: Adobe Illustrator 23.0.2, SVG Export Plug-In . SVG Version: 6.00 Build 0)  -->
<svg version="1.1" id="Capa_1" xmlns="http://www.w3.org/2000/svg" xmlns:xlink="http://www.w3.org/1999/xlink" x="0px" y="0px"
	 viewBox="0 0 384.1 32.1" style="enable-background:new 0 0 384.1 32.1;" xml:space="preserve">
<style type="text/css">
	.st0{fill:url(#SVGID_1_);}
	.st1{fill:url(#SVGID_2_);}
	.st2{fill:url(#SVGID_3_);}
	.st3{fill:url(#SVGID_4_);}
	.st4{fill:url(#SVGID_5_);}
	.st5{fill:url(#SVGID_6_);}
	.st6{fill:url(#SVGID_7_);}
	.st7{fill:url(#SVGID_8_);}
	.st8{fill:url(#SVGID_9_);}
	.st9{fill:url(#SVGID_10_);}
	.st10{fill:url(#SVGID_11_);}
	.st11{fill:url(#SVGID_12_);}
	.st12{fill:url(#SVGID_13_);}
	.st13{fill:url(#SVGID_14_);}
</style>
<g>
	<linearGradient id="SVGID_1_" gradientUnits="userSpaceOnUse" x1="1.5056" y1="16.048" x2="425.8983" y2="16.048">
		<stop  offset="0" style="stop-color:#FD933F"/>
		<stop  offset="0.6367" style="stop-color:#F92080"/>
		<stop  offset="1" style="stop-color:#AC1BC6"/>
	</linearGradient>
	<path class="st0" d="M0,0.77h16.68v5.69H5.77v5.53h10.91v5.59H5.77v8.04h10.91v5.71H0V0.77z"/>
	<linearGradient id="SVGID_2_" gradientUnits="userSpaceOnUse" x1="1.5056" y1="16.048" x2="425.8983" y2="16.048">
		<stop  offset="0" style="stop-color:#FD933F"/>
		<stop  offset="0.6367" style="stop-color:#F92080"/>
		<stop  offset="1" style="stop-color:#AC1BC6"/>
	</linearGradient>
	<path class="st1" d="M19.79,0.77h5.98l7.69,21.71l7.8-21.71h5.97L36.22,31.33h-5.61L19.79,0.77z"/>
	<linearGradient id="SVGID_3_" gradientUnits="userSpaceOnUse" x1="1.5056" y1="16.048" x2="425.8983" y2="16.048">
		<stop  offset="0" style="stop-color:#FD933F"/>
		<stop  offset="0.6367" style="stop-color:#F92080"/>
		<stop  offset="1" style="stop-color:#AC1BC6"/>
	</linearGradient>
	<path class="st2" d="M51.91,0.77h16.68v5.69H57.69v5.53h10.91v5.59H57.69v8.04h10.91v5.71H51.91V0.77z"/>
	<linearGradient id="SVGID_4_" gradientUnits="userSpaceOnUse" x1="1.5056" y1="16.048" x2="425.8983" y2="16.048">
		<stop  offset="0" style="stop-color:#FD933F"/>
		<stop  offset="0.6367" style="stop-color:#F92080"/>
		<stop  offset="1" style="stop-color:#AC1BC6"/>
	</linearGradient>
	<path class="st3" d="M74.04,0.77h5.58l13.07,20.11V0.77h5.82v30.56h-5.6L79.85,11.28v20.05h-5.82V0.77z"/>
	<linearGradient id="SVGID_5_" gradientUnits="userSpaceOnUse" x1="1.5056" y1="16.048" x2="425.8983" y2="16.048">
		<stop  offset="0" style="stop-color:#FD933F"/>
		<stop  offset="0.6367" style="stop-color:#F92080"/>
		<stop  offset="1" style="stop-color:#AC1BC6"/>
	</linearGradient>
	<path class="st4" d="M102.48,0.77h16.89V6.5h-5.57v24.83h-5.9V6.5h-5.42V0.77z"/>
	<linearGradient id="SVGID_6_" gradientUnits="userSpaceOnUse" x1="1.5056" y1="16.048" x2="425.8983" y2="16.048">
		<stop  offset="0" style="stop-color:#FD933F"/>
		<stop  offset="0.6367" style="stop-color:#F92080"/>
		<stop  offset="1" style="stop-color:#AC1BC6"/>
	</linearGradient>
	<path class="st5" d="M137.78,0c4.32,0,8.04,1.57,11.15,4.7c3.11,3.13,4.67,6.95,4.67,11.45c0,4.46-1.54,8.23-4.6,11.32
		c-3.07,3.09-6.79,4.63-11.17,4.63c-4.59,0-8.4-1.59-11.43-4.76c-3.03-3.17-4.55-6.94-4.55-11.3c0-2.92,0.71-5.61,2.12-8.06
		c1.41-2.45,3.36-4.39,5.83-5.83C132.26,0.72,134.93,0,137.78,0z M137.72,5.69c-2.83,0-5.21,0.98-7.13,2.95
		c-1.93,1.97-2.89,4.47-2.89,7.5c0,3.38,1.21,6.05,3.64,8.02c1.89,1.54,4.05,2.31,6.49,2.31c2.76,0,5.11-1,7.05-2.99
		c1.94-1.99,2.91-4.45,2.91-7.37c0-2.91-0.98-5.37-2.93-7.39C142.9,6.7,140.52,5.69,137.72,5.69z"/>
	<linearGradient id="SVGID_7_" gradientUnits="userSpaceOnUse" x1="1.5056" y1="16.048" x2="425.8983" y2="16.048">
		<stop  offset="0" style="stop-color:#FD933F"/>
		<stop  offset="0.6367" style="stop-color:#F92080"/>
		<stop  offset="1" style="stop-color:#AC1BC6"/>
	</linearGradient>
	<path class="st6" d="M175.12,4.92l-4.31,3.8c-1.51-2.11-3.05-3.16-4.62-3.16c-0.76,0-1.39,0.2-1.87,0.61
		c-0.49,0.41-0.73,0.87-0.73,1.38c0,0.51,0.17,1,0.52,1.45c0.47,0.61,1.89,1.92,4.27,3.93c2.22,1.86,3.57,3.03,4.04,3.51
		c1.18,1.19,2.02,2.33,2.51,3.42s0.74,2.27,0.74,3.56c0,2.51-0.87,4.58-2.6,6.21c-1.73,1.64-3.99,2.45-6.78,2.45
		c-2.18,0-4.07-0.53-5.69-1.6c-1.61-1.07-3-2.74-4.15-5.03l4.89-2.95c1.47,2.7,3.16,4.05,5.08,4.05c1,0,1.84-0.29,2.52-0.87
		c0.68-0.58,1.02-1.25,1.02-2.01c0-0.69-0.26-1.38-0.77-2.08c-0.51-0.69-1.64-1.75-3.39-3.18c-3.33-2.71-5.48-4.81-6.45-6.28
		c-0.97-1.47-1.46-2.95-1.46-4.41c0-2.12,0.81-3.94,2.42-5.45c1.61-1.52,3.61-2.27,5.98-2.27c1.52,0,2.98,0.35,4.36,1.06
		C172.02,1.77,173.51,3.05,175.12,4.92z"/>
	<linearGradient id="SVGID_8_" gradientUnits="userSpaceOnUse" x1="1.5056" y1="16.048" x2="425.8983" y2="16.048">
		<stop  offset="0" style="stop-color:#FD933F"/>
		<stop  offset="0.6367" style="stop-color:#F92080"/>
		<stop  offset="1" style="stop-color:#AC1BC6"/>
	</linearGradient>
	<path class="st7" d="M193.09,0.77h6.17c3.34,0,5.74,0.31,7.22,0.92c1.47,0.62,2.64,1.61,3.49,2.99c0.85,1.38,1.28,3.03,1.28,4.95
		c0,2.13-0.56,3.91-1.67,5.32c-1.11,1.41-2.63,2.4-4.54,2.95c-1.12,0.32-3.16,0.48-6.13,0.48v12.94h-5.82V0.77z M198.91,12.71h1.85
		c1.45,0,2.47-0.1,3.03-0.31c0.57-0.21,1.02-0.55,1.34-1.03c0.32-0.48,0.49-1.06,0.49-1.74c0-1.18-0.46-2.04-1.37-2.58
		c-0.66-0.4-1.9-0.6-3.7-0.6h-1.64V12.71z"/>
	<linearGradient id="SVGID_9_" gradientUnits="userSpaceOnUse" x1="1.5056" y1="16.048" x2="425.8983" y2="16.048">
		<stop  offset="0" style="stop-color:#FD933F"/>
		<stop  offset="0.6367" style="stop-color:#F92080"/>
		<stop  offset="1" style="stop-color:#AC1BC6"/>
	</linearGradient>
	<path class="st8" d="M226.26,0.77h5.9l11.75,30.56h-6.04l-2.39-6.29h-12.47l-2.49,6.29h-6.05L226.26,0.77z M229.25,8.87l-4.1,10.49
		h8.17L229.25,8.87z"/>
	<linearGradient id="SVGID_10_" gradientUnits="userSpaceOnUse" x1="1.5056" y1="16.048" x2="425.8983" y2="16.048">
		<stop  offset="0" style="stop-color:#FD933F"/>
		<stop  offset="0.6367" style="stop-color:#F92080"/>
		<stop  offset="1" style="stop-color:#AC1BC6"/>
	</linearGradient>
	<path class="st9" d="M264.45,4.92l-4.31,3.8c-1.51-2.11-3.05-3.16-4.62-3.16c-0.76,0-1.39,0.2-1.87,0.61
		c-0.49,0.41-0.73,0.87-0.73,1.38c0,0.51,0.17,1,0.52,1.45c0.47,0.61,1.89,1.92,4.27,3.93c2.22,1.86,3.57,3.03,4.04,3.51
		c1.18,1.19,2.02,2.33,2.51,3.42s0.74,2.27,0.74,3.56c0,2.51-0.87,4.58-2.6,6.21c-1.73,1.64-3.99,2.45-6.78,2.45
		c-2.18,0-4.07-0.53-5.69-1.6s-3-2.74-4.15-5.03l4.89-2.95c1.47,2.7,3.16,4.05,5.08,4.05c1,0,1.84-0.29,2.52-0.87
		c0.68-0.58,1.02-1.25,1.02-2.01c0-0.69-0.26-1.38-0.77-2.08c-0.51-0.69-1.64-1.75-3.39-3.18c-3.33-2.71-5.48-4.81-6.45-6.28
		c-0.97-1.47-1.46-2.95-1.46-4.41c0-2.12,0.81-3.94,2.42-5.45c1.61-1.52,3.61-2.27,5.98-2.27c1.52,0,2.98,0.35,4.36,1.06
		C261.34,1.77,262.84,3.05,264.45,4.92z"/>
	<linearGradient id="SVGID_11_" gradientUnits="userSpaceOnUse" x1="1.5056" y1="16.048" x2="425.8983" y2="16.048">
		<stop  offset="0" style="stop-color:#FD933F"/>
		<stop  offset="0.6367" style="stop-color:#F92080"/>
		<stop  offset="1" style="stop-color:#AC1BC6"/>
	</linearGradient>
	<path class="st10" d="M279.86,0.77h5.9l11.75,30.56h-6.04l-2.39-6.29H276.6l-2.49,6.29h-6.05L279.86,0.77z M282.84,8.87l-4.1,10.49
		h8.17L282.84,8.87z"/>
	<linearGradient id="SVGID_12_" gradientUnits="userSpaceOnUse" x1="1.5056" y1="16.048" x2="425.8983" y2="16.048">
		<stop  offset="0" style="stop-color:#FD933F"/>
		<stop  offset="0.6367" style="stop-color:#F92080"/>
		<stop  offset="1" style="stop-color:#AC1BC6"/>
	</linearGradient>
	<path class="st11" d="M302.03,0.77h6.89c4.44,0,7.74,0.55,9.9,1.65c2.16,1.1,3.94,2.89,5.33,5.37c1.4,2.48,2.1,5.37,2.1,8.68
		c0,2.35-0.39,4.52-1.17,6.49s-1.86,3.61-3.24,4.91c-1.38,1.3-2.87,2.2-4.47,2.7c-1.61,0.5-4.39,0.75-8.34,0.75h-6.99V0.77z
		 M307.8,6.38v19.28h2.7c2.66,0,4.59-0.31,5.78-0.92c1.2-0.61,2.18-1.64,2.94-3.08c0.76-1.44,1.14-3.22,1.14-5.32
		c0-3.24-0.91-5.76-2.72-7.55c-1.63-1.61-4.26-2.41-7.87-2.41H307.8z"/>
	<linearGradient id="SVGID_13_" gradientUnits="userSpaceOnUse" x1="1.5056" y1="16.048" x2="425.8983" y2="16.048">
		<stop  offset="0" style="stop-color:#FD933F"/>
		<stop  offset="0.6367" style="stop-color:#F92080"/>
		<stop  offset="1" style="stop-color:#AC1BC6"/>
	</linearGradient>
	<path class="st12" d="M346.22,0c4.32,0,8.04,1.57,11.15,4.7c3.11,3.13,4.67,6.95,4.67,11.45c0,4.46-1.54,8.23-4.6,11.32
		c-3.07,3.09-6.79,4.63-11.17,4.63c-4.59,0-8.4-1.59-11.43-4.76c-3.03-3.17-4.55-6.94-4.55-11.3c0-2.92,0.71-5.61,2.12-8.06
		c1.41-2.45,3.36-4.39,5.83-5.83C340.7,0.72,343.37,0,346.22,0z M346.16,5.69c-2.83,0-5.21,0.98-7.13,2.95
		c-1.93,1.97-2.89,4.47-2.89,7.5c0,3.38,1.21,6.05,3.64,8.02c1.89,1.54,4.05,2.31,6.49,2.31c2.76,0,5.11-1,7.05-2.99
		c1.94-1.99,2.91-4.45,2.91-7.37c0-2.91-0.98-5.37-2.93-7.39C351.34,6.7,348.96,5.69,346.16,5.69z"/>
	<linearGradient id="SVGID_14_" gradientUnits="userSpaceOnUse" x1="1.5056" y1="16.048" x2="425.8983" y2="16.048">
		<stop  offset="0" style="stop-color:#FD933F"/>
		<stop  offset="0.6367" style="stop-color:#F92080"/>
		<stop  offset="1" style="stop-color:#AC1BC6"/>
	</linearGradient>
	<path class="st13" d="M383.56,4.92l-4.31,3.8c-1.51-2.11-3.05-3.16-4.62-3.16c-0.76,0-1.39,0.2-1.87,0.61
		c-0.49,0.41-0.73,0.87-0.73,1.38c0,0.51,0.17,1,0.52,1.45c0.47,0.61,1.89,1.92,4.27,3.93c2.22,1.86,3.57,3.03,4.04,3.51
		c1.18,1.19,2.02,2.33,2.51,3.42s0.74,2.27,0.74,3.56c0,2.51-0.87,4.58-2.6,6.21c-1.73,1.64-3.99,2.45-6.78,2.45
		c-2.18,0-4.07-0.53-5.69-1.6s-3-2.74-4.15-5.03l4.89-2.95c1.47,2.7,3.16,4.05,5.08,4.05c1,0,1.84-0.29,2.52-0.87
		c0.68-0.58,1.02-1.25,1.02-2.01c0-0.69-0.26-1.38-0.77-2.08s-1.64-1.75-3.39-3.18c-3.33-2.71-5.48-4.81-6.45-6.28
		c-0.97-1.47-1.46-2.95-1.46-4.41c0-2.12,0.81-3.94,2.42-5.45c1.61-1.52,3.61-2.27,5.98-2.27c1.52,0,2.98,0.35,4.36,1.06
		C380.46,1.77,381.95,3.05,383.56,4.92z"/>
</g>
</svg>
