<?xml version="1.0" encoding="utf-8"?>
<!-- Generator: Adobe Illustrator 23.0.2, SVG Export Plug-In . SVG Version: 6.00 Build 0)  -->
<svg version="1.1" id="Capa_1" xmlns="http://www.w3.org/2000/svg" xmlns:xlink="http://www.w3.org/1999/xlink" x="0px" y="0px"
	 viewBox="0 0 90.96 43.78" style="enable-background:new 0 0 90.96 43.78;" xml:space="preserve">
<style type="text/css">
	.st0{fill:#C5C5C5;}
</style>
<g>
	<g>
		<path class="st0" d="M17.14,9.97c-0.41,0.61-1.09,0.97-1.82,0.97H6.57c-1.21,0-2.19,0.98-2.19,2.19v24.08
			c0,1.21,0.98,2.19,2.19,2.19h39.4c1.21,0,2.19-0.98,2.19-2.19V13.13c0-1.21-0.98-2.19-2.19-2.19h-8.76
			c-0.73,0-1.42-0.37-1.82-0.97l-3.73-5.59H20.87L17.14,9.97z M45.97,6.57c3.63,0,6.57,2.94,6.57,6.57v24.08
			c0,3.63-2.94,6.57-6.57,6.57H6.57C2.94,43.78,0,40.84,0,37.21V13.13c0-3.63,2.94-6.57,6.57-6.57h7.58l3.73-5.59
			C18.28,0.37,18.97,0,19.7,0h13.13c0.73,0,1.42,0.37,1.82,0.97l3.73,5.59H45.97z M26.27,35.02c-6.04,0-10.94-4.9-10.94-10.94
			s4.9-10.94,10.94-10.94s10.94,4.9,10.94,10.94S32.31,35.02,26.27,35.02z M26.27,30.64c3.63,0,6.57-2.94,6.57-6.57
			s-2.94-6.57-6.57-6.57s-6.57,2.94-6.57,6.57S22.64,30.64,26.27,30.64z"/>
	</g>
	<g>
		
			<rect x="75.09" y="9.24" transform="matrix(6.123234e-17 -1 1 6.123234e-17 56.4288 100.2054)" class="st0" width="6.46" height="25.29"/>
		<rect x="75.09" y="9.24" class="st0" width="6.46" height="25.29"/>
	</g>
</g>
</svg>
