<?xml version="1.0" encoding="utf-8"?>
<!-- Generator: Adobe Illustrator 23.0.2, SVG Export Plug-In . SVG Version: 6.00 Build 0)  -->
<svg version="1.1" id="Capa_1" xmlns="http://www.w3.org/2000/svg" xmlns:xlink="http://www.w3.org/1999/xlink" x="0px" y="0px"
	 viewBox="0 0 339.95 139.43" style="enable-background:new 0 0 339.95 139.43;" xml:space="preserve">
<style type="text/css">
	.st0{fill:#D2007D;}
	.st1{fill:#FFFFFF;}
</style>
<rect class="st0" width="339.95" height="139.43"/>
<g>
	<path class="st1" d="M71.23,47h3.8v20.11h-3.8V47z"/>
	<path class="st1" d="M79.35,47h3.67l8.61,13.23V47h3.83v20.11h-3.68l-8.59-13.19v13.19h-3.83V47z"/>
	<path class="st1" d="M100.1,47h9.98v3.73h-6.18v3.65h6.18v3.68h-6.18v9.05h-3.8V47z"/>
	<path class="st1" d="M122.98,46.49c2.85,0,5.29,1.03,7.34,3.09s3.07,4.57,3.07,7.53c0,2.93-1.01,5.42-3.03,7.45
		c-2.02,2.03-4.47,3.05-7.35,3.05c-3.02,0-5.53-1.04-7.52-3.13c-2-2.09-3-4.57-3-7.44c0-1.92,0.46-3.69,1.4-5.3s2.21-2.89,3.84-3.83
		S121.1,46.49,122.98,46.49z M122.94,50.24c-1.86,0-3.43,0.65-4.69,1.94c-1.27,1.29-1.9,2.94-1.9,4.94c0,2.22,0.8,3.98,2.4,5.28
		c1.24,1.01,2.66,1.52,4.27,1.52c1.82,0,3.36-0.66,4.64-1.97s1.92-2.93,1.92-4.85c0-1.91-0.64-3.53-1.93-4.86
		C126.35,50.9,124.78,50.24,122.94,50.24z"/>
	<path class="st1" d="M137.26,47h4.06c2.22,0,3.8,0.2,4.75,0.59c0.94,0.4,1.7,1.05,2.27,1.98s0.86,2.01,0.86,3.27
		c0,1.32-0.32,2.43-0.95,3.32s-1.59,1.56-2.86,2.02l4.76,8.94h-4.18l-4.52-8.52h-0.35v8.52h-3.83V47z M141.09,54.86h1.2
		c1.22,0,2.06-0.16,2.51-0.48c0.46-0.32,0.69-0.85,0.69-1.59c0-0.44-0.11-0.82-0.34-1.15c-0.23-0.32-0.53-0.56-0.91-0.7
		s-1.08-0.21-2.1-0.21h-1.05V54.86z"/>
	<path class="st1" d="M155.19,47h3.73l4.66,14.03l4.7-14.03h3.73l3.37,20.11h-3.7l-2.16-12.7l-4.27,12.7h-3.37l-4.23-12.7
		l-2.21,12.7h-3.73L155.19,47z"/>
	<path class="st1" d="M184.58,47h3.88l7.74,20.11h-3.98l-1.57-4.14h-8.21l-1.64,4.14h-3.98L184.58,47z M186.54,52.33l-2.7,6.9h5.38
		L186.54,52.33z"/>
	<path class="st1" d="M217.64,50.53l-2.68,2.55c-1.82-1.92-3.87-2.89-6.15-2.89c-1.92,0-3.54,0.66-4.86,1.97
		c-1.32,1.31-1.97,2.93-1.97,4.86c0,1.34,0.29,2.53,0.87,3.57s1.41,1.86,2.47,2.45s2.25,0.89,3.55,0.89c1.11,0,2.13-0.21,3.05-0.62
		c0.92-0.42,1.93-1.17,3.03-2.26l2.6,2.71c-1.49,1.45-2.89,2.46-4.21,3.02s-2.83,0.84-4.53,0.84c-3.13,0-5.69-0.99-7.68-2.97
		c-1.99-1.98-2.99-4.52-2.99-7.62c0-2,0.45-3.79,1.36-5.35s2.21-2.81,3.9-3.76s3.51-1.42,5.46-1.42c1.66,0,3.26,0.35,4.79,1.05
		C215.2,48.24,216.53,49.24,217.64,50.53z"/>
	<path class="st1" d="M220.71,47h3.8v20.11h-3.8V47z"/>
	<path class="st1" d="M238.32,46.49c2.85,0,5.29,1.03,7.34,3.09s3.07,4.57,3.07,7.53c0,2.93-1.01,5.42-3.03,7.45
		c-2.02,2.03-4.47,3.05-7.35,3.05c-3.02,0-5.53-1.04-7.52-3.13c-2-2.09-3-4.57-3-7.44c0-1.92,0.46-3.69,1.4-5.3s2.21-2.89,3.84-3.83
		S236.44,46.49,238.32,46.49z M238.28,50.24c-1.86,0-3.43,0.65-4.69,1.94c-1.27,1.29-1.9,2.94-1.9,4.94c0,2.22,0.8,3.98,2.4,5.28
		c1.24,1.01,2.66,1.52,4.27,1.52c1.82,0,3.36-0.66,4.64-1.97s1.92-2.93,1.92-4.85c0-1.91-0.64-3.53-1.93-4.86
		C241.68,50.9,240.12,50.24,238.28,50.24z M238.98,40.08h4.42l-5,5.36h-2.68L238.98,40.08z"/>
	<path class="st1" d="M252.35,47h3.67l8.61,13.23V47h3.83v20.11h-3.68l-8.59-13.19v13.19h-3.83V47z"/>
	<path class="st1" d="M98.93,78h4.54c2.92,0,5.09,0.36,6.52,1.09s2.59,1.9,3.51,3.53s1.38,3.54,1.38,5.71
		c0,1.55-0.26,2.97-0.77,4.27c-0.51,1.3-1.23,2.38-2.13,3.23s-1.89,1.45-2.94,1.78s-2.89,0.49-5.49,0.49h-4.6V78z M102.73,81.69
		v12.69h1.78c1.75,0,3.02-0.2,3.81-0.6c0.79-0.4,1.43-1.08,1.93-2.03s0.75-2.12,0.75-3.5c0-2.13-0.6-3.79-1.79-4.97
		c-1.08-1.06-2.8-1.59-5.18-1.59H102.73z"/>
	<path class="st1" d="M118.54,78h10.98v3.75h-7.18v3.64h7.18v3.68h-7.18v5.29h7.18v3.76h-10.98V78z"/>
	<path class="st1" d="M140.93,78h10.98v3.75h-7.18v3.64h7.18v3.68h-7.18v5.29h7.18v3.76h-10.98V78z"/>
	<path class="st1" d="M153.95,78h3.94l5.06,14.29L168.08,78h3.93l-7.25,20.11h-3.69L153.95,78z"/>
	<path class="st1" d="M175.1,78h10.98v3.75h-7.18v3.64h7.18v3.68h-7.18v5.29h7.18v3.76H175.1V78z"/>
	<path class="st1" d="M189.66,78h3.67l8.61,13.23V78h3.83v20.11h-3.68l-8.59-13.19v13.19h-3.83V78z"/>
	<path class="st1" d="M208.38,78h11.12v3.77h-3.66v16.34h-3.88V81.77h-3.57V78z"/>
	<path class="st1" d="M231.61,77.49c2.85,0,5.29,1.03,7.34,3.09s3.07,4.57,3.07,7.53c0,2.93-1.01,5.42-3.03,7.45
		s-4.47,3.05-7.35,3.05c-3.02,0-5.53-1.04-7.52-3.13s-3-4.57-3-7.44c0-1.92,0.46-3.69,1.4-5.3s2.21-2.89,3.84-3.83
		S229.73,77.49,231.61,77.49z M231.57,81.24c-1.86,0-3.43,0.65-4.69,1.94c-1.27,1.29-1.9,2.94-1.9,4.94c0,2.22,0.8,3.98,2.4,5.28
		c1.24,1.01,2.66,1.52,4.27,1.52c1.82,0,3.36-0.66,4.64-1.97s1.92-2.93,1.92-4.85c0-1.91-0.64-3.53-1.93-4.86
		C234.98,81.9,233.41,81.24,231.57,81.24z"/>
</g>
</svg>
