<?xml version="1.0" encoding="utf-8"?>
<!-- Generator: Adobe Illustrator 23.0.2, SVG Export Plug-In . SVG Version: 6.00 Build 0)  -->
<svg version="1.1" id="Capa_1" xmlns="http://www.w3.org/2000/svg" xmlns:xlink="http://www.w3.org/1999/xlink" x="0px" y="0px"
	 viewBox="0 0 408.83 41.84" style="enable-background:new 0 0 408.83 41.84;" xml:space="preserve">
<style type="text/css">
	.st0{fill:url(#SVGID_1_);}
	.st1{fill:url(#SVGID_2_);}
	.st2{fill:url(#SVGID_3_);}
	.st3{fill:url(#SVGID_4_);}
	.st4{fill:url(#SVGID_5_);}
	.st5{fill:url(#SVGID_6_);}
	.st6{fill:url(#SVGID_7_);}
	.st7{fill:url(#SVGID_8_);}
	.st8{fill:url(#SVGID_9_);}
	.st9{fill:url(#SVGID_10_);}
	.st10{fill:url(#SVGID_11_);}
	.st11{fill:url(#SVGID_12_);}
	.st12{fill:url(#SVGID_13_);}
	.st13{fill:url(#SVGID_14_);}
	.st14{fill:url(#SVGID_15_);}
</style>
<g>
	<linearGradient id="SVGID_1_" gradientUnits="userSpaceOnUse" x1="-3.336" y1="25.791" x2="470.7211" y2="25.791">
		<stop  offset="0" style="stop-color:#FD933F"/>
		<stop  offset="0.6367" style="stop-color:#F92080"/>
		<stop  offset="1" style="stop-color:#AC1BC6"/>
	</linearGradient>
	<path class="st0" d="M0,10.51h6.17c3.34,0,5.74,0.31,7.22,0.92c1.47,0.62,2.64,1.61,3.49,2.99c0.85,1.38,1.28,3.03,1.28,4.95
		c0,2.13-0.56,3.91-1.67,5.32c-1.11,1.41-2.63,2.4-4.54,2.95c-1.12,0.32-3.16,0.48-6.13,0.48v12.94H0V10.51z M5.82,22.46h1.85
		c1.45,0,2.46-0.1,3.03-0.31c0.57-0.21,1.01-0.55,1.34-1.03s0.49-1.06,0.49-1.74c0-1.18-0.46-2.04-1.37-2.58
		c-0.67-0.4-1.9-0.6-3.7-0.6H5.82V22.46z"/>
	<linearGradient id="SVGID_2_" gradientUnits="userSpaceOnUse" x1="-3.336" y1="25.791" x2="470.7211" y2="25.791">
		<stop  offset="0" style="stop-color:#FD933F"/>
		<stop  offset="0.6367" style="stop-color:#F92080"/>
		<stop  offset="1" style="stop-color:#AC1BC6"/>
	</linearGradient>
	<path class="st1" d="M24.24,10.51h6.16c3.38,0,5.78,0.3,7.21,0.9s2.58,1.6,3.46,3c0.87,1.4,1.31,3.05,1.31,4.96
		c0,2.01-0.48,3.69-1.44,5.04c-0.96,1.35-2.41,2.37-4.35,3.06l7.24,13.59h-6.36l-6.87-12.94h-0.53v12.94h-5.82V10.51z M30.06,22.46
		h1.82c1.85,0,3.12-0.24,3.82-0.73s1.05-1.29,1.05-2.42c0-0.67-0.17-1.25-0.52-1.74c-0.35-0.49-0.81-0.85-1.39-1.06
		c-0.58-0.21-1.64-0.32-3.19-0.32h-1.59V22.46z"/>
	<linearGradient id="SVGID_3_" gradientUnits="userSpaceOnUse" x1="-3.336" y1="20.9194" x2="470.7211" y2="20.9194">
		<stop  offset="0" style="stop-color:#FD933F"/>
		<stop  offset="0.6367" style="stop-color:#F92080"/>
		<stop  offset="1" style="stop-color:#AC1BC6"/>
	</linearGradient>
	<path class="st2" d="M62.96,9.74c4.32,0,8.04,1.57,11.15,4.7s4.67,6.95,4.67,11.45c0,4.46-1.54,8.23-4.61,11.32
		c-3.07,3.09-6.79,4.63-11.17,4.63c-4.59,0-8.4-1.59-11.43-4.76c-3.04-3.17-4.55-6.94-4.55-11.3c0-2.92,0.71-5.61,2.12-8.06
		c1.41-2.45,3.36-4.39,5.83-5.83C57.44,10.46,60.1,9.74,62.96,9.74z M62.89,15.44c-2.83,0-5.21,0.98-7.13,2.95
		c-1.93,1.97-2.89,4.47-2.89,7.5c0,3.38,1.21,6.05,3.64,8.02c1.89,1.54,4.05,2.31,6.49,2.31c2.76,0,5.11-1,7.05-2.99
		s2.91-4.45,2.91-7.38c0-2.91-0.98-5.37-2.93-7.38C68.07,16.44,65.69,15.44,62.89,15.44z M63.96,0h6.71l-7.6,8.14H59L63.96,0z"/>
	<linearGradient id="SVGID_4_" gradientUnits="userSpaceOnUse" x1="-3.336" y1="25.791" x2="470.7211" y2="25.791">
		<stop  offset="0" style="stop-color:#FD933F"/>
		<stop  offset="0.6367" style="stop-color:#F92080"/>
		<stop  offset="1" style="stop-color:#AC1BC6"/>
	</linearGradient>
	<path class="st3" d="M82.28,10.51h6.54l6.42,9.81l6.44-9.81h6.54l-9.7,14.82l10.31,15.74h-6.54l-7.03-10.74l-7.03,10.74h-6.58
		l10.33-15.75L82.28,10.51z"/>
	<linearGradient id="SVGID_5_" gradientUnits="userSpaceOnUse" x1="-3.336" y1="25.791" x2="470.7211" y2="25.791">
		<stop  offset="0" style="stop-color:#FD933F"/>
		<stop  offset="0.6367" style="stop-color:#F92080"/>
		<stop  offset="1" style="stop-color:#AC1BC6"/>
	</linearGradient>
	<path class="st4" d="M112.78,10.51h5.78v30.56h-5.78V10.51z"/>
	<linearGradient id="SVGID_6_" gradientUnits="userSpaceOnUse" x1="-3.336" y1="25.791" x2="470.7211" y2="25.791">
		<stop  offset="0" style="stop-color:#FD933F"/>
		<stop  offset="0.6367" style="stop-color:#F92080"/>
		<stop  offset="1" style="stop-color:#AC1BC6"/>
	</linearGradient>
	<path class="st5" d="M128.06,10.51h5.67l7.08,21.31l7.15-21.31h5.66l5.13,30.56h-5.62l-3.28-19.3l-6.49,19.3h-5.13l-6.43-19.3
		l-3.35,19.3h-5.67L128.06,10.51z"/>
	<linearGradient id="SVGID_7_" gradientUnits="userSpaceOnUse" x1="-3.336" y1="25.791" x2="470.7211" y2="25.791">
		<stop  offset="0" style="stop-color:#FD933F"/>
		<stop  offset="0.6367" style="stop-color:#F92080"/>
		<stop  offset="1" style="stop-color:#AC1BC6"/>
	</linearGradient>
	<path class="st6" d="M177.82,9.74c4.32,0,8.04,1.57,11.15,4.7s4.67,6.95,4.67,11.45c0,4.46-1.54,8.23-4.61,11.32
		c-3.07,3.09-6.79,4.63-11.17,4.63c-4.59,0-8.4-1.59-11.43-4.76c-3.04-3.17-4.55-6.94-4.55-11.3c0-2.92,0.71-5.61,2.12-8.06
		c1.41-2.45,3.36-4.39,5.83-5.83C172.3,10.46,174.96,9.74,177.82,9.74z M177.75,15.44c-2.83,0-5.21,0.98-7.13,2.95
		c-1.93,1.97-2.89,4.47-2.89,7.5c0,3.38,1.21,6.05,3.64,8.02c1.89,1.54,4.05,2.31,6.49,2.31c2.76,0,5.11-1,7.05-2.99
		s2.91-4.45,2.91-7.38c0-2.91-0.98-5.37-2.93-7.38C182.93,16.44,180.55,15.44,177.75,15.44z"/>
	<linearGradient id="SVGID_8_" gradientUnits="userSpaceOnUse" x1="-3.336" y1="25.791" x2="470.7211" y2="25.791">
		<stop  offset="0" style="stop-color:#FD933F"/>
		<stop  offset="0.6367" style="stop-color:#F92080"/>
		<stop  offset="1" style="stop-color:#AC1BC6"/>
	</linearGradient>
	<path class="st7" d="M215.16,14.67l-4.31,3.8c-1.51-2.1-3.05-3.16-4.62-3.16c-0.76,0-1.39,0.2-1.87,0.61
		c-0.49,0.41-0.73,0.87-0.73,1.38c0,0.51,0.17,1,0.52,1.45c0.47,0.61,1.89,1.92,4.27,3.93c2.22,1.86,3.57,3.03,4.04,3.51
		c1.18,1.19,2.01,2.33,2.51,3.42c0.49,1.09,0.74,2.28,0.74,3.56c0,2.51-0.87,4.58-2.6,6.21c-1.73,1.63-3.99,2.45-6.78,2.45
		c-2.18,0-4.07-0.53-5.69-1.6s-3-2.74-4.15-5.03l4.89-2.95c1.47,2.7,3.16,4.05,5.08,4.05c1,0,1.84-0.29,2.52-0.87
		s1.02-1.25,1.02-2.01c0-0.69-0.26-1.38-0.77-2.08c-0.51-0.69-1.64-1.75-3.39-3.18c-3.33-2.71-5.48-4.81-6.45-6.28
		c-0.97-1.48-1.46-2.95-1.46-4.42c0-2.12,0.81-3.94,2.42-5.45s3.61-2.27,5.98-2.27c1.53,0,2.98,0.35,4.36,1.06
		C212.05,11.51,213.55,12.8,215.16,14.67z"/>
	<linearGradient id="SVGID_9_" gradientUnits="userSpaceOnUse" x1="-3.336" y1="25.791" x2="470.7211" y2="25.791">
		<stop  offset="0" style="stop-color:#FD933F"/>
		<stop  offset="0.6367" style="stop-color:#F92080"/>
		<stop  offset="1" style="stop-color:#AC1BC6"/>
	</linearGradient>
	<path class="st8" d="M233.17,10.51h16.68v5.69h-10.91v5.53h10.91v5.59h-10.91v8.04h10.91v5.71h-16.68V10.51z"/>
	<linearGradient id="SVGID_10_" gradientUnits="userSpaceOnUse" x1="-3.336" y1="25.791" x2="470.7211" y2="25.791">
		<stop  offset="0" style="stop-color:#FD933F"/>
		<stop  offset="0.6367" style="stop-color:#F92080"/>
		<stop  offset="1" style="stop-color:#AC1BC6"/>
	</linearGradient>
	<path class="st9" d="M252.95,10.51h5.98l7.69,21.71l7.8-21.71h5.97l-11.01,30.56h-5.61L252.95,10.51z"/>
	<linearGradient id="SVGID_11_" gradientUnits="userSpaceOnUse" x1="-3.336" y1="25.791" x2="470.7211" y2="25.791">
		<stop  offset="0" style="stop-color:#FD933F"/>
		<stop  offset="0.6367" style="stop-color:#F92080"/>
		<stop  offset="1" style="stop-color:#AC1BC6"/>
	</linearGradient>
	<path class="st10" d="M285.08,10.51h16.68v5.69h-10.91v5.53h10.91v5.59h-10.91v8.04h10.91v5.71h-16.68V10.51z"/>
	<linearGradient id="SVGID_12_" gradientUnits="userSpaceOnUse" x1="-3.336" y1="25.791" x2="470.7211" y2="25.791">
		<stop  offset="0" style="stop-color:#FD933F"/>
		<stop  offset="0.6367" style="stop-color:#F92080"/>
		<stop  offset="1" style="stop-color:#AC1BC6"/>
	</linearGradient>
	<path class="st11" d="M307.21,10.51h5.58l13.08,20.11V10.51h5.82v30.56h-5.6l-13.06-20.05v20.05h-5.82V10.51z"/>
	<linearGradient id="SVGID_13_" gradientUnits="userSpaceOnUse" x1="-3.336" y1="25.791" x2="470.7211" y2="25.791">
		<stop  offset="0" style="stop-color:#FD933F"/>
		<stop  offset="0.6367" style="stop-color:#F92080"/>
		<stop  offset="1" style="stop-color:#AC1BC6"/>
	</linearGradient>
	<path class="st12" d="M335.65,10.51h16.89v5.73h-5.57v24.83h-5.9V16.25h-5.42V10.51z"/>
	<linearGradient id="SVGID_14_" gradientUnits="userSpaceOnUse" x1="-3.336" y1="25.791" x2="470.7211" y2="25.791">
		<stop  offset="0" style="stop-color:#FD933F"/>
		<stop  offset="0.6367" style="stop-color:#F92080"/>
		<stop  offset="1" style="stop-color:#AC1BC6"/>
	</linearGradient>
	<path class="st13" d="M370.95,9.74c4.32,0,8.04,1.57,11.15,4.7s4.67,6.95,4.67,11.45c0,4.46-1.54,8.23-4.61,11.32
		c-3.07,3.09-6.79,4.63-11.17,4.63c-4.59,0-8.4-1.59-11.43-4.76c-3.04-3.17-4.55-6.94-4.55-11.3c0-2.92,0.71-5.61,2.12-8.06
		c1.41-2.45,3.36-4.39,5.83-5.83C365.43,10.46,368.1,9.74,370.95,9.74z M370.89,15.44c-2.83,0-5.21,0.98-7.13,2.95
		c-1.93,1.97-2.89,4.47-2.89,7.5c0,3.38,1.21,6.05,3.64,8.02c1.89,1.54,4.05,2.31,6.49,2.31c2.76,0,5.11-1,7.05-2.99
		s2.91-4.45,2.91-7.38c0-2.91-0.98-5.37-2.93-7.38C376.07,16.44,373.69,15.44,370.89,15.44z"/>
	<linearGradient id="SVGID_15_" gradientUnits="userSpaceOnUse" x1="-3.336" y1="25.791" x2="470.7211" y2="25.791">
		<stop  offset="0" style="stop-color:#FD933F"/>
		<stop  offset="0.6367" style="stop-color:#F92080"/>
		<stop  offset="1" style="stop-color:#AC1BC6"/>
	</linearGradient>
	<path class="st14" d="M408.29,14.67l-4.31,3.8c-1.51-2.1-3.05-3.16-4.62-3.16c-0.76,0-1.39,0.2-1.87,0.61
		c-0.49,0.41-0.73,0.87-0.73,1.38c0,0.51,0.17,1,0.52,1.45c0.47,0.61,1.89,1.92,4.27,3.93c2.22,1.86,3.57,3.03,4.04,3.51
		c1.18,1.19,2.01,2.33,2.51,3.42c0.49,1.09,0.74,2.28,0.74,3.56c0,2.51-0.87,4.58-2.6,6.21c-1.73,1.63-3.99,2.45-6.78,2.45
		c-2.18,0-4.07-0.53-5.69-1.6s-3-2.74-4.15-5.03l4.89-2.95c1.47,2.7,3.16,4.05,5.08,4.05c1,0,1.84-0.29,2.52-0.87
		s1.02-1.25,1.02-2.01c0-0.69-0.26-1.38-0.77-2.08c-0.51-0.69-1.64-1.75-3.39-3.18c-3.33-2.71-5.48-4.81-6.45-6.28
		c-0.97-1.48-1.46-2.95-1.46-4.42c0-2.12,0.81-3.94,2.42-5.45s3.61-2.27,5.98-2.27c1.53,0,2.98,0.35,4.36,1.06
		C405.19,11.51,406.68,12.8,408.29,14.67z"/>
</g>
</svg>
