<?xml version="1.0" encoding="utf-8"?>
<!-- Generator: Adobe Illustrator 23.0.2, SVG Export Plug-In . SVG Version: 6.00 Build 0)  -->
<svg version="1.1" id="Capa_1" xmlns="http://www.w3.org/2000/svg" xmlns:xlink="http://www.w3.org/1999/xlink" x="0px" y="0px"
	 viewBox="0 0 119.09 87.14" style="enable-background:new 0 0 119.09 87.14;" xml:space="preserve">
<style type="text/css">
	.st0{fill:#3C3C3B;}
</style>
<g transform="translate(0,-952.36218)">
	<g>
		<path class="st0" d="M24.69,952.36C11.06,952.36,0,963.42,0,977.05v37.76c0,13.63,11.06,24.69,24.69,24.69H94.4
			c13.63,0,24.69-11.06,24.69-24.69v-37.76c0-13.63-11.06-24.69-24.69-24.69H24.69z M24.69,958.17H94.4
			c10.51,0,18.88,8.37,18.88,18.88v37.76c0,10.51-8.37,18.88-18.88,18.88H24.69c-10.51,0-18.88-8.37-18.88-18.88v-37.76
			C5.81,966.54,14.18,958.17,24.69,958.17z M49.15,975.6c-1.51,0.12-2.68,1.39-2.68,2.9v34.86c-0.01,1.5,1.14,2.76,2.63,2.9
			c0.58,0.06,1.16-0.05,1.68-0.32l31.95-17.43c1.42-0.75,1.95-2.51,1.2-3.93c-0.27-0.51-0.69-0.93-1.2-1.2l-31.95-17.43
			C50.29,975.68,49.72,975.56,49.15,975.6z M52.28,983.45l22.92,12.48l-22.92,12.53V983.45z"/>
	</g>
</g>
</svg>
