<?xml version="1.0" encoding="utf-8"?>
<!-- Generator: Adobe Illustrator 23.0.2, SVG Export Plug-In . SVG Version: 6.00 Build 0)  -->
<svg version="1.1" id="Capa_1" xmlns="http://www.w3.org/2000/svg" xmlns:xlink="http://www.w3.org/1999/xlink" x="0px" y="0px"
	 viewBox="0 0 32.22 32.39" style="enable-background:new 0 0 32.22 32.39;" xml:space="preserve">
<style type="text/css">
	.st0{fill-rule:evenodd;clip-rule:evenodd;fill:#B1B1B1;}
</style>
<g>
	<path class="st0" d="M31.78,12.41C30.03,5.09,23.72,0.1,16.11,0c-1,0.05-2.09,0.12-3.07,0.31C2.35,2.46-3.14,14.24,2.02,23.73
		c0.18,0.27,0.18,0.51,0.15,0.8C1.42,27,0.73,29.52,0.06,32.01c-0.11,0.43-0.11,0.43,0.3,0.32c2.61-0.72,5.19-1.38,7.79-2.02
		c0.23-0.07,0.39-0.07,0.58,0.03c3.34,1.7,6.86,2.18,10.56,1.49C28.11,30.13,33.89,21.13,31.78,12.41z M18.37,29.25
		c-0.77,0.14-1.49,0.21-1.85,0.16c-2.84,0-5.13-0.64-7.25-1.86c-0.3-0.19-0.53-0.23-0.82-0.12c-1.45,0.35-2.87,0.74-4.31,1.11
		c-0.3,0.09-0.33,0.03-0.26-0.26c0.38-1.33,0.74-2.69,1.16-4.07c0.09-0.37,0.07-0.66-0.17-0.95C1.95,18.51,2.08,12.68,5.34,8.27
		c3.39-4.53,8.06-6.42,13.6-5.22c5.46,1.15,8.96,4.69,10.21,10.14C30.91,20.64,25.88,28.03,18.37,29.25z"/>
	<path class="st0" d="M20.31,23.73c-0.56,0.06-1.13-0.05-1.67-0.21c-3.68-1.08-6.46-3.34-8.7-6.39c-0.83-1.13-1.63-2.35-1.87-3.8
		c-0.34-1.66,0.18-3.15,1.45-4.29c0.42-0.41,1.64-0.59,2.14-0.32c0.16,0.14,0.25,0.26,0.36,0.42c0.46,1.15,0.94,2.21,1.4,3.29
		c0.07,0.25,0.06,0.46-0.07,0.69c-0.25,0.51-0.62,0.9-0.99,1.33c-0.31,0.26-0.31,0.55-0.1,0.87c1.32,2.21,3.1,3.8,5.49,4.72
		c0.35,0.14,0.61,0.09,0.83-0.18c0.41-0.48,0.82-1.01,1.2-1.52c0.23-0.31,0.55-0.37,0.89-0.21c0.79,0.34,1.56,0.71,2.32,1.06
		c0.21,0.11,0.36,0.18,0.54,0.27c0.79,0.39,0.79,0.44,0.7,1.29c-0.1,1.68-1.39,2.53-2.87,2.94C20.98,23.79,20.66,23.79,20.31,23.73z
		"/>
</g>
</svg>
