<?xml version="1.0" encoding="utf-8"?>
<!-- Generator: Adobe Illustrator 23.0.2, SVG Export Plug-In . SVG Version: 6.00 Build 0)  -->
<svg version="1.1" id="Capa_1" xmlns="http://www.w3.org/2000/svg" xmlns:xlink="http://www.w3.org/1999/xlink" x="0px" y="0px"
	 viewBox="0 0 352.1 57.34" style="enable-background:new 0 0 352.1 57.34;" xml:space="preserve">
<style type="text/css">
	.st0{fill:#858686;}
	.st1{fill:#FFFFFF;}
</style>
<path class="st0" d="M323.43,57.34H28.67C12.84,57.34,0,44.51,0,28.67l0,0C0,12.84,12.84,0,28.67,0h294.76
	c15.83,0,28.67,12.84,28.67,28.67l0,0C352.1,44.51,339.26,57.34,323.43,57.34z"/>
<g>
	<g>
		<path class="st1" d="M132.45,23.11l-1.95,1.86c-1.33-1.4-2.82-2.1-4.48-2.1c-1.4,0-2.58,0.48-3.54,1.44
			c-0.96,0.96-1.44,2.14-1.44,3.54c0,0.98,0.21,1.84,0.64,2.6s1.03,1.35,1.8,1.79c0.78,0.43,1.64,0.65,2.59,0.65
			c0.81,0,1.55-0.15,2.22-0.45s1.41-0.85,2.21-1.65l1.89,1.97c-1.08,1.06-2.11,1.79-3.07,2.2s-2.06,0.61-3.3,0.61
			c-2.28,0-4.14-0.72-5.59-2.17c-1.45-1.44-2.18-3.3-2.18-5.55c0-1.46,0.33-2.76,0.99-3.89c0.66-1.14,1.61-2.05,2.84-2.74
			c1.23-0.69,2.56-1.04,3.98-1.04c1.21,0,2.37,0.26,3.49,0.77C130.68,21.44,131.64,22.17,132.45,23.11z"/>
		<path class="st1" d="M141.81,20.17c2.07,0,3.86,0.75,5.35,2.25c1.49,1.5,2.24,3.33,2.24,5.49c0,2.14-0.74,3.95-2.21,5.43
			c-1.47,1.48-3.26,2.22-5.36,2.22c-2.2,0-4.03-0.76-5.48-2.28c-1.46-1.52-2.18-3.33-2.18-5.42c0-1.4,0.34-2.69,1.02-3.87
			c0.68-1.17,1.61-2.11,2.8-2.79C139.16,20.51,140.44,20.17,141.81,20.17z M141.78,22.89c-1.36,0-2.5,0.47-3.42,1.42
			c-0.92,0.94-1.39,2.14-1.39,3.6c0,1.62,0.58,2.9,1.75,3.84c0.9,0.74,1.94,1.11,3.11,1.11c1.32,0,2.45-0.48,3.38-1.43
			c0.93-0.96,1.4-2.13,1.4-3.54c0-1.39-0.47-2.57-1.41-3.54C144.26,23.38,143.12,22.89,141.78,22.89z"/>
		<path class="st1" d="M152.03,20.53h2.67l6.27,9.64v-9.64h2.79v14.65h-2.68l-6.26-9.61v9.61h-2.79V20.53z"/>
		<path class="st1" d="M165.67,20.53h8.1v2.75h-2.67v11.9h-2.83v-11.9h-2.6V20.53z"/>
		<path class="st1" d="M175.48,20.53h2.77v14.65h-2.77V20.53z"/>
		<path class="st1" d="M181.4,20.53h2.67l6.27,9.64v-9.64h2.79v14.65h-2.68l-6.26-9.61v9.61h-2.79V20.53z"/>
		<path class="st1" d="M196.38,20.53h2.8v9.47c0,0.82,0.07,1.39,0.21,1.73c0.14,0.34,0.38,0.61,0.71,0.81
			c0.33,0.2,0.73,0.3,1.19,0.3c0.49,0,0.92-0.11,1.27-0.34c0.35-0.23,0.6-0.51,0.74-0.86c0.14-0.35,0.2-1.01,0.2-2v-9.13h2.8v8.74
			c0,1.47-0.08,2.5-0.25,3.07c-0.17,0.57-0.48,1.12-0.95,1.65c-0.47,0.53-1.01,0.92-1.62,1.18c-0.61,0.25-1.32,0.38-2.13,0.38
			c-1.06,0-1.99-0.24-2.77-0.73c-0.79-0.49-1.35-1.1-1.69-1.83s-0.51-1.97-0.51-3.72V20.53z"/>
		<path class="st1" d="M214.01,20.53h2.83l5.64,14.65h-2.9l-1.15-3.02h-5.98l-1.19,3.02h-2.9L214.01,20.53z M215.44,24.42
			l-1.97,5.03h3.92L215.44,24.42z"/>
		<path class="st1" d="M224.82,20.53h2.96c1.62,0,2.77,0.14,3.46,0.43c0.69,0.29,1.24,0.77,1.66,1.44c0.42,0.67,0.63,1.46,0.63,2.38
			c0,0.96-0.23,1.77-0.69,2.42c-0.46,0.65-1.16,1.14-2.09,1.47l3.47,6.51h-3.05l-3.29-6.21h-0.26v6.21h-2.79V20.53z M227.61,26.26
			h0.87c0.89,0,1.5-0.12,1.83-0.35c0.33-0.23,0.5-0.62,0.5-1.16c0-0.32-0.08-0.6-0.25-0.83c-0.17-0.24-0.39-0.41-0.67-0.51
			c-0.28-0.1-0.79-0.16-1.53-0.16h-0.76V26.26z"/>
	</g>
</g>
</svg>
