<?xml version="1.0" encoding="utf-8"?>
<!-- Generator: Adobe Illustrator 23.0.2, SVG Export Plug-In . SVG Version: 6.00 Build 0)  -->
<svg version="1.1" id="Capa_1" xmlns="http://www.w3.org/2000/svg" xmlns:xlink="http://www.w3.org/1999/xlink" x="0px" y="0px"
	 viewBox="0 0 92.18 92.17" style="enable-background:new 0 0 92.18 92.17;" xml:space="preserve">
<style type="text/css">
	.st0{fill:url(#SVGID_1_);}
	.st1{fill:url(#SVGID_2_);}
	.st2{fill:#FFFFFF;}
</style>
<g>
	<g>
		<g>
			<linearGradient id="SVGID_1_" gradientUnits="userSpaceOnUse" x1="9.2943" y1="46.0873" x2="462.019" y2="46.0873">
				<stop  offset="0" style="stop-color:#FD933F"/>
				<stop  offset="0.6367" style="stop-color:#F92080"/>
				<stop  offset="1" style="stop-color:#AC1BC6"/>
			</linearGradient>
			<circle class="st0" cx="46.09" cy="46.09" r="37.19"/>
		</g>
		<g>
			<linearGradient id="SVGID_2_" gradientUnits="userSpaceOnUse" x1="9.2943" y1="46.0873" x2="462.019" y2="46.0873">
				<stop  offset="0" style="stop-color:#FD933F"/>
				<stop  offset="0.6367" style="stop-color:#F92080"/>
				<stop  offset="1" style="stop-color:#AC1BC6"/>
			</linearGradient>
			<path class="st1" d="M46.09,92.17C20.67,92.17,0,71.5,0,46.09C0,20.67,20.67,0,46.09,0s46.09,20.67,46.09,46.09
				C92.18,71.5,71.5,92.17,46.09,92.17z M46.09,2.56c-24,0-43.53,19.53-43.53,43.53c0,24,19.53,43.53,43.53,43.53
				s43.53-19.53,43.53-43.53C89.61,22.09,70.09,2.56,46.09,2.56z"/>
		</g>
	</g>
	<g>
		<g>
			<g>
				<path class="st2" d="M56.5,38.2l-0.82,7.91h-6.27c0,10.03,0,22.38,0,22.38H40.1c0,0,0-12.23,0-22.38h-4.42V38.2h4.42v-5.12
					c0-3.66,1.74-9.39,9.39-9.39l6.89,0.02v7.68c0,0-4.19,0-5,0c-0.82,0-1.98,0.41-1.98,2.16v4.65H56.5z"/>
			</g>
		</g>
	</g>
</g>
</svg>
