<?xml version="1.0" encoding="utf-8"?>
<!-- Generator: Adobe Illustrator 23.0.2, SVG Export Plug-In . SVG Version: 6.00 Build 0)  -->
<svg version="1.1" id="Capa_1" xmlns="http://www.w3.org/2000/svg" xmlns:xlink="http://www.w3.org/1999/xlink" x="0px" y="0px"
	 viewBox="0 0 352.1 57.34" style="enable-background:new 0 0 352.1 57.34;" xml:space="preserve">
<style type="text/css">
	.st0{fill:#E8007E;}
	.st1{fill:#FFFFFF;}
</style>
<path class="st0" d="M323.43,57.34H28.67C12.84,57.34,0,44.51,0,28.67l0,0C0,12.84,12.84,0,28.67,0h294.76
	c15.83,0,28.67,12.84,28.67,28.67l0,0C352.1,44.51,339.26,57.34,323.43,57.34z"/>
<g>
	<g>
		<path class="st1" d="M129.02,20.53h7.27v2.72h-4.5v2.66h4.5v2.68h-4.5v6.59h-2.77V20.53z"/>
		<path class="st1" d="M138.57,20.53h2.77v14.65h-2.77V20.53z"/>
		<path class="st1" d="M144.49,20.53h2.67l6.27,9.64v-9.64h2.79v14.65h-2.68l-6.26-9.61v9.61h-2.79V20.53z"/>
		<path class="st1" d="M164.04,20.53h2.83l5.64,14.65h-2.9l-1.15-3.02h-5.98l-1.19,3.02h-2.9L164.04,20.53z M165.47,24.42
			l-1.97,5.03h3.92L165.47,24.42z"/>
		<path class="st1" d="M174.66,20.53h2.79v11.99h4.06v2.66h-6.85V20.53z"/>
		<path class="st1" d="M183.43,20.53h2.77v14.65h-2.77V20.53z"/>
		<path class="st1" d="M188.56,20.53h8.87l-5.22,11.97h4.88v2.68h-8.96l5.19-11.89h-4.76V20.53z"/>
		<path class="st1" d="M204.01,20.53h2.83l5.64,14.65h-2.9l-1.15-3.02h-5.98l-1.19,3.02h-2.9L204.01,20.53z M205.44,24.42
			l-1.97,5.03h3.92L205.44,24.42z"/>
		<path class="st1" d="M214.82,20.53h2.96c1.62,0,2.77,0.14,3.46,0.43c0.69,0.29,1.24,0.77,1.66,1.44c0.42,0.67,0.63,1.46,0.63,2.38
			c0,0.96-0.23,1.77-0.69,2.42c-0.46,0.65-1.16,1.14-2.09,1.47l3.47,6.51h-3.05l-3.29-6.21h-0.26v6.21h-2.79V20.53z M217.61,26.26
			h0.87c0.89,0,1.5-0.12,1.83-0.35c0.33-0.23,0.5-0.62,0.5-1.16c0-0.32-0.08-0.6-0.25-0.83c-0.17-0.24-0.39-0.41-0.67-0.51
			c-0.28-0.1-0.79-0.16-1.53-0.16h-0.76V26.26z"/>
	</g>
</g>
</svg>
