<?xml version="1.0" encoding="utf-8"?>
<!-- Generator: Adobe Illustrator 23.0.2, SVG Export Plug-In . SVG Version: 6.00 Build 0)  -->
<svg version="1.1" id="Capa_1" xmlns="http://www.w3.org/2000/svg" xmlns:xlink="http://www.w3.org/1999/xlink" x="0px" y="0px"
	 viewBox="0 0 713.6 977.33" style="enable-background:new 0 0 713.6 977.33;" xml:space="preserve">
<style type="text/css">
	.st0{fill:#F6F7F7;}
	.st1{fill:url(#SVGID_1_);}
	.st2{clip-path:url(#SVGID_3_);fill:#FD933F;}
	.st3{clip-path:url(#SVGID_3_);fill:#FD9240;}
	.st4{clip-path:url(#SVGID_3_);fill:#FD9140;}
	.st5{clip-path:url(#SVGID_3_);fill:#FD9041;}
	.st6{clip-path:url(#SVGID_3_);fill:#FD8F41;}
	.st7{clip-path:url(#SVGID_3_);fill:#FD8E42;}
	.st8{clip-path:url(#SVGID_3_);fill:#FD8D42;}
	.st9{clip-path:url(#SVGID_3_);fill:#FD8C43;}
	.st10{clip-path:url(#SVGID_3_);fill:#FD8B44;}
	.st11{clip-path:url(#SVGID_3_);fill:#FD8A44;}
	.st12{clip-path:url(#SVGID_3_);fill:#FD8945;}
	.st13{clip-path:url(#SVGID_3_);fill:#FD8845;}
	.st14{clip-path:url(#SVGID_3_);fill:#FD8746;}
	.st15{clip-path:url(#SVGID_3_);fill:#FD8646;}
	.st16{clip-path:url(#SVGID_3_);fill:#FD8547;}
	.st17{clip-path:url(#SVGID_3_);fill:#FC8448;}
	.st18{clip-path:url(#SVGID_3_);fill:#FC8348;}
	.st19{clip-path:url(#SVGID_3_);fill:#FC8249;}
	.st20{clip-path:url(#SVGID_3_);fill:#FC8149;}
	.st21{clip-path:url(#SVGID_3_);fill:#FC804A;}
	.st22{clip-path:url(#SVGID_3_);fill:#FC7F4A;}
	.st23{clip-path:url(#SVGID_3_);fill:#FC7E4B;}
	.st24{clip-path:url(#SVGID_3_);fill:#FC7D4C;}
	.st25{clip-path:url(#SVGID_3_);fill:#FC7C4C;}
	.st26{clip-path:url(#SVGID_3_);fill:#FC7B4D;}
	.st27{clip-path:url(#SVGID_3_);fill:#FC7A4D;}
	.st28{clip-path:url(#SVGID_3_);fill:#FC794E;}
	.st29{clip-path:url(#SVGID_3_);fill:#FC784E;}
	.st30{clip-path:url(#SVGID_3_);fill:#FC774F;}
	.st31{clip-path:url(#SVGID_3_);fill:#FC7650;}
	.st32{clip-path:url(#SVGID_3_);fill:#FC7550;}
	.st33{clip-path:url(#SVGID_3_);fill:#FC7451;}
	.st34{clip-path:url(#SVGID_3_);fill:#FC7351;}
	.st35{clip-path:url(#SVGID_3_);fill:#FC7252;}
	.st36{clip-path:url(#SVGID_3_);fill:#FC7152;}
	.st37{clip-path:url(#SVGID_3_);fill:#FC7053;}
	.st38{clip-path:url(#SVGID_3_);fill:#FC6F54;}
	.st39{clip-path:url(#SVGID_3_);fill:#FC6E54;}
	.st40{clip-path:url(#SVGID_3_);fill:#FC6D55;}
	.st41{clip-path:url(#SVGID_3_);fill:#FC6C55;}
	.st42{clip-path:url(#SVGID_3_);fill:#FC6B56;}
	.st43{clip-path:url(#SVGID_3_);fill:#FC6A56;}
	.st44{clip-path:url(#SVGID_3_);fill:#FC6957;}
	.st45{clip-path:url(#SVGID_3_);fill:#FB6858;}
	.st46{clip-path:url(#SVGID_3_);fill:#FB6758;}
	.st47{clip-path:url(#SVGID_3_);fill:#FB6659;}
	.st48{clip-path:url(#SVGID_3_);fill:#FB6559;}
	.st49{clip-path:url(#SVGID_3_);fill:#FB645A;}
	.st50{clip-path:url(#SVGID_3_);fill:#FB635A;}
	.st51{clip-path:url(#SVGID_3_);fill:#FB625B;}
	.st52{clip-path:url(#SVGID_3_);fill:#FB615C;}
	.st53{clip-path:url(#SVGID_3_);fill:#FB605C;}
	.st54{clip-path:url(#SVGID_3_);fill:#FB5F5D;}
	.st55{clip-path:url(#SVGID_3_);fill:#FB5E5D;}
	.st56{clip-path:url(#SVGID_3_);fill:#FB5D5E;}
	.st57{clip-path:url(#SVGID_3_);fill:#FB5C5E;}
	.st58{clip-path:url(#SVGID_3_);fill:#FB5B5F;}
	.st59{clip-path:url(#SVGID_3_);fill:#FB5A60;}
	.st60{clip-path:url(#SVGID_3_);fill:#FB5860;}
	.st61{clip-path:url(#SVGID_3_);fill:#FB5761;}
	.st62{clip-path:url(#SVGID_3_);fill:#FB5661;}
	.st63{clip-path:url(#SVGID_3_);fill:#FB5562;}
	.st64{clip-path:url(#SVGID_3_);fill:#FB5462;}
	.st65{clip-path:url(#SVGID_3_);fill:#FB5363;}
	.st66{clip-path:url(#SVGID_3_);fill:#FB5263;}
	.st67{clip-path:url(#SVGID_3_);fill:#FB5164;}
	.st68{clip-path:url(#SVGID_3_);fill:#FB5065;}
	.st69{clip-path:url(#SVGID_3_);fill:#FB4F65;}
	.st70{clip-path:url(#SVGID_3_);fill:#FB4E66;}
	.st71{clip-path:url(#SVGID_3_);fill:#FB4D66;}
	.st72{clip-path:url(#SVGID_3_);fill:#FB4C67;}
	.st73{clip-path:url(#SVGID_3_);fill:#FB4B67;}
	.st74{clip-path:url(#SVGID_3_);fill:#FA4A68;}
	.st75{clip-path:url(#SVGID_3_);fill:#FA4969;}
	.st76{clip-path:url(#SVGID_3_);fill:#FA4869;}
	.st77{clip-path:url(#SVGID_3_);fill:#FA476A;}
	.st78{clip-path:url(#SVGID_3_);fill:#FA466A;}
	.st79{clip-path:url(#SVGID_3_);fill:#FA456B;}
	.st80{clip-path:url(#SVGID_3_);fill:#FA446B;}
	.st81{clip-path:url(#SVGID_3_);fill:#FA436C;}
	.st82{clip-path:url(#SVGID_3_);fill:#FA426D;}
	.st83{clip-path:url(#SVGID_3_);fill:#FA416D;}
	.st84{clip-path:url(#SVGID_3_);fill:#FA406E;}
	.st85{clip-path:url(#SVGID_3_);fill:#FA3F6E;}
	.st86{clip-path:url(#SVGID_3_);fill:#FA3E6F;}
	.st87{clip-path:url(#SVGID_3_);fill:#FA3D6F;}
	.st88{clip-path:url(#SVGID_3_);fill:#FA3C70;}
	.st89{clip-path:url(#SVGID_3_);fill:#FA3B71;}
	.st90{clip-path:url(#SVGID_3_);fill:#FA3A71;}
	.st91{clip-path:url(#SVGID_3_);fill:#FA3972;}
	.st92{clip-path:url(#SVGID_3_);fill:#FA3872;}
	.st93{clip-path:url(#SVGID_3_);fill:#FA3773;}
	.st94{clip-path:url(#SVGID_3_);fill:#FA3673;}
	.st95{clip-path:url(#SVGID_3_);fill:#FA3574;}
	.st96{clip-path:url(#SVGID_3_);fill:#FA3475;}
	.st97{clip-path:url(#SVGID_3_);fill:#FA3375;}
	.st98{clip-path:url(#SVGID_3_);fill:#FA3276;}
	.st99{clip-path:url(#SVGID_3_);fill:#FA3176;}
	.st100{clip-path:url(#SVGID_3_);fill:#FA3077;}
	.st101{clip-path:url(#SVGID_3_);fill:#FA2F77;}
	.st102{clip-path:url(#SVGID_3_);fill:#F92E78;}
	.st103{clip-path:url(#SVGID_3_);fill:#F92D79;}
	.st104{clip-path:url(#SVGID_3_);fill:#F92C79;}
	.st105{clip-path:url(#SVGID_3_);fill:#F92B7A;}
	.st106{clip-path:url(#SVGID_3_);fill:#F92A7A;}
	.st107{clip-path:url(#SVGID_3_);fill:#F9297B;}
	.st108{clip-path:url(#SVGID_3_);fill:#F9287B;}
	.st109{clip-path:url(#SVGID_3_);fill:#F9277C;}
	.st110{clip-path:url(#SVGID_3_);fill:#F9267D;}
	.st111{clip-path:url(#SVGID_3_);fill:#F9257D;}
	.st112{clip-path:url(#SVGID_3_);fill:#F9247E;}
	.st113{clip-path:url(#SVGID_3_);fill:#F9237E;}
	.st114{clip-path:url(#SVGID_3_);fill:#F9227F;}
	.st115{clip-path:url(#SVGID_3_);fill:#F9217F;}
	.st116{clip-path:url(#SVGID_3_);fill:#F92080;}
	.st117{clip-path:url(#SVGID_3_);fill:#F82081;}
	.st118{clip-path:url(#SVGID_3_);fill:#F72082;}
	.st119{clip-path:url(#SVGID_3_);fill:#F62083;}
	.st120{clip-path:url(#SVGID_3_);fill:#F52084;}
	.st121{clip-path:url(#SVGID_3_);fill:#F42085;}
	.st122{clip-path:url(#SVGID_3_);fill:#F32086;}
	.st123{clip-path:url(#SVGID_3_);fill:#F22086;}
	.st124{clip-path:url(#SVGID_3_);fill:#F11F87;}
	.st125{clip-path:url(#SVGID_3_);fill:#F01F88;}
	.st126{clip-path:url(#SVGID_3_);fill:#EF1F89;}
	.st127{clip-path:url(#SVGID_3_);fill:#EE1F8A;}
	.st128{clip-path:url(#SVGID_3_);fill:#ED1F8B;}
	.st129{clip-path:url(#SVGID_3_);fill:#EC1F8C;}
	.st130{clip-path:url(#SVGID_3_);fill:#EB1F8D;}
	.st131{clip-path:url(#SVGID_3_);fill:#EA1F8E;}
	.st132{clip-path:url(#SVGID_3_);fill:#E91F8F;}
	.st133{clip-path:url(#SVGID_3_);fill:#E81F90;}
	.st134{clip-path:url(#SVGID_3_);fill:#E71F91;}
	.st135{clip-path:url(#SVGID_3_);fill:#E61F92;}
	.st136{clip-path:url(#SVGID_3_);fill:#E51F92;}
	.st137{clip-path:url(#SVGID_3_);fill:#E41F93;}
	.st138{clip-path:url(#SVGID_3_);fill:#E31F94;}
	.st139{clip-path:url(#SVGID_3_);fill:#E21E95;}
	.st140{clip-path:url(#SVGID_3_);fill:#E11E96;}
	.st141{clip-path:url(#SVGID_3_);fill:#E01E97;}
	.st142{clip-path:url(#SVGID_3_);fill:#DF1E98;}
	.st143{clip-path:url(#SVGID_3_);fill:#DE1E99;}
	.st144{clip-path:url(#SVGID_3_);fill:#DD1E9A;}
	.st145{clip-path:url(#SVGID_3_);fill:#DC1E9B;}
	.st146{clip-path:url(#SVGID_3_);fill:#DB1E9C;}
	.st147{clip-path:url(#SVGID_3_);fill:#DA1E9D;}
	.st148{clip-path:url(#SVGID_3_);fill:#D91E9D;}
	.st149{clip-path:url(#SVGID_3_);fill:#D81E9E;}
	.st150{clip-path:url(#SVGID_3_);fill:#D71E9F;}
	.st151{clip-path:url(#SVGID_3_);fill:#D61EA0;}
	.st152{clip-path:url(#SVGID_3_);fill:#D51EA1;}
	.st153{clip-path:url(#SVGID_3_);fill:#D41EA2;}
	.st154{clip-path:url(#SVGID_3_);fill:#D31EA3;}
	.st155{clip-path:url(#SVGID_3_);fill:#D11DA4;}
	.st156{clip-path:url(#SVGID_3_);fill:#D01DA5;}
	.st157{clip-path:url(#SVGID_3_);fill:#CF1DA6;}
	.st158{clip-path:url(#SVGID_3_);fill:#CE1DA7;}
	.st159{clip-path:url(#SVGID_3_);fill:#CD1DA8;}
	.st160{clip-path:url(#SVGID_3_);fill:#CC1DA9;}
	.st161{clip-path:url(#SVGID_3_);fill:#CB1DA9;}
	.st162{clip-path:url(#SVGID_3_);fill:#CA1DAA;}
	.st163{clip-path:url(#SVGID_3_);fill:#C91DAB;}
	.st164{clip-path:url(#SVGID_3_);fill:#C81DAC;}
	.st165{clip-path:url(#SVGID_3_);fill:#C71DAD;}
	.st166{clip-path:url(#SVGID_3_);fill:#C61DAE;}
	.st167{clip-path:url(#SVGID_3_);fill:#C51DAF;}
	.st168{clip-path:url(#SVGID_3_);fill:#C41DB0;}
	.st169{clip-path:url(#SVGID_3_);fill:#C31DB1;}
	.st170{clip-path:url(#SVGID_3_);fill:#C21CB2;}
	.st171{clip-path:url(#SVGID_3_);fill:#C11CB3;}
	.st172{clip-path:url(#SVGID_3_);fill:#C01CB4;}
	.st173{clip-path:url(#SVGID_3_);fill:#BF1CB5;}
	.st174{clip-path:url(#SVGID_3_);fill:#BE1CB5;}
	.st175{clip-path:url(#SVGID_3_);fill:#BD1CB6;}
	.st176{clip-path:url(#SVGID_3_);fill:#BC1CB7;}
	.st177{clip-path:url(#SVGID_3_);fill:#BB1CB8;}
	.st178{clip-path:url(#SVGID_3_);fill:#BA1CB9;}
	.st179{clip-path:url(#SVGID_3_);fill:#B91CBA;}
	.st180{clip-path:url(#SVGID_3_);fill:#B81CBB;}
	.st181{clip-path:url(#SVGID_3_);fill:#B71CBC;}
	.st182{clip-path:url(#SVGID_3_);fill:#B61CBD;}
	.st183{clip-path:url(#SVGID_3_);fill:#B51CBE;}
	.st184{clip-path:url(#SVGID_3_);fill:#B41CBF;}
	.st185{clip-path:url(#SVGID_3_);fill:#B31BC0;}
	.st186{clip-path:url(#SVGID_3_);fill:#B21BC0;}
	.st187{clip-path:url(#SVGID_3_);fill:#B11BC1;}
	.st188{clip-path:url(#SVGID_3_);fill:#B01BC2;}
	.st189{clip-path:url(#SVGID_3_);fill:#AF1BC3;}
	.st190{clip-path:url(#SVGID_3_);fill:#AE1BC4;}
	.st191{clip-path:url(#SVGID_3_);fill:#AD1BC5;}
	.st192{clip-path:url(#SVGID_3_);fill:#AC1BC6;}
	.st193{fill:#FFFFFF;}
</style>
<g>
	<g>
		<path class="st0" d="M674.64,58.58H38.97C18.83,58.58,2.5,74.9,2.5,95.04v843.32c0,20.14,16.33,36.46,36.47,36.46h635.67
			c20.14,0,36.47-16.33,36.47-36.46V95.04C711.1,74.9,694.78,58.58,674.64,58.58z"/>
		<linearGradient id="SVGID_1_" gradientUnits="userSpaceOnUse" x1="0" y1="516.7012" x2="713.6021" y2="516.7012">
			<stop  offset="0" style="stop-color:#FD933F"/>
			<stop  offset="0.6367" style="stop-color:#F92080"/>
			<stop  offset="1" style="stop-color:#AC1BC6"/>
		</linearGradient>
		<path class="st1" d="M674.64,977.33H38.96C17.48,977.33,0,959.85,0,938.36V95.04c0-21.49,17.48-38.97,38.96-38.97h635.67
			c21.49,0,38.97,17.48,38.97,38.97v843.32C713.6,959.85,696.12,977.33,674.64,977.33z M38.96,61.08C20.24,61.08,5,76.31,5,95.04
			v843.32c0,18.73,15.24,33.96,33.96,33.96h635.67c18.73,0,33.97-15.24,33.97-33.96V95.04c0-18.73-15.24-33.97-33.97-33.97H38.96z"
			/>
	</g>
	<g>
		<g>
			<defs>
				<path id="SVGID_2_" d="M356.8,0c-32.35,0-58.58,26.23-58.58,58.58c0,32.35,26.23,58.58,58.58,58.58s58.58-26.23,58.58-58.58
					C415.38,26.23,389.15,0,356.8,0z"/>
			</defs>
			<clipPath id="SVGID_3_">
				<use xlink:href="#SVGID_2_"  style="overflow:visible;"/>
			</clipPath>
			<path class="st2" d="M298.23,0v117.15V0z"/>
			<rect x="298.23" y="0" class="st2" width="0.65" height="117.15"/>
			<rect x="298.87" y="0" class="st3" width="0.65" height="117.15"/>
			<rect x="299.52" y="0" class="st4" width="0.65" height="117.15"/>
			<rect x="300.17" y="0" class="st5" width="0.65" height="117.15"/>
			<rect x="300.82" y="0" class="st6" width="0.65" height="117.15"/>
			<rect x="301.47" y="0" class="st7" width="0.65" height="117.15"/>
			<rect x="302.12" y="0" class="st8" width="0.65" height="117.15"/>
			<rect x="302.77" y="0" class="st9" width="0.65" height="117.15"/>
			<rect x="303.41" y="0" class="st10" width="0.65" height="117.15"/>
			<rect x="304.06" y="0" class="st11" width="0.65" height="117.15"/>
			<rect x="304.71" y="0" class="st12" width="0.65" height="117.15"/>
			<rect x="305.36" y="0" class="st13" width="0.65" height="117.15"/>
			<rect x="306.01" y="0" class="st14" width="0.65" height="117.15"/>
			<rect x="306.66" y="0" class="st15" width="0.65" height="117.15"/>
			<rect x="307.31" y="0" class="st16" width="0.65" height="117.15"/>
			<rect x="307.95" y="0" class="st17" width="0.65" height="117.15"/>
			<rect x="308.6" y="0" class="st18" width="0.65" height="117.15"/>
			<rect x="309.25" y="0" class="st19" width="0.65" height="117.15"/>
			<rect x="309.9" y="0" class="st20" width="0.65" height="117.15"/>
			<rect x="310.55" y="0" class="st21" width="0.65" height="117.15"/>
			<rect x="311.2" y="0" class="st22" width="0.65" height="117.15"/>
			<rect x="311.85" y="0" class="st23" width="0.65" height="117.15"/>
			<rect x="312.5" y="0" class="st24" width="0.65" height="117.15"/>
			<rect x="313.14" y="0" class="st25" width="0.65" height="117.15"/>
			<rect x="313.79" y="0" class="st26" width="0.65" height="117.15"/>
			<rect x="314.44" y="0" class="st27" width="0.65" height="117.15"/>
			<rect x="315.09" y="0" class="st28" width="0.65" height="117.15"/>
			<rect x="315.74" y="0" class="st29" width="0.65" height="117.15"/>
			<rect x="316.39" y="0" class="st30" width="0.65" height="117.15"/>
			<rect x="317.04" y="0" class="st31" width="0.65" height="117.15"/>
			<rect x="317.68" y="0" class="st32" width="0.65" height="117.15"/>
			<rect x="318.33" y="0" class="st33" width="0.65" height="117.15"/>
			<rect x="318.98" y="0" class="st34" width="0.65" height="117.15"/>
			<rect x="319.63" y="0" class="st35" width="0.65" height="117.15"/>
			<rect x="320.28" y="0" class="st36" width="0.65" height="117.15"/>
			<rect x="320.93" y="0" class="st37" width="0.65" height="117.15"/>
			<rect x="321.58" y="0" class="st38" width="0.65" height="117.15"/>
			<rect x="322.22" y="0" class="st39" width="0.65" height="117.15"/>
			<rect x="322.87" y="0" class="st40" width="0.65" height="117.15"/>
			<rect x="323.52" y="0" class="st41" width="0.65" height="117.15"/>
			<rect x="324.17" y="0" class="st42" width="0.65" height="117.15"/>
			<rect x="324.82" y="0" class="st43" width="0.65" height="117.15"/>
			<rect x="325.47" y="0" class="st44" width="0.65" height="117.15"/>
			<rect x="326.12" y="0" class="st45" width="0.65" height="117.15"/>
			<rect x="326.77" y="0" class="st46" width="0.65" height="117.15"/>
			<rect x="327.41" y="0" class="st47" width="0.65" height="117.15"/>
			<rect x="328.06" y="0" class="st48" width="0.65" height="117.15"/>
			<rect x="328.71" y="0" class="st49" width="0.65" height="117.15"/>
			<rect x="329.36" y="0" class="st50" width="0.65" height="117.15"/>
			<rect x="330.01" y="0" class="st51" width="0.65" height="117.15"/>
			<rect x="330.66" y="0" class="st52" width="0.65" height="117.15"/>
			<rect x="331.31" y="0" class="st53" width="0.65" height="117.15"/>
			<rect x="331.95" y="0" class="st54" width="0.65" height="117.15"/>
			<rect x="332.6" y="0" class="st55" width="0.65" height="117.15"/>
			<rect x="333.25" y="0" class="st56" width="0.65" height="117.15"/>
			<rect x="333.9" y="0" class="st57" width="0.65" height="117.15"/>
			<rect x="334.55" y="0" class="st58" width="0.65" height="117.15"/>
			<rect x="335.2" y="0" class="st59" width="0.65" height="117.15"/>
			<rect x="335.85" y="0" class="st60" width="0.65" height="117.15"/>
			<rect x="336.49" y="0" class="st61" width="0.65" height="117.15"/>
			<rect x="337.14" y="0" class="st62" width="0.65" height="117.15"/>
			<rect x="337.79" y="0" class="st63" width="0.65" height="117.15"/>
			<rect x="338.44" y="0" class="st64" width="0.65" height="117.15"/>
			<rect x="339.09" y="0" class="st65" width="0.65" height="117.15"/>
			<rect x="339.74" y="0" class="st66" width="0.65" height="117.15"/>
			<rect x="340.39" y="0" class="st67" width="0.65" height="117.15"/>
			<rect x="341.03" y="0" class="st68" width="0.65" height="117.15"/>
			<rect x="341.68" y="0" class="st69" width="0.65" height="117.15"/>
			<rect x="342.33" y="0" class="st70" width="0.65" height="117.15"/>
			<rect x="342.98" y="0" class="st71" width="0.65" height="117.15"/>
			<rect x="343.63" y="0" class="st72" width="0.65" height="117.15"/>
			<rect x="344.28" y="0" class="st73" width="0.65" height="117.15"/>
			<rect x="344.93" y="0" class="st74" width="0.65" height="117.15"/>
			<rect x="345.58" y="0" class="st75" width="0.65" height="117.15"/>
			<rect x="346.22" y="0" class="st76" width="0.65" height="117.15"/>
			<rect x="346.87" y="0" class="st77" width="0.65" height="117.15"/>
			<rect x="347.52" y="0" class="st78" width="0.65" height="117.15"/>
			<rect x="348.17" y="0" class="st79" width="0.65" height="117.15"/>
			<rect x="348.82" y="0" class="st80" width="0.65" height="117.15"/>
			<rect x="349.47" y="0" class="st81" width="0.65" height="117.15"/>
			<rect x="350.12" y="0" class="st82" width="0.65" height="117.15"/>
			<rect x="350.76" y="0" class="st83" width="0.65" height="117.15"/>
			<rect x="351.41" y="0" class="st84" width="0.65" height="117.15"/>
			<rect x="352.06" y="0" class="st85" width="0.65" height="117.15"/>
			<rect x="352.71" y="0" class="st86" width="0.65" height="117.15"/>
			<rect x="353.36" y="0" class="st87" width="0.65" height="117.15"/>
			<rect x="354.01" y="0" class="st88" width="0.65" height="117.15"/>
			<rect x="354.66" y="0" class="st89" width="0.65" height="117.15"/>
			<rect x="355.3" y="0" class="st90" width="0.65" height="117.15"/>
			<rect x="355.95" y="0" class="st91" width="0.65" height="117.15"/>
			<rect x="356.6" y="0" class="st92" width="0.65" height="117.15"/>
			<rect x="357.25" y="0" class="st93" width="0.65" height="117.15"/>
			<rect x="357.9" y="0" class="st94" width="0.65" height="117.15"/>
			<rect x="358.55" y="0" class="st95" width="0.65" height="117.15"/>
			<rect x="359.2" y="0" class="st96" width="0.65" height="117.15"/>
			<rect x="359.85" y="0" class="st97" width="0.65" height="117.15"/>
			<rect x="360.49" y="0" class="st98" width="0.65" height="117.15"/>
			<rect x="361.14" y="0" class="st99" width="0.65" height="117.15"/>
			<rect x="361.79" y="0" class="st100" width="0.65" height="117.15"/>
			<rect x="362.44" y="0" class="st101" width="0.65" height="117.15"/>
			<rect x="363.09" y="0" class="st102" width="0.65" height="117.15"/>
			<rect x="363.74" y="0" class="st103" width="0.65" height="117.15"/>
			<rect x="364.39" y="0" class="st104" width="0.65" height="117.15"/>
			<rect x="365.03" y="0" class="st105" width="0.65" height="117.15"/>
			<rect x="365.68" y="0" class="st106" width="0.65" height="117.15"/>
			<rect x="366.33" y="0" class="st107" width="0.65" height="117.15"/>
			<rect x="366.98" y="0" class="st108" width="0.65" height="117.15"/>
			<rect x="367.63" y="0" class="st109" width="0.65" height="117.15"/>
			<rect x="368.28" y="0" class="st110" width="0.65" height="117.15"/>
			<rect x="368.93" y="0" class="st111" width="0.65" height="117.15"/>
			<rect x="369.57" y="0" class="st112" width="0.65" height="117.15"/>
			<rect x="370.22" y="0" class="st113" width="0.65" height="117.15"/>
			<rect x="370.87" y="0" class="st114" width="0.65" height="117.15"/>
			<rect x="371.52" y="0" class="st115" width="0.65" height="117.15"/>
			<rect x="372.17" y="0" class="st116" width="0.65" height="117.15"/>
			<rect x="372.82" y="0" class="st116" width="0.55" height="117.15"/>
			<rect x="373.37" y="0" class="st117" width="0.55" height="117.15"/>
			<rect x="373.92" y="0" class="st118" width="0.55" height="117.15"/>
			<rect x="374.48" y="0" class="st119" width="0.55" height="117.15"/>
			<rect x="375.03" y="0" class="st120" width="0.55" height="117.15"/>
			<rect x="375.58" y="0" class="st121" width="0.55" height="117.15"/>
			<rect x="376.13" y="0" class="st122" width="0.55" height="117.15"/>
			<rect x="376.69" y="0" class="st123" width="0.55" height="117.15"/>
			<rect x="377.24" y="0" class="st124" width="0.55" height="117.15"/>
			<rect x="377.79" y="0" class="st125" width="0.55" height="117.15"/>
			<rect x="378.34" y="0" class="st126" width="0.55" height="117.15"/>
			<rect x="378.9" y="0" class="st127" width="0.55" height="117.15"/>
			<rect x="379.45" y="0" class="st128" width="0.55" height="117.15"/>
			<rect x="380" y="0" class="st129" width="0.55" height="117.15"/>
			<rect x="380.56" y="0" class="st130" width="0.55" height="117.15"/>
			<rect x="381.11" y="0" class="st131" width="0.55" height="117.15"/>
			<rect x="381.66" y="0" class="st132" width="0.55" height="117.15"/>
			<rect x="382.21" y="0" class="st133" width="0.55" height="117.15"/>
			<rect x="382.77" y="0" class="st134" width="0.55" height="117.15"/>
			<rect x="383.32" y="0" class="st135" width="0.55" height="117.15"/>
			<rect x="383.87" y="0" class="st136" width="0.55" height="117.15"/>
			<rect x="384.42" y="0" class="st137" width="0.55" height="117.15"/>
			<rect x="384.98" y="0" class="st138" width="0.55" height="117.15"/>
			<rect x="385.53" y="0" class="st139" width="0.55" height="117.15"/>
			<rect x="386.08" y="0" class="st140" width="0.55" height="117.15"/>
			<rect x="386.64" y="0" class="st141" width="0.55" height="117.15"/>
			<rect x="387.19" y="0" class="st142" width="0.55" height="117.15"/>
			<rect x="387.74" y="0" class="st143" width="0.55" height="117.15"/>
			<rect x="388.29" y="0" class="st144" width="0.55" height="117.15"/>
			<rect x="388.85" y="0" class="st145" width="0.55" height="117.15"/>
			<rect x="389.4" y="0" class="st146" width="0.55" height="117.15"/>
			<rect x="389.95" y="0" class="st147" width="0.55" height="117.15"/>
			<rect x="390.5" y="0" class="st148" width="0.55" height="117.15"/>
			<rect x="391.06" y="0" class="st149" width="0.55" height="117.15"/>
			<rect x="391.61" y="0" class="st150" width="0.55" height="117.15"/>
			<rect x="392.16" y="0" class="st151" width="0.55" height="117.15"/>
			<rect x="392.72" y="0" class="st152" width="0.55" height="117.15"/>
			<rect x="393.27" y="0" class="st153" width="0.55" height="117.15"/>
			<rect x="393.82" y="0" class="st154" width="0.55" height="117.15"/>
			<rect x="394.37" y="0" class="st155" width="0.55" height="117.15"/>
			<rect x="394.93" y="0" class="st156" width="0.55" height="117.15"/>
			<rect x="395.48" y="0" class="st157" width="0.55" height="117.15"/>
			<rect x="396.03" y="0" class="st158" width="0.55" height="117.15"/>
			<rect x="396.58" y="0" class="st159" width="0.55" height="117.15"/>
			<rect x="397.14" y="0" class="st160" width="0.55" height="117.15"/>
			<rect x="397.69" y="0" class="st161" width="0.55" height="117.15"/>
			<rect x="398.24" y="0" class="st162" width="0.55" height="117.15"/>
			<rect x="398.8" y="0" class="st163" width="0.55" height="117.15"/>
			<rect x="399.35" y="0" class="st164" width="0.55" height="117.15"/>
			<rect x="399.9" y="0" class="st165" width="0.55" height="117.15"/>
			<rect x="400.45" y="0" class="st166" width="0.55" height="117.15"/>
			<rect x="401.01" y="0" class="st167" width="0.55" height="117.15"/>
			<rect x="401.56" y="0" class="st168" width="0.55" height="117.15"/>
			<rect x="402.11" y="0" class="st169" width="0.55" height="117.15"/>
			<rect x="402.66" y="0" class="st170" width="0.55" height="117.15"/>
			<rect x="403.22" y="0" class="st171" width="0.55" height="117.15"/>
			<rect x="403.77" y="0" class="st172" width="0.55" height="117.15"/>
			<rect x="404.32" y="0" class="st173" width="0.55" height="117.15"/>
			<rect x="404.88" y="0" class="st174" width="0.55" height="117.15"/>
			<rect x="405.43" y="0" class="st175" width="0.55" height="117.15"/>
			<rect x="405.98" y="0" class="st176" width="0.55" height="117.15"/>
			<rect x="406.53" y="0" class="st177" width="0.55" height="117.15"/>
			<rect x="407.09" y="0" class="st178" width="0.55" height="117.15"/>
			<rect x="407.64" y="0" class="st179" width="0.55" height="117.15"/>
			<rect x="408.19" y="0" class="st180" width="0.55" height="117.15"/>
			<rect x="408.74" y="0" class="st181" width="0.55" height="117.15"/>
			<rect x="409.3" y="0" class="st182" width="0.55" height="117.15"/>
			<rect x="409.85" y="0" class="st183" width="0.55" height="117.15"/>
			<rect x="410.4" y="0" class="st184" width="0.55" height="117.15"/>
			<rect x="410.95" y="0" class="st185" width="0.55" height="117.15"/>
			<rect x="411.51" y="0" class="st186" width="0.55" height="117.15"/>
			<rect x="412.06" y="0" class="st187" width="0.55" height="117.15"/>
			<rect x="412.61" y="0" class="st188" width="0.55" height="117.15"/>
			<rect x="413.17" y="0" class="st189" width="0.55" height="117.15"/>
			<rect x="413.72" y="0" class="st190" width="0.55" height="117.15"/>
			<rect x="414.27" y="0" class="st191" width="0.55" height="117.15"/>
			<rect x="414.82" y="0" class="st192" width="0.55" height="117.15"/>
			<path class="st192" d="M415.38,117.15V0V117.15z"/>
		</g>
	</g>
	<g>
		<g>
			<path class="st193" d="M351.11,38.49h16.94v6.37h-11.8l-1.48,6.56c0.41-0.11,0.81-0.2,1.2-0.26c0.39-0.06,0.77-0.09,1.13-0.09
				c3.28,0,6,1.12,8.17,3.36c2.17,2.24,3.26,5.1,3.26,8.59c0,3.52-1.2,6.49-3.6,8.91c-2.4,2.42-5.32,3.63-8.76,3.63
				c-3.08,0-5.73-0.88-7.94-2.63s-3.66-4.15-4.35-7.2h7.23c0.56,1.13,1.29,1.99,2.2,2.57c0.91,0.58,1.91,0.87,3.01,0.87
				c1.52,0,2.82-0.55,3.88-1.65c1.07-1.1,1.6-2.51,1.6-4.23c0-1.67-0.5-3.04-1.49-4.12c-0.99-1.07-2.19-1.61-3.6-1.61
				c-0.75,0-1.5,0.19-2.23,0.57c-0.73,0.38-1.45,0.94-2.15,1.7l-5.6-1.25L351.11,38.49z"/>
		</g>
	</g>
</g>
</svg>
