<?xml version="1.0" encoding="utf-8"?>
<!-- Generator: Adobe Illustrator 23.0.2, SVG Export Plug-In . SVG Version: 6.00 Build 0)  -->
<svg version="1.1" id="Capa_1" xmlns="http://www.w3.org/2000/svg" xmlns:xlink="http://www.w3.org/1999/xlink" x="0px" y="0px"
	 viewBox="0 0 92.18 92.17" style="enable-background:new 0 0 92.18 92.17;" xml:space="preserve">
<style type="text/css">
	.st0{fill:url(#SVGID_1_);}
	.st1{fill:url(#SVGID_2_);}
	.st2{fill:#FFFFFF;}
</style>
<g>
	<g>
		<g>
			<linearGradient id="SVGID_1_" gradientUnits="userSpaceOnUse" x1="-274.557" y1="46.0873" x2="178.1677" y2="46.0873">
				<stop  offset="0" style="stop-color:#FD933F"/>
				<stop  offset="0.6367" style="stop-color:#F92080"/>
				<stop  offset="1" style="stop-color:#AC1BC6"/>
			</linearGradient>
			<circle class="st0" cx="46.09" cy="46.09" r="37.19"/>
		</g>
		<g>
			<linearGradient id="SVGID_2_" gradientUnits="userSpaceOnUse" x1="-274.557" y1="46.0873" x2="178.1677" y2="46.0873">
				<stop  offset="0" style="stop-color:#FD933F"/>
				<stop  offset="0.6367" style="stop-color:#F92080"/>
				<stop  offset="1" style="stop-color:#AC1BC6"/>
			</linearGradient>
			<path class="st1" d="M46.09,92.17C20.67,92.17,0,71.5,0,46.09C0,20.67,20.67,0,46.09,0s46.09,20.67,46.09,46.09
				C92.18,71.5,71.5,92.17,46.09,92.17z M46.09,2.56c-24,0-43.53,19.53-43.53,43.53c0,24,19.53,43.53,43.53,43.53
				s43.53-19.53,43.53-43.53C89.61,22.09,70.09,2.56,46.09,2.56z"/>
		</g>
	</g>
</g>
<g>
	<path class="st2" d="M36.19,42.67c-0.01,0.1-0.02,0.19-0.02,0.27c0,2.08,0.01,6.58,0.01,6.58s8.66,0,9.13,0
		c0,0.68-0.8,3.4-3.35,5.13c-1.5,1.01-3.18,1.48-4.96,1.59c-1.25,0.08-2.49-0.05-3.7-0.43c-3.81-1.22-6.64-4.67-7.03-8.86
		c-0.1-1.04-0.03-2.07,0.21-3.09c1.13-4.96,5.83-8.64,11.21-7.85c2.39,0.35,3.76,1.35,5.01,2.42c1.65-1.65,3.28-3.28,4.96-4.96
		c-0.41-0.29-1.35-1.25-3.02-2.22c-2.5-1.45-5.2-2.17-8.09-2.2c-0.54-0.01-1.09,0.02-1.63,0.05c-0.95,0.04-1.89,0.2-2.81,0.44
		c-3.69,0.94-6.75,2.88-9.15,5.83c-2.3,2.84-3.54,6.1-3.77,9.74c-0.1,1.54,0.02,3.08,0.36,4.59c0.96,4.22,3.18,7.63,6.67,10.19
		c2.71,1.98,5.76,3.04,9.1,3.22c1.88,0.1,3.76-0.07,5.59-0.55c3.42-0.89,6.25-2.68,8.39-5.51c3.09-4.11,3.83-9.37,2.92-14.37
		C46.86,42.67,41.54,42.67,36.19,42.67z"/>
	<polygon class="st2" points="72.84,42.89 67.07,42.89 67.07,37.11 67.07,36.94 66.9,36.94 62.58,36.94 62.41,36.94 62.41,37.11 
		62.41,42.89 56.63,42.89 56.47,42.89 56.47,43.06 56.47,47.37 56.47,47.54 56.63,47.54 62.41,47.54 62.41,53.32 62.41,53.49 
		62.58,53.49 66.9,53.49 67.07,53.49 67.07,53.32 67.07,47.54 72.84,47.54 73.01,47.54 73.01,47.37 73.01,43.06 73.01,42.89 	"/>
</g>
</svg>
