<?xml version="1.0" encoding="utf-8"?>
<!-- Generator: Adobe Illustrator 23.0.2, SVG Export Plug-In . SVG Version: 6.00 Build 0)  -->
<svg version="1.1" id="Capa_1" xmlns="http://www.w3.org/2000/svg" xmlns:xlink="http://www.w3.org/1999/xlink" x="0px" y="0px"
	 viewBox="0 0 352.1 57.34" style="enable-background:new 0 0 352.1 57.34;" xml:space="preserve">
<style type="text/css">
	.st0{fill:#E8007E;}
	.st1{fill:#FFFFFF;}
</style>
<g>
	<path class="st0" d="M323.43,57.34H28.67C12.84,57.34,0,44.51,0,28.67l0,0C0,12.84,12.84,0,28.67,0h294.76
		c15.83,0,28.67,12.84,28.67,28.67l0,0C352.1,44.51,339.26,57.34,323.43,57.34z"/>
	<g>
		<g>
			<path class="st1" d="M128.57,20.53h2.77v14.65h-2.77V20.53z"/>
			<path class="st1" d="M134.49,20.53h2.67l6.27,9.64v-9.64h2.79v14.65h-2.68l-6.26-9.61v9.61h-2.79V20.53z"/>
			<path class="st1" d="M163.09,22.92l-1.96,1.94c-1.24-1.32-2.69-1.97-4.35-1.97c-1.44,0-2.65,0.48-3.62,1.43s-1.46,2.12-1.46,3.49
				c0,1.41,0.51,2.61,1.52,3.6c1.01,0.98,2.26,1.47,3.74,1.47c0.96,0,1.78-0.2,2.44-0.61c0.66-0.41,1.2-1.04,1.6-1.9h-4.24v-2.62
				h7.37l0.02,0.62c0,1.28-0.33,2.5-1,3.65c-0.66,1.15-1.52,2.03-2.58,2.63c-1.06,0.6-2.29,0.91-3.71,0.91
				c-1.52,0-2.88-0.33-4.07-0.99c-1.19-0.66-2.13-1.6-2.83-2.82c-0.69-1.22-1.04-2.54-1.04-3.96c0-1.94,0.64-3.62,1.92-5.06
				c1.52-1.71,3.5-2.56,5.94-2.56c1.28,0,2.47,0.24,3.58,0.71C161.28,21.27,162.2,21.96,163.09,22.92z"/>
			<path class="st1" d="M166.89,20.53h2.96c1.62,0,2.77,0.14,3.46,0.43c0.69,0.29,1.24,0.77,1.66,1.44
				c0.42,0.67,0.63,1.46,0.63,2.38c0,0.96-0.23,1.77-0.69,2.42c-0.46,0.65-1.16,1.14-2.09,1.47l3.47,6.51h-3.05l-3.29-6.21h-0.26
				v6.21h-2.79V20.53z M169.68,26.26h0.87c0.89,0,1.5-0.12,1.83-0.35c0.33-0.23,0.5-0.62,0.5-1.16c0-0.32-0.08-0.6-0.25-0.83
				c-0.17-0.24-0.39-0.41-0.67-0.51c-0.28-0.1-0.79-0.16-1.53-0.16h-0.76V26.26z"/>
			<path class="st1" d="M178.54,20.53h8v2.73h-5.23v2.65h5.23v2.68h-5.23v3.85h5.23v2.74h-8V20.53z"/>
			<path class="st1" d="M196.83,22.53l-2.07,1.82c-0.73-1.01-1.46-1.51-2.22-1.51c-0.37,0-0.67,0.1-0.9,0.29
				c-0.23,0.2-0.35,0.42-0.35,0.66c0,0.25,0.08,0.48,0.25,0.7c0.23,0.29,0.91,0.92,2.05,1.88c1.06,0.89,1.71,1.45,1.94,1.68
				c0.57,0.57,0.97,1.12,1.2,1.64c0.24,0.52,0.35,1.09,0.35,1.71c0,1.2-0.42,2.2-1.25,2.98s-1.92,1.17-3.25,1.17
				c-1.04,0-1.95-0.25-2.73-0.77s-1.44-1.31-1.99-2.41l2.34-1.42c0.71,1.29,1.52,1.94,2.43,1.94c0.48,0,0.88-0.14,1.21-0.42
				c0.33-0.28,0.49-0.6,0.49-0.97c0-0.33-0.12-0.66-0.37-1c-0.25-0.33-0.79-0.84-1.63-1.52c-1.6-1.3-2.63-2.31-3.09-3.01
				s-0.7-1.41-0.7-2.12c0-1.02,0.39-1.89,1.16-2.62c0.77-0.73,1.73-1.09,2.87-1.09c0.73,0,1.43,0.17,2.09,0.51
				C195.34,21.01,196.06,21.63,196.83,22.53z"/>
			<path class="st1" d="M204.22,20.53h2.83l5.64,14.65h-2.9l-1.15-3.02h-5.98l-1.19,3.02h-2.9L204.22,20.53z M205.65,24.42
				l-1.97,5.03h3.92L205.65,24.42z"/>
			<path class="st1" d="M215.03,20.53h2.96c1.62,0,2.77,0.14,3.46,0.43c0.69,0.29,1.24,0.77,1.66,1.44
				c0.42,0.67,0.63,1.46,0.63,2.38c0,0.96-0.23,1.77-0.69,2.42c-0.46,0.65-1.16,1.14-2.09,1.47l3.47,6.51h-3.05l-3.29-6.21h-0.26
				v6.21h-2.79V20.53z M217.82,26.26h0.87c0.89,0,1.5-0.12,1.83-0.35c0.33-0.23,0.5-0.62,0.5-1.16c0-0.32-0.08-0.6-0.25-0.83
				c-0.17-0.24-0.39-0.41-0.67-0.51c-0.28-0.1-0.79-0.16-1.53-0.16h-0.76V26.26z"/>
		</g>
	</g>
</g>
</svg>
